<?xml version="1.0" encoding="utf-8"?>
<!-- Generator: Adobe Illustrator 16.0.0, SVG Export Plug-In . SVG Version: 6.00 Build 0)  -->
<!DOCTYPE svg PUBLIC "-//W3C//DTD SVG 1.1//EN" "http://www.w3.org/Graphics/SVG/1.1/DTD/svg11.dtd">
<svg version="1.1" id="Layer_1" xmlns="http://www.w3.org/2000/svg" xmlns:xlink="http://www.w3.org/1999/xlink" x="0px" y="0px"
	 width="1700.79px" height="1133.86px" viewBox="0 0 1700.79 1133.86" enable-background="new 0 0 1700.79 1133.86"
	 xml:space="preserve">
<path fill="none" stroke="#000000" stroke-miterlimit="10" d="M920.264,96.924c0,40.704,8.424,73.7-32.28,73.7
	s-73.7-32.996-73.7-73.7s32.997-31.73,73.701-31.73C928.688,65.193,920.264,56.22,920.264,96.924z"/>
<circle fill="none" stroke="#000000" stroke-miterlimit="10" cx="887.984" cy="96.924" r="6.378"/>
<path fill="none" stroke="#000000" stroke-miterlimit="10" d="M933.372,231.193c0,49.382,10.221,89.414-39.161,89.414
	c-49.384,0-89.416-40.032-89.416-89.415c0-49.383,40.033-38.496,89.416-38.496C943.593,192.697,933.372,181.81,933.372,231.193z"/>
<circle fill="none" stroke="#000000" stroke-miterlimit="10" cx="901.247" cy="224.248" r="6.378"/>
<circle fill="none" stroke="#000000" stroke-miterlimit="10" cx="559.182" cy="424.857" r="3.685"/>
<circle fill="none" stroke="#000000" stroke-miterlimit="10" cx="339.213" cy="424.857" r="3.685"/>
<circle fill="none" stroke="#000000" stroke-miterlimit="10" cx="555.498" cy="254.777" r="3.686"/>
<circle fill="none" stroke="#000000" stroke-miterlimit="10" cx="314.552" cy="254.777" r="3.687"/>
<circle fill="none" stroke="#000000" stroke-miterlimit="10" cx="77.484" cy="457.79" r="3.826"/>
<circle fill="none" stroke="#000000" stroke-miterlimit="10" cx="77.024" cy="378.668" r="3.826"/>
<circle fill="none" stroke="#000000" stroke-miterlimit="10" cx="224.857" cy="364.44" r="3.826"/>
<circle fill="none" stroke="#000000" stroke-miterlimit="10" cx="221.37" cy="500.674" r="3.826"/>
<rect x="281.019" y="64.353" fill="none" stroke="#000000" stroke-miterlimit="10" width="241.575" height="26"/>
<path fill="none" stroke="#000000" stroke-miterlimit="10" d="M404.166,458.758"/>
<g transform="translate(22.500018499999996, 235.0986185) ">
	<polygon fill="none" stroke="#000000" points="754.896,317.658 718.754,317.658 718.754,331.832 668.439,331.832 668.439,317.659 
		634.424,317.659 634.424,331.832 600.408,331.832 600.408,317.659 566.393,317.659 566.393,331.832 532.377,331.832 
		532.377,317.659 498.361,317.659 498.361,331.832 464.346,331.832 464.346,317.659 430.33,317.659 430.33,331.832 396.314,331.832 
		396.314,317.659 362.297,317.659 362.297,331.832 328.281,331.832 328.281,317.659 294.266,317.659 294.266,331.832 
		260.25,331.832 260.25,317.659 226.234,317.659 226.234,331.832 192.219,331.832 192.219,317.659 158.203,317.659 158.203,331.832 
		124.187,331.832 124.187,317.659 90.172,317.659 90.172,331.832 39.857,331.832 39.857,317.659 3.714,317.659 3.714,273.721 
		-10.458,273.721 -10.458,215.611 3.714,215.611 3.714,181.596 -10.458,181.596 -10.458,147.58 3.714,147.58 3.714,113.564 
		-10.458,113.564 -10.458,79.548 3.714,79.548 3.714,45.533 -10.458,45.533 -10.458,11.517 3.714,11.517 3.714,-22.499 
		-10.458,-22.499 -10.458,-56.514 3.714,-56.514 3.714,-90.532 -10.458,-90.532 -10.458,-148.641 3.714,-148.641 3.714,-192.579 
		39.857,-192.579 39.857,-206.75 90.171,-206.75 90.171,-192.579 124.187,-192.579 124.187,-206.75 158.202,-206.75 
		158.202,-192.579 192.218,-192.579 192.218,-206.75 226.234,-206.75 226.234,-192.579 260.25,-192.579 260.25,-206.75 
		294.266,-206.75 294.266,-192.579 328.281,-192.579 328.281,-206.75 362.297,-206.75 362.297,-192.579 396.313,-192.579 
		396.313,-206.75 430.329,-206.75 430.329,-192.579 464.345,-192.579 464.345,-206.75 498.36,-206.75 498.36,-192.579 
		532.376,-192.579 532.376,-206.75 566.393,-206.75 566.393,-192.579 600.408,-192.579 600.408,-206.75 634.424,-206.75 
		634.424,-192.579 668.439,-192.579 668.439,-206.75 718.754,-206.75 718.754,-192.579 754.896,-192.579 754.896,-148.641 
		769.07,-148.641 769.07,-90.532 754.896,-90.532 754.896,-56.514 769.07,-56.514 769.07,-22.499 754.896,-22.499 754.896,11.517 
		769.07,11.517 769.07,45.533 754.896,45.533 754.896,79.548 769.07,79.548 769.07,113.564 754.896,113.564 754.896,147.58 
		769.07,147.58 769.07,181.596 754.896,181.596 754.896,215.611 769.07,215.611 769.07,273.721 754.896,273.721 	"/>
</g>
<path fill="none" stroke="#000000" stroke-miterlimit="10" d="M692.377,312.077"/>
<rect x="314.49" y="127.092" fill="none" stroke="#000000" stroke-miterlimit="10" width="28.346" height="14.173"/>
<rect x="464.686" y="127.092" fill="none" stroke="#000000" stroke-miterlimit="10" width="28.346" height="14.173"/>
<rect x="314.49" y="200.609" fill="none" stroke="#000000" stroke-miterlimit="10" width="28.346" height="14.173"/>
<rect x="464.686" y="200.609" fill="none" stroke="#000000" stroke-miterlimit="10" width="28.346" height="14.173"/>
<rect x="959.323" y="69.467" fill="none" stroke="#000000" stroke-miterlimit="10" width="28.346" height="56.693"/>
<path fill="none" stroke="#000000" stroke-miterlimit="10" d="M979.163,80.465c0,3.129-2.537,5.667-5.667,5.667l0,0
	c-3.13,0-5.667-2.537-5.667-5.667l0,0c0-3.13,2.537-5.667,5.667-5.667l0,0C976.626,74.798,979.163,77.335,979.163,80.465
	L979.163,80.465z"/>
<rect x="926.578" y="69.467" fill="none" stroke="#000000" stroke-miterlimit="10" width="28.346" height="56.693"/>
<path fill="none" stroke="#000000" stroke-miterlimit="10" d="M946.418,80.465c0,3.129-2.537,5.667-5.667,5.667l0,0
	c-3.13,0-5.667-2.537-5.667-5.667l0,0c0-3.13,2.537-5.667,5.667-5.667l0,0C943.881,74.798,946.418,77.335,946.418,80.465
	L946.418,80.465z"/>
<rect x="961.523" y="127.887" fill="none" stroke="#000000" stroke-miterlimit="10" width="28.346" height="56.693"/>
<path fill="none" stroke="#000000" stroke-miterlimit="10" d="M981.363,138.886c0,3.129-2.537,5.667-5.667,5.667l0,0
	c-3.13,0-5.667-2.537-5.667-5.667l0,0c0-3.13,2.537-5.667,5.667-5.667l0,0C978.826,133.219,981.363,135.756,981.363,138.886
	L981.363,138.886z"/>
<rect x="928.778" y="127.887" fill="none" stroke="#000000" stroke-miterlimit="10" width="28.346" height="56.693"/>
<path fill="none" stroke="#000000" stroke-miterlimit="10" d="M948.618,138.886c0,3.129-2.537,5.667-5.667,5.667l0,0
	c-3.13,0-5.667-2.537-5.667-5.667l0,0c0-3.13,2.537-5.667,5.667-5.667l0,0C946.081,133.219,948.618,135.756,948.618,138.886
	L948.618,138.886z"/>
<circle fill="none" stroke="#000000" stroke-miterlimit="10" cx="153.901" cy="98.594" r="3.687"/>
<circle fill="none" stroke="#000000" stroke-miterlimit="10" cx="68.861" cy="138.279" r="3.687"/>
</svg>
