<?xml version="1.0" encoding="utf-8"?>
<!-- Generator: Adobe Illustrator 16.0.0, SVG Export Plug-In . SVG Version: 6.00 Build 0)  -->
<!DOCTYPE svg PUBLIC "-//W3C//DTD SVG 1.1//EN" "http://www.w3.org/Graphics/SVG/1.1/DTD/svg11.dtd">
<svg version="1.1" id="Layer_1" xmlns="http://www.w3.org/2000/svg" xmlns:xlink="http://www.w3.org/1999/xlink" x="0px" y="0px"
	 width="1700.79px" height="1133.86px" viewBox="0 0 1700.79 1133.86" enable-background="new 0 0 1700.79 1133.86"
	 xml:space="preserve">
<circle fill="none" stroke="#000000" cx="169.181" cy="404.294" r="5.669"/>
<rect x="55.032" y="418.467" fill="none" stroke="#000000" stroke-miterlimit="10" width="484.724" height="297.638"/>
<path fill="none" stroke="#000000" stroke-miterlimit="10" d="M568.104,732.45c0,6.629-5.373,12-12,12H38.686
	c-6.627,0-12-5.371-12-12v-330.33c0-6.627,5.373-12,12-12h517.418c6.627,0,12,5.373,12,12V732.45z"/>
<circle fill="none" stroke="#000000" cx="40.859" cy="404.294" r="5.669"/>
<circle fill="none" stroke="#000000" cx="40.859" cy="484.98" r="5.669"/>
<circle fill="none" stroke="#000000" cx="40.859" cy="648.368" r="5.669"/>
<circle fill="none" stroke="#000000" cx="40.859" cy="567.286" r="5.669"/>
<circle fill="none" stroke="#000000" cx="40.859" cy="730.277" r="5.669"/>
<circle fill="none" stroke="#000000" cx="169.192" cy="730.277" r="5.669"/>
<circle fill="none" stroke="#000000" cx="297.395" cy="730.277" r="5.669"/>
<circle fill="none" stroke="#000000" cx="425.661" cy="730.277" r="5.669"/>
<circle fill="none" stroke="#000000" cx="553.93" cy="730.294" r="5.669"/>
<circle fill="none" stroke="#000000" cx="553.93" cy="648.652" r="5.669"/>
<circle fill="none" stroke="#000000" cx="553.93" cy="567.285" r="5.669"/>
<circle fill="none" stroke="#000000" cx="553.93" cy="485.688" r="5.669"/>
<circle fill="none" stroke="#000000" cx="553.93" cy="404.294" r="5.669"/>
<circle fill="none" stroke="#000000" cx="425.615" cy="404.294" r="5.669"/>
<circle fill="none" stroke="#000000" cx="297.394" cy="404.294" r="5.669"/>
<rect x="606.721" y="424.164" fill="none" stroke="#000000" stroke-miterlimit="10" width="484.724" height="297.638"/>
<path fill="none" stroke="#000000" stroke-miterlimit="10" d="M1119.793,738.147c0,6.629-5.373,12-12,12H590.375
	c-6.627,0-12-5.371-12-12v-330.33c0-6.627,5.373-12,12-12h517.418c6.627,0,12,5.373,12,12V738.147z"/>
<rect x="606.721" y="58.44" fill="none" stroke="#000000" stroke-miterlimit="10" width="484.724" height="297.638"/>
<path fill="none" stroke="#000000" stroke-miterlimit="10" d="M1119.793,372.423c0,6.629-5.373,12-12,12H590.375
	c-6.627,0-12-5.371-12-12V42.094c0-6.627,5.373-12,12-12h517.418c6.627,0,12,5.373,12,12V372.423z"/>
<circle fill="none" stroke="#000000" cx="163.511" cy="38.57" r="5.669"/>
<rect x="49.362" y="52.743" fill="none" stroke="#000000" stroke-miterlimit="10" width="484.724" height="297.638"/>
<path fill="none" stroke="#000000" stroke-miterlimit="10" d="M562.434,366.727c0,6.629-5.373,12-12,12H33.016
	c-6.627,0-12-5.371-12-12V36.397c0-6.627,5.373-12,12-12h517.418c6.627,0,12,5.373,12,12V366.727z"/>
<circle fill="none" stroke="#000000" cx="35.189" cy="38.57" r="5.669"/>
<circle fill="none" stroke="#000000" cx="35.189" cy="119.256" r="5.669"/>
<circle fill="none" stroke="#000000" cx="35.189" cy="282.645" r="5.669"/>
<circle fill="none" stroke="#000000" cx="35.189" cy="201.562" r="5.669"/>
<circle fill="none" stroke="#000000" cx="35.189" cy="364.554" r="5.669"/>
<circle fill="none" stroke="#000000" cx="163.522" cy="364.554" r="5.669"/>
<circle fill="none" stroke="#000000" cx="291.725" cy="364.554" r="5.669"/>
<circle fill="none" stroke="#000000" cx="419.991" cy="364.554" r="5.669"/>
<circle fill="none" stroke="#000000" cx="548.26" cy="364.57" r="5.669"/>
<circle fill="none" stroke="#000000" cx="548.26" cy="282.929" r="5.669"/>
<circle fill="none" stroke="#000000" cx="548.26" cy="201.562" r="5.669"/>
<circle fill="none" stroke="#000000" cx="548.26" cy="119.965" r="5.669"/>
<circle fill="none" stroke="#000000" cx="548.26" cy="38.57" r="5.669"/>
<circle fill="none" stroke="#000000" cx="419.945" cy="38.57" r="5.669"/>
<circle fill="none" stroke="#000000" cx="291.724" cy="38.57" r="5.669"/>
<circle fill="none" stroke="#000000" cx="1152.189" cy="431.014" r="5.67"/>
<path fill="none" stroke="#000000" stroke-miterlimit="10" d="M1480.346,32.091c6.629,0,12,5.373,12,12v517.418
	c0,6.627-5.371,12-12,12h-330.329c-6.628,0-12-5.373-12-12l-0.001-517.418c0-6.627,5.373-12,12-12H1480.346z"/>
<circle fill="none" stroke="#000000" cx="1152.189" cy="559.335" r="5.669"/>
<circle fill="none" stroke="#000000" cx="1232.876" cy="559.335" r="5.669"/>
<circle fill="none" stroke="#000000" cx="1396.264" cy="559.335" r="5.669"/>
<circle fill="none" stroke="#000000" cx="1315.182" cy="559.335" r="5.669"/>
<circle fill="none" stroke="#000000" cx="1478.173" cy="559.335" r="5.669"/>
<circle fill="none" stroke="#000000" cx="1478.173" cy="431.002" r="5.67"/>
<circle fill="none" stroke="#000000" cx="1478.173" cy="302.8" r="5.669"/>
<circle fill="none" stroke="#000000" cx="1478.173" cy="174.533" r="5.67"/>
<circle fill="none" stroke="#000000" cx="1478.189" cy="46.264" r="5.669"/>
<circle fill="none" stroke="#000000" cx="1396.548" cy="46.264" r="5.669"/>
<circle fill="none" stroke="#000000" cx="1315.181" cy="46.264" r="5.669"/>
<circle fill="none" stroke="#000000" cx="1233.584" cy="46.264" r="5.669"/>
<circle fill="none" stroke="#000000" cx="1152.189" cy="46.264" r="5.669"/>
<circle fill="none" stroke="#000000" cx="1152.189" cy="174.58" r="5.669"/>
<circle fill="none" stroke="#000000" cx="1152.189" cy="302.8" r="5.669"/>
<g>
	<g>
		<path fill="none" stroke="#000000" stroke-miterlimit="10" d="M1060.049,563.312c-0.896,1.852-1.935,3.645-2.706,5.551
			c-0.288,0.714-0.201,1.738,0.068,2.49c0.766,2.148,1.651,4.259,2.627,6.319c0.293,0.618,0.947,1.241,1.582,1.483
			c2.834,1.082,5.696,2.103,8.595,2.992c1.606,0.493,2.447,1.191,2.248,3.034c-0.189,1.747-0.096,3.531-0.021,5.291
			c0.046,1.157-0.37,1.73-1.498,2.094c-3.122,0.999-6.226,2.061-9.278,3.252c-0.693,0.271-1.339,1.078-1.678,1.793
			c-0.984,2.068-1.857,4.2-2.642,6.353c-0.228,0.622-0.231,1.504,0.036,2.102c1.308,2.926,2.683,5.83,4.162,8.676
			c0.62,1.191,0.686,2.027-0.403,2.968c-1.331,1.153-2.587,2.411-3.759,3.724c-1.006,1.124-1.87,1.325-3.289,0.564
			c-2.878-1.551-5.879-2.871-8.869-4.2c-0.518-0.234-1.293-0.222-1.832-0.009c-2.249,0.874-4.472,1.818-6.655,2.842
			c-0.564,0.268-1.166,0.836-1.38,1.404c-1.201,3.172-2.329,6.378-3.387,9.6c-0.313,0.966-0.729,1.396-1.782,1.363
			c-2.126-0.067-4.259-0.063-6.387,0.004c-1.036,0.033-1.487-0.363-1.81-1.338c-1.045-3.176-2.149-6.335-3.354-9.453
			c-0.257-0.669-0.924-1.354-1.578-1.663c-2.008-0.949-4.076-1.797-6.175-2.517c-0.809-0.275-1.903-0.405-2.639-0.087
			c-2.944,1.282-5.828,2.716-8.674,4.208c-1.129,0.59-1.875,0.435-2.704-0.46c-1.362-1.475-2.767-2.917-4.253-4.259
			c-0.779-0.706-0.848-1.328-0.422-2.197c1.467-2.988,2.95-5.965,4.323-8.994c0.306-0.673,0.441-1.635,0.203-2.299
			c-0.805-2.257-1.751-4.472-2.783-6.637c-0.293-0.618-0.968-1.232-1.609-1.475c-3.126-1.179-6.29-2.262-9.462-3.311
			c-0.948-0.313-1.379-0.79-1.356-1.813c0.049-2.19-0.056-4.389,0.065-6.57c0.029-0.522,0.591-1.282,1.082-1.471
			c3.172-1.221,6.417-2.257,9.581-3.502c0.721-0.284,1.41-1.062,1.764-1.785c0.978-1.997,1.859-4.058,2.596-6.151
			c0.261-0.744,0.25-1.785-0.067-2.495c-1.379-3.102-2.957-6.11-4.353-9.203c-0.216-0.48-0.077-1.412,0.27-1.806
			c1.452-1.634,2.992-3.205,4.626-4.659c0.441-0.389,1.457-0.585,1.981-0.352c3.099,1.358,6.105,2.93,9.205,4.292
			c0.706,0.31,1.736,0.318,2.468,0.055c2.198-0.798,4.346-1.747,6.465-2.741c0.564-0.264,1.183-0.812,1.398-1.375
			c1.21-3.177,2.378-6.378,3.396-9.621c0.355-1.128,0.919-1.421,1.954-1.399c1.949,0.037,3.903,0.092,5.844-0.009
			c1.235-0.067,1.85,0.317,2.236,1.529c0.959,3.009,2.129,5.952,3.082,8.961c0.403,1.274,1.063,1.905,2.359,2.315
			c1.943,0.609,3.747,1.65,5.674,2.327c0.754,0.268,1.801,0.317,2.512,0.009c2.988-1.316,5.928-2.754,8.826-4.259
			c1.107-0.572,1.85-0.502,2.695,0.418c1.356,1.479,2.828,2.851,4.234,4.283c0.323,0.331,0.574,0.731,0.842,1.074
			C1061.48,560.231,1060.788,561.786,1060.049,563.312z"/>
		<path fill-rule="evenodd" clip-rule="evenodd" fill="none" stroke="#000000" stroke-miterlimit="10" d="M1062.245,558.572
			c-0.765,1.659-1.457,3.214-2.196,4.739c-0.896,1.852-1.935,3.645-2.706,5.551c-0.288,0.714-0.201,1.738,0.068,2.49
			c0.766,2.148,1.651,4.259,2.627,6.319c0.293,0.618,0.947,1.241,1.582,1.483c2.834,1.082,5.696,2.103,8.595,2.992
			c1.606,0.493,2.447,1.191,2.248,3.034c-0.189,1.747-0.096,3.531-0.021,5.291c0.046,1.157-0.37,1.73-1.498,2.094
			c-3.122,0.999-6.226,2.061-9.278,3.252c-0.693,0.271-1.339,1.078-1.678,1.793c-0.984,2.068-1.857,4.2-2.642,6.353
			c-0.228,0.622-0.231,1.504,0.036,2.102c1.308,2.926,2.683,5.83,4.162,8.676c0.62,1.191,0.686,2.027-0.403,2.968
			c-1.331,1.153-2.587,2.411-3.759,3.724c-1.006,1.124-1.87,1.325-3.289,0.564c-2.878-1.551-5.879-2.871-8.869-4.2
			c-0.518-0.234-1.293-0.222-1.832-0.009c-2.249,0.874-4.472,1.818-6.655,2.842c-0.564,0.268-1.166,0.836-1.38,1.404
			c-1.201,3.172-2.329,6.378-3.387,9.6c-0.313,0.966-0.729,1.396-1.782,1.363c-2.126-0.067-4.259-0.063-6.387,0.004
			c-1.036,0.033-1.487-0.363-1.81-1.338c-1.045-3.176-2.149-6.335-3.354-9.453c-0.257-0.669-0.924-1.354-1.578-1.663
			c-2.008-0.949-4.076-1.797-6.175-2.517c-0.809-0.275-1.903-0.405-2.639-0.087c-2.944,1.282-5.828,2.716-8.674,4.208
			c-1.129,0.59-1.875,0.435-2.704-0.46c-1.362-1.475-2.767-2.917-4.253-4.259c-0.779-0.706-0.848-1.328-0.422-2.197
			c1.467-2.988,2.95-5.965,4.323-8.994c0.306-0.673,0.441-1.635,0.203-2.299c-0.805-2.257-1.751-4.472-2.783-6.637
			c-0.293-0.618-0.968-1.232-1.609-1.475c-3.126-1.179-6.29-2.262-9.462-3.311c-0.948-0.313-1.379-0.79-1.356-1.813
			c0.049-2.19-0.056-4.389,0.065-6.57c0.029-0.522,0.591-1.282,1.082-1.471c3.172-1.221,6.417-2.257,9.581-3.502
			c0.721-0.284,1.41-1.062,1.764-1.785c0.978-1.997,1.859-4.058,2.596-6.151c0.261-0.744,0.25-1.785-0.067-2.495
			c-1.379-3.102-2.957-6.11-4.353-9.203c-0.216-0.48-0.077-1.412,0.27-1.806c1.452-1.634,2.992-3.205,4.626-4.659
			c0.441-0.389,1.457-0.585,1.981-0.352c3.099,1.358,6.105,2.93,9.205,4.292c0.706,0.31,1.736,0.318,2.468,0.055
			c2.198-0.798,4.346-1.747,6.465-2.741c0.564-0.264,1.183-0.812,1.398-1.375c1.21-3.177,2.378-6.378,3.396-9.621
			c0.355-1.128,0.919-1.421,1.954-1.399c1.949,0.037,3.903,0.092,5.844-0.009c1.235-0.067,1.85,0.317,2.236,1.529
			c0.959,3.009,2.129,5.952,3.082,8.961c0.403,1.274,1.063,1.905,2.359,2.315c1.943,0.609,3.747,1.65,5.674,2.327
			c0.754,0.268,1.801,0.317,2.512,0.009c2.988-1.316,5.928-2.754,8.826-4.259c1.107-0.572,1.85-0.502,2.695,0.418
			c1.356,1.479,2.828,2.851,4.234,4.283C1061.727,557.829,1061.978,558.229,1062.245,558.572z"/>
	</g>
</g>
<rect x="1027" y="654.322" fill="none" stroke="#000000" stroke-miterlimit="10" width="14.173" height="28.346"/>
<rect x="1019.913" y="580.368" fill="none" stroke="#000000" stroke-miterlimit="10" width="14.174" height="14.173"/>
<rect x="1308.094" y="295.714" fill="none" stroke="#000000" stroke-miterlimit="10" width="14.174" height="14.173"/>
<g>
	<g>
		<path fill="none" stroke="#000000" stroke-miterlimit="10" d="M1060.049,462.092c-0.896,1.852-1.935,3.645-2.706,5.551
			c-0.288,0.714-0.201,1.738,0.068,2.49c0.766,2.148,1.651,4.259,2.627,6.319c0.293,0.618,0.947,1.241,1.582,1.483
			c2.834,1.082,5.696,2.103,8.595,2.992c1.606,0.493,2.447,1.191,2.248,3.034c-0.189,1.747-0.096,3.531-0.021,5.291
			c0.046,1.157-0.37,1.73-1.498,2.094c-3.122,0.999-6.226,2.061-9.278,3.252c-0.693,0.271-1.339,1.078-1.678,1.793
			c-0.984,2.068-1.857,4.2-2.642,6.353c-0.228,0.622-0.231,1.504,0.036,2.102c1.308,2.926,2.683,5.83,4.162,8.676
			c0.62,1.191,0.686,2.027-0.403,2.968c-1.331,1.153-2.587,2.411-3.759,3.724c-1.006,1.124-1.87,1.325-3.289,0.564
			c-2.878-1.551-5.879-2.871-8.869-4.2c-0.518-0.234-1.293-0.222-1.832-0.009c-2.249,0.874-4.472,1.818-6.655,2.842
			c-0.564,0.268-1.166,0.836-1.38,1.404c-1.201,3.172-2.329,6.378-3.387,9.6c-0.313,0.966-0.729,1.396-1.782,1.363
			c-2.126-0.067-4.259-0.063-6.387,0.004c-1.036,0.033-1.487-0.363-1.81-1.338c-1.045-3.176-2.149-6.335-3.354-9.453
			c-0.257-0.669-0.924-1.354-1.578-1.663c-2.008-0.949-4.076-1.797-6.175-2.517c-0.809-0.275-1.903-0.405-2.639-0.087
			c-2.944,1.282-5.828,2.716-8.674,4.208c-1.129,0.59-1.875,0.435-2.704-0.46c-1.362-1.475-2.767-2.917-4.253-4.259
			c-0.779-0.706-0.848-1.328-0.422-2.197c1.467-2.988,2.95-5.965,4.323-8.994c0.306-0.673,0.441-1.635,0.203-2.299
			c-0.805-2.257-1.751-4.472-2.783-6.637c-0.293-0.618-0.968-1.232-1.609-1.475c-3.126-1.179-6.29-2.262-9.462-3.311
			c-0.948-0.313-1.379-0.79-1.356-1.813c0.049-2.19-0.056-4.389,0.065-6.57c0.029-0.522,0.591-1.282,1.082-1.471
			c3.172-1.221,6.417-2.257,9.581-3.502c0.721-0.284,1.41-1.062,1.764-1.785c0.978-1.997,1.859-4.058,2.596-6.151
			c0.261-0.744,0.25-1.785-0.067-2.495c-1.379-3.102-2.957-6.11-4.353-9.203c-0.216-0.48-0.077-1.412,0.27-1.806
			c1.452-1.634,2.992-3.205,4.626-4.659c0.441-0.389,1.457-0.585,1.981-0.352c3.099,1.358,6.105,2.93,9.205,4.292
			c0.706,0.31,1.736,0.318,2.468,0.055c2.198-0.798,4.346-1.747,6.465-2.741c0.564-0.264,1.183-0.812,1.398-1.375
			c1.21-3.177,2.378-6.378,3.396-9.621c0.355-1.128,0.919-1.421,1.954-1.399c1.949,0.037,3.903,0.092,5.844-0.009
			c1.235-0.067,1.85,0.317,2.236,1.529c0.959,3.009,2.129,5.952,3.082,8.961c0.403,1.274,1.063,1.905,2.359,2.315
			c1.943,0.609,3.747,1.65,5.674,2.327c0.754,0.268,1.801,0.317,2.512,0.009c2.988-1.316,5.928-2.754,8.826-4.259
			c1.107-0.572,1.85-0.502,2.695,0.418c1.356,1.479,2.828,2.851,4.234,4.283c0.323,0.331,0.574,0.731,0.842,1.074
			C1061.48,459.012,1060.788,460.567,1060.049,462.092z"/>
		<path fill-rule="evenodd" clip-rule="evenodd" fill="none" stroke="#000000" stroke-miterlimit="10" d="M1062.245,457.353
			c-0.765,1.659-1.457,3.214-2.196,4.739c-0.896,1.852-1.935,3.645-2.706,5.551c-0.288,0.714-0.201,1.738,0.068,2.49
			c0.766,2.148,1.651,4.259,2.627,6.319c0.293,0.618,0.947,1.241,1.582,1.483c2.834,1.082,5.696,2.103,8.595,2.992
			c1.606,0.493,2.447,1.191,2.248,3.034c-0.189,1.747-0.096,3.531-0.021,5.291c0.046,1.157-0.37,1.73-1.498,2.094
			c-3.122,0.999-6.226,2.061-9.278,3.252c-0.693,0.271-1.339,1.078-1.678,1.793c-0.984,2.068-1.857,4.2-2.642,6.353
			c-0.228,0.622-0.231,1.504,0.036,2.102c1.308,2.926,2.683,5.83,4.162,8.676c0.62,1.191,0.686,2.027-0.403,2.968
			c-1.331,1.153-2.587,2.411-3.759,3.724c-1.006,1.124-1.87,1.325-3.289,0.564c-2.878-1.551-5.879-2.871-8.869-4.2
			c-0.518-0.234-1.293-0.222-1.832-0.009c-2.249,0.874-4.472,1.818-6.655,2.842c-0.564,0.268-1.166,0.836-1.38,1.404
			c-1.201,3.172-2.329,6.378-3.387,9.6c-0.313,0.966-0.729,1.396-1.782,1.363c-2.126-0.067-4.259-0.063-6.387,0.004
			c-1.036,0.033-1.487-0.363-1.81-1.338c-1.045-3.176-2.149-6.335-3.354-9.453c-0.257-0.669-0.924-1.354-1.578-1.663
			c-2.008-0.949-4.076-1.797-6.175-2.517c-0.809-0.275-1.903-0.405-2.639-0.087c-2.944,1.282-5.828,2.716-8.674,4.208
			c-1.129,0.59-1.875,0.435-2.704-0.46c-1.362-1.475-2.767-2.917-4.253-4.259c-0.779-0.706-0.848-1.328-0.422-2.197
			c1.467-2.988,2.95-5.965,4.323-8.994c0.306-0.673,0.441-1.635,0.203-2.299c-0.805-2.257-1.751-4.472-2.783-6.637
			c-0.293-0.618-0.968-1.232-1.609-1.475c-3.126-1.179-6.29-2.262-9.462-3.311c-0.948-0.313-1.379-0.79-1.356-1.813
			c0.049-2.19-0.056-4.389,0.065-6.57c0.029-0.522,0.591-1.282,1.082-1.471c3.172-1.221,6.417-2.257,9.581-3.502
			c0.721-0.284,1.41-1.062,1.764-1.785c0.978-1.997,1.859-4.058,2.596-6.151c0.261-0.744,0.25-1.785-0.067-2.495
			c-1.379-3.102-2.957-6.11-4.353-9.203c-0.216-0.48-0.077-1.412,0.27-1.806c1.452-1.634,2.992-3.205,4.626-4.659
			c0.441-0.389,1.457-0.585,1.981-0.352c3.099,1.358,6.105,2.93,9.205,4.292c0.706,0.31,1.736,0.318,2.468,0.055
			c2.198-0.798,4.346-1.747,6.465-2.741c0.564-0.264,1.183-0.812,1.398-1.375c1.21-3.177,2.378-6.378,3.396-9.621
			c0.355-1.128,0.919-1.421,1.954-1.399c1.949,0.037,3.903,0.092,5.844-0.009c1.235-0.067,1.85,0.317,2.236,1.529
			c0.959,3.009,2.129,5.952,3.082,8.961c0.403,1.274,1.063,1.905,2.359,2.315c1.943,0.609,3.747,1.65,5.674,2.327
			c0.754,0.268,1.801,0.317,2.512,0.009c2.988-1.316,5.928-2.754,8.826-4.259c1.107-0.572,1.85-0.502,2.695,0.418
			c1.356,1.479,2.828,2.851,4.234,4.283C1061.727,456.61,1061.978,457.01,1062.245,457.353z"/>
	</g>
</g>
<rect x="1019.913" y="479.149" fill="none" stroke="#000000" stroke-miterlimit="10" width="14.174" height="14.173"/>
<circle fill="none" stroke="#000000" stroke-miterlimit="10" cx="271.795" cy="155.739" r="11.196"/>
<polygon fill="none" stroke="#000000" stroke-miterlimit="10" points="223.586,124.559 320.004,124.559 320.004,141.219 
	316.465,144.609 316.614,176.158 298.038,176.158 287.422,186.922 257.347,186.922 246.29,176.453 227.271,176.307 227.32,144.461 
	223.586,141.219 "/>
<polyline fill="none" stroke="#000000" stroke-miterlimit="10" points="76.926,78.691 76.926,137.684 148.01,201.096 
	393.926,201.096 464.965,138.42 "/>
<polyline fill="none" stroke="#000000" stroke-miterlimit="10" points="464.965,138.42 464.893,78.692 76.926,78.691 "/>
<circle fill="none" stroke="#000000" stroke-miterlimit="10" cx="271.795" cy="290.47" r="11.196"/>
<polygon fill="none" stroke="#000000" stroke-miterlimit="10" points="223.586,259.289 320.004,259.289 320.004,275.949 
	316.465,279.34 316.613,310.889 298.037,310.889 287.422,321.652 257.347,321.652 246.29,311.184 227.271,311.037 227.32,279.191 
	223.586,275.949 "/>
<polyline fill="none" stroke="#000000" stroke-miterlimit="10" points="76.926,213.422 76.926,272.414 148.01,335.826 
	393.926,335.826 464.965,273.15 "/>
<polyline fill="none" stroke="#000000" stroke-miterlimit="10" points="464.965,273.15 464.893,213.423 76.926,213.422 "/>
<path fill="none" stroke="#000000" stroke-miterlimit="10" d="M60.531,442.82c0-9.605,6.894-17.393,15.396-17.393H208.19
	c8.504,0,15.396,7.787,15.396,17.393v95.658c0,9.607-6.892,17.393-15.396,17.393H75.927c-8.502,0-15.396-7.785-15.396-17.393V442.82
	z"/>
<rect x="106.625" y="483.562" fill="none" stroke="#000000" stroke-miterlimit="10" width="70.867" height="14.174"/>
<rect x="134.972" y="455.217" fill="none" stroke="#000000" stroke-miterlimit="10" width="14.174" height="70.865"/>
<circle fill="none" stroke="#000000" stroke-miterlimit="10" cx="817" cy="151.841" r="11.196"/>
<polygon fill="none" stroke="#000000" stroke-miterlimit="10" points="768.791,120.661 865.209,120.661 865.209,137.321 
	861.671,140.711 861.818,172.26 843.242,172.26 832.627,183.024 802.552,183.024 791.495,172.555 772.477,172.409 772.525,140.563 
	768.791,137.321 "/>
<polyline fill="none" stroke="#000000" stroke-miterlimit="10" points="622.131,74.793 622.131,133.786 693.215,197.198 
	939.131,197.198 1010.171,134.522 "/>
<polyline fill="none" stroke="#000000" stroke-miterlimit="10" points="1010.171,134.522 1010.098,74.794 622.131,74.793 "/>
<circle fill="none" stroke="#000000" stroke-miterlimit="10" cx="817.85" cy="287.889" r="11.196"/>
<polygon fill="none" stroke="#000000" stroke-miterlimit="10" points="769.641,256.708 866.059,256.708 866.059,273.369 
	862.52,276.759 862.668,308.308 844.092,308.308 833.477,319.072 803.4,319.072 792.344,308.603 773.326,308.457 773.375,276.611 
	769.641,273.369 "/>
<polyline fill="none" stroke="#000000" stroke-miterlimit="10" points="622.98,210.841 622.98,269.833 694.064,333.246 
	939.98,333.246 1011.02,270.57 "/>
<polyline fill="none" stroke="#000000" stroke-miterlimit="10" points="1011.02,270.57 1010.947,210.842 622.98,210.841 "/>
<path fill="none" stroke="#000000" stroke-miterlimit="10" d="M534.086,625.367c0,16.699-11.983,30.236-26.764,30.236H277.385
	c-14.782,0-26.764-13.537-26.764-30.236V459.068c0-16.699,11.981-30.236,26.764-30.236h229.938c14.78,0,26.764,13.537,26.764,30.236
	V625.367z"/>
<rect x="357.252" y="533.909" fill="none" stroke="#000000" stroke-miterlimit="10" width="70.866" height="14.174"/>
<rect x="385.267" y="506.666" fill="none" stroke="#000000" stroke-miterlimit="10" width="14.174" height="70.865"/>
<g>
	<g>
		<path fill="none" stroke="#000000" stroke-miterlimit="10" d="M893.439,463.903c-0.896,1.852-1.935,3.645-2.706,5.551
			c-0.288,0.714-0.201,1.738,0.068,2.49c0.766,2.148,1.651,4.259,2.627,6.319c0.293,0.618,0.947,1.241,1.582,1.483
			c2.835,1.082,5.696,2.103,8.595,2.992c1.607,0.493,2.447,1.191,2.248,3.034c-0.189,1.747-0.096,3.531-0.02,5.291
			c0.045,1.157-0.371,1.73-1.498,2.094c-3.123,0.999-6.227,2.061-9.279,3.252c-0.693,0.271-1.339,1.078-1.678,1.793
			c-0.984,2.068-1.857,4.2-2.642,6.353c-0.228,0.622-0.231,1.504,0.036,2.102c1.308,2.926,2.683,5.83,4.162,8.676
			c0.62,1.191,0.686,2.027-0.403,2.968c-1.331,1.153-2.587,2.411-3.759,3.724c-1.006,1.124-1.87,1.325-3.289,0.564
			c-2.878-1.551-5.879-2.871-8.869-4.2c-0.518-0.234-1.293-0.222-1.832-0.009c-2.249,0.874-4.472,1.818-6.655,2.842
			c-0.564,0.268-1.166,0.836-1.38,1.404c-1.201,3.172-2.329,6.378-3.387,9.6c-0.313,0.966-0.729,1.396-1.782,1.363
			c-2.126-0.067-4.259-0.063-6.387,0.004c-1.036,0.033-1.487-0.363-1.81-1.338c-1.045-3.176-2.149-6.335-3.354-9.453
			c-0.257-0.669-0.924-1.354-1.578-1.663c-2.008-0.949-4.076-1.797-6.175-2.517c-0.809-0.275-1.903-0.405-2.639-0.087
			c-2.944,1.282-5.828,2.716-8.674,4.208c-1.129,0.59-1.875,0.435-2.704-0.46c-1.362-1.475-2.767-2.917-4.253-4.259
			c-0.779-0.706-0.848-1.328-0.422-2.197c1.467-2.988,2.95-5.965,4.323-8.994c0.306-0.673,0.441-1.635,0.203-2.299
			c-0.805-2.257-1.751-4.472-2.783-6.637c-0.293-0.618-0.968-1.232-1.609-1.475c-3.126-1.179-6.29-2.262-9.462-3.311
			c-0.948-0.313-1.379-0.79-1.356-1.813c0.049-2.19-0.056-4.389,0.065-6.57c0.029-0.522,0.591-1.282,1.082-1.471
			c3.172-1.221,6.417-2.257,9.581-3.502c0.721-0.284,1.41-1.062,1.764-1.785c0.978-1.997,1.859-4.058,2.596-6.151
			c0.261-0.744,0.25-1.785-0.067-2.495c-1.379-3.102-2.957-6.11-4.353-9.203c-0.216-0.48-0.077-1.412,0.27-1.806
			c1.452-1.634,2.992-3.205,4.626-4.659c0.441-0.389,1.457-0.585,1.981-0.352c3.099,1.358,6.105,2.93,9.205,4.292
			c0.706,0.31,1.736,0.318,2.468,0.055c2.198-0.798,4.346-1.747,6.465-2.741c0.564-0.264,1.183-0.812,1.398-1.375
			c1.21-3.177,2.378-6.378,3.396-9.621c0.355-1.128,0.919-1.421,1.954-1.4c1.949,0.038,3.903,0.092,5.844-0.008
			c1.235-0.067,1.85,0.317,2.236,1.529c0.959,3.009,2.129,5.952,3.082,8.961c0.403,1.274,1.063,1.905,2.359,2.315
			c1.943,0.609,3.747,1.65,5.674,2.327c0.754,0.268,1.801,0.317,2.512,0.009c2.988-1.316,5.928-2.754,8.826-4.259
			c1.107-0.572,1.85-0.502,2.695,0.418c1.356,1.479,2.828,2.851,4.234,4.283c0.323,0.331,0.574,0.731,0.842,1.074
			C894.871,460.823,894.179,462.378,893.439,463.903z"/>
		<path fill-rule="evenodd" clip-rule="evenodd" fill="none" stroke="#000000" stroke-miterlimit="10" d="M895.636,459.164
			c-0.765,1.659-1.457,3.214-2.196,4.739c-0.896,1.852-1.935,3.645-2.706,5.551c-0.288,0.714-0.201,1.738,0.068,2.49
			c0.766,2.148,1.651,4.259,2.627,6.319c0.293,0.618,0.947,1.241,1.582,1.483c2.835,1.082,5.696,2.103,8.595,2.992
			c1.607,0.493,2.447,1.191,2.248,3.034c-0.189,1.747-0.096,3.531-0.02,5.291c0.045,1.157-0.371,1.73-1.498,2.094
			c-3.123,0.999-6.227,2.061-9.279,3.252c-0.693,0.271-1.339,1.078-1.678,1.793c-0.984,2.068-1.857,4.2-2.642,6.353
			c-0.228,0.622-0.231,1.504,0.036,2.102c1.308,2.926,2.683,5.83,4.162,8.676c0.62,1.191,0.686,2.027-0.403,2.968
			c-1.331,1.153-2.587,2.411-3.759,3.724c-1.006,1.124-1.87,1.325-3.289,0.564c-2.878-1.551-5.879-2.871-8.869-4.2
			c-0.518-0.234-1.293-0.222-1.832-0.009c-2.249,0.874-4.472,1.818-6.655,2.842c-0.564,0.268-1.166,0.836-1.38,1.404
			c-1.201,3.172-2.329,6.378-3.387,9.6c-0.313,0.966-0.729,1.396-1.782,1.363c-2.126-0.067-4.259-0.063-6.387,0.004
			c-1.036,0.033-1.487-0.363-1.81-1.338c-1.045-3.176-2.149-6.335-3.354-9.453c-0.257-0.669-0.924-1.354-1.578-1.663
			c-2.008-0.949-4.076-1.797-6.175-2.517c-0.809-0.275-1.903-0.405-2.639-0.087c-2.944,1.282-5.828,2.716-8.674,4.208
			c-1.129,0.59-1.875,0.435-2.704-0.46c-1.362-1.475-2.767-2.917-4.253-4.259c-0.779-0.706-0.848-1.328-0.422-2.197
			c1.467-2.988,2.95-5.965,4.323-8.994c0.306-0.673,0.441-1.635,0.203-2.299c-0.805-2.257-1.751-4.472-2.783-6.637
			c-0.293-0.618-0.968-1.232-1.609-1.475c-3.126-1.179-6.29-2.262-9.462-3.311c-0.948-0.313-1.379-0.79-1.356-1.813
			c0.049-2.19-0.056-4.389,0.065-6.57c0.029-0.522,0.591-1.282,1.082-1.471c3.172-1.221,6.417-2.257,9.581-3.502
			c0.721-0.284,1.41-1.062,1.764-1.785c0.978-1.997,1.859-4.058,2.596-6.151c0.261-0.744,0.25-1.785-0.067-2.495
			c-1.379-3.102-2.957-6.11-4.353-9.203c-0.216-0.48-0.077-1.412,0.27-1.806c1.452-1.634,2.992-3.205,4.626-4.659
			c0.441-0.389,1.457-0.585,1.981-0.352c3.099,1.358,6.105,2.93,9.205,4.292c0.706,0.31,1.736,0.318,2.468,0.055
			c2.198-0.798,4.346-1.747,6.465-2.741c0.564-0.264,1.183-0.812,1.398-1.375c1.21-3.177,2.378-6.378,3.396-9.621
			c0.355-1.128,0.919-1.421,1.954-1.4c1.949,0.038,3.903,0.092,5.844-0.008c1.235-0.067,1.85,0.317,2.236,1.529
			c0.959,3.009,2.129,5.952,3.082,8.961c0.403,1.274,1.063,1.905,2.359,2.315c1.943,0.609,3.747,1.65,5.674,2.327
			c0.754,0.268,1.801,0.317,2.512,0.009c2.988-1.316,5.928-2.754,8.826-4.259c1.107-0.572,1.85-0.502,2.695,0.418
			c1.356,1.479,2.828,2.851,4.234,4.283C895.117,458.421,895.368,458.821,895.636,459.164z"/>
	</g>
</g>
<circle fill="none" stroke="#000000" stroke-miterlimit="10" cx="860.391" cy="488.048" r="6.662"/>
<g>
	<g>
		<path fill="none" stroke="#000000" stroke-miterlimit="10" d="M979.059,625.835c-0.896,1.852-1.935,3.645-2.706,5.551
			c-0.288,0.714-0.201,1.738,0.068,2.49c0.766,2.148,1.651,4.259,2.627,6.319c0.293,0.618,0.947,1.241,1.582,1.483
			c2.834,1.082,5.696,2.103,8.595,2.992c1.606,0.493,2.447,1.191,2.248,3.034c-0.189,1.747-0.096,3.531-0.021,5.291
			c0.046,1.157-0.37,1.73-1.498,2.094c-3.122,0.999-6.226,2.061-9.278,3.252c-0.693,0.271-1.339,1.078-1.678,1.793
			c-0.984,2.068-1.857,4.2-2.642,6.353c-0.228,0.622-0.231,1.504,0.036,2.102c1.308,2.926,2.683,5.83,4.162,8.676
			c0.62,1.191,0.686,2.027-0.403,2.968c-1.331,1.153-2.587,2.411-3.759,3.724c-1.006,1.124-1.87,1.325-3.289,0.564
			c-2.878-1.551-5.879-2.871-8.869-4.2c-0.518-0.234-1.293-0.222-1.832-0.009c-2.249,0.874-4.472,1.818-6.655,2.842
			c-0.564,0.268-1.166,0.836-1.38,1.404c-1.201,3.172-2.329,6.378-3.387,9.6c-0.313,0.966-0.729,1.396-1.782,1.363
			c-2.126-0.067-4.259-0.063-6.387,0.004c-1.036,0.033-1.487-0.363-1.81-1.338c-1.045-3.176-2.149-6.335-3.354-9.453
			c-0.257-0.669-0.924-1.354-1.578-1.663c-2.008-0.949-4.076-1.797-6.175-2.517c-0.809-0.275-1.903-0.405-2.639-0.087
			c-2.944,1.282-5.828,2.716-8.674,4.208c-1.129,0.59-1.875,0.435-2.704-0.46c-1.362-1.475-2.767-2.917-4.253-4.259
			c-0.779-0.706-0.848-1.328-0.422-2.197c1.467-2.988,2.95-5.965,4.323-8.994c0.306-0.673,0.441-1.635,0.203-2.299
			c-0.805-2.257-1.751-4.472-2.783-6.637c-0.293-0.618-0.968-1.232-1.609-1.475c-3.126-1.179-6.29-2.262-9.462-3.311
			c-0.948-0.313-1.379-0.79-1.356-1.813c0.049-2.19-0.056-4.389,0.065-6.57c0.029-0.522,0.591-1.282,1.082-1.471
			c3.172-1.221,6.417-2.257,9.581-3.502c0.721-0.284,1.41-1.062,1.764-1.785c0.978-1.997,1.859-4.058,2.596-6.151
			c0.261-0.744,0.25-1.785-0.067-2.495c-1.379-3.102-2.957-6.11-4.353-9.203c-0.216-0.48-0.077-1.412,0.27-1.806
			c1.452-1.634,2.992-3.205,4.626-4.659c0.441-0.389,1.457-0.585,1.981-0.352c3.099,1.358,6.105,2.93,9.205,4.292
			c0.706,0.31,1.736,0.318,2.468,0.055c2.198-0.798,4.346-1.747,6.465-2.741c0.564-0.264,1.183-0.812,1.398-1.375
			c1.21-3.177,2.378-6.378,3.396-9.621c0.355-1.128,0.919-1.421,1.954-1.399c1.949,0.037,3.903,0.092,5.844-0.009
			c1.235-0.067,1.85,0.317,2.236,1.529c0.959,3.009,2.129,5.952,3.082,8.961c0.403,1.274,1.063,1.905,2.359,2.315
			c1.943,0.609,3.747,1.65,5.674,2.327c0.754,0.268,1.801,0.317,2.512,0.009c2.988-1.316,5.928-2.754,8.826-4.259
			c1.107-0.572,1.85-0.502,2.695,0.418c1.356,1.479,2.828,2.851,4.234,4.283c0.323,0.331,0.574,0.731,0.842,1.074
			C980.49,622.755,979.798,624.31,979.059,625.835z"/>
		<path fill-rule="evenodd" clip-rule="evenodd" fill="none" stroke="#000000" stroke-miterlimit="10" d="M981.255,621.096
			c-0.765,1.659-1.457,3.214-2.196,4.739c-0.896,1.852-1.935,3.645-2.706,5.551c-0.288,0.714-0.201,1.738,0.068,2.49
			c0.766,2.148,1.651,4.259,2.627,6.319c0.293,0.618,0.947,1.241,1.582,1.483c2.834,1.082,5.696,2.103,8.595,2.992
			c1.606,0.493,2.447,1.191,2.248,3.034c-0.189,1.747-0.096,3.531-0.021,5.291c0.046,1.157-0.37,1.73-1.498,2.094
			c-3.122,0.999-6.226,2.061-9.278,3.252c-0.693,0.271-1.339,1.078-1.678,1.793c-0.984,2.068-1.857,4.2-2.642,6.353
			c-0.228,0.622-0.231,1.504,0.036,2.102c1.308,2.926,2.683,5.83,4.162,8.676c0.62,1.191,0.686,2.027-0.403,2.968
			c-1.331,1.153-2.587,2.411-3.759,3.724c-1.006,1.124-1.87,1.325-3.289,0.564c-2.878-1.551-5.879-2.871-8.869-4.2
			c-0.518-0.234-1.293-0.222-1.832-0.009c-2.249,0.874-4.472,1.818-6.655,2.842c-0.564,0.268-1.166,0.836-1.38,1.404
			c-1.201,3.172-2.329,6.378-3.387,9.6c-0.313,0.966-0.729,1.396-1.782,1.363c-2.126-0.067-4.259-0.063-6.387,0.004
			c-1.036,0.033-1.487-0.363-1.81-1.338c-1.045-3.176-2.149-6.335-3.354-9.453c-0.257-0.669-0.924-1.354-1.578-1.663
			c-2.008-0.949-4.076-1.797-6.175-2.517c-0.809-0.275-1.903-0.405-2.639-0.087c-2.944,1.282-5.828,2.716-8.674,4.208
			c-1.129,0.59-1.875,0.435-2.704-0.46c-1.362-1.475-2.767-2.917-4.253-4.259c-0.779-0.706-0.848-1.328-0.422-2.197
			c1.467-2.988,2.95-5.965,4.323-8.994c0.306-0.673,0.441-1.635,0.203-2.299c-0.805-2.257-1.751-4.472-2.783-6.637
			c-0.293-0.618-0.968-1.232-1.609-1.475c-3.126-1.179-6.29-2.262-9.462-3.311c-0.948-0.313-1.379-0.79-1.356-1.813
			c0.049-2.19-0.056-4.389,0.065-6.57c0.029-0.522,0.591-1.282,1.082-1.471c3.172-1.221,6.417-2.257,9.581-3.502
			c0.721-0.284,1.41-1.062,1.764-1.785c0.978-1.997,1.859-4.058,2.596-6.151c0.261-0.744,0.25-1.785-0.067-2.495
			c-1.379-3.102-2.957-6.11-4.353-9.203c-0.216-0.48-0.077-1.412,0.27-1.806c1.452-1.634,2.992-3.205,4.626-4.659
			c0.441-0.389,1.457-0.585,1.981-0.352c3.099,1.358,6.105,2.93,9.205,4.292c0.706,0.31,1.736,0.318,2.468,0.055
			c2.198-0.798,4.346-1.747,6.465-2.741c0.564-0.264,1.183-0.812,1.398-1.375c1.21-3.177,2.378-6.378,3.396-9.621
			c0.355-1.128,0.919-1.421,1.954-1.399c1.949,0.037,3.903,0.092,5.844-0.009c1.235-0.067,1.85,0.317,2.236,1.529
			c0.959,3.009,2.129,5.952,3.082,8.961c0.403,1.274,1.063,1.905,2.359,2.315c1.943,0.609,3.747,1.65,5.674,2.327
			c0.754,0.268,1.801,0.317,2.512,0.009c2.988-1.316,5.928-2.754,8.826-4.259c1.107-0.572,1.85-0.502,2.695,0.418
			c1.356,1.479,2.828,2.851,4.234,4.283C980.736,620.353,980.987,620.753,981.255,621.096z"/>
	</g>
</g>
<circle fill="none" stroke="#000000" stroke-miterlimit="10" cx="946.01" cy="649.979" r="6.662"/>
<g>
	<g>
		<path fill="none" stroke="#000000" stroke-miterlimit="10" d="M972.396,517.492c-0.896,1.852-1.935,3.645-2.706,5.551
			c-0.288,0.714-0.201,1.738,0.068,2.49c0.766,2.148,1.651,4.259,2.627,6.319c0.293,0.618,0.947,1.241,1.582,1.483
			c2.834,1.082,5.696,2.103,8.595,2.992c1.606,0.493,2.447,1.191,2.248,3.034c-0.189,1.747-0.096,3.531-0.021,5.291
			c0.046,1.157-0.37,1.73-1.498,2.094c-3.122,0.999-6.226,2.061-9.278,3.252c-0.693,0.271-1.339,1.078-1.678,1.793
			c-0.984,2.068-1.857,4.2-2.642,6.353c-0.228,0.622-0.231,1.504,0.036,2.102c1.308,2.926,2.683,5.83,4.162,8.676
			c0.62,1.191,0.686,2.027-0.403,2.968c-1.331,1.153-2.587,2.411-3.759,3.724c-1.006,1.124-1.87,1.325-3.289,0.564
			c-2.878-1.551-5.879-2.871-8.869-4.2c-0.518-0.234-1.293-0.222-1.832-0.009c-2.249,0.874-4.472,1.818-6.655,2.842
			c-0.564,0.268-1.166,0.836-1.38,1.404c-1.201,3.172-2.329,6.378-3.387,9.6c-0.313,0.966-0.729,1.396-1.782,1.363
			c-2.126-0.067-4.259-0.063-6.387,0.004c-1.036,0.033-1.487-0.363-1.81-1.338c-1.045-3.176-2.149-6.335-3.354-9.453
			c-0.257-0.669-0.924-1.354-1.578-1.663c-2.008-0.949-4.076-1.797-6.175-2.517c-0.809-0.275-1.903-0.405-2.639-0.087
			c-2.944,1.282-5.828,2.716-8.674,4.208c-1.129,0.59-1.875,0.435-2.704-0.46c-1.362-1.475-2.767-2.917-4.253-4.259
			c-0.779-0.706-0.848-1.328-0.422-2.197c1.467-2.988,2.95-5.965,4.323-8.994c0.306-0.673,0.441-1.635,0.203-2.299
			c-0.805-2.257-1.751-4.472-2.783-6.637c-0.293-0.618-0.968-1.232-1.609-1.475c-3.126-1.179-6.29-2.262-9.462-3.311
			c-0.948-0.313-1.379-0.79-1.356-1.813c0.049-2.19-0.056-4.389,0.065-6.57c0.029-0.522,0.591-1.282,1.082-1.471
			c3.172-1.221,6.417-2.257,9.581-3.502c0.721-0.284,1.41-1.062,1.764-1.785c0.978-1.997,1.859-4.058,2.596-6.151
			c0.261-0.744,0.25-1.785-0.067-2.495c-1.379-3.102-2.957-6.11-4.353-9.203c-0.216-0.48-0.077-1.412,0.27-1.806
			c1.452-1.634,2.992-3.205,4.626-4.659c0.441-0.389,1.457-0.585,1.981-0.352c3.099,1.358,6.105,2.93,9.205,4.292
			c0.706,0.31,1.736,0.318,2.468,0.055c2.198-0.798,4.346-1.747,6.465-2.741c0.564-0.264,1.183-0.812,1.398-1.375
			c1.21-3.177,2.378-6.378,3.396-9.621c0.355-1.128,0.919-1.421,1.954-1.399c1.949,0.037,3.903,0.092,5.844-0.009
			c1.235-0.067,1.85,0.317,2.236,1.529c0.959,3.009,2.129,5.952,3.082,8.961c0.403,1.274,1.063,1.905,2.359,2.315
			c1.943,0.609,3.747,1.65,5.674,2.327c0.754,0.268,1.801,0.317,2.512,0.009c2.988-1.316,5.928-2.754,8.826-4.259
			c1.107-0.572,1.85-0.502,2.695,0.418c1.356,1.479,2.828,2.851,4.234,4.283c0.323,0.331,0.574,0.731,0.842,1.074
			C973.828,514.412,973.136,515.967,972.396,517.492z"/>
		<path fill-rule="evenodd" clip-rule="evenodd" fill="none" stroke="#000000" stroke-miterlimit="10" d="M974.593,512.753
			c-0.765,1.659-1.457,3.214-2.196,4.739c-0.896,1.852-1.935,3.645-2.706,5.551c-0.288,0.714-0.201,1.738,0.068,2.49
			c0.766,2.148,1.651,4.259,2.627,6.319c0.293,0.618,0.947,1.241,1.582,1.483c2.834,1.082,5.696,2.103,8.595,2.992
			c1.606,0.493,2.447,1.191,2.248,3.034c-0.189,1.747-0.096,3.531-0.021,5.291c0.046,1.157-0.37,1.73-1.498,2.094
			c-3.122,0.999-6.226,2.061-9.278,3.252c-0.693,0.271-1.339,1.078-1.678,1.793c-0.984,2.068-1.857,4.2-2.642,6.353
			c-0.228,0.622-0.231,1.504,0.036,2.102c1.308,2.926,2.683,5.83,4.162,8.676c0.62,1.191,0.686,2.027-0.403,2.968
			c-1.331,1.153-2.587,2.411-3.759,3.724c-1.006,1.124-1.87,1.325-3.289,0.564c-2.878-1.551-5.879-2.871-8.869-4.2
			c-0.518-0.234-1.293-0.222-1.832-0.009c-2.249,0.874-4.472,1.818-6.655,2.842c-0.564,0.268-1.166,0.836-1.38,1.404
			c-1.201,3.172-2.329,6.378-3.387,9.6c-0.313,0.966-0.729,1.396-1.782,1.363c-2.126-0.067-4.259-0.063-6.387,0.004
			c-1.036,0.033-1.487-0.363-1.81-1.338c-1.045-3.176-2.149-6.335-3.354-9.453c-0.257-0.669-0.924-1.354-1.578-1.663
			c-2.008-0.949-4.076-1.797-6.175-2.517c-0.809-0.275-1.903-0.405-2.639-0.087c-2.944,1.282-5.828,2.716-8.674,4.208
			c-1.129,0.59-1.875,0.435-2.704-0.46c-1.362-1.475-2.767-2.917-4.253-4.259c-0.779-0.706-0.848-1.328-0.422-2.197
			c1.467-2.988,2.95-5.965,4.323-8.994c0.306-0.673,0.441-1.635,0.203-2.299c-0.805-2.257-1.751-4.472-2.783-6.637
			c-0.293-0.618-0.968-1.232-1.609-1.475c-3.126-1.179-6.29-2.262-9.462-3.311c-0.948-0.313-1.379-0.79-1.356-1.813
			c0.049-2.19-0.056-4.389,0.065-6.57c0.029-0.522,0.591-1.282,1.082-1.471c3.172-1.221,6.417-2.257,9.581-3.502
			c0.721-0.284,1.41-1.062,1.764-1.785c0.978-1.997,1.859-4.058,2.596-6.151c0.261-0.744,0.25-1.785-0.067-2.495
			c-1.379-3.102-2.957-6.11-4.353-9.203c-0.216-0.48-0.077-1.412,0.27-1.806c1.452-1.634,2.992-3.205,4.626-4.659
			c0.441-0.389,1.457-0.585,1.981-0.352c3.099,1.358,6.105,2.93,9.205,4.292c0.706,0.31,1.736,0.318,2.468,0.055
			c2.198-0.798,4.346-1.747,6.465-2.741c0.564-0.264,1.183-0.812,1.398-1.375c1.21-3.177,2.378-6.378,3.396-9.621
			c0.355-1.128,0.919-1.421,1.954-1.399c1.949,0.037,3.903,0.092,5.844-0.009c1.235-0.067,1.85,0.317,2.236,1.529
			c0.959,3.009,2.129,5.952,3.082,8.961c0.403,1.274,1.063,1.905,2.359,2.315c1.943,0.609,3.747,1.65,5.674,2.327
			c0.754,0.268,1.801,0.317,2.512,0.009c2.988-1.316,5.928-2.754,8.826-4.259c1.107-0.572,1.85-0.502,2.695,0.418
			c1.356,1.479,2.828,2.851,4.234,4.283C974.074,512.01,974.325,512.41,974.593,512.753z"/>
	</g>
</g>
<circle fill="none" stroke="#000000" stroke-miterlimit="10" cx="939.348" cy="541.637" r="6.662"/>
<g>
	<g>
		<path fill="none" stroke="#000000" stroke-miterlimit="10" d="M893.439,572.246c-0.896,1.852-1.935,3.645-2.706,5.551
			c-0.288,0.714-0.201,1.738,0.068,2.49c0.766,2.148,1.651,4.259,2.627,6.319c0.293,0.618,0.947,1.241,1.582,1.483
			c2.835,1.082,5.696,2.103,8.595,2.992c1.607,0.493,2.447,1.191,2.248,3.034c-0.189,1.747-0.096,3.531-0.02,5.291
			c0.045,1.157-0.371,1.73-1.498,2.094c-3.123,0.999-6.227,2.061-9.279,3.252c-0.693,0.271-1.339,1.078-1.678,1.793
			c-0.984,2.068-1.857,4.2-2.642,6.353c-0.228,0.622-0.231,1.504,0.036,2.102c1.308,2.926,2.683,5.83,4.162,8.676
			c0.62,1.191,0.686,2.027-0.403,2.968c-1.331,1.153-2.587,2.411-3.759,3.724c-1.006,1.124-1.87,1.325-3.289,0.564
			c-2.878-1.551-5.879-2.871-8.869-4.2c-0.518-0.234-1.293-0.222-1.832-0.009c-2.249,0.874-4.472,1.818-6.655,2.842
			c-0.564,0.268-1.166,0.836-1.38,1.404c-1.201,3.172-2.329,6.378-3.387,9.6c-0.313,0.966-0.729,1.396-1.782,1.363
			c-2.126-0.067-4.259-0.063-6.387,0.004c-1.036,0.033-1.487-0.363-1.81-1.338c-1.045-3.176-2.149-6.335-3.354-9.453
			c-0.257-0.669-0.924-1.354-1.578-1.663c-2.008-0.949-4.076-1.797-6.175-2.517c-0.809-0.275-1.903-0.405-2.639-0.087
			c-2.944,1.282-5.828,2.716-8.674,4.208c-1.129,0.59-1.875,0.435-2.704-0.46c-1.362-1.475-2.767-2.917-4.253-4.259
			c-0.779-0.706-0.848-1.328-0.422-2.197c1.467-2.988,2.95-5.965,4.323-8.994c0.306-0.673,0.441-1.635,0.203-2.299
			c-0.805-2.257-1.751-4.472-2.783-6.637c-0.293-0.618-0.968-1.232-1.609-1.475c-3.126-1.179-6.29-2.262-9.462-3.311
			c-0.948-0.313-1.379-0.79-1.356-1.813c0.049-2.19-0.056-4.389,0.065-6.57c0.029-0.522,0.591-1.282,1.082-1.471
			c3.172-1.221,6.417-2.257,9.581-3.502c0.721-0.284,1.41-1.062,1.764-1.785c0.978-1.997,1.859-4.058,2.596-6.151
			c0.261-0.744,0.25-1.785-0.067-2.495c-1.379-3.102-2.957-6.11-4.353-9.203c-0.216-0.48-0.077-1.412,0.27-1.806
			c1.452-1.634,2.992-3.205,4.626-4.659c0.441-0.389,1.457-0.585,1.981-0.352c3.099,1.358,6.105,2.93,9.205,4.292
			c0.706,0.31,1.736,0.318,2.468,0.055c2.198-0.798,4.346-1.747,6.465-2.741c0.564-0.264,1.183-0.812,1.398-1.375
			c1.21-3.177,2.378-6.378,3.396-9.621c0.355-1.129,0.919-1.421,1.954-1.4c1.949,0.038,3.903,0.092,5.844-0.008
			c1.235-0.066,1.85,0.317,2.236,1.529c0.959,3.01,2.129,5.952,3.082,8.961c0.403,1.274,1.063,1.905,2.359,2.315
			c1.943,0.609,3.747,1.65,5.674,2.327c0.754,0.268,1.801,0.317,2.512,0.009c2.988-1.316,5.928-2.754,8.826-4.259
			c1.107-0.572,1.85-0.502,2.695,0.418c1.356,1.479,2.828,2.851,4.234,4.283c0.323,0.331,0.574,0.731,0.842,1.074
			C894.871,569.166,894.179,570.721,893.439,572.246z"/>
		<path fill-rule="evenodd" clip-rule="evenodd" fill="none" stroke="#000000" stroke-miterlimit="10" d="M895.636,567.507
			c-0.765,1.659-1.457,3.214-2.196,4.739c-0.896,1.852-1.935,3.645-2.706,5.551c-0.288,0.714-0.201,1.738,0.068,2.49
			c0.766,2.148,1.651,4.259,2.627,6.319c0.293,0.618,0.947,1.241,1.582,1.483c2.835,1.082,5.696,2.103,8.595,2.992
			c1.607,0.493,2.447,1.191,2.248,3.034c-0.189,1.747-0.096,3.531-0.02,5.291c0.045,1.157-0.371,1.73-1.498,2.094
			c-3.123,0.999-6.227,2.061-9.279,3.252c-0.693,0.271-1.339,1.078-1.678,1.793c-0.984,2.068-1.857,4.2-2.642,6.353
			c-0.228,0.622-0.231,1.504,0.036,2.102c1.308,2.926,2.683,5.83,4.162,8.676c0.62,1.191,0.686,2.027-0.403,2.968
			c-1.331,1.153-2.587,2.411-3.759,3.724c-1.006,1.124-1.87,1.325-3.289,0.564c-2.878-1.551-5.879-2.871-8.869-4.2
			c-0.518-0.234-1.293-0.222-1.832-0.009c-2.249,0.874-4.472,1.818-6.655,2.842c-0.564,0.268-1.166,0.836-1.38,1.404
			c-1.201,3.172-2.329,6.378-3.387,9.6c-0.313,0.966-0.729,1.396-1.782,1.363c-2.126-0.067-4.259-0.063-6.387,0.004
			c-1.036,0.033-1.487-0.363-1.81-1.338c-1.045-3.176-2.149-6.335-3.354-9.453c-0.257-0.669-0.924-1.354-1.578-1.663
			c-2.008-0.949-4.076-1.797-6.175-2.517c-0.809-0.275-1.903-0.405-2.639-0.087c-2.944,1.282-5.828,2.716-8.674,4.208
			c-1.129,0.59-1.875,0.435-2.704-0.46c-1.362-1.475-2.767-2.917-4.253-4.259c-0.779-0.706-0.848-1.328-0.422-2.197
			c1.467-2.988,2.95-5.965,4.323-8.994c0.306-0.673,0.441-1.635,0.203-2.299c-0.805-2.257-1.751-4.472-2.783-6.637
			c-0.293-0.618-0.968-1.232-1.609-1.475c-3.126-1.179-6.29-2.262-9.462-3.311c-0.948-0.313-1.379-0.79-1.356-1.813
			c0.049-2.19-0.056-4.389,0.065-6.57c0.029-0.522,0.591-1.282,1.082-1.471c3.172-1.221,6.417-2.257,9.581-3.502
			c0.721-0.284,1.41-1.062,1.764-1.785c0.978-1.997,1.859-4.058,2.596-6.151c0.261-0.744,0.25-1.785-0.067-2.495
			c-1.379-3.102-2.957-6.11-4.353-9.203c-0.216-0.48-0.077-1.412,0.27-1.806c1.452-1.634,2.992-3.205,4.626-4.659
			c0.441-0.389,1.457-0.585,1.981-0.352c3.099,1.358,6.105,2.93,9.205,4.292c0.706,0.31,1.736,0.318,2.468,0.055
			c2.198-0.798,4.346-1.747,6.465-2.741c0.564-0.264,1.183-0.812,1.398-1.375c1.21-3.177,2.378-6.378,3.396-9.621
			c0.355-1.129,0.919-1.421,1.954-1.4c1.949,0.038,3.903,0.092,5.844-0.008c1.235-0.066,1.85,0.317,2.236,1.529
			c0.959,3.01,2.129,5.952,3.082,8.961c0.403,1.274,1.063,1.905,2.359,2.315c1.943,0.609,3.747,1.65,5.674,2.327
			c0.754,0.268,1.801,0.317,2.512,0.009c2.988-1.316,5.928-2.754,8.826-4.259c1.107-0.572,1.85-0.502,2.695,0.418
			c1.356,1.479,2.828,2.851,4.234,4.283C895.117,566.764,895.368,567.164,895.636,567.507z"/>
	</g>
</g>
<circle fill="none" stroke="#000000" stroke-miterlimit="10" cx="860.391" cy="596.391" r="6.662"/>
<circle fill="none" stroke="#000000" stroke-width="0.5" stroke-miterlimit="10" cx="653.311" cy="486.185" r="11.197"/>
<polyline fill="none" stroke="#000000" stroke-width="0.5" stroke-miterlimit="10" points="699.04,534.375 622.131,534.375 
	622.131,437.996 699.04,437.996 "/>
<polyline fill="none" stroke="#000000" stroke-width="0.5" stroke-miterlimit="10" points="699.04,437.996 713.214,437.996 
	713.214,466.343 699.04,466.343 699.04,506.029 713.214,506.029 713.214,534.375 699.04,534.375 "/>
<circle fill="none" stroke="#000000" stroke-width="0.5" stroke-miterlimit="10" cx="754.431" cy="526.082" r="11.197"/>
<polyline fill="none" stroke="#000000" stroke-width="0.5" stroke-miterlimit="10" points="800.171,574.271 723.249,574.271 
	723.249,477.893 800.171,477.893 "/>
<polyline fill="none" stroke="#000000" stroke-width="0.5" stroke-miterlimit="10" points="773.437,477.893 800.181,477.893 
	800.181,506.24 814.333,506.24 814.333,545.926 800.181,545.926 800.181,574.271 773.437,574.271 "/>
<path fill="none" stroke="#000000" stroke-miterlimit="10" d="M96.845,579.563c0,1.762-1.27,3.189-2.834,3.189l0,0
	c-1.566,0-2.836-1.428-2.836-3.189v-4.96c0-1.761,1.27-3.188,2.836-3.188l0,0c1.564,0,2.834,1.428,2.834,3.188V579.563z"/>
<path fill="none" stroke="#000000" stroke-miterlimit="10" d="M133.696,579.563c0,1.762-1.27,3.189-2.835,3.189l0,0
	c-1.564,0-2.834-1.428-2.834-3.189v-4.96c0-1.761,1.27-3.188,2.834-3.188l0,0c1.566,0,2.835,1.428,2.835,3.188V579.563z"/>
<path fill="none" stroke="#000000" stroke-miterlimit="10" d="M96.845,639.905c0,1.762-1.27,3.189-2.834,3.189l0,0
	c-1.566,0-2.836-1.428-2.836-3.189v-4.96c0-1.761,1.27-3.188,2.836-3.188l0,0c1.564,0,2.834,1.428,2.834,3.188V639.905z"/>
<path fill="none" stroke="#000000" stroke-miterlimit="10" d="M133.696,639.905c0,1.762-1.27,3.189-2.835,3.189l0,0
	c-1.564,0-2.834-1.428-2.834-3.189v-4.96c0-1.761,1.27-3.188,2.834-3.188l0,0c1.566,0,2.835,1.428,2.835,3.188V639.905z"/>
<path fill="none" stroke="#000000" stroke-miterlimit="10" d="M76.952,640.636c0,6.627,5.373,12,12,12h46.333
	c6.627,0,12-5.373,12-12v-65.334c0-6.627-5.373-12-12-12H88.952c-6.627,0-12,5.373-12,12l0.001,25.58l-0.027,0.531v14.173
	l0.022-0.531L76.952,640.636z"/>
<rect x="88.562" y="600.882" fill="none" stroke="#000000" stroke-miterlimit="10" width="14.173" height="14.174"/>
<rect x="121.477" y="600.882" fill="none" stroke="#000000" stroke-miterlimit="10" width="14.172" height="14.174"/>
<polyline fill="none" stroke="#000000" stroke-miterlimit="10" points="116.689,702.241 130.86,702.032 130.651,687.862 
	116.479,688.069 116.204,669.331 130.376,669.122 130.167,654.95 115.995,655.159 "/>
<polyline fill="none" stroke="#000000" stroke-miterlimit="10" points="116.689,702.241 85.279,702.704 84.584,655.623 
	115.995,655.159 "/>
<circle fill="none" stroke="#000000" stroke-width="0.5" stroke-miterlimit="10" cx="654.522" cy="595.807" r="11.197"/>
<polyline fill="none" stroke="#000000" stroke-width="0.5" stroke-miterlimit="10" points="700.252,643.996 623.343,643.996 
	623.343,547.617 700.252,547.617 "/>
<polyline fill="none" stroke="#000000" stroke-width="0.5" stroke-miterlimit="10" points="700.252,547.617 714.426,547.617 
	714.426,575.965 700.252,575.965 700.252,615.65 714.426,615.65 714.426,643.996 700.252,643.996 "/>
<circle fill="none" stroke="#000000" stroke-width="0.5" stroke-miterlimit="10" cx="751.269" cy="648.652" r="11.197"/>
<polyline fill="none" stroke="#000000" stroke-width="0.5" stroke-miterlimit="10" points="797.008,696.842 720.086,696.842 
	720.086,600.463 797.008,600.463 "/>
<polyline fill="none" stroke="#000000" stroke-width="0.5" stroke-miterlimit="10" points="770.274,600.463 797.018,600.463 
	797.018,628.811 811.17,628.811 811.17,668.496 797.018,668.496 797.018,696.842 770.274,696.842 "/>
<polygon fill="none" stroke="#000000" stroke-miterlimit="10" points="96.3,686.444 91.963,678.933 96.3,671.421 104.974,671.421 
	109.311,678.933 104.974,686.444 "/>
<rect x="141.839" y="678.023" fill="none" stroke="#000000" stroke-miterlimit="10" width="14.176" height="14.173"/>
<circle fill="none" stroke="#000000" stroke-miterlimit="10" cx="148.926" cy="663.94" r="4.252"/>
<rect x="134.752" y="651.739" fill="none" stroke="#000000" stroke-miterlimit="10" width="28.346" height="46.062"/>
</svg>
