<?xml version="1.0" encoding="utf-8"?>
<!-- Generator: Adobe Illustrator 16.0.0, SVG Export Plug-In . SVG Version: 6.00 Build 0)  -->
<!DOCTYPE svg PUBLIC "-//W3C//DTD SVG 1.1//EN" "http://www.w3.org/Graphics/SVG/1.1/DTD/svg11.dtd">
<svg version="1.1" id="Layer_1" xmlns="http://www.w3.org/2000/svg" xmlns:xlink="http://www.w3.org/1999/xlink" x="0px" y="0px"
	 width="1700.79px" height="1133.86px" viewBox="0 0 1700.79 1133.86" enable-background="new 0 0 1700.79 1133.86"
	 xml:space="preserve">
<circle fill="none" stroke="#000000" stroke-miterlimit="10" cx="720.953" cy="214.991" r="11.196"/>
<polygon fill="none" stroke="#000000" stroke-miterlimit="10" points="689.772,263.2 689.772,166.782 706.432,166.782 
	709.823,170.32 741.372,170.172 741.372,188.749 752.135,199.364 752.135,229.439 741.667,240.496 741.52,259.514 709.674,259.465 
	706.432,263.2 "/>
<circle fill="none" stroke="#000000" stroke-miterlimit="10" cx="60.482" cy="214.991" r="11.196"/>
<polygon fill="none" stroke="#000000" stroke-miterlimit="10" points="91.663,166.782 91.663,263.2 75.003,263.2 71.612,259.662 
	40.063,259.809 40.063,241.233 29.3,230.618 29.3,200.542 39.769,189.486 39.915,170.467 71.761,170.516 75.003,166.782 "/>
<polyline fill="none" stroke="#000000" stroke-miterlimit="10" points="383.93,20.122 383.93,5.949 398.104,5.949 398.104,20.122 
	"/>
<polyline fill="none" stroke="#000000" stroke-miterlimit="10" points="440.624,20.122 440.624,5.949 454.795,5.949 454.795,20.122 
	702.803,20.122 766.308,91.233 766.308,337.078 702.896,408.162 407.386,408.162 77.803,408.162 15.126,337.122 15.126,91.206 
	78.539,20.122 327.237,20.122 327.237,5.949 341.41,5.949 341.41,20.122 "/>
<line fill="none" stroke="#000000" stroke-miterlimit="10" x1="398.104" y1="20.122" x2="440.624" y2="20.122"/>
<line fill="none" stroke="#000000" stroke-miterlimit="10" x1="341.41" y1="20.122" x2="383.93" y2="20.122"/>
<path fill="none" stroke="#000000" stroke-miterlimit="10" d="M490.229,412.7c0,6.627-5.955,12-13.303,12h-171.82
	c-7.347,0-13.302-5.373-13.302-12v-299c0-6.627,5.956-12,13.302-12h171.82c7.348,0,13.303,5.373,13.303,12V412.7z"/>
<rect x="355.553" y="206.682" fill="none" stroke="#000000" stroke-miterlimit="10" width="70.866" height="14.174"/>
<rect x="383.568" y="179.439" fill="none" stroke="#000000" stroke-miterlimit="10" width="14.174" height="70.865"/>
<circle fill="none" stroke="#000000" stroke-miterlimit="10" cx="713.802" cy="646.635" r="11.196"/>
<polygon fill="none" stroke="#000000" stroke-miterlimit="10" points="682.622,694.844 682.622,598.426 699.282,598.426 
	702.672,601.965 734.221,601.816 734.221,620.393 744.985,631.008 744.985,661.084 734.516,672.141 734.37,691.158 702.524,691.109 
	699.282,694.844 "/>
<circle fill="none" stroke="#000000" stroke-miterlimit="10" cx="53.333" cy="646.635" r="11.196"/>
<polygon fill="none" stroke="#000000" stroke-miterlimit="10" points="84.513,598.426 84.513,694.844 67.853,694.844 
	64.462,691.307 32.914,691.453 32.914,672.877 22.15,662.262 22.15,632.188 32.619,621.131 32.765,602.111 64.611,602.16 
	67.853,598.426 "/>
<polyline fill="none" stroke="#000000" stroke-miterlimit="10" points="376.78,451.766 376.78,437.593 390.954,437.593 
	390.954,451.766 "/>
<polyline fill="none" stroke="#000000" stroke-miterlimit="10" points="334.26,451.766 334.26,437.593 320.087,437.593 
	320.087,451.766 71.389,451.766 7.977,522.85 7.977,768.766 70.653,839.807 "/>
<polyline fill="none" stroke="#000000" stroke-miterlimit="10" points="433.474,451.766 433.474,437.593 447.646,437.593 
	447.646,451.766 695.653,451.766 759.159,522.877 759.159,768.723 695.747,839.807 637.354,839.807 "/>
<line fill="none" stroke="#000000" stroke-miterlimit="10" x1="390.954" y1="451.766" x2="433.474" y2="451.766"/>
<line fill="none" stroke="#000000" stroke-miterlimit="10" x1="334.26" y1="451.766" x2="376.78" y2="451.766"/>
<path fill="none" stroke="#000000" stroke-miterlimit="10" d="M130.38,839.732V545.344c0-6.627,15.216-12,33.987-12h438.999
	c18.773,0,33.989,5.373,33.989,12v294.462"/>
<line fill="none" stroke="#000000" stroke-miterlimit="10" x1="70.653" y1="839.807" x2="130.38" y2="839.732"/>
<circle fill="none" stroke="#000000" stroke-miterlimit="10" cx="1380.174" cy="226.521" r="11.196"/>
<polygon fill="none" stroke="#000000" stroke-miterlimit="10" points="1428.383,257.701 1331.965,257.701 1331.965,241.041 
	1335.503,237.65 1335.355,206.102 1353.932,206.102 1364.547,195.338 1394.622,195.338 1405.679,205.807 1424.697,205.953 
	1424.648,237.799 1428.383,241.041 "/>
<circle fill="none" stroke="#000000" stroke-miterlimit="10" cx="1380.174" cy="886.989" r="11.196"/>
<polygon fill="none" stroke="#000000" stroke-miterlimit="10" points="1331.965,855.809 1428.383,855.809 1428.383,872.469 
	1424.845,875.859 1424.992,907.408 1406.416,907.408 1395.801,918.172 1365.726,918.172 1354.669,907.703 1335.65,907.557 
	1335.699,875.711 1331.965,872.469 "/>
<path fill="none" stroke="#000000" stroke-miterlimit="10" d="M1185.305,549.367"/>
<path fill="none" stroke="#000000" stroke-miterlimit="10" d="M1185.305,563.542"/>
<polyline fill="none" stroke="#000000" stroke-miterlimit="10" points="1185.305,606.062 1171.132,606.062 1171.132,620.234 
	1185.305,620.234 1185.305,809.941 1185.305,868.934 1256.389,932.346 1502.305,932.346 1573.345,869.67 "/>
<polyline fill="none" stroke="#000000" stroke-miterlimit="10" points="1185.305,506.849 1171.132,506.849 1171.132,492.677 
	1185.305,492.677 1185.305,244.67 1256.416,181.164 1502.261,181.164 1573.345,244.576 1573.345,302.968 "/>
<line fill="none" stroke="#000000" stroke-miterlimit="10" x1="1185.305" y1="563.542" x2="1185.305" y2="506.849"/>
<line fill="none" stroke="#000000" stroke-miterlimit="10" x1="1185.305" y1="606.062" x2="1185.305" y2="563.543"/>
<path fill="none" stroke="#000000" stroke-miterlimit="10" d="M1573.271,809.942h-294.389c-6.627,0-12-15.216-12-33.987V336.957
	c0-18.773,5.373-33.989,12-33.989h294.462"/>
<path fill="none" stroke="#000000" stroke-miterlimit="10" d="M1185.305,809.941"/>
<line fill="none" stroke="#000000" stroke-miterlimit="10" x1="1573.345" y1="869.67" x2="1573.271" y2="809.942"/>
<circle fill="none" stroke="#000000" stroke-miterlimit="10" cx="1471.236" cy="736.753" r="11.196"/>
<polygon fill="none" stroke="#000000" stroke-miterlimit="10" points="1423.027,705.572 1519.445,705.572 1519.445,722.232 
	1515.907,725.623 1516.055,757.172 1497.479,757.172 1486.863,767.936 1456.788,767.936 1445.731,757.467 1426.713,757.32 
	1426.762,725.475 1423.027,722.232 "/>
<circle fill="none" stroke="#000000" stroke-miterlimit="10" cx="1471.236" cy="76.284" r="11.197"/>
<polygon fill="none" stroke="#000000" stroke-miterlimit="10" points="1519.445,107.465 1423.027,107.465 1423.027,90.805 
	1426.565,87.414 1426.418,55.864 1444.994,55.864 1455.609,45.101 1485.685,45.101 1496.741,55.569 1515.76,55.716 1515.711,87.562 
	1519.445,90.805 "/>
<path fill="none" stroke="#000000" stroke-miterlimit="10" d="M1666.105,413.906"/>
<path fill="none" stroke="#000000" stroke-miterlimit="10" d="M1666.105,399.73"/>
<polyline fill="none" stroke="#000000" stroke-miterlimit="10" points="1666.105,357.211 1680.278,357.211 1680.278,343.039 
	1666.105,343.039 1666.105,94.34 1595.021,30.928 1349.105,30.928 1278.065,93.604 "/>
<polyline fill="none" stroke="#000000" stroke-miterlimit="10" points="1666.105,456.424 1680.278,456.424 1680.278,470.596 
	1666.105,470.596 1666.105,718.604 1594.994,782.109 1349.149,782.109 1278.065,718.697 1278.065,660.305 "/>
<line fill="none" stroke="#000000" stroke-miterlimit="10" x1="1666.105" y1="399.73" x2="1666.105" y2="456.424"/>
<line fill="none" stroke="#000000" stroke-miterlimit="10" x1="1666.105" y1="357.211" x2="1666.105" y2="399.73"/>
<path fill="none" stroke="#000000" stroke-miterlimit="10" d="M1278.139,153.33h294.389c6.627,0,12,15.217,12,33.988v438.998
	c0,18.773-5.373,33.988-12,33.988h-294.462"/>
<line fill="none" stroke="#000000" stroke-miterlimit="10" x1="1278.065" y1="93.604" x2="1278.139" y2="153.33"/>
<polygon fill="none" stroke="#000000" stroke-miterlimit="10" points="1349.077,530.301 1360.132,523.918 1371.187,530.301 
	1371.187,543.067 1360.132,549.45 1349.077,543.067 "/>
<polygon fill="none" stroke="#000000" stroke-miterlimit="10" points="1292.988,530.301 1304.043,523.918 1315.098,530.301 
	1315.098,543.067 1304.043,549.45 1292.988,543.067 "/>
<rect x="1282.358" y="508.337" fill="none" stroke="#000000" stroke-miterlimit="10" width="99.213" height="56.693"/>
<rect x="1324.878" y="550.858" fill="none" stroke="#000000" stroke-miterlimit="10" width="14.174" height="14.173"/>
<rect x="1324.878" y="508.337" fill="none" stroke="#000000" stroke-miterlimit="10" width="14.174" height="14.173"/>
<rect x="1282.539" y="413.345" fill="none" stroke="#000000" stroke-miterlimit="10" width="70.865" height="85.039"/>
<rect x="1310.885" y="455.864" fill="none" stroke="#000000" stroke-miterlimit="10" width="14.174" height="42.52"/>
<rect x="1282.539" y="324.328" fill="none" stroke="#000000" stroke-miterlimit="10" width="70.865" height="85.039"/>
<rect x="1310.885" y="366.848" fill="none" stroke="#000000" stroke-miterlimit="10" width="14.174" height="42.52"/>
<g>
	<g>
		<path fill="none" stroke="#000000" stroke-miterlimit="10" d="M1510.047,353.648c-1.715,3.534-3.695,6.957-5.166,10.592
			c-0.551,1.363-0.385,3.316,0.131,4.757c1.461,4.1,3.15,8.127,5.012,12.06c0.559,1.176,1.811,2.372,3.021,2.834
			c5.408,2.064,10.873,4.016,16.408,5.709c3.064,0.939,4.67,2.273,4.287,5.793c-0.361,3.332-0.18,6.736-0.039,10.098
			c0.088,2.209-0.707,3.306-2.861,3.994c-5.957,1.906-11.881,3.932-17.707,6.209c-1.326,0.52-2.555,2.059-3.205,3.424
			c-1.875,3.949-3.541,8.012-5.039,12.123c-0.438,1.188-0.443,2.869,0.068,4.008c2.496,5.59,5.119,11.131,7.945,16.561
			c1.184,2.281,1.305,3.875-0.77,5.67c-2.541,2.201-4.941,4.602-7.18,7.107c-1.916,2.143-3.568,2.525-6.275,1.074
			c-5.494-2.955-11.221-5.48-16.926-8.018c-0.99-0.443-2.473-0.416-3.498-0.02c-4.293,1.67-8.537,3.479-12.707,5.434
			c-1.076,0.51-2.225,1.59-2.635,2.676c-2.289,6.061-4.445,12.174-6.463,18.328c-0.6,1.842-1.391,2.66-3.398,2.596
			c-4.059-0.131-8.131-0.115-12.193,0.012c-1.977,0.064-2.838-0.697-3.451-2.553c-1.994-6.064-4.104-12.094-6.402-18.043
			c-0.49-1.279-1.766-2.59-3.012-3.18c-3.834-1.811-7.781-3.428-11.789-4.803c-1.543-0.527-3.629-0.771-5.035-0.16
			c-5.619,2.445-11.127,5.178-16.557,8.023c-2.154,1.131-3.576,0.838-5.162-0.875c-2.602-2.812-5.281-5.562-8.117-8.131
			c-1.482-1.34-1.621-2.533-0.805-4.195c2.803-5.697,5.633-11.383,8.25-17.164c0.584-1.283,0.844-3.117,0.391-4.389
			c-1.537-4.307-3.346-8.533-5.312-12.664c-0.561-1.18-1.85-2.357-3.072-2.818c-5.969-2.252-12.006-4.314-18.061-6.316
			c-1.812-0.597-2.633-1.51-2.59-3.463c0.094-4.18-0.105-8.375,0.125-12.543c0.055-0.998,1.127-2.442,2.066-2.805
			c6.055-2.332,12.25-4.307,18.287-6.684c1.375-0.543,2.689-2.033,3.365-3.408c1.867-3.813,3.551-7.745,4.955-11.746
			c0.498-1.417,0.477-3.4-0.129-4.76c-2.629-5.916-5.643-11.662-8.305-17.562c-0.414-0.92-0.15-2.697,0.514-3.445
			c2.771-3.122,5.709-6.121,8.828-8.896c0.84-0.745,2.779-1.116,3.781-0.677c5.916,2.599,11.656,5.598,17.57,8.196
			c1.348,0.593,3.314,0.607,4.711,0.103c4.199-1.52,8.297-3.335,12.344-5.23c1.076-0.504,2.254-1.551,2.662-2.621
			c2.311-6.067,4.541-12.178,6.486-18.371c0.672-2.15,1.754-2.709,3.729-2.671c3.721,0.073,7.445,0.18,11.154-0.015
			c2.357-0.123,3.531,0.607,4.27,2.922c1.83,5.744,4.064,11.356,5.883,17.1c0.771,2.438,2.033,3.637,4.504,4.42
			c3.707,1.17,7.15,3.152,10.826,4.448c1.443,0.509,3.438,0.604,4.795,0.008c5.705-2.507,11.318-5.25,16.85-8.124
			c2.113-1.096,3.531-0.955,5.146,0.799c2.588,2.82,5.396,5.438,8.078,8.174c0.619,0.63,1.102,1.395,1.609,2.055
			C1512.775,347.768,1511.457,350.729,1510.047,353.648z"/>
		<path fill-rule="evenodd" clip-rule="evenodd" fill="none" stroke="#000000" stroke-miterlimit="10" d="M1514.238,344.604
			c-1.463,3.164-2.781,6.125-4.191,9.045c-1.715,3.534-3.695,6.957-5.166,10.592c-0.551,1.363-0.385,3.316,0.131,4.757
			c1.461,4.1,3.15,8.127,5.012,12.06c0.559,1.176,1.811,2.372,3.021,2.834c5.408,2.064,10.873,4.016,16.408,5.709
			c3.064,0.939,4.67,2.273,4.287,5.793c-0.361,3.332-0.18,6.736-0.039,10.098c0.088,2.209-0.707,3.306-2.861,3.994
			c-5.957,1.906-11.881,3.932-17.707,6.209c-1.326,0.52-2.555,2.059-3.205,3.424c-1.875,3.949-3.541,8.012-5.039,12.123
			c-0.438,1.188-0.443,2.869,0.068,4.008c2.496,5.59,5.119,11.131,7.945,16.561c1.184,2.281,1.305,3.875-0.77,5.67
			c-2.541,2.201-4.941,4.602-7.18,7.107c-1.916,2.143-3.568,2.525-6.275,1.074c-5.494-2.955-11.221-5.48-16.926-8.018
			c-0.99-0.443-2.473-0.416-3.498-0.02c-4.293,1.67-8.537,3.479-12.707,5.434c-1.076,0.51-2.225,1.59-2.635,2.676
			c-2.289,6.061-4.445,12.174-6.463,18.328c-0.6,1.842-1.391,2.66-3.398,2.596c-4.059-0.131-8.131-0.115-12.193,0.012
			c-1.977,0.064-2.838-0.697-3.451-2.553c-1.994-6.064-4.104-12.094-6.402-18.043c-0.49-1.279-1.766-2.59-3.012-3.18
			c-3.834-1.811-7.781-3.428-11.789-4.803c-1.543-0.527-3.629-0.771-5.035-0.16c-5.619,2.445-11.127,5.178-16.557,8.023
			c-2.154,1.131-3.576,0.838-5.162-0.875c-2.602-2.812-5.281-5.562-8.117-8.131c-1.482-1.34-1.621-2.533-0.805-4.195
			c2.803-5.697,5.633-11.383,8.25-17.164c0.584-1.283,0.844-3.117,0.391-4.389c-1.537-4.307-3.346-8.533-5.312-12.664
			c-0.561-1.18-1.85-2.357-3.072-2.818c-5.969-2.252-12.006-4.314-18.061-6.316c-1.812-0.597-2.633-1.51-2.59-3.463
			c0.094-4.18-0.105-8.375,0.125-12.543c0.055-0.998,1.127-2.442,2.066-2.805c6.055-2.332,12.25-4.307,18.287-6.684
			c1.375-0.543,2.689-2.033,3.365-3.408c1.867-3.813,3.551-7.745,4.955-11.746c0.498-1.417,0.477-3.4-0.129-4.76
			c-2.629-5.916-5.643-11.662-8.305-17.562c-0.414-0.92-0.15-2.697,0.514-3.445c2.771-3.122,5.709-6.121,8.828-8.896
			c0.84-0.745,2.779-1.116,3.781-0.677c5.916,2.599,11.656,5.598,17.57,8.196c1.348,0.593,3.314,0.607,4.711,0.103
			c4.199-1.52,8.297-3.335,12.344-5.23c1.076-0.504,2.254-1.551,2.662-2.621c2.311-6.067,4.541-12.178,6.486-18.371
			c0.672-2.15,1.754-2.709,3.729-2.671c3.721,0.073,7.445,0.18,11.154-0.015c2.357-0.123,3.531,0.607,4.27,2.922
			c1.83,5.744,4.064,11.356,5.883,17.1c0.771,2.438,2.033,3.637,4.504,4.42c3.707,1.17,7.15,3.152,10.826,4.448
			c1.443,0.509,3.438,0.604,4.795,0.008c5.705-2.507,11.318-5.25,16.85-8.124c2.113-1.096,3.531-0.955,5.146,0.799
			c2.588,2.82,5.396,5.438,8.078,8.174C1513.248,343.179,1513.73,343.943,1514.238,344.604z"/>
	</g>
</g>
<rect x="1411.529" y="391.541" fill="none" stroke="#000000" stroke-miterlimit="10" width="70.867" height="14.174"/>
<rect x="1439.545" y="364.298" fill="none" stroke="#000000" stroke-miterlimit="10" width="14.174" height="70.866"/>
<path fill="none" stroke="#000000" stroke-miterlimit="10" d="M1563.961,620.653c0,9.605-6.894,17.393-15.396,17.393h-132.264
	c-8.504,0-15.396-7.787-15.396-17.393v-95.658c0-9.606,6.892-17.393,15.396-17.393h132.264c8.502,0,15.396,7.786,15.396,17.393
	V620.653z"/>
<rect x="1447" y="565.737" fill="none" stroke="#000000" stroke-miterlimit="10" width="70.867" height="14.174"/>
<rect x="1475.347" y="537.392" fill="none" stroke="#000000" stroke-miterlimit="10" width="14.174" height="70.865"/>
<path fill="none" stroke="#000000" stroke-miterlimit="10" d="M1572.527,153.33"/>
<g transform="translate(996.9102685, 22.500018499999996) ">
	<polygon fill="none" stroke="#000000" points="-213.491,780.608 -213.491,730.294 -199.318,730.294 -199.318,679.979 
		-213.491,679.979 -213.491,645.963 -199.318,645.963 -199.318,611.947 -213.491,611.947 -213.491,577.932 -199.318,577.932 
		-199.318,543.916 -213.491,543.916 -213.491,509.9 -199.318,509.9 -199.318,475.884 -213.491,475.884 -213.491,441.868 
		-199.318,441.868 -199.318,407.853 -213.491,407.853 -213.491,373.837 -199.318,373.837 -199.318,339.821 -213.491,339.821 
		-213.491,305.806 -199.318,305.806 -199.318,271.789 -213.491,271.789 -213.491,237.773 -199.318,237.773 -199.318,203.758 
		-213.491,203.758 -213.491,169.742 -199.318,169.742 -199.318,135.727 -213.491,135.727 -213.491,101.711 -199.318,101.711 
		-199.318,51.396 -213.491,51.396 -213.491,1.081 -179.475,1.081 -179.475,15.254 -145.459,15.254 -145.459,1.081 -111.443,1.081 
		-111.443,15.254 -77.428,15.254 -77.428,1.081 -43.412,1.081 -43.412,51.396 -57.586,51.396 -57.586,101.711 -43.412,101.711 
		-43.412,135.727 -57.586,135.727 -57.586,169.742 -43.412,169.742 -43.412,203.758 -57.586,203.758 -57.586,237.773 
		-43.412,237.773 -43.412,271.789 -57.586,271.789 -57.586,305.806 -43.412,305.806 -43.412,339.821 -57.586,339.821 
		-57.586,373.837 -43.412,373.837 -43.412,407.853 -57.586,407.853 -57.586,441.868 -43.412,441.868 -43.412,475.884 
		-57.586,475.884 -57.586,509.9 -43.412,509.9 -43.412,543.916 -57.586,543.916 -57.586,577.932 -43.412,577.932 -43.412,611.947 
		-57.586,611.947 -57.586,645.963 -43.412,645.963 -43.412,679.979 -57.586,679.979 -57.586,730.294 -43.412,730.294 
		-43.412,780.608 -77.428,780.608 -77.428,766.436 -111.443,766.436 -111.443,780.608 -145.459,780.608 -145.459,766.436 
		-179.475,766.436 -179.475,780.608 	"/>
</g>
<g transform="translate(996.9102685, 22.500018499999996) ">
	<polygon fill="none" stroke="#000000" points="-17.816,781.17 -17.816,730.855 -3.642,730.855 -3.642,680.54 -17.816,680.54 
		-17.816,646.524 -3.642,646.524 -3.642,612.509 -17.816,612.509 -17.816,578.493 -3.642,578.493 -3.642,544.478 -17.816,544.478 
		-17.816,510.462 -3.642,510.462 -3.642,476.445 -17.816,476.445 -17.817,442.43 -3.643,442.43 -3.643,408.414 -17.817,408.414 
		-17.817,374.398 -3.643,374.398 -3.643,340.383 -17.817,340.383 -17.817,306.367 -3.643,306.367 -3.643,272.351 -17.817,272.351 
		-17.817,238.335 -3.643,238.335 -3.643,204.319 -17.817,204.319 -17.817,170.304 -3.643,170.304 -3.643,136.288 -17.817,136.288 
		-17.817,102.272 -3.643,102.272 -3.643,51.958 -17.817,51.958 -17.817,1.643 16.199,1.643 16.199,15.815 50.215,15.815 
		50.215,1.643 84.23,1.643 84.23,15.815 118.246,15.815 118.246,1.643 152.262,1.643 152.262,51.958 138.09,51.958 138.09,102.272 
		152.262,102.272 152.263,136.288 138.09,136.288 138.09,170.304 152.263,170.304 152.263,204.319 138.09,204.319 138.09,238.335 
		152.263,238.335 152.263,272.351 138.09,272.351 138.09,306.367 152.263,306.367 152.263,340.383 138.09,340.383 138.09,374.398 
		152.263,374.398 152.263,408.414 138.09,408.414 138.09,442.43 152.263,442.43 152.263,476.445 138.09,476.445 138.09,510.462 
		152.263,510.462 152.263,544.478 138.09,544.478 138.09,578.493 152.263,578.493 152.263,612.509 138.09,612.509 138.09,646.524 
		152.263,646.524 152.263,680.54 138.09,680.54 138.09,730.855 152.263,730.855 152.263,781.17 118.247,781.17 118.247,766.997 
		84.231,766.997 84.231,781.17 50.216,781.17 50.216,766.997 16.2,766.997 16.2,781.17 	"/>
</g>
<rect x="1025.867" y="356.039" fill="none" stroke="#000000" stroke-miterlimit="10" width="14.172" height="14.173"/>
<rect x="1025.867" y="407.119" fill="none" stroke="#000000" stroke-miterlimit="10" width="14.172" height="14.173"/>
<rect x="1025.867" y="458.199" fill="none" stroke="#000000" stroke-miterlimit="10" width="14.172" height="14.173"/>
<path fill="none" stroke="#00A651" stroke-width="0.5" stroke-miterlimit="10" d="M433.537,743.454
	c0,16.699-11.984,30.237-26.764,30.237H176.835c-14.781,0-26.764-13.538-26.764-30.237V577.155
	c0-16.699,11.982-30.236,26.764-30.236h229.938c14.779,0,26.764,13.537,26.764,30.236V743.454z"/>
<rect x="256.703" y="651.996" fill="none" stroke="#00A651" stroke-width="0.5" stroke-miterlimit="10" width="70.865" height="14.174"/>
<rect x="284.716" y="624.753" fill="none" stroke="#00A651" stroke-width="0.5" stroke-miterlimit="10" width="14.174" height="70.865"/>
<circle fill="none" stroke="#000000" stroke-miterlimit="10" cx="588.186" cy="669.031" r="4.252"/>
<polygon fill="none" stroke="#000000" stroke-miterlimit="10" points="581.099,620.683 595.272,620.683 595.272,634.856 
	601.875,634.856 601.875,644.029 595.272,644.029 595.272,677.376 581.099,677.376 581.099,644.029 574.125,644.029 
	574.125,634.856 581.099,634.856 "/>
<circle fill="none" stroke="#000000" stroke-miterlimit="10" cx="588.371" cy="609.505" r="4.252"/>
<polygon fill="none" stroke="#000000" stroke-miterlimit="10" points="581.284,561.156 595.458,561.156 595.458,575.33 
	602.061,575.33 602.061,584.503 601.875,585.086 601.875,618.433 574.125,618.124 574.311,584.464 574.311,584.503 574.311,575.33 
	581.284,575.33 "/>
<polyline fill="none" stroke="#000000" stroke-miterlimit="10" points="555.166,567.032 555.166,685.675 438.833,685.675 
	438.833,567.032 "/>
<path fill="none" stroke="#000000" stroke-miterlimit="10" d="M462.054,589.734c0,2.349-1.514,4.252-3.38,4.252h-7.415
	c-1.866,0-3.379-1.903-3.379-4.252l0,0c0-2.349,1.513-4.252,3.379-4.252h7.415C460.54,585.482,462.054,587.386,462.054,589.734
	L462.054,589.734z"/>
<path fill="none" stroke="#000000" stroke-miterlimit="10" d="M549.929,589.734c0,2.349-1.514,4.252-3.38,4.252h-7.415
	c-1.866,0-3.379-1.903-3.379-4.252l0,0c0-2.349,1.513-4.252,3.379-4.252h7.415C548.415,585.482,549.929,587.386,549.929,589.734
	L549.929,589.734z"/>
<path fill="none" stroke="#000000" stroke-miterlimit="10" d="M462.054,677.608c0,2.348-1.514,4.252-3.38,4.252h-7.415
	c-1.866,0-3.379-1.904-3.379-4.252l0,0c0-2.349,1.513-4.252,3.379-4.252h7.415C460.54,673.356,462.054,675.26,462.054,677.608
	L462.054,677.608z"/>
<path fill="none" stroke="#000000" stroke-miterlimit="10" d="M549.929,677.608c0,2.348-1.514,4.252-3.38,4.252h-7.415
	c-1.866,0-3.379-1.904-3.379-4.252l0,0c0-2.349,1.513-4.252,3.379-4.252h7.415C548.415,673.356,549.929,675.26,549.929,677.608
	L549.929,677.608z"/>
<polyline fill="none" stroke="#000000" stroke-miterlimit="10" points="438.833,567.031 438.833,552.858 453.006,552.858 
	453.006,567.031 489.913,567.031 489.913,552.858 504.086,552.858 504.086,567.031 540.993,567.031 540.993,552.858 
	555.166,552.858 555.166,567.031 "/>
<circle fill="none" stroke="#000000" stroke-miterlimit="10" cx="497" cy="632.525" r="39.685"/>
<g transform="translate(1971.3205185000002, 22.500018499999996) ">
	<polygon fill="none" stroke="#010101" stroke-width="0.0354" points="-1925.338,833.309 -1881.401,833.309 -1881.401,847.482 
		-1823.29,847.482 -1823.29,833.309 -1789.275,833.309 -1789.275,847.482 -1755.259,847.482 -1755.259,833.309 -1721.243,833.309 
		-1721.243,847.482 -1687.227,847.482 -1687.227,833.309 -1653.211,833.309 -1653.211,847.482 -1619.196,847.482 -1619.196,833.309 
		-1585.18,833.309 -1585.18,847.482 -1551.164,847.482 -1551.164,833.309 -1517.149,833.309 -1517.149,847.482 -1459.038,847.482 
		-1459.038,833.309 -1415.102,833.309 -1415.102,867.324 -1400.928,867.324 -1400.928,901.34 -1415.102,901.34 -1415.102,935.355 
		-1400.928,935.355 -1400.928,969.371 -1415.102,969.371 -1415.102,1003.387 -1459.038,1003.387 -1459.038,989.213 
		-1517.149,989.213 -1517.149,1003.387 -1551.164,1003.387 -1551.164,989.213 -1585.18,989.213 -1585.18,1003.387 
		-1619.196,1003.387 -1619.196,989.213 -1653.211,989.213 -1653.211,1003.387 -1687.227,1003.387 -1687.227,989.213 
		-1721.243,989.213 -1721.243,1003.387 -1755.259,1003.387 -1755.259,989.213 -1789.275,989.213 -1789.275,1003.387 
		-1823.29,1003.387 -1823.29,989.213 -1881.401,989.213 -1881.401,1003.387 -1925.338,1003.387 -1925.338,969.371 
		-1939.511,969.371 -1939.511,935.355 -1925.338,935.355 -1925.338,901.34 -1939.511,901.34 -1939.511,867.324 -1925.338,867.324 	
		"/>
</g>
<rect x="287.192" y="880.693" fill="none" stroke="#000000" stroke-width="0.5" stroke-miterlimit="10" width="28.347" height="14.174"/>
<rect x="219.159" y="880.693" fill="none" stroke="#000000" stroke-width="0.5" stroke-miterlimit="10" width="28.348" height="14.174"/>
<rect x="247.507" y="940.848" fill="none" stroke="#000000" stroke-width="0.5" stroke-miterlimit="10" width="39.686" height="14.152"/>
<g transform="translate(1971.3205185000002, 22.500018499999996) ">
	<polygon fill="none" stroke="#010101" stroke-width="0.0354" points="-1368.777,833.309 -1324.839,833.309 -1324.839,847.482 
		-1266.729,847.482 -1266.729,833.309 -1232.713,833.309 -1232.713,847.482 -1198.698,847.482 -1198.698,833.309 -1164.682,833.309 
		-1164.682,847.482 -1130.665,847.482 -1130.665,833.309 -1096.65,833.309 -1096.65,847.482 -1062.634,847.482 -1062.634,833.309 
		-1028.618,833.309 -1028.618,847.482 -994.603,847.482 -994.603,833.309 -960.587,833.309 -960.587,847.482 -902.477,847.482 
		-902.477,833.309 -858.54,833.309 -858.54,867.324 -844.366,867.324 -844.366,901.34 -858.54,901.34 -858.54,935.355 
		-844.366,935.355 -844.366,969.371 -858.54,969.371 -858.54,1003.387 -902.477,1003.387 -902.477,989.213 -960.587,989.213 
		-960.587,1003.387 -994.603,1003.387 -994.603,989.213 -1028.618,989.213 -1028.618,1003.387 -1062.634,1003.387 
		-1062.634,989.213 -1096.65,989.213 -1096.65,1003.387 -1130.665,1003.387 -1130.665,989.213 -1164.682,989.213 
		-1164.682,1003.387 -1198.698,1003.387 -1198.698,989.213 -1232.713,989.213 -1232.713,1003.387 -1266.729,1003.387 
		-1266.729,989.213 -1324.839,989.213 -1324.839,1003.387 -1368.777,1003.387 -1368.777,969.371 -1382.949,969.371 
		-1382.949,935.355 -1368.777,935.355 -1368.777,901.34 -1382.949,901.34 -1382.949,867.324 -1368.777,867.324 	"/>
</g>
<rect x="843.754" y="880.693" fill="none" stroke="#000000" stroke-width="0.5" stroke-miterlimit="10" width="28.347" height="14.174"/>
<rect x="775.721" y="880.693" fill="none" stroke="#000000" stroke-width="0.5" stroke-miterlimit="10" width="28.348" height="14.174"/>
<rect x="804.068" y="940.848" fill="none" stroke="#000000" stroke-width="0.5" stroke-miterlimit="10" width="39.686" height="14.152"/>
</svg>
