<?xml version="1.0" encoding="utf-8"?>
<!-- Generator: Adobe Illustrator 16.0.0, SVG Export Plug-In . SVG Version: 6.00 Build 0)  -->
<!DOCTYPE svg PUBLIC "-//W3C//DTD SVG 1.1//EN" "http://www.w3.org/Graphics/SVG/1.1/DTD/svg11.dtd">
<svg version="1.1" id="Layer_1" xmlns="http://www.w3.org/2000/svg" xmlns:xlink="http://www.w3.org/1999/xlink" x="0px" y="0px"
	 width="1700.79px" height="1133.86px" viewBox="0 0 1700.79 1133.86" enable-background="new 0 0 1700.79 1133.86"
	 xml:space="preserve">
<circle fill="none" stroke="#000000" stroke-width="0.5" stroke-miterlimit="10" cx="739.709" cy="319.218" r="11.196"/>
<circle fill="none" stroke="#000000" stroke-width="0.5" stroke-miterlimit="10" cx="79.239" cy="319.218" r="11.196"/>
<circle fill="none" stroke="#00A651" stroke-width="0.5" stroke-miterlimit="10" cx="409.773" cy="94.584" r="11.338"/>
<path fill="none" stroke="#000000" stroke-miterlimit="10" d="M407.414,124.349"/>
<rect x="353.081" y="175.105" fill="none" stroke="#000000" stroke-miterlimit="10" width="113.386" height="14.173"/>
<rect x="216.061" y="92.458" fill="none" stroke="#000000" stroke-miterlimit="10" width="56.693" height="4.252"/>
<g transform="translate(22.500018499999996, 235.0986185) ">
	<polygon fill="none" stroke="#010101" stroke-width="0.0354" points="11.683,-204.749 47.825,-204.749 47.825,-218.922 
		98.139,-218.922 98.139,-204.749 132.156,-204.749 132.156,-218.922 166.171,-218.922 166.171,-204.749 200.187,-204.749 
		200.187,-218.922 234.203,-218.922 234.203,-204.749 268.218,-204.749 268.218,-218.922 302.234,-218.922 302.234,-204.749 
		336.249,-204.749 336.249,-218.922 370.265,-218.922 370.265,-204.749 404.282,-204.749 404.282,-218.922 438.297,-218.922 
		438.297,-204.749 472.313,-204.749 472.313,-218.922 506.329,-218.922 506.329,-204.749 540.344,-204.749 540.344,-218.922 
		574.361,-218.922 574.361,-204.749 608.376,-204.749 608.376,-218.922 642.392,-218.922 642.392,-204.749 676.408,-204.749 
		676.408,-218.922 726.722,-218.922 726.722,-204.749 762.865,-204.749 762.865,-160.812 777.038,-160.812 777.038,-102.701 
		762.865,-102.701 762.865,-68.686 777.038,-68.686 777.038,-34.67 762.865,-34.67 762.865,-0.654 777.038,-0.654 777.038,33.361 
		762.865,33.361 762.865,67.377 777.038,67.377 777.038,101.393 762.865,101.393 762.865,135.408 777.038,135.408 777.038,169.424 
		762.865,169.424 762.865,203.441 777.038,203.441 777.038,261.551 762.865,261.551 762.865,305.488 726.722,305.488 
		726.722,319.66 676.408,319.66 676.408,305.488 642.392,305.488 642.392,319.66 608.376,319.66 608.376,305.488 574.361,305.488 
		574.361,319.66 540.344,319.66 540.344,305.488 506.329,305.488 506.329,319.66 472.313,319.66 472.313,305.488 438.297,305.488 
		438.297,319.66 404.282,319.66 404.282,305.488 370.265,305.488 370.265,319.66 336.249,319.66 336.249,305.488 302.234,305.488 
		302.234,319.66 268.218,319.66 268.218,305.488 234.203,305.488 234.203,319.66 200.187,319.66 200.187,305.488 166.171,305.488 
		166.171,319.66 132.156,319.66 132.156,305.488 98.139,305.488 98.139,319.66 47.825,319.66 47.825,305.488 11.683,305.488 
		11.683,261.551 -2.491,261.551 -2.491,203.441 11.683,203.441 11.683,169.424 -2.491,169.424 -2.491,135.408 11.683,135.408 
		11.683,101.393 -2.491,101.393 -2.491,67.377 11.683,67.377 11.683,33.361 -2.491,33.361 -2.491,-0.654 11.683,-0.654 
		11.683,-34.67 -2.491,-34.67 -2.491,-68.686 11.683,-68.686 11.683,-102.701 -2.491,-102.701 -2.491,-160.812 11.683,-160.812 	"/>
</g>
<polygon fill="none" stroke="#000000" stroke-miterlimit="10" points="240.071,56.896 235.734,49.384 240.071,41.873 
	248.745,41.873 253.082,49.384 248.745,56.896 "/>
<circle fill="none" stroke="#000000" stroke-miterlimit="10" cx="271.699" cy="820.864" r="3.118"/>
<circle fill="none" stroke="#000000" stroke-miterlimit="10" cx="271.699" cy="985.272" r="3.118"/>
<circle fill="none" stroke="#000000" stroke-miterlimit="10" cx="132.803" cy="985.272" r="3.118"/>
<circle fill="none" stroke="#000000" stroke-miterlimit="10" cx="132.803" cy="820.864" r="3.118"/>
<circle fill="none" stroke="#000000" stroke-miterlimit="10" cx="513.292" cy="734.523" r="3.685"/>
<circle fill="none" stroke="#000000" stroke-miterlimit="10" cx="513.292" cy="954.492" r="3.685"/>
<circle fill="none" stroke="#000000" stroke-miterlimit="10" cx="343.213" cy="738.207" r="3.686"/>
<circle fill="none" stroke="#000000" stroke-miterlimit="10" cx="343.213" cy="979.154" r="3.686"/>
<g transform="translate(22.500018499999996, 235.0986185) ">
	<polygon fill="none" stroke="#010101" stroke-width="0.0354" points="9.323,357.376 45.465,357.376 45.465,343.202 95.779,343.202 
		95.779,357.376 129.796,357.376 129.796,343.202 163.812,343.202 163.812,357.376 197.827,357.376 197.827,343.202 
		231.843,343.202 231.843,357.376 265.858,357.376 265.858,343.202 299.874,343.202 299.874,357.376 333.89,357.376 333.89,343.202 
		367.905,343.202 367.905,357.376 401.922,357.376 401.922,343.202 435.937,343.202 435.937,357.376 469.953,357.376 
		469.953,343.202 503.969,343.202 503.969,357.376 537.984,357.376 537.984,343.202 572.001,343.202 572.001,357.376 
		606.017,357.376 606.017,343.202 640.032,343.202 640.032,357.376 674.048,357.376 674.048,343.202 724.362,343.202 
		724.362,357.376 760.505,357.376 760.505,401.313 774.678,401.313 774.678,459.423 760.505,459.423 760.505,493.438 
		774.678,493.438 774.678,527.454 760.505,527.454 760.505,561.47 774.678,561.47 774.678,595.485 760.505,595.485 760.505,629.501 
		774.678,629.501 774.678,663.517 760.505,663.517 760.505,697.532 774.678,697.532 774.678,731.548 760.505,731.548 
		760.505,765.565 774.678,765.565 774.678,823.675 760.505,823.675 760.505,867.612 724.362,867.612 724.362,881.784 
		674.048,881.784 674.048,867.612 640.032,867.612 640.032,881.784 606.017,881.784 606.017,867.612 572.001,867.612 
		572.001,881.784 537.984,881.784 537.984,867.612 503.969,867.612 503.969,881.784 469.953,881.784 469.953,867.612 
		435.937,867.612 435.937,881.784 401.922,881.784 401.922,867.612 367.905,867.612 367.905,881.784 333.89,881.784 333.89,867.612 
		299.874,867.612 299.874,881.784 265.858,881.784 265.858,867.612 231.843,867.612 231.843,881.784 197.827,881.784 
		197.827,867.612 163.812,867.612 163.812,881.784 129.796,881.784 129.796,867.612 95.779,867.612 95.779,881.784 45.465,881.784 
		45.465,867.612 9.323,867.612 9.323,823.675 -4.851,823.675 -4.851,765.565 9.323,765.565 9.323,731.548 -4.851,731.548 
		-4.851,697.532 9.323,697.532 9.323,663.517 -4.851,663.517 -4.851,629.501 9.323,629.501 9.323,595.485 -4.851,595.485 
		-4.851,561.47 9.323,561.47 9.323,527.454 -4.851,527.454 -4.851,493.438 9.323,493.438 9.323,459.423 -4.851,459.423 
		-4.851,401.313 9.323,401.313 	"/>
</g>
<polygon fill="none" stroke="#000000" stroke-miterlimit="10" points="55.513,628.611 51.175,621.1 55.513,613.588 64.187,613.588 
	68.522,621.1 64.187,628.611 "/>
<polygon fill="none" stroke="#000000" stroke-miterlimit="10" points="750.263,628.611 745.926,621.1 750.263,613.588 
	758.937,613.588 763.273,621.1 758.937,628.611 "/>
<polygon fill="none" stroke="#000000" stroke-miterlimit="10" points="750.263,1081.596 745.926,1074.084 750.263,1066.572 
	758.937,1066.572 763.273,1074.084 758.937,1081.596 "/>
<polygon fill="none" stroke="#000000" stroke-miterlimit="10" points="55.512,1081.596 51.175,1074.084 55.512,1066.572 
	64.186,1066.572 68.522,1074.084 64.186,1081.596 "/>
<path fill="none" stroke="#000000" stroke-width="0.5" stroke-miterlimit="10" d="M145.945,271.03"/>
<path fill="none" stroke="#000000" stroke-width="0.5" stroke-miterlimit="10" d="M119.201,271.03"/>
<circle fill="none" stroke="#010101" stroke-width="0.0354" cx="281.56" cy="156.227" r="5.669"/>
<circle fill="none" stroke="#010101" stroke-width="0.0354" cx="153.238" cy="156.227" r="5.669"/>
<circle fill="none" stroke="#010101" stroke-width="0.0354" cx="153.238" cy="236.913" r="5.669"/>
<circle fill="none" stroke="#010101" stroke-width="0.0354" cx="153.238" cy="400.301" r="5.669"/>
<circle fill="none" stroke="#010101" stroke-width="0.0354" cx="153.238" cy="319.219" r="5.669"/>
<circle fill="none" stroke="#010101" stroke-width="0.0354" cx="153.238" cy="482.21" r="5.669"/>
<circle fill="none" stroke="#010101" stroke-width="0.0354" cx="281.571" cy="482.21" r="5.669"/>
<circle fill="none" stroke="#010101" stroke-width="0.0354" cx="409.773" cy="482.21" r="5.669"/>
<circle fill="none" stroke="#010101" stroke-width="0.0354" cx="538.04" cy="482.21" r="5.669"/>
<circle fill="none" stroke="#010101" stroke-width="0.0354" cx="666.309" cy="482.227" r="5.669"/>
<circle fill="none" stroke="#010101" stroke-width="0.0354" cx="666.309" cy="400.585" r="5.669"/>
<circle fill="none" stroke="#010101" stroke-width="0.0354" cx="666.309" cy="319.218" r="5.669"/>
<circle fill="none" stroke="#010101" stroke-width="0.0354" cx="666.309" cy="237.621" r="5.669"/>
<circle fill="none" stroke="#010101" stroke-width="0.0354" cx="666.309" cy="156.227" r="5.669"/>
<circle fill="none" stroke="#010101" stroke-width="0.0354" cx="537.994" cy="156.227" r="5.669"/>
<circle fill="none" stroke="#010101" stroke-width="0.0354" cx="409.773" cy="156.227" r="5.669"/>
</svg>
