<?xml version="1.0" encoding="utf-8"?>
<!-- Generator: Adobe Illustrator 16.0.0, SVG Export Plug-In . SVG Version: 6.00 Build 0)  -->
<!DOCTYPE svg PUBLIC "-//W3C//DTD SVG 1.1//EN" "http://www.w3.org/Graphics/SVG/1.1/DTD/svg11.dtd">
<svg version="1.1" id="Layer_1" xmlns="http://www.w3.org/2000/svg" xmlns:xlink="http://www.w3.org/1999/xlink" x="0px" y="0px"
	 width="1700.79px" height="1133.86px" viewBox="0 0 1700.79 1133.86" enable-background="new 0 0 1700.79 1133.86"
	 xml:space="preserve">
<circle fill="none" stroke="#000000" stroke-miterlimit="10" cx="271.699" cy="820.864" r="3.118"/>
<circle fill="none" stroke="#000000" stroke-miterlimit="10" cx="271.699" cy="985.272" r="3.118"/>
<circle fill="none" stroke="#000000" stroke-miterlimit="10" cx="132.803" cy="985.272" r="3.118"/>
<circle fill="none" stroke="#000000" stroke-miterlimit="10" cx="132.803" cy="820.864" r="3.118"/>
<circle fill="none" stroke="#000000" stroke-miterlimit="10" cx="557.5" cy="734.523" r="3.685"/>
<circle fill="none" stroke="#000000" stroke-miterlimit="10" cx="557.5" cy="954.492" r="3.685"/>
<circle fill="none" stroke="#000000" stroke-miterlimit="10" cx="387.421" cy="738.207" r="3.686"/>
<circle fill="none" stroke="#000000" stroke-miterlimit="10" cx="387.421" cy="979.154" r="3.686"/>
<g transform="translate(22.500018499999996, 235.0986185) ">
	<polygon fill="none" stroke="#010101" stroke-width="0.0354" points="9.323,357.376 45.465,357.376 45.465,343.202 95.779,343.202 
		95.779,357.376 129.796,357.376 129.796,343.202 163.812,343.202 163.812,357.376 197.827,357.376 197.827,343.202 
		231.843,343.202 231.843,357.376 265.858,357.376 265.858,343.202 299.874,343.202 299.874,357.376 333.89,357.376 333.89,343.202 
		367.905,343.202 367.905,357.376 401.922,357.376 401.922,343.202 435.937,343.202 435.937,357.376 469.953,357.376 
		469.953,343.202 503.969,343.202 503.969,357.376 537.984,357.376 537.984,343.202 572.001,343.202 572.001,357.376 
		606.017,357.376 606.017,343.202 640.032,343.202 640.032,357.376 674.048,357.376 674.048,343.202 724.362,343.202 
		724.362,357.376 760.505,357.376 760.505,401.313 774.678,401.313 774.678,459.423 760.505,459.423 760.505,493.438 
		774.678,493.438 774.678,527.454 760.505,527.454 760.505,561.47 774.678,561.47 774.678,595.485 760.505,595.485 760.505,629.501 
		774.678,629.501 774.678,663.517 760.505,663.517 760.505,697.532 774.678,697.532 774.678,731.548 760.505,731.548 
		760.505,765.565 774.678,765.565 774.678,823.675 760.505,823.675 760.505,867.612 724.362,867.612 724.362,881.784 
		674.048,881.784 674.048,867.612 640.032,867.612 640.032,881.784 606.017,881.784 606.017,867.612 572.001,867.612 
		572.001,881.784 537.984,881.784 537.984,867.612 503.969,867.612 503.969,881.784 469.953,881.784 469.953,867.612 
		435.937,867.612 435.937,881.784 401.922,881.784 401.922,867.612 367.905,867.612 367.905,881.784 333.89,881.784 333.89,867.612 
		299.874,867.612 299.874,881.784 265.858,881.784 265.858,867.612 231.843,867.612 231.843,881.784 197.827,881.784 
		197.827,867.612 163.812,867.612 163.812,881.784 129.796,881.784 129.796,867.612 95.779,867.612 95.779,881.784 45.465,881.784 
		45.465,867.612 9.323,867.612 9.323,823.675 -4.851,823.675 -4.851,765.565 9.323,765.565 9.323,731.548 -4.851,731.548 
		-4.851,697.532 9.323,697.532 9.323,663.517 -4.851,663.517 -4.851,629.501 9.323,629.501 9.323,595.485 -4.851,595.485 
		-4.851,561.47 9.323,561.47 9.323,527.454 -4.851,527.454 -4.851,493.438 9.323,493.438 9.323,459.423 -4.851,459.423 
		-4.851,401.313 9.323,401.313 	"/>
</g>
<polygon fill="none" stroke="#000000" stroke-miterlimit="10" points="55.513,628.611 51.175,621.1 55.513,613.588 64.187,613.588 
	68.522,621.1 64.187,628.611 "/>
<polygon fill="none" stroke="#000000" stroke-miterlimit="10" points="750.263,628.611 745.926,621.1 750.263,613.588 
	758.937,613.588 763.273,621.1 758.937,628.611 "/>
<polygon fill="none" stroke="#000000" stroke-miterlimit="10" points="750.263,1081.596 745.926,1074.084 750.263,1066.572 
	758.937,1066.572 763.273,1074.084 758.937,1081.596 "/>
<polygon fill="none" stroke="#000000" stroke-miterlimit="10" points="55.512,1081.596 51.175,1074.084 55.512,1066.572 
	64.186,1066.572 68.522,1074.084 64.186,1081.596 "/>
</svg>
