<?xml version="1.0" encoding="utf-8"?>
<!-- Generator: Adobe Illustrator 16.0.0, SVG Export Plug-In . SVG Version: 6.00 Build 0)  -->
<!DOCTYPE svg PUBLIC "-//W3C//DTD SVG 1.1//EN" "http://www.w3.org/Graphics/SVG/1.1/DTD/svg11.dtd">
<svg version="1.1" id="Layer_1" xmlns="http://www.w3.org/2000/svg" xmlns:xlink="http://www.w3.org/1999/xlink" x="0px" y="0px"
	 width="1700.79px" height="1133.86px" viewBox="0 0 1700.79 1133.86" enable-background="new 0 0 1700.79 1133.86"
	 xml:space="preserve">
<path fill="none" stroke="#000000" stroke-miterlimit="10" d="M346.251,263.417c0,4.124-4.124,7.466-9.212,7.466H86.172
	c-5.088,0-9.212-3.342-9.212-7.466V60.083c0-4.124,4.124-7.466,9.212-7.466H337.04c5.088,0,9.212,3.343,9.212,7.466V263.417z"/>
<path fill="none" stroke="#000000" stroke-miterlimit="10" d="M388.771,293.785c0,5.355-5.426,9.697-12.121,9.697H46.562
	c-6.695,0-12.121-4.342-12.121-9.697V29.714c0-5.355,5.426-9.696,12.121-9.696H376.65c6.695,0,12.121,4.341,12.121,9.696V293.785z"
	/>
</svg>
