; NON-PLATED HOLES START AT T1
; THROUGH (PLATED) HOLES START AT T100
M48
INCH
T100C0.031496
T101C0.030000
T102C0.031555
T103C0.042000
T104C0.038000
T105C0.015748
T106C0.040000
T107C0.035000
T108C0.035433
%
T100
X018820Y003604
T101
X017261Y002597
X017261Y000597
X022768Y003585
X008232Y005666
X007230Y005666
X022768Y001585
T102
X020751Y003605
T103
X005846Y009946
X003417Y008070
X003417Y006070
X005846Y006966
X003417Y007070
T104
X020273Y012757
X014933Y003541
X013933Y003541
X011933Y003541
X014288Y012701
X010933Y003541
X013288Y012701
X009288Y005645
X010288Y012701
X012288Y005645
X011288Y005645
X018273Y012757
X020283Y005587
X021273Y012757
X015933Y003541
X012933Y003541
X009288Y012701
X012288Y012701
X014288Y005645
X011288Y012701
X013288Y005645
X019283Y005587
X022283Y005587
X019273Y012757
X021283Y005587
X022273Y012757
X010288Y005645
T105
X015293Y008911
T106
X001934Y012604
X001934Y010604
T107
X012613Y000594
X009288Y010726
X001417Y002570
X003417Y002570
X007049Y011652
X009288Y007726
X014288Y010726
X012288Y010726
X010288Y010726
X010054Y002366
X019288Y010726
X017288Y010726
X015288Y010726
X013288Y010726
X011288Y010726
X018288Y010726
X016288Y010726
X014288Y007726
X012288Y007726
X010288Y007726
X012613Y002366
X019288Y007726
X017288Y007726
X015288Y007726
X013288Y007726
X011288Y007726
X018288Y007726
X016288Y007726
X022288Y010726
X020288Y010726
X021288Y010726
X022288Y007726
X020288Y007726
X007917Y002570
X005917Y002570
X021288Y007726
X010054Y000594
X007049Y007652
T108
X007070Y008241
X000727Y005214
X011181Y009603
X010303Y004725
X016264Y006473
X003570Y010612
X015320Y011801
T00
M30
