G04 MADE WITH FRITZING*
G04 WWW.FRITZING.ORG*
G04 DOUBLE SIDED*
G04 HOLES PLATED*
G04 CONTOUR ON CENTER OF CONTOUR VECTOR*
%ASAXBY*%
%FSLAX23Y23*%
%MOIN*%
%OFA0B0*%
%SFA1.0B1.0*%
%ADD10C,0.410000X0.39*%
%ADD11R,0.038714X0.096457X0.019029X0.076772*%
%ADD12C,0.009843*%
%ADD13C,0.010000*%
%ADD14C,0.020000*%
%ADD15C,0.005000*%
%ADD16R,0.001000X0.001000*%
%LNSILK1*%
G90*
G70*
G54D10*
X242Y257D03*
X692Y257D03*
G54D12*
X1964Y404D02*
X1993Y404D01*
X1993Y317D01*
X1964Y317D01*
X1964Y404D01*
D02*
G54D13*
X1015Y109D02*
X1015Y187D01*
D02*
X1212Y30D02*
X1045Y30D01*
D02*
X1212Y266D02*
X1045Y266D01*
D02*
X1252Y109D02*
X1252Y187D01*
D02*
X1133Y128D02*
X1133Y168D01*
D02*
X1114Y148D02*
X1153Y148D01*
D02*
X630Y941D02*
X630Y746D01*
D02*
X540Y746D02*
X540Y941D01*
D02*
X540Y941D02*
X630Y941D01*
G54D14*
D02*
X540Y921D02*
X630Y921D01*
G54D13*
D02*
X630Y941D02*
X630Y746D01*
D02*
X540Y746D02*
X540Y941D01*
D02*
X540Y941D02*
X630Y941D01*
G54D14*
D02*
X540Y921D02*
X630Y921D01*
G54D13*
D02*
X222Y507D02*
X222Y907D01*
D02*
X222Y907D02*
X402Y907D01*
D02*
X402Y907D02*
X402Y507D01*
D02*
X402Y507D02*
X222Y507D01*
D02*
X222Y507D02*
X222Y907D01*
D02*
X222Y907D02*
X282Y907D01*
D02*
X282Y907D02*
X282Y507D01*
D02*
X282Y507D02*
X222Y507D01*
G54D15*
D02*
X222Y637D02*
X282Y637D01*
D02*
X222Y777D02*
X282Y777D01*
G54D13*
D02*
X672Y1056D02*
X738Y1056D01*
D02*
X13Y1365D02*
X13Y955D01*
D02*
X13Y955D02*
X453Y955D01*
D02*
X453Y955D02*
X453Y1365D01*
D02*
X453Y1365D02*
X13Y1365D01*
D02*
X879Y723D02*
X2279Y723D01*
D02*
X2279Y723D02*
X2279Y1123D01*
D02*
X2279Y1123D02*
X879Y1123D01*
D02*
X879Y723D02*
X879Y873D01*
D02*
X879Y973D02*
X879Y1123D01*
D02*
X1043Y304D02*
X1643Y304D01*
D02*
X1643Y304D02*
X1643Y404D01*
D02*
X1643Y404D02*
X1043Y404D01*
D02*
X1043Y404D02*
X1043Y304D01*
G54D15*
D02*
X1078Y304D02*
X1043Y339D01*
G54D13*
D02*
X879Y1220D02*
X1479Y1220D01*
D02*
X1479Y1220D02*
X1479Y1320D01*
D02*
X1479Y1320D02*
X879Y1320D01*
D02*
X879Y1320D02*
X879Y1220D01*
G54D15*
D02*
X914Y1220D02*
X879Y1255D01*
G54D13*
D02*
X1777Y1226D02*
X2277Y1226D01*
D02*
X2277Y1226D02*
X2277Y1326D01*
D02*
X2277Y1326D02*
X1777Y1326D01*
D02*
X1777Y1326D02*
X1777Y1226D01*
G54D15*
D02*
X1812Y1226D02*
X1777Y1261D01*
G54D13*
D02*
X1878Y509D02*
X2278Y509D01*
D02*
X2278Y509D02*
X2278Y609D01*
D02*
X2278Y609D02*
X1878Y609D01*
D02*
X1878Y609D02*
X1878Y509D01*
G54D15*
D02*
X1913Y509D02*
X1878Y544D01*
G54D13*
D02*
X1479Y515D02*
X1479Y615D01*
D02*
X1479Y615D02*
X879Y615D01*
D02*
X879Y615D02*
X879Y515D01*
G54D15*
D02*
X914Y515D02*
X879Y550D01*
G54D12*
X2010Y400D02*
X2010Y322D01*
D02*
X1947Y400D02*
X1947Y322D01*
D02*
G54D16*
X0Y1373D02*
X2351Y1373D01*
X0Y1372D02*
X2351Y1372D01*
X0Y1371D02*
X2351Y1371D01*
X0Y1370D02*
X2351Y1370D01*
X0Y1369D02*
X2351Y1369D01*
X0Y1368D02*
X2351Y1368D01*
X0Y1367D02*
X2351Y1367D01*
X0Y1366D02*
X2351Y1366D01*
X0Y1365D02*
X7Y1365D01*
X371Y1365D02*
X375Y1365D01*
X2344Y1365D02*
X2351Y1365D01*
X0Y1364D02*
X7Y1364D01*
X371Y1364D02*
X375Y1364D01*
X2344Y1364D02*
X2351Y1364D01*
X0Y1363D02*
X7Y1363D01*
X371Y1363D02*
X375Y1363D01*
X2344Y1363D02*
X2351Y1363D01*
X0Y1362D02*
X7Y1362D01*
X371Y1362D02*
X375Y1362D01*
X2344Y1362D02*
X2351Y1362D01*
X0Y1361D02*
X7Y1361D01*
X371Y1361D02*
X375Y1361D01*
X2344Y1361D02*
X2351Y1361D01*
X0Y1360D02*
X7Y1360D01*
X371Y1360D02*
X375Y1360D01*
X2344Y1360D02*
X2351Y1360D01*
X0Y1359D02*
X7Y1359D01*
X371Y1359D02*
X375Y1359D01*
X2344Y1359D02*
X2351Y1359D01*
X0Y1358D02*
X7Y1358D01*
X371Y1358D02*
X375Y1358D01*
X2344Y1358D02*
X2351Y1358D01*
X0Y1357D02*
X7Y1357D01*
X371Y1357D02*
X375Y1357D01*
X2344Y1357D02*
X2351Y1357D01*
X0Y1356D02*
X7Y1356D01*
X371Y1356D02*
X375Y1356D01*
X2344Y1356D02*
X2351Y1356D01*
X0Y1355D02*
X7Y1355D01*
X371Y1355D02*
X375Y1355D01*
X2344Y1355D02*
X2351Y1355D01*
X0Y1354D02*
X7Y1354D01*
X371Y1354D02*
X375Y1354D01*
X2344Y1354D02*
X2351Y1354D01*
X0Y1353D02*
X7Y1353D01*
X371Y1353D02*
X375Y1353D01*
X2344Y1353D02*
X2351Y1353D01*
X0Y1352D02*
X7Y1352D01*
X371Y1352D02*
X375Y1352D01*
X2344Y1352D02*
X2351Y1352D01*
X0Y1351D02*
X7Y1351D01*
X371Y1351D02*
X375Y1351D01*
X2344Y1351D02*
X2351Y1351D01*
X0Y1350D02*
X7Y1350D01*
X371Y1350D02*
X375Y1350D01*
X2344Y1350D02*
X2351Y1350D01*
X0Y1349D02*
X7Y1349D01*
X371Y1349D02*
X375Y1349D01*
X2344Y1349D02*
X2351Y1349D01*
X0Y1348D02*
X7Y1348D01*
X371Y1348D02*
X375Y1348D01*
X2344Y1348D02*
X2351Y1348D01*
X0Y1347D02*
X7Y1347D01*
X371Y1347D02*
X375Y1347D01*
X2344Y1347D02*
X2351Y1347D01*
X0Y1346D02*
X7Y1346D01*
X371Y1346D02*
X375Y1346D01*
X2344Y1346D02*
X2351Y1346D01*
X0Y1345D02*
X7Y1345D01*
X371Y1345D02*
X375Y1345D01*
X2344Y1345D02*
X2351Y1345D01*
X0Y1344D02*
X7Y1344D01*
X371Y1344D02*
X375Y1344D01*
X2344Y1344D02*
X2351Y1344D01*
X0Y1343D02*
X7Y1343D01*
X371Y1343D02*
X375Y1343D01*
X2344Y1343D02*
X2351Y1343D01*
X0Y1342D02*
X7Y1342D01*
X371Y1342D02*
X375Y1342D01*
X2344Y1342D02*
X2351Y1342D01*
X0Y1341D02*
X7Y1341D01*
X371Y1341D02*
X375Y1341D01*
X2344Y1341D02*
X2351Y1341D01*
X0Y1340D02*
X7Y1340D01*
X371Y1340D02*
X375Y1340D01*
X2344Y1340D02*
X2351Y1340D01*
X0Y1339D02*
X7Y1339D01*
X371Y1339D02*
X375Y1339D01*
X2344Y1339D02*
X2351Y1339D01*
X0Y1338D02*
X7Y1338D01*
X371Y1338D02*
X375Y1338D01*
X2344Y1338D02*
X2351Y1338D01*
X0Y1337D02*
X7Y1337D01*
X371Y1337D02*
X375Y1337D01*
X2344Y1337D02*
X2351Y1337D01*
X0Y1336D02*
X7Y1336D01*
X371Y1336D02*
X375Y1336D01*
X2344Y1336D02*
X2351Y1336D01*
X0Y1335D02*
X7Y1335D01*
X371Y1335D02*
X375Y1335D01*
X2344Y1335D02*
X2351Y1335D01*
X0Y1334D02*
X7Y1334D01*
X371Y1334D02*
X375Y1334D01*
X2344Y1334D02*
X2351Y1334D01*
X0Y1333D02*
X7Y1333D01*
X371Y1333D02*
X375Y1333D01*
X2344Y1333D02*
X2351Y1333D01*
X0Y1332D02*
X7Y1332D01*
X371Y1332D02*
X375Y1332D01*
X2344Y1332D02*
X2351Y1332D01*
X0Y1331D02*
X7Y1331D01*
X371Y1331D02*
X375Y1331D01*
X2344Y1331D02*
X2351Y1331D01*
X0Y1330D02*
X7Y1330D01*
X371Y1330D02*
X375Y1330D01*
X2344Y1330D02*
X2351Y1330D01*
X0Y1329D02*
X7Y1329D01*
X371Y1329D02*
X375Y1329D01*
X2344Y1329D02*
X2351Y1329D01*
X0Y1328D02*
X7Y1328D01*
X371Y1328D02*
X375Y1328D01*
X2344Y1328D02*
X2351Y1328D01*
X0Y1327D02*
X7Y1327D01*
X371Y1327D02*
X375Y1327D01*
X2344Y1327D02*
X2351Y1327D01*
X0Y1326D02*
X7Y1326D01*
X371Y1326D02*
X375Y1326D01*
X2344Y1326D02*
X2351Y1326D01*
X0Y1325D02*
X7Y1325D01*
X371Y1325D02*
X375Y1325D01*
X2344Y1325D02*
X2351Y1325D01*
X0Y1324D02*
X7Y1324D01*
X371Y1324D02*
X375Y1324D01*
X2344Y1324D02*
X2351Y1324D01*
X0Y1323D02*
X7Y1323D01*
X371Y1323D02*
X375Y1323D01*
X2344Y1323D02*
X2351Y1323D01*
X0Y1322D02*
X7Y1322D01*
X371Y1322D02*
X375Y1322D01*
X2344Y1322D02*
X2351Y1322D01*
X0Y1321D02*
X7Y1321D01*
X371Y1321D02*
X375Y1321D01*
X2344Y1321D02*
X2351Y1321D01*
X0Y1320D02*
X7Y1320D01*
X371Y1320D02*
X375Y1320D01*
X2344Y1320D02*
X2351Y1320D01*
X0Y1319D02*
X7Y1319D01*
X371Y1319D02*
X375Y1319D01*
X2344Y1319D02*
X2351Y1319D01*
X0Y1318D02*
X7Y1318D01*
X371Y1318D02*
X375Y1318D01*
X2344Y1318D02*
X2351Y1318D01*
X0Y1317D02*
X7Y1317D01*
X371Y1317D02*
X375Y1317D01*
X2344Y1317D02*
X2351Y1317D01*
X0Y1316D02*
X7Y1316D01*
X371Y1316D02*
X375Y1316D01*
X2344Y1316D02*
X2351Y1316D01*
X0Y1315D02*
X7Y1315D01*
X371Y1315D02*
X375Y1315D01*
X2344Y1315D02*
X2351Y1315D01*
X0Y1314D02*
X7Y1314D01*
X371Y1314D02*
X375Y1314D01*
X2344Y1314D02*
X2351Y1314D01*
X0Y1313D02*
X7Y1313D01*
X371Y1313D02*
X375Y1313D01*
X2344Y1313D02*
X2351Y1313D01*
X0Y1312D02*
X7Y1312D01*
X371Y1312D02*
X375Y1312D01*
X2344Y1312D02*
X2351Y1312D01*
X0Y1311D02*
X7Y1311D01*
X371Y1311D02*
X375Y1311D01*
X2344Y1311D02*
X2351Y1311D01*
X0Y1310D02*
X7Y1310D01*
X371Y1310D02*
X375Y1310D01*
X2344Y1310D02*
X2351Y1310D01*
X0Y1309D02*
X7Y1309D01*
X371Y1309D02*
X375Y1309D01*
X2344Y1309D02*
X2351Y1309D01*
X0Y1308D02*
X7Y1308D01*
X371Y1308D02*
X375Y1308D01*
X2344Y1308D02*
X2351Y1308D01*
X0Y1307D02*
X7Y1307D01*
X371Y1307D02*
X375Y1307D01*
X2344Y1307D02*
X2351Y1307D01*
X0Y1306D02*
X7Y1306D01*
X371Y1306D02*
X375Y1306D01*
X2344Y1306D02*
X2351Y1306D01*
X0Y1305D02*
X7Y1305D01*
X371Y1305D02*
X375Y1305D01*
X2344Y1305D02*
X2351Y1305D01*
X0Y1304D02*
X7Y1304D01*
X371Y1304D02*
X375Y1304D01*
X2344Y1304D02*
X2351Y1304D01*
X0Y1303D02*
X7Y1303D01*
X371Y1303D02*
X375Y1303D01*
X2344Y1303D02*
X2351Y1303D01*
X0Y1302D02*
X7Y1302D01*
X371Y1302D02*
X375Y1302D01*
X2344Y1302D02*
X2351Y1302D01*
X0Y1301D02*
X7Y1301D01*
X371Y1301D02*
X375Y1301D01*
X2344Y1301D02*
X2351Y1301D01*
X0Y1300D02*
X7Y1300D01*
X371Y1300D02*
X375Y1300D01*
X2344Y1300D02*
X2351Y1300D01*
X0Y1299D02*
X7Y1299D01*
X371Y1299D02*
X375Y1299D01*
X2344Y1299D02*
X2351Y1299D01*
X0Y1298D02*
X7Y1298D01*
X371Y1298D02*
X375Y1298D01*
X2344Y1298D02*
X2351Y1298D01*
X0Y1297D02*
X7Y1297D01*
X371Y1297D02*
X375Y1297D01*
X2344Y1297D02*
X2351Y1297D01*
X0Y1296D02*
X7Y1296D01*
X371Y1296D02*
X375Y1296D01*
X2344Y1296D02*
X2351Y1296D01*
X0Y1295D02*
X7Y1295D01*
X371Y1295D02*
X375Y1295D01*
X2344Y1295D02*
X2351Y1295D01*
X0Y1294D02*
X7Y1294D01*
X371Y1294D02*
X375Y1294D01*
X2344Y1294D02*
X2351Y1294D01*
X0Y1293D02*
X7Y1293D01*
X371Y1293D02*
X375Y1293D01*
X2344Y1293D02*
X2351Y1293D01*
X0Y1292D02*
X7Y1292D01*
X371Y1292D02*
X375Y1292D01*
X2344Y1292D02*
X2351Y1292D01*
X0Y1291D02*
X7Y1291D01*
X371Y1291D02*
X375Y1291D01*
X2344Y1291D02*
X2351Y1291D01*
X0Y1290D02*
X7Y1290D01*
X371Y1290D02*
X375Y1290D01*
X2344Y1290D02*
X2351Y1290D01*
X0Y1289D02*
X7Y1289D01*
X371Y1289D02*
X375Y1289D01*
X2344Y1289D02*
X2351Y1289D01*
X0Y1288D02*
X7Y1288D01*
X371Y1288D02*
X375Y1288D01*
X2344Y1288D02*
X2351Y1288D01*
X0Y1287D02*
X7Y1287D01*
X371Y1287D02*
X375Y1287D01*
X2344Y1287D02*
X2351Y1287D01*
X0Y1286D02*
X7Y1286D01*
X371Y1286D02*
X375Y1286D01*
X2344Y1286D02*
X2351Y1286D01*
X0Y1285D02*
X7Y1285D01*
X371Y1285D02*
X375Y1285D01*
X2344Y1285D02*
X2351Y1285D01*
X0Y1284D02*
X7Y1284D01*
X371Y1284D02*
X375Y1284D01*
X2344Y1284D02*
X2351Y1284D01*
X0Y1283D02*
X7Y1283D01*
X371Y1283D02*
X375Y1283D01*
X2344Y1283D02*
X2351Y1283D01*
X0Y1282D02*
X7Y1282D01*
X371Y1282D02*
X375Y1282D01*
X2344Y1282D02*
X2351Y1282D01*
X0Y1281D02*
X7Y1281D01*
X371Y1281D02*
X375Y1281D01*
X2344Y1281D02*
X2351Y1281D01*
X0Y1280D02*
X7Y1280D01*
X371Y1280D02*
X375Y1280D01*
X2344Y1280D02*
X2351Y1280D01*
X0Y1279D02*
X7Y1279D01*
X371Y1279D02*
X375Y1279D01*
X2344Y1279D02*
X2351Y1279D01*
X0Y1278D02*
X7Y1278D01*
X371Y1278D02*
X375Y1278D01*
X2344Y1278D02*
X2351Y1278D01*
X0Y1277D02*
X7Y1277D01*
X371Y1277D02*
X375Y1277D01*
X2344Y1277D02*
X2351Y1277D01*
X0Y1276D02*
X7Y1276D01*
X371Y1276D02*
X375Y1276D01*
X2344Y1276D02*
X2351Y1276D01*
X0Y1275D02*
X7Y1275D01*
X371Y1275D02*
X375Y1275D01*
X2344Y1275D02*
X2351Y1275D01*
X0Y1274D02*
X7Y1274D01*
X371Y1274D02*
X375Y1274D01*
X2344Y1274D02*
X2351Y1274D01*
X0Y1273D02*
X7Y1273D01*
X371Y1273D02*
X375Y1273D01*
X2344Y1273D02*
X2351Y1273D01*
X0Y1272D02*
X7Y1272D01*
X371Y1272D02*
X375Y1272D01*
X2344Y1272D02*
X2351Y1272D01*
X0Y1271D02*
X7Y1271D01*
X371Y1271D02*
X375Y1271D01*
X2344Y1271D02*
X2351Y1271D01*
X0Y1270D02*
X7Y1270D01*
X371Y1270D02*
X375Y1270D01*
X2344Y1270D02*
X2351Y1270D01*
X0Y1269D02*
X7Y1269D01*
X371Y1269D02*
X375Y1269D01*
X2344Y1269D02*
X2351Y1269D01*
X0Y1268D02*
X7Y1268D01*
X371Y1268D02*
X375Y1268D01*
X2344Y1268D02*
X2351Y1268D01*
X0Y1267D02*
X7Y1267D01*
X371Y1267D02*
X375Y1267D01*
X2344Y1267D02*
X2351Y1267D01*
X0Y1266D02*
X7Y1266D01*
X371Y1266D02*
X375Y1266D01*
X2344Y1266D02*
X2351Y1266D01*
X0Y1265D02*
X7Y1265D01*
X371Y1265D02*
X375Y1265D01*
X2344Y1265D02*
X2351Y1265D01*
X0Y1264D02*
X7Y1264D01*
X371Y1264D02*
X375Y1264D01*
X2344Y1264D02*
X2351Y1264D01*
X0Y1263D02*
X7Y1263D01*
X371Y1263D02*
X375Y1263D01*
X2344Y1263D02*
X2351Y1263D01*
X0Y1262D02*
X7Y1262D01*
X371Y1262D02*
X375Y1262D01*
X2344Y1262D02*
X2351Y1262D01*
X0Y1261D02*
X7Y1261D01*
X371Y1261D02*
X375Y1261D01*
X2344Y1261D02*
X2351Y1261D01*
X0Y1260D02*
X7Y1260D01*
X371Y1260D02*
X375Y1260D01*
X2344Y1260D02*
X2351Y1260D01*
X0Y1259D02*
X7Y1259D01*
X371Y1259D02*
X375Y1259D01*
X2344Y1259D02*
X2351Y1259D01*
X0Y1258D02*
X7Y1258D01*
X371Y1258D02*
X375Y1258D01*
X2344Y1258D02*
X2351Y1258D01*
X0Y1257D02*
X7Y1257D01*
X371Y1257D02*
X375Y1257D01*
X2344Y1257D02*
X2351Y1257D01*
X0Y1256D02*
X7Y1256D01*
X371Y1256D02*
X375Y1256D01*
X2344Y1256D02*
X2351Y1256D01*
X0Y1255D02*
X7Y1255D01*
X371Y1255D02*
X375Y1255D01*
X2344Y1255D02*
X2351Y1255D01*
X0Y1254D02*
X7Y1254D01*
X371Y1254D02*
X375Y1254D01*
X2344Y1254D02*
X2351Y1254D01*
X0Y1253D02*
X7Y1253D01*
X371Y1253D02*
X375Y1253D01*
X2344Y1253D02*
X2351Y1253D01*
X0Y1252D02*
X7Y1252D01*
X371Y1252D02*
X375Y1252D01*
X2344Y1252D02*
X2351Y1252D01*
X0Y1251D02*
X7Y1251D01*
X371Y1251D02*
X375Y1251D01*
X2344Y1251D02*
X2351Y1251D01*
X0Y1250D02*
X7Y1250D01*
X371Y1250D02*
X375Y1250D01*
X2344Y1250D02*
X2351Y1250D01*
X0Y1249D02*
X7Y1249D01*
X371Y1249D02*
X375Y1249D01*
X2344Y1249D02*
X2351Y1249D01*
X0Y1248D02*
X7Y1248D01*
X371Y1248D02*
X375Y1248D01*
X2344Y1248D02*
X2351Y1248D01*
X0Y1247D02*
X7Y1247D01*
X371Y1247D02*
X375Y1247D01*
X2344Y1247D02*
X2351Y1247D01*
X0Y1246D02*
X7Y1246D01*
X371Y1246D02*
X375Y1246D01*
X2344Y1246D02*
X2351Y1246D01*
X0Y1245D02*
X7Y1245D01*
X371Y1245D02*
X375Y1245D01*
X2344Y1245D02*
X2351Y1245D01*
X0Y1244D02*
X7Y1244D01*
X371Y1244D02*
X375Y1244D01*
X2344Y1244D02*
X2351Y1244D01*
X0Y1243D02*
X7Y1243D01*
X371Y1243D02*
X375Y1243D01*
X2344Y1243D02*
X2351Y1243D01*
X0Y1242D02*
X7Y1242D01*
X371Y1242D02*
X375Y1242D01*
X2344Y1242D02*
X2351Y1242D01*
X0Y1241D02*
X7Y1241D01*
X371Y1241D02*
X375Y1241D01*
X2344Y1241D02*
X2351Y1241D01*
X0Y1240D02*
X7Y1240D01*
X371Y1240D02*
X375Y1240D01*
X2344Y1240D02*
X2351Y1240D01*
X0Y1239D02*
X7Y1239D01*
X371Y1239D02*
X375Y1239D01*
X2344Y1239D02*
X2351Y1239D01*
X0Y1238D02*
X7Y1238D01*
X371Y1238D02*
X375Y1238D01*
X2344Y1238D02*
X2351Y1238D01*
X0Y1237D02*
X7Y1237D01*
X371Y1237D02*
X375Y1237D01*
X2344Y1237D02*
X2351Y1237D01*
X0Y1236D02*
X7Y1236D01*
X371Y1236D02*
X375Y1236D01*
X2344Y1236D02*
X2351Y1236D01*
X0Y1235D02*
X7Y1235D01*
X371Y1235D02*
X375Y1235D01*
X2344Y1235D02*
X2351Y1235D01*
X0Y1234D02*
X7Y1234D01*
X371Y1234D02*
X375Y1234D01*
X2344Y1234D02*
X2351Y1234D01*
X0Y1233D02*
X7Y1233D01*
X371Y1233D02*
X375Y1233D01*
X2344Y1233D02*
X2351Y1233D01*
X0Y1232D02*
X7Y1232D01*
X371Y1232D02*
X375Y1232D01*
X2344Y1232D02*
X2351Y1232D01*
X0Y1231D02*
X7Y1231D01*
X371Y1231D02*
X375Y1231D01*
X2344Y1231D02*
X2351Y1231D01*
X0Y1230D02*
X7Y1230D01*
X371Y1230D02*
X375Y1230D01*
X2344Y1230D02*
X2351Y1230D01*
X0Y1229D02*
X7Y1229D01*
X371Y1229D02*
X375Y1229D01*
X2344Y1229D02*
X2351Y1229D01*
X0Y1228D02*
X7Y1228D01*
X371Y1228D02*
X375Y1228D01*
X2344Y1228D02*
X2351Y1228D01*
X0Y1227D02*
X7Y1227D01*
X371Y1227D02*
X375Y1227D01*
X2344Y1227D02*
X2351Y1227D01*
X0Y1226D02*
X7Y1226D01*
X371Y1226D02*
X375Y1226D01*
X2344Y1226D02*
X2351Y1226D01*
X0Y1225D02*
X7Y1225D01*
X371Y1225D02*
X375Y1225D01*
X2344Y1225D02*
X2351Y1225D01*
X0Y1224D02*
X7Y1224D01*
X371Y1224D02*
X375Y1224D01*
X2344Y1224D02*
X2351Y1224D01*
X0Y1223D02*
X7Y1223D01*
X371Y1223D02*
X375Y1223D01*
X2344Y1223D02*
X2351Y1223D01*
X0Y1222D02*
X7Y1222D01*
X371Y1222D02*
X375Y1222D01*
X2344Y1222D02*
X2351Y1222D01*
X0Y1221D02*
X7Y1221D01*
X371Y1221D02*
X375Y1221D01*
X2344Y1221D02*
X2351Y1221D01*
X0Y1220D02*
X7Y1220D01*
X371Y1220D02*
X375Y1220D01*
X2344Y1220D02*
X2351Y1220D01*
X0Y1219D02*
X7Y1219D01*
X371Y1219D02*
X375Y1219D01*
X2344Y1219D02*
X2351Y1219D01*
X0Y1218D02*
X7Y1218D01*
X371Y1218D02*
X375Y1218D01*
X2344Y1218D02*
X2351Y1218D01*
X0Y1217D02*
X7Y1217D01*
X371Y1217D02*
X375Y1217D01*
X2344Y1217D02*
X2351Y1217D01*
X0Y1216D02*
X7Y1216D01*
X371Y1216D02*
X375Y1216D01*
X2344Y1216D02*
X2351Y1216D01*
X0Y1215D02*
X7Y1215D01*
X371Y1215D02*
X375Y1215D01*
X2344Y1215D02*
X2351Y1215D01*
X0Y1214D02*
X7Y1214D01*
X371Y1214D02*
X375Y1214D01*
X2344Y1214D02*
X2351Y1214D01*
X0Y1213D02*
X7Y1213D01*
X371Y1213D02*
X375Y1213D01*
X2344Y1213D02*
X2351Y1213D01*
X0Y1212D02*
X7Y1212D01*
X371Y1212D02*
X375Y1212D01*
X2344Y1212D02*
X2351Y1212D01*
X0Y1211D02*
X7Y1211D01*
X371Y1211D02*
X375Y1211D01*
X2344Y1211D02*
X2351Y1211D01*
X0Y1210D02*
X7Y1210D01*
X371Y1210D02*
X375Y1210D01*
X2344Y1210D02*
X2351Y1210D01*
X0Y1209D02*
X7Y1209D01*
X371Y1209D02*
X375Y1209D01*
X2344Y1209D02*
X2351Y1209D01*
X0Y1208D02*
X7Y1208D01*
X371Y1208D02*
X375Y1208D01*
X2344Y1208D02*
X2351Y1208D01*
X0Y1207D02*
X7Y1207D01*
X371Y1207D02*
X375Y1207D01*
X2344Y1207D02*
X2351Y1207D01*
X0Y1206D02*
X7Y1206D01*
X371Y1206D02*
X375Y1206D01*
X2344Y1206D02*
X2351Y1206D01*
X0Y1205D02*
X7Y1205D01*
X371Y1205D02*
X375Y1205D01*
X2344Y1205D02*
X2351Y1205D01*
X0Y1204D02*
X7Y1204D01*
X371Y1204D02*
X375Y1204D01*
X2344Y1204D02*
X2351Y1204D01*
X0Y1203D02*
X7Y1203D01*
X371Y1203D02*
X375Y1203D01*
X2344Y1203D02*
X2351Y1203D01*
X0Y1202D02*
X7Y1202D01*
X371Y1202D02*
X375Y1202D01*
X2344Y1202D02*
X2351Y1202D01*
X0Y1201D02*
X7Y1201D01*
X371Y1201D02*
X375Y1201D01*
X2344Y1201D02*
X2351Y1201D01*
X0Y1200D02*
X7Y1200D01*
X371Y1200D02*
X375Y1200D01*
X2344Y1200D02*
X2351Y1200D01*
X0Y1199D02*
X7Y1199D01*
X371Y1199D02*
X375Y1199D01*
X2344Y1199D02*
X2351Y1199D01*
X0Y1198D02*
X7Y1198D01*
X371Y1198D02*
X375Y1198D01*
X2344Y1198D02*
X2351Y1198D01*
X0Y1197D02*
X7Y1197D01*
X371Y1197D02*
X375Y1197D01*
X2344Y1197D02*
X2351Y1197D01*
X0Y1196D02*
X7Y1196D01*
X371Y1196D02*
X375Y1196D01*
X2344Y1196D02*
X2351Y1196D01*
X0Y1195D02*
X7Y1195D01*
X371Y1195D02*
X375Y1195D01*
X2344Y1195D02*
X2351Y1195D01*
X0Y1194D02*
X7Y1194D01*
X371Y1194D02*
X375Y1194D01*
X2344Y1194D02*
X2351Y1194D01*
X0Y1193D02*
X7Y1193D01*
X371Y1193D02*
X375Y1193D01*
X2344Y1193D02*
X2351Y1193D01*
X0Y1192D02*
X7Y1192D01*
X371Y1192D02*
X375Y1192D01*
X2344Y1192D02*
X2351Y1192D01*
X0Y1191D02*
X7Y1191D01*
X371Y1191D02*
X375Y1191D01*
X2344Y1191D02*
X2351Y1191D01*
X0Y1190D02*
X7Y1190D01*
X371Y1190D02*
X375Y1190D01*
X2344Y1190D02*
X2351Y1190D01*
X0Y1189D02*
X7Y1189D01*
X371Y1189D02*
X375Y1189D01*
X2344Y1189D02*
X2351Y1189D01*
X0Y1188D02*
X7Y1188D01*
X371Y1188D02*
X375Y1188D01*
X2344Y1188D02*
X2351Y1188D01*
X0Y1187D02*
X7Y1187D01*
X371Y1187D02*
X375Y1187D01*
X2344Y1187D02*
X2351Y1187D01*
X0Y1186D02*
X7Y1186D01*
X371Y1186D02*
X375Y1186D01*
X2344Y1186D02*
X2351Y1186D01*
X0Y1185D02*
X7Y1185D01*
X371Y1185D02*
X375Y1185D01*
X2344Y1185D02*
X2351Y1185D01*
X0Y1184D02*
X7Y1184D01*
X371Y1184D02*
X375Y1184D01*
X2344Y1184D02*
X2351Y1184D01*
X0Y1183D02*
X7Y1183D01*
X371Y1183D02*
X375Y1183D01*
X2344Y1183D02*
X2351Y1183D01*
X0Y1182D02*
X7Y1182D01*
X371Y1182D02*
X375Y1182D01*
X2344Y1182D02*
X2351Y1182D01*
X0Y1181D02*
X7Y1181D01*
X371Y1181D02*
X375Y1181D01*
X2344Y1181D02*
X2351Y1181D01*
X0Y1180D02*
X7Y1180D01*
X371Y1180D02*
X375Y1180D01*
X2344Y1180D02*
X2351Y1180D01*
X0Y1179D02*
X7Y1179D01*
X371Y1179D02*
X375Y1179D01*
X2344Y1179D02*
X2351Y1179D01*
X0Y1178D02*
X7Y1178D01*
X371Y1178D02*
X375Y1178D01*
X2344Y1178D02*
X2351Y1178D01*
X0Y1177D02*
X7Y1177D01*
X371Y1177D02*
X375Y1177D01*
X2344Y1177D02*
X2351Y1177D01*
X0Y1176D02*
X7Y1176D01*
X371Y1176D02*
X375Y1176D01*
X2344Y1176D02*
X2351Y1176D01*
X0Y1175D02*
X7Y1175D01*
X371Y1175D02*
X375Y1175D01*
X2344Y1175D02*
X2351Y1175D01*
X0Y1174D02*
X7Y1174D01*
X371Y1174D02*
X375Y1174D01*
X2344Y1174D02*
X2351Y1174D01*
X0Y1173D02*
X7Y1173D01*
X371Y1173D02*
X375Y1173D01*
X2344Y1173D02*
X2351Y1173D01*
X0Y1172D02*
X7Y1172D01*
X371Y1172D02*
X375Y1172D01*
X2344Y1172D02*
X2351Y1172D01*
X0Y1171D02*
X7Y1171D01*
X371Y1171D02*
X375Y1171D01*
X2344Y1171D02*
X2351Y1171D01*
X0Y1170D02*
X7Y1170D01*
X371Y1170D02*
X375Y1170D01*
X2344Y1170D02*
X2351Y1170D01*
X0Y1169D02*
X7Y1169D01*
X371Y1169D02*
X375Y1169D01*
X2344Y1169D02*
X2351Y1169D01*
X0Y1168D02*
X7Y1168D01*
X371Y1168D02*
X375Y1168D01*
X2344Y1168D02*
X2351Y1168D01*
X0Y1167D02*
X7Y1167D01*
X371Y1167D02*
X375Y1167D01*
X2344Y1167D02*
X2351Y1167D01*
X0Y1166D02*
X7Y1166D01*
X371Y1166D02*
X375Y1166D01*
X2344Y1166D02*
X2351Y1166D01*
X0Y1165D02*
X7Y1165D01*
X371Y1165D02*
X375Y1165D01*
X2344Y1165D02*
X2351Y1165D01*
X0Y1164D02*
X7Y1164D01*
X371Y1164D02*
X375Y1164D01*
X2344Y1164D02*
X2351Y1164D01*
X0Y1163D02*
X7Y1163D01*
X371Y1163D02*
X375Y1163D01*
X2344Y1163D02*
X2351Y1163D01*
X0Y1162D02*
X7Y1162D01*
X371Y1162D02*
X375Y1162D01*
X2344Y1162D02*
X2351Y1162D01*
X0Y1161D02*
X7Y1161D01*
X371Y1161D02*
X375Y1161D01*
X2344Y1161D02*
X2351Y1161D01*
X0Y1160D02*
X7Y1160D01*
X371Y1160D02*
X375Y1160D01*
X2344Y1160D02*
X2351Y1160D01*
X0Y1159D02*
X7Y1159D01*
X371Y1159D02*
X375Y1159D01*
X2344Y1159D02*
X2351Y1159D01*
X0Y1158D02*
X7Y1158D01*
X371Y1158D02*
X375Y1158D01*
X2344Y1158D02*
X2351Y1158D01*
X0Y1157D02*
X7Y1157D01*
X371Y1157D02*
X375Y1157D01*
X2344Y1157D02*
X2351Y1157D01*
X0Y1156D02*
X7Y1156D01*
X371Y1156D02*
X375Y1156D01*
X2344Y1156D02*
X2351Y1156D01*
X0Y1155D02*
X7Y1155D01*
X371Y1155D02*
X375Y1155D01*
X2344Y1155D02*
X2351Y1155D01*
X0Y1154D02*
X7Y1154D01*
X371Y1154D02*
X375Y1154D01*
X2344Y1154D02*
X2351Y1154D01*
X0Y1153D02*
X7Y1153D01*
X371Y1153D02*
X375Y1153D01*
X2344Y1153D02*
X2351Y1153D01*
X0Y1152D02*
X7Y1152D01*
X371Y1152D02*
X375Y1152D01*
X2344Y1152D02*
X2351Y1152D01*
X0Y1151D02*
X7Y1151D01*
X371Y1151D02*
X375Y1151D01*
X2344Y1151D02*
X2351Y1151D01*
X0Y1150D02*
X7Y1150D01*
X371Y1150D02*
X375Y1150D01*
X2344Y1150D02*
X2351Y1150D01*
X0Y1149D02*
X7Y1149D01*
X371Y1149D02*
X375Y1149D01*
X2344Y1149D02*
X2351Y1149D01*
X0Y1148D02*
X7Y1148D01*
X371Y1148D02*
X375Y1148D01*
X2344Y1148D02*
X2351Y1148D01*
X0Y1147D02*
X7Y1147D01*
X371Y1147D02*
X375Y1147D01*
X2344Y1147D02*
X2351Y1147D01*
X0Y1146D02*
X7Y1146D01*
X371Y1146D02*
X375Y1146D01*
X2344Y1146D02*
X2351Y1146D01*
X0Y1145D02*
X7Y1145D01*
X371Y1145D02*
X375Y1145D01*
X2344Y1145D02*
X2351Y1145D01*
X0Y1144D02*
X7Y1144D01*
X371Y1144D02*
X375Y1144D01*
X2344Y1144D02*
X2351Y1144D01*
X0Y1143D02*
X7Y1143D01*
X371Y1143D02*
X375Y1143D01*
X2344Y1143D02*
X2351Y1143D01*
X0Y1142D02*
X7Y1142D01*
X371Y1142D02*
X375Y1142D01*
X2344Y1142D02*
X2351Y1142D01*
X0Y1141D02*
X7Y1141D01*
X371Y1141D02*
X375Y1141D01*
X2344Y1141D02*
X2351Y1141D01*
X0Y1140D02*
X7Y1140D01*
X371Y1140D02*
X375Y1140D01*
X2344Y1140D02*
X2351Y1140D01*
X0Y1139D02*
X7Y1139D01*
X371Y1139D02*
X375Y1139D01*
X2344Y1139D02*
X2351Y1139D01*
X0Y1138D02*
X7Y1138D01*
X371Y1138D02*
X375Y1138D01*
X2344Y1138D02*
X2351Y1138D01*
X0Y1137D02*
X7Y1137D01*
X371Y1137D02*
X375Y1137D01*
X2344Y1137D02*
X2351Y1137D01*
X0Y1136D02*
X7Y1136D01*
X371Y1136D02*
X375Y1136D01*
X2344Y1136D02*
X2351Y1136D01*
X0Y1135D02*
X7Y1135D01*
X371Y1135D02*
X375Y1135D01*
X2344Y1135D02*
X2351Y1135D01*
X0Y1134D02*
X7Y1134D01*
X371Y1134D02*
X375Y1134D01*
X2344Y1134D02*
X2351Y1134D01*
X0Y1133D02*
X7Y1133D01*
X371Y1133D02*
X375Y1133D01*
X2344Y1133D02*
X2351Y1133D01*
X0Y1132D02*
X7Y1132D01*
X371Y1132D02*
X375Y1132D01*
X2344Y1132D02*
X2351Y1132D01*
X0Y1131D02*
X7Y1131D01*
X371Y1131D02*
X375Y1131D01*
X2344Y1131D02*
X2351Y1131D01*
X0Y1130D02*
X7Y1130D01*
X371Y1130D02*
X375Y1130D01*
X2344Y1130D02*
X2351Y1130D01*
X0Y1129D02*
X7Y1129D01*
X371Y1129D02*
X375Y1129D01*
X2344Y1129D02*
X2351Y1129D01*
X0Y1128D02*
X7Y1128D01*
X371Y1128D02*
X375Y1128D01*
X2344Y1128D02*
X2351Y1128D01*
X0Y1127D02*
X7Y1127D01*
X371Y1127D02*
X375Y1127D01*
X2344Y1127D02*
X2351Y1127D01*
X0Y1126D02*
X7Y1126D01*
X371Y1126D02*
X375Y1126D01*
X2344Y1126D02*
X2351Y1126D01*
X0Y1125D02*
X7Y1125D01*
X371Y1125D02*
X375Y1125D01*
X2344Y1125D02*
X2351Y1125D01*
X0Y1124D02*
X7Y1124D01*
X371Y1124D02*
X375Y1124D01*
X2344Y1124D02*
X2351Y1124D01*
X0Y1123D02*
X7Y1123D01*
X371Y1123D02*
X375Y1123D01*
X700Y1123D02*
X709Y1123D01*
X2344Y1123D02*
X2351Y1123D01*
X0Y1122D02*
X7Y1122D01*
X371Y1122D02*
X375Y1122D01*
X700Y1122D02*
X709Y1122D01*
X2344Y1122D02*
X2351Y1122D01*
X0Y1121D02*
X7Y1121D01*
X371Y1121D02*
X375Y1121D01*
X700Y1121D02*
X709Y1121D01*
X2344Y1121D02*
X2351Y1121D01*
X0Y1120D02*
X7Y1120D01*
X371Y1120D02*
X375Y1120D01*
X700Y1120D02*
X709Y1120D01*
X2344Y1120D02*
X2351Y1120D01*
X0Y1119D02*
X7Y1119D01*
X371Y1119D02*
X375Y1119D01*
X700Y1119D02*
X709Y1119D01*
X2344Y1119D02*
X2351Y1119D01*
X0Y1118D02*
X7Y1118D01*
X371Y1118D02*
X375Y1118D01*
X700Y1118D02*
X709Y1118D01*
X2344Y1118D02*
X2351Y1118D01*
X0Y1117D02*
X7Y1117D01*
X371Y1117D02*
X375Y1117D01*
X700Y1117D02*
X709Y1117D01*
X2344Y1117D02*
X2351Y1117D01*
X0Y1116D02*
X7Y1116D01*
X371Y1116D02*
X375Y1116D01*
X700Y1116D02*
X709Y1116D01*
X2344Y1116D02*
X2351Y1116D01*
X0Y1115D02*
X7Y1115D01*
X371Y1115D02*
X375Y1115D01*
X700Y1115D02*
X709Y1115D01*
X2344Y1115D02*
X2351Y1115D01*
X0Y1114D02*
X7Y1114D01*
X371Y1114D02*
X375Y1114D01*
X700Y1114D02*
X709Y1114D01*
X2344Y1114D02*
X2351Y1114D01*
X0Y1113D02*
X7Y1113D01*
X371Y1113D02*
X375Y1113D01*
X700Y1113D02*
X709Y1113D01*
X2344Y1113D02*
X2351Y1113D01*
X0Y1112D02*
X7Y1112D01*
X371Y1112D02*
X375Y1112D01*
X700Y1112D02*
X709Y1112D01*
X2344Y1112D02*
X2351Y1112D01*
X0Y1111D02*
X7Y1111D01*
X371Y1111D02*
X375Y1111D01*
X700Y1111D02*
X709Y1111D01*
X2344Y1111D02*
X2351Y1111D01*
X0Y1110D02*
X7Y1110D01*
X371Y1110D02*
X375Y1110D01*
X700Y1110D02*
X709Y1110D01*
X2344Y1110D02*
X2351Y1110D01*
X0Y1109D02*
X7Y1109D01*
X371Y1109D02*
X375Y1109D01*
X700Y1109D02*
X709Y1109D01*
X2344Y1109D02*
X2351Y1109D01*
X0Y1108D02*
X7Y1108D01*
X371Y1108D02*
X375Y1108D01*
X700Y1108D02*
X709Y1108D01*
X2344Y1108D02*
X2351Y1108D01*
X0Y1107D02*
X7Y1107D01*
X371Y1107D02*
X375Y1107D01*
X700Y1107D02*
X709Y1107D01*
X2344Y1107D02*
X2351Y1107D01*
X0Y1106D02*
X7Y1106D01*
X371Y1106D02*
X375Y1106D01*
X700Y1106D02*
X709Y1106D01*
X2344Y1106D02*
X2351Y1106D01*
X0Y1105D02*
X7Y1105D01*
X371Y1105D02*
X375Y1105D01*
X700Y1105D02*
X709Y1105D01*
X2344Y1105D02*
X2351Y1105D01*
X0Y1104D02*
X7Y1104D01*
X371Y1104D02*
X375Y1104D01*
X700Y1104D02*
X709Y1104D01*
X2344Y1104D02*
X2351Y1104D01*
X0Y1103D02*
X7Y1103D01*
X371Y1103D02*
X375Y1103D01*
X700Y1103D02*
X709Y1103D01*
X2344Y1103D02*
X2351Y1103D01*
X0Y1102D02*
X7Y1102D01*
X371Y1102D02*
X375Y1102D01*
X700Y1102D02*
X709Y1102D01*
X2344Y1102D02*
X2351Y1102D01*
X0Y1101D02*
X7Y1101D01*
X373Y1101D02*
X375Y1101D01*
X700Y1101D02*
X709Y1101D01*
X2344Y1101D02*
X2351Y1101D01*
X0Y1100D02*
X7Y1100D01*
X375Y1100D02*
X375Y1100D01*
X700Y1100D02*
X709Y1100D01*
X2344Y1100D02*
X2351Y1100D01*
X0Y1099D02*
X7Y1099D01*
X700Y1099D02*
X709Y1099D01*
X2344Y1099D02*
X2351Y1099D01*
X0Y1098D02*
X7Y1098D01*
X700Y1098D02*
X709Y1098D01*
X2344Y1098D02*
X2351Y1098D01*
X0Y1097D02*
X7Y1097D01*
X700Y1097D02*
X709Y1097D01*
X2344Y1097D02*
X2351Y1097D01*
X0Y1096D02*
X7Y1096D01*
X700Y1096D02*
X709Y1096D01*
X2344Y1096D02*
X2351Y1096D01*
X0Y1095D02*
X7Y1095D01*
X700Y1095D02*
X709Y1095D01*
X2344Y1095D02*
X2351Y1095D01*
X0Y1094D02*
X7Y1094D01*
X700Y1094D02*
X709Y1094D01*
X2344Y1094D02*
X2351Y1094D01*
X0Y1093D02*
X7Y1093D01*
X700Y1093D02*
X709Y1093D01*
X2344Y1093D02*
X2351Y1093D01*
X0Y1092D02*
X7Y1092D01*
X700Y1092D02*
X709Y1092D01*
X2344Y1092D02*
X2351Y1092D01*
X0Y1091D02*
X7Y1091D01*
X700Y1091D02*
X709Y1091D01*
X2344Y1091D02*
X2351Y1091D01*
X0Y1090D02*
X7Y1090D01*
X700Y1090D02*
X709Y1090D01*
X2344Y1090D02*
X2351Y1090D01*
X0Y1089D02*
X7Y1089D01*
X700Y1089D02*
X709Y1089D01*
X2344Y1089D02*
X2351Y1089D01*
X0Y1088D02*
X7Y1088D01*
X700Y1088D02*
X709Y1088D01*
X2344Y1088D02*
X2351Y1088D01*
X0Y1087D02*
X7Y1087D01*
X700Y1087D02*
X709Y1087D01*
X2344Y1087D02*
X2351Y1087D01*
X0Y1086D02*
X7Y1086D01*
X700Y1086D02*
X709Y1086D01*
X2344Y1086D02*
X2351Y1086D01*
X0Y1085D02*
X7Y1085D01*
X700Y1085D02*
X709Y1085D01*
X2344Y1085D02*
X2351Y1085D01*
X0Y1084D02*
X7Y1084D01*
X700Y1084D02*
X709Y1084D01*
X2344Y1084D02*
X2351Y1084D01*
X0Y1083D02*
X7Y1083D01*
X700Y1083D02*
X709Y1083D01*
X2344Y1083D02*
X2351Y1083D01*
X0Y1082D02*
X7Y1082D01*
X700Y1082D02*
X709Y1082D01*
X2344Y1082D02*
X2351Y1082D01*
X0Y1081D02*
X7Y1081D01*
X700Y1081D02*
X709Y1081D01*
X2344Y1081D02*
X2351Y1081D01*
X0Y1080D02*
X7Y1080D01*
X700Y1080D02*
X709Y1080D01*
X2344Y1080D02*
X2351Y1080D01*
X0Y1079D02*
X7Y1079D01*
X700Y1079D02*
X709Y1079D01*
X2344Y1079D02*
X2351Y1079D01*
X0Y1078D02*
X7Y1078D01*
X700Y1078D02*
X709Y1078D01*
X2344Y1078D02*
X2351Y1078D01*
X0Y1077D02*
X7Y1077D01*
X700Y1077D02*
X709Y1077D01*
X2344Y1077D02*
X2351Y1077D01*
X0Y1076D02*
X7Y1076D01*
X700Y1076D02*
X709Y1076D01*
X2344Y1076D02*
X2351Y1076D01*
X0Y1075D02*
X7Y1075D01*
X700Y1075D02*
X709Y1075D01*
X2344Y1075D02*
X2351Y1075D01*
X0Y1074D02*
X7Y1074D01*
X700Y1074D02*
X709Y1074D01*
X2344Y1074D02*
X2351Y1074D01*
X0Y1073D02*
X7Y1073D01*
X700Y1073D02*
X709Y1073D01*
X2344Y1073D02*
X2351Y1073D01*
X0Y1072D02*
X7Y1072D01*
X700Y1072D02*
X709Y1072D01*
X2344Y1072D02*
X2351Y1072D01*
X0Y1071D02*
X7Y1071D01*
X700Y1071D02*
X709Y1071D01*
X2344Y1071D02*
X2351Y1071D01*
X0Y1070D02*
X7Y1070D01*
X700Y1070D02*
X709Y1070D01*
X2344Y1070D02*
X2351Y1070D01*
X0Y1069D02*
X7Y1069D01*
X700Y1069D02*
X709Y1069D01*
X2344Y1069D02*
X2351Y1069D01*
X0Y1068D02*
X7Y1068D01*
X700Y1068D02*
X709Y1068D01*
X2344Y1068D02*
X2351Y1068D01*
X0Y1067D02*
X7Y1067D01*
X700Y1067D02*
X709Y1067D01*
X2344Y1067D02*
X2351Y1067D01*
X0Y1066D02*
X7Y1066D01*
X700Y1066D02*
X709Y1066D01*
X2344Y1066D02*
X2351Y1066D01*
X0Y1065D02*
X7Y1065D01*
X700Y1065D02*
X709Y1065D01*
X2344Y1065D02*
X2351Y1065D01*
X0Y1064D02*
X7Y1064D01*
X700Y1064D02*
X709Y1064D01*
X2344Y1064D02*
X2351Y1064D01*
X0Y1063D02*
X7Y1063D01*
X700Y1063D02*
X709Y1063D01*
X2344Y1063D02*
X2351Y1063D01*
X0Y1062D02*
X7Y1062D01*
X700Y1062D02*
X709Y1062D01*
X2344Y1062D02*
X2351Y1062D01*
X0Y1061D02*
X7Y1061D01*
X700Y1061D02*
X709Y1061D01*
X2344Y1061D02*
X2351Y1061D01*
X0Y1060D02*
X7Y1060D01*
X700Y1060D02*
X709Y1060D01*
X2344Y1060D02*
X2351Y1060D01*
X0Y1059D02*
X7Y1059D01*
X700Y1059D02*
X709Y1059D01*
X2344Y1059D02*
X2351Y1059D01*
X0Y1058D02*
X7Y1058D01*
X700Y1058D02*
X709Y1058D01*
X2344Y1058D02*
X2351Y1058D01*
X0Y1057D02*
X7Y1057D01*
X700Y1057D02*
X709Y1057D01*
X2344Y1057D02*
X2351Y1057D01*
X0Y1056D02*
X7Y1056D01*
X667Y1056D02*
X676Y1056D01*
X733Y1056D02*
X742Y1056D01*
X2344Y1056D02*
X2351Y1056D01*
X0Y1055D02*
X7Y1055D01*
X667Y1055D02*
X676Y1055D01*
X733Y1055D02*
X742Y1055D01*
X2344Y1055D02*
X2351Y1055D01*
X0Y1054D02*
X7Y1054D01*
X667Y1054D02*
X676Y1054D01*
X733Y1054D02*
X742Y1054D01*
X2344Y1054D02*
X2351Y1054D01*
X0Y1053D02*
X7Y1053D01*
X667Y1053D02*
X676Y1053D01*
X733Y1053D02*
X742Y1053D01*
X2344Y1053D02*
X2351Y1053D01*
X0Y1052D02*
X7Y1052D01*
X667Y1052D02*
X676Y1052D01*
X733Y1052D02*
X742Y1052D01*
X2344Y1052D02*
X2351Y1052D01*
X0Y1051D02*
X7Y1051D01*
X667Y1051D02*
X676Y1051D01*
X733Y1051D02*
X742Y1051D01*
X2344Y1051D02*
X2351Y1051D01*
X0Y1050D02*
X7Y1050D01*
X667Y1050D02*
X676Y1050D01*
X733Y1050D02*
X742Y1050D01*
X2344Y1050D02*
X2351Y1050D01*
X0Y1049D02*
X7Y1049D01*
X667Y1049D02*
X676Y1049D01*
X733Y1049D02*
X742Y1049D01*
X2344Y1049D02*
X2351Y1049D01*
X0Y1048D02*
X7Y1048D01*
X667Y1048D02*
X676Y1048D01*
X733Y1048D02*
X742Y1048D01*
X2344Y1048D02*
X2351Y1048D01*
X0Y1047D02*
X7Y1047D01*
X667Y1047D02*
X676Y1047D01*
X733Y1047D02*
X742Y1047D01*
X2344Y1047D02*
X2351Y1047D01*
X0Y1046D02*
X7Y1046D01*
X667Y1046D02*
X676Y1046D01*
X733Y1046D02*
X742Y1046D01*
X2344Y1046D02*
X2351Y1046D01*
X0Y1045D02*
X7Y1045D01*
X667Y1045D02*
X676Y1045D01*
X733Y1045D02*
X742Y1045D01*
X2344Y1045D02*
X2351Y1045D01*
X0Y1044D02*
X7Y1044D01*
X667Y1044D02*
X676Y1044D01*
X733Y1044D02*
X742Y1044D01*
X2344Y1044D02*
X2351Y1044D01*
X0Y1043D02*
X7Y1043D01*
X667Y1043D02*
X676Y1043D01*
X733Y1043D02*
X742Y1043D01*
X2344Y1043D02*
X2351Y1043D01*
X0Y1042D02*
X7Y1042D01*
X667Y1042D02*
X676Y1042D01*
X733Y1042D02*
X742Y1042D01*
X2344Y1042D02*
X2351Y1042D01*
X0Y1041D02*
X7Y1041D01*
X667Y1041D02*
X676Y1041D01*
X733Y1041D02*
X742Y1041D01*
X2344Y1041D02*
X2351Y1041D01*
X0Y1040D02*
X7Y1040D01*
X667Y1040D02*
X676Y1040D01*
X733Y1040D02*
X742Y1040D01*
X2344Y1040D02*
X2351Y1040D01*
X0Y1039D02*
X7Y1039D01*
X667Y1039D02*
X676Y1039D01*
X733Y1039D02*
X742Y1039D01*
X2344Y1039D02*
X2351Y1039D01*
X0Y1038D02*
X7Y1038D01*
X667Y1038D02*
X676Y1038D01*
X733Y1038D02*
X742Y1038D01*
X2344Y1038D02*
X2351Y1038D01*
X0Y1037D02*
X7Y1037D01*
X667Y1037D02*
X676Y1037D01*
X733Y1037D02*
X742Y1037D01*
X2344Y1037D02*
X2351Y1037D01*
X0Y1036D02*
X7Y1036D01*
X667Y1036D02*
X676Y1036D01*
X733Y1036D02*
X742Y1036D01*
X2344Y1036D02*
X2351Y1036D01*
X0Y1035D02*
X7Y1035D01*
X667Y1035D02*
X676Y1035D01*
X733Y1035D02*
X742Y1035D01*
X2344Y1035D02*
X2351Y1035D01*
X0Y1034D02*
X7Y1034D01*
X667Y1034D02*
X676Y1034D01*
X733Y1034D02*
X742Y1034D01*
X2344Y1034D02*
X2351Y1034D01*
X0Y1033D02*
X7Y1033D01*
X667Y1033D02*
X676Y1033D01*
X733Y1033D02*
X742Y1033D01*
X2344Y1033D02*
X2351Y1033D01*
X0Y1032D02*
X7Y1032D01*
X667Y1032D02*
X676Y1032D01*
X733Y1032D02*
X742Y1032D01*
X2344Y1032D02*
X2351Y1032D01*
X0Y1031D02*
X7Y1031D01*
X667Y1031D02*
X676Y1031D01*
X733Y1031D02*
X742Y1031D01*
X2344Y1031D02*
X2351Y1031D01*
X0Y1030D02*
X7Y1030D01*
X667Y1030D02*
X676Y1030D01*
X733Y1030D02*
X742Y1030D01*
X2344Y1030D02*
X2351Y1030D01*
X0Y1029D02*
X7Y1029D01*
X667Y1029D02*
X676Y1029D01*
X733Y1029D02*
X742Y1029D01*
X2344Y1029D02*
X2351Y1029D01*
X0Y1028D02*
X7Y1028D01*
X667Y1028D02*
X676Y1028D01*
X733Y1028D02*
X742Y1028D01*
X2344Y1028D02*
X2351Y1028D01*
X0Y1027D02*
X7Y1027D01*
X667Y1027D02*
X676Y1027D01*
X733Y1027D02*
X742Y1027D01*
X2344Y1027D02*
X2351Y1027D01*
X0Y1026D02*
X7Y1026D01*
X667Y1026D02*
X676Y1026D01*
X733Y1026D02*
X742Y1026D01*
X2344Y1026D02*
X2351Y1026D01*
X0Y1025D02*
X7Y1025D01*
X667Y1025D02*
X676Y1025D01*
X733Y1025D02*
X742Y1025D01*
X2344Y1025D02*
X2351Y1025D01*
X0Y1024D02*
X7Y1024D01*
X375Y1024D02*
X375Y1024D01*
X667Y1024D02*
X676Y1024D01*
X733Y1024D02*
X742Y1024D01*
X2344Y1024D02*
X2351Y1024D01*
X0Y1023D02*
X7Y1023D01*
X373Y1023D02*
X375Y1023D01*
X667Y1023D02*
X676Y1023D01*
X733Y1023D02*
X742Y1023D01*
X2344Y1023D02*
X2351Y1023D01*
X0Y1022D02*
X7Y1022D01*
X371Y1022D02*
X375Y1022D01*
X667Y1022D02*
X676Y1022D01*
X733Y1022D02*
X742Y1022D01*
X2344Y1022D02*
X2351Y1022D01*
X0Y1021D02*
X7Y1021D01*
X371Y1021D02*
X375Y1021D01*
X667Y1021D02*
X676Y1021D01*
X733Y1021D02*
X742Y1021D01*
X2344Y1021D02*
X2351Y1021D01*
X0Y1020D02*
X7Y1020D01*
X371Y1020D02*
X375Y1020D01*
X667Y1020D02*
X676Y1020D01*
X733Y1020D02*
X742Y1020D01*
X2344Y1020D02*
X2351Y1020D01*
X0Y1019D02*
X7Y1019D01*
X371Y1019D02*
X375Y1019D01*
X667Y1019D02*
X676Y1019D01*
X733Y1019D02*
X742Y1019D01*
X2344Y1019D02*
X2351Y1019D01*
X0Y1018D02*
X7Y1018D01*
X371Y1018D02*
X375Y1018D01*
X667Y1018D02*
X676Y1018D01*
X733Y1018D02*
X742Y1018D01*
X2344Y1018D02*
X2351Y1018D01*
X0Y1017D02*
X7Y1017D01*
X371Y1017D02*
X375Y1017D01*
X667Y1017D02*
X676Y1017D01*
X733Y1017D02*
X742Y1017D01*
X2344Y1017D02*
X2351Y1017D01*
X0Y1016D02*
X7Y1016D01*
X371Y1016D02*
X375Y1016D01*
X667Y1016D02*
X676Y1016D01*
X733Y1016D02*
X742Y1016D01*
X2344Y1016D02*
X2351Y1016D01*
X0Y1015D02*
X7Y1015D01*
X371Y1015D02*
X375Y1015D01*
X667Y1015D02*
X676Y1015D01*
X733Y1015D02*
X742Y1015D01*
X2344Y1015D02*
X2351Y1015D01*
X0Y1014D02*
X7Y1014D01*
X371Y1014D02*
X375Y1014D01*
X667Y1014D02*
X676Y1014D01*
X733Y1014D02*
X742Y1014D01*
X2344Y1014D02*
X2351Y1014D01*
X0Y1013D02*
X7Y1013D01*
X371Y1013D02*
X375Y1013D01*
X667Y1013D02*
X676Y1013D01*
X733Y1013D02*
X742Y1013D01*
X2344Y1013D02*
X2351Y1013D01*
X0Y1012D02*
X7Y1012D01*
X371Y1012D02*
X375Y1012D01*
X667Y1012D02*
X676Y1012D01*
X733Y1012D02*
X742Y1012D01*
X2344Y1012D02*
X2351Y1012D01*
X0Y1011D02*
X7Y1011D01*
X371Y1011D02*
X375Y1011D01*
X667Y1011D02*
X676Y1011D01*
X733Y1011D02*
X742Y1011D01*
X2344Y1011D02*
X2351Y1011D01*
X0Y1010D02*
X7Y1010D01*
X371Y1010D02*
X375Y1010D01*
X667Y1010D02*
X676Y1010D01*
X733Y1010D02*
X742Y1010D01*
X2344Y1010D02*
X2351Y1010D01*
X0Y1009D02*
X7Y1009D01*
X371Y1009D02*
X375Y1009D01*
X667Y1009D02*
X676Y1009D01*
X733Y1009D02*
X742Y1009D01*
X2344Y1009D02*
X2351Y1009D01*
X0Y1008D02*
X7Y1008D01*
X371Y1008D02*
X375Y1008D01*
X667Y1008D02*
X676Y1008D01*
X733Y1008D02*
X742Y1008D01*
X2344Y1008D02*
X2351Y1008D01*
X0Y1007D02*
X7Y1007D01*
X371Y1007D02*
X375Y1007D01*
X667Y1007D02*
X676Y1007D01*
X733Y1007D02*
X742Y1007D01*
X2344Y1007D02*
X2351Y1007D01*
X0Y1006D02*
X7Y1006D01*
X371Y1006D02*
X375Y1006D01*
X667Y1006D02*
X676Y1006D01*
X733Y1006D02*
X742Y1006D01*
X2344Y1006D02*
X2351Y1006D01*
X0Y1005D02*
X7Y1005D01*
X371Y1005D02*
X375Y1005D01*
X667Y1005D02*
X676Y1005D01*
X733Y1005D02*
X742Y1005D01*
X2344Y1005D02*
X2351Y1005D01*
X0Y1004D02*
X7Y1004D01*
X371Y1004D02*
X375Y1004D01*
X667Y1004D02*
X676Y1004D01*
X733Y1004D02*
X742Y1004D01*
X2344Y1004D02*
X2351Y1004D01*
X0Y1003D02*
X7Y1003D01*
X371Y1003D02*
X375Y1003D01*
X667Y1003D02*
X676Y1003D01*
X733Y1003D02*
X742Y1003D01*
X2344Y1003D02*
X2351Y1003D01*
X0Y1002D02*
X7Y1002D01*
X371Y1002D02*
X375Y1002D01*
X667Y1002D02*
X676Y1002D01*
X733Y1002D02*
X742Y1002D01*
X2344Y1002D02*
X2351Y1002D01*
X0Y1001D02*
X7Y1001D01*
X371Y1001D02*
X375Y1001D01*
X667Y1001D02*
X676Y1001D01*
X733Y1001D02*
X742Y1001D01*
X2344Y1001D02*
X2351Y1001D01*
X0Y1000D02*
X7Y1000D01*
X371Y1000D02*
X375Y1000D01*
X667Y1000D02*
X676Y1000D01*
X733Y1000D02*
X742Y1000D01*
X2344Y1000D02*
X2351Y1000D01*
X0Y999D02*
X7Y999D01*
X371Y999D02*
X375Y999D01*
X667Y999D02*
X676Y999D01*
X733Y999D02*
X742Y999D01*
X2344Y999D02*
X2351Y999D01*
X0Y998D02*
X7Y998D01*
X371Y998D02*
X375Y998D01*
X667Y998D02*
X676Y998D01*
X733Y998D02*
X742Y998D01*
X2344Y998D02*
X2351Y998D01*
X0Y997D02*
X7Y997D01*
X371Y997D02*
X375Y997D01*
X667Y997D02*
X676Y997D01*
X733Y997D02*
X742Y997D01*
X2344Y997D02*
X2351Y997D01*
X0Y996D02*
X7Y996D01*
X371Y996D02*
X375Y996D01*
X667Y996D02*
X676Y996D01*
X733Y996D02*
X742Y996D01*
X2344Y996D02*
X2351Y996D01*
X0Y995D02*
X7Y995D01*
X371Y995D02*
X375Y995D01*
X667Y995D02*
X676Y995D01*
X733Y995D02*
X742Y995D01*
X2344Y995D02*
X2351Y995D01*
X0Y994D02*
X7Y994D01*
X371Y994D02*
X375Y994D01*
X667Y994D02*
X676Y994D01*
X733Y994D02*
X742Y994D01*
X2344Y994D02*
X2351Y994D01*
X0Y993D02*
X7Y993D01*
X371Y993D02*
X375Y993D01*
X667Y993D02*
X676Y993D01*
X733Y993D02*
X742Y993D01*
X2344Y993D02*
X2351Y993D01*
X0Y992D02*
X7Y992D01*
X371Y992D02*
X375Y992D01*
X667Y992D02*
X676Y992D01*
X733Y992D02*
X742Y992D01*
X2344Y992D02*
X2351Y992D01*
X0Y991D02*
X7Y991D01*
X371Y991D02*
X375Y991D01*
X667Y991D02*
X676Y991D01*
X733Y991D02*
X742Y991D01*
X2344Y991D02*
X2351Y991D01*
X0Y990D02*
X7Y990D01*
X371Y990D02*
X375Y990D01*
X667Y990D02*
X676Y990D01*
X733Y990D02*
X742Y990D01*
X2344Y990D02*
X2351Y990D01*
X0Y989D02*
X7Y989D01*
X371Y989D02*
X375Y989D01*
X667Y989D02*
X676Y989D01*
X733Y989D02*
X742Y989D01*
X2344Y989D02*
X2351Y989D01*
X0Y988D02*
X7Y988D01*
X371Y988D02*
X375Y988D01*
X667Y988D02*
X676Y988D01*
X733Y988D02*
X742Y988D01*
X2344Y988D02*
X2351Y988D01*
X0Y987D02*
X7Y987D01*
X371Y987D02*
X375Y987D01*
X667Y987D02*
X676Y987D01*
X733Y987D02*
X742Y987D01*
X2344Y987D02*
X2351Y987D01*
X0Y986D02*
X7Y986D01*
X371Y986D02*
X375Y986D01*
X667Y986D02*
X676Y986D01*
X733Y986D02*
X742Y986D01*
X2344Y986D02*
X2351Y986D01*
X0Y985D02*
X7Y985D01*
X371Y985D02*
X375Y985D01*
X667Y985D02*
X676Y985D01*
X733Y985D02*
X742Y985D01*
X2344Y985D02*
X2351Y985D01*
X0Y984D02*
X7Y984D01*
X371Y984D02*
X375Y984D01*
X667Y984D02*
X676Y984D01*
X733Y984D02*
X742Y984D01*
X2344Y984D02*
X2351Y984D01*
X0Y983D02*
X7Y983D01*
X371Y983D02*
X375Y983D01*
X667Y983D02*
X676Y983D01*
X733Y983D02*
X742Y983D01*
X2344Y983D02*
X2351Y983D01*
X0Y982D02*
X7Y982D01*
X371Y982D02*
X375Y982D01*
X667Y982D02*
X676Y982D01*
X733Y982D02*
X742Y982D01*
X2344Y982D02*
X2351Y982D01*
X0Y981D02*
X7Y981D01*
X371Y981D02*
X375Y981D01*
X667Y981D02*
X676Y981D01*
X733Y981D02*
X742Y981D01*
X2344Y981D02*
X2351Y981D01*
X0Y980D02*
X7Y980D01*
X371Y980D02*
X375Y980D01*
X667Y980D02*
X676Y980D01*
X733Y980D02*
X742Y980D01*
X2344Y980D02*
X2351Y980D01*
X0Y979D02*
X7Y979D01*
X371Y979D02*
X375Y979D01*
X667Y979D02*
X676Y979D01*
X733Y979D02*
X742Y979D01*
X2344Y979D02*
X2351Y979D01*
X0Y978D02*
X7Y978D01*
X371Y978D02*
X375Y978D01*
X667Y978D02*
X676Y978D01*
X733Y978D02*
X742Y978D01*
X2344Y978D02*
X2351Y978D01*
X0Y977D02*
X7Y977D01*
X371Y977D02*
X375Y977D01*
X667Y977D02*
X676Y977D01*
X733Y977D02*
X742Y977D01*
X2344Y977D02*
X2351Y977D01*
X0Y976D02*
X7Y976D01*
X371Y976D02*
X375Y976D01*
X667Y976D02*
X676Y976D01*
X733Y976D02*
X742Y976D01*
X2344Y976D02*
X2351Y976D01*
X0Y975D02*
X7Y975D01*
X371Y975D02*
X375Y975D01*
X667Y975D02*
X676Y975D01*
X733Y975D02*
X742Y975D01*
X2344Y975D02*
X2351Y975D01*
X0Y974D02*
X7Y974D01*
X371Y974D02*
X375Y974D01*
X667Y974D02*
X676Y974D01*
X733Y974D02*
X742Y974D01*
X2344Y974D02*
X2351Y974D01*
X0Y973D02*
X7Y973D01*
X371Y973D02*
X375Y973D01*
X667Y973D02*
X676Y973D01*
X733Y973D02*
X742Y973D01*
X2344Y973D02*
X2351Y973D01*
X0Y972D02*
X7Y972D01*
X371Y972D02*
X375Y972D01*
X667Y972D02*
X676Y972D01*
X733Y972D02*
X742Y972D01*
X2344Y972D02*
X2351Y972D01*
X0Y971D02*
X7Y971D01*
X371Y971D02*
X375Y971D01*
X667Y971D02*
X676Y971D01*
X733Y971D02*
X742Y971D01*
X2344Y971D02*
X2351Y971D01*
X0Y970D02*
X7Y970D01*
X371Y970D02*
X375Y970D01*
X667Y970D02*
X676Y970D01*
X733Y970D02*
X742Y970D01*
X2344Y970D02*
X2351Y970D01*
X0Y969D02*
X7Y969D01*
X371Y969D02*
X375Y969D01*
X667Y969D02*
X676Y969D01*
X733Y969D02*
X742Y969D01*
X2344Y969D02*
X2351Y969D01*
X0Y968D02*
X7Y968D01*
X371Y968D02*
X375Y968D01*
X667Y968D02*
X676Y968D01*
X733Y968D02*
X742Y968D01*
X2344Y968D02*
X2351Y968D01*
X0Y967D02*
X7Y967D01*
X371Y967D02*
X375Y967D01*
X667Y967D02*
X676Y967D01*
X733Y967D02*
X742Y967D01*
X2344Y967D02*
X2351Y967D01*
X0Y966D02*
X7Y966D01*
X371Y966D02*
X375Y966D01*
X667Y966D02*
X676Y966D01*
X733Y966D02*
X742Y966D01*
X2344Y966D02*
X2351Y966D01*
X0Y965D02*
X7Y965D01*
X371Y965D02*
X375Y965D01*
X667Y965D02*
X676Y965D01*
X733Y965D02*
X742Y965D01*
X2344Y965D02*
X2351Y965D01*
X0Y964D02*
X7Y964D01*
X371Y964D02*
X375Y964D01*
X667Y964D02*
X676Y964D01*
X733Y964D02*
X742Y964D01*
X2344Y964D02*
X2351Y964D01*
X0Y963D02*
X7Y963D01*
X371Y963D02*
X375Y963D01*
X667Y963D02*
X676Y963D01*
X733Y963D02*
X742Y963D01*
X2344Y963D02*
X2351Y963D01*
X0Y962D02*
X7Y962D01*
X371Y962D02*
X375Y962D01*
X667Y962D02*
X676Y962D01*
X733Y962D02*
X742Y962D01*
X2344Y962D02*
X2351Y962D01*
X0Y961D02*
X7Y961D01*
X371Y961D02*
X375Y961D01*
X667Y961D02*
X676Y961D01*
X733Y961D02*
X742Y961D01*
X2344Y961D02*
X2351Y961D01*
X0Y960D02*
X7Y960D01*
X371Y960D02*
X375Y960D01*
X667Y960D02*
X676Y960D01*
X733Y960D02*
X742Y960D01*
X2344Y960D02*
X2351Y960D01*
X0Y959D02*
X7Y959D01*
X371Y959D02*
X375Y959D01*
X667Y959D02*
X676Y959D01*
X733Y959D02*
X742Y959D01*
X2344Y959D02*
X2351Y959D01*
X0Y958D02*
X7Y958D01*
X371Y958D02*
X375Y958D01*
X667Y958D02*
X676Y958D01*
X733Y958D02*
X742Y958D01*
X2344Y958D02*
X2351Y958D01*
X0Y957D02*
X7Y957D01*
X371Y957D02*
X375Y957D01*
X667Y957D02*
X676Y957D01*
X733Y957D02*
X742Y957D01*
X2344Y957D02*
X2351Y957D01*
X0Y956D02*
X7Y956D01*
X667Y956D02*
X676Y956D01*
X733Y956D02*
X742Y956D01*
X2344Y956D02*
X2351Y956D01*
X0Y955D02*
X7Y955D01*
X667Y955D02*
X676Y955D01*
X733Y955D02*
X742Y955D01*
X2344Y955D02*
X2351Y955D01*
X0Y954D02*
X7Y954D01*
X667Y954D02*
X676Y954D01*
X733Y954D02*
X742Y954D01*
X2344Y954D02*
X2351Y954D01*
X0Y953D02*
X7Y953D01*
X667Y953D02*
X676Y953D01*
X733Y953D02*
X742Y953D01*
X2344Y953D02*
X2351Y953D01*
X0Y952D02*
X7Y952D01*
X667Y952D02*
X676Y952D01*
X733Y952D02*
X742Y952D01*
X2344Y952D02*
X2351Y952D01*
X0Y951D02*
X7Y951D01*
X667Y951D02*
X676Y951D01*
X733Y951D02*
X742Y951D01*
X2344Y951D02*
X2351Y951D01*
X0Y950D02*
X7Y950D01*
X667Y950D02*
X676Y950D01*
X733Y950D02*
X742Y950D01*
X2344Y950D02*
X2351Y950D01*
X0Y949D02*
X7Y949D01*
X579Y949D02*
X588Y949D01*
X667Y949D02*
X676Y949D01*
X733Y949D02*
X742Y949D01*
X2344Y949D02*
X2351Y949D01*
X0Y948D02*
X7Y948D01*
X579Y948D02*
X588Y948D01*
X667Y948D02*
X676Y948D01*
X733Y948D02*
X742Y948D01*
X2344Y948D02*
X2351Y948D01*
X0Y947D02*
X7Y947D01*
X579Y947D02*
X588Y947D01*
X667Y947D02*
X676Y947D01*
X733Y947D02*
X742Y947D01*
X2344Y947D02*
X2351Y947D01*
X0Y946D02*
X7Y946D01*
X579Y946D02*
X588Y946D01*
X667Y946D02*
X676Y946D01*
X733Y946D02*
X742Y946D01*
X2344Y946D02*
X2351Y946D01*
X0Y945D02*
X7Y945D01*
X579Y945D02*
X588Y945D01*
X667Y945D02*
X676Y945D01*
X733Y945D02*
X742Y945D01*
X2344Y945D02*
X2351Y945D01*
X0Y944D02*
X7Y944D01*
X579Y944D02*
X588Y944D01*
X667Y944D02*
X676Y944D01*
X733Y944D02*
X742Y944D01*
X2344Y944D02*
X2351Y944D01*
X0Y943D02*
X7Y943D01*
X579Y943D02*
X588Y943D01*
X667Y943D02*
X676Y943D01*
X733Y943D02*
X742Y943D01*
X2344Y943D02*
X2351Y943D01*
X0Y942D02*
X7Y942D01*
X580Y942D02*
X588Y942D01*
X667Y942D02*
X676Y942D01*
X733Y942D02*
X742Y942D01*
X2344Y942D02*
X2351Y942D01*
X0Y941D02*
X7Y941D01*
X667Y941D02*
X676Y941D01*
X733Y941D02*
X742Y941D01*
X2344Y941D02*
X2351Y941D01*
X0Y940D02*
X7Y940D01*
X667Y940D02*
X676Y940D01*
X733Y940D02*
X742Y940D01*
X2344Y940D02*
X2351Y940D01*
X0Y939D02*
X7Y939D01*
X667Y939D02*
X676Y939D01*
X733Y939D02*
X742Y939D01*
X2344Y939D02*
X2351Y939D01*
X0Y938D02*
X7Y938D01*
X667Y938D02*
X676Y938D01*
X733Y938D02*
X742Y938D01*
X2344Y938D02*
X2351Y938D01*
X0Y937D02*
X7Y937D01*
X667Y937D02*
X676Y937D01*
X733Y937D02*
X742Y937D01*
X2344Y937D02*
X2351Y937D01*
X0Y936D02*
X7Y936D01*
X667Y936D02*
X676Y936D01*
X733Y936D02*
X742Y936D01*
X2344Y936D02*
X2351Y936D01*
X0Y935D02*
X7Y935D01*
X667Y935D02*
X676Y935D01*
X733Y935D02*
X742Y935D01*
X2344Y935D02*
X2351Y935D01*
X0Y934D02*
X7Y934D01*
X667Y934D02*
X676Y934D01*
X733Y934D02*
X742Y934D01*
X2344Y934D02*
X2351Y934D01*
X0Y933D02*
X7Y933D01*
X667Y933D02*
X676Y933D01*
X733Y933D02*
X742Y933D01*
X2344Y933D02*
X2351Y933D01*
X0Y932D02*
X7Y932D01*
X667Y932D02*
X676Y932D01*
X733Y932D02*
X742Y932D01*
X2344Y932D02*
X2351Y932D01*
X0Y931D02*
X7Y931D01*
X667Y931D02*
X676Y931D01*
X733Y931D02*
X742Y931D01*
X2344Y931D02*
X2351Y931D01*
X0Y930D02*
X7Y930D01*
X667Y930D02*
X676Y930D01*
X733Y930D02*
X742Y930D01*
X2344Y930D02*
X2351Y930D01*
X0Y929D02*
X7Y929D01*
X667Y929D02*
X676Y929D01*
X733Y929D02*
X742Y929D01*
X2344Y929D02*
X2351Y929D01*
X0Y928D02*
X7Y928D01*
X667Y928D02*
X676Y928D01*
X733Y928D02*
X742Y928D01*
X2344Y928D02*
X2351Y928D01*
X0Y927D02*
X7Y927D01*
X667Y927D02*
X676Y927D01*
X733Y927D02*
X742Y927D01*
X2344Y927D02*
X2351Y927D01*
X0Y926D02*
X7Y926D01*
X667Y926D02*
X676Y926D01*
X733Y926D02*
X742Y926D01*
X2344Y926D02*
X2351Y926D01*
X0Y925D02*
X7Y925D01*
X667Y925D02*
X676Y925D01*
X733Y925D02*
X742Y925D01*
X2344Y925D02*
X2351Y925D01*
X0Y924D02*
X7Y924D01*
X667Y924D02*
X676Y924D01*
X733Y924D02*
X742Y924D01*
X2344Y924D02*
X2351Y924D01*
X0Y923D02*
X7Y923D01*
X667Y923D02*
X676Y923D01*
X733Y923D02*
X742Y923D01*
X2344Y923D02*
X2351Y923D01*
X0Y922D02*
X7Y922D01*
X667Y922D02*
X676Y922D01*
X733Y922D02*
X742Y922D01*
X2344Y922D02*
X2351Y922D01*
X0Y921D02*
X7Y921D01*
X667Y921D02*
X676Y921D01*
X733Y921D02*
X742Y921D01*
X2344Y921D02*
X2351Y921D01*
X0Y920D02*
X7Y920D01*
X667Y920D02*
X676Y920D01*
X733Y920D02*
X742Y920D01*
X2344Y920D02*
X2351Y920D01*
X0Y919D02*
X7Y919D01*
X667Y919D02*
X676Y919D01*
X733Y919D02*
X742Y919D01*
X2344Y919D02*
X2351Y919D01*
X0Y918D02*
X7Y918D01*
X667Y918D02*
X676Y918D01*
X733Y918D02*
X742Y918D01*
X2344Y918D02*
X2351Y918D01*
X0Y917D02*
X7Y917D01*
X667Y917D02*
X676Y917D01*
X733Y917D02*
X742Y917D01*
X2344Y917D02*
X2351Y917D01*
X0Y916D02*
X7Y916D01*
X667Y916D02*
X676Y916D01*
X733Y916D02*
X742Y916D01*
X2344Y916D02*
X2351Y916D01*
X0Y915D02*
X7Y915D01*
X667Y915D02*
X676Y915D01*
X733Y915D02*
X742Y915D01*
X2344Y915D02*
X2351Y915D01*
X0Y914D02*
X7Y914D01*
X667Y914D02*
X676Y914D01*
X733Y914D02*
X742Y914D01*
X2344Y914D02*
X2351Y914D01*
X0Y913D02*
X7Y913D01*
X667Y913D02*
X676Y913D01*
X733Y913D02*
X742Y913D01*
X2344Y913D02*
X2351Y913D01*
X0Y912D02*
X7Y912D01*
X667Y912D02*
X676Y912D01*
X733Y912D02*
X742Y912D01*
X2344Y912D02*
X2351Y912D01*
X0Y911D02*
X7Y911D01*
X667Y911D02*
X676Y911D01*
X733Y911D02*
X742Y911D01*
X2344Y911D02*
X2351Y911D01*
X0Y910D02*
X7Y910D01*
X667Y910D02*
X676Y910D01*
X733Y910D02*
X742Y910D01*
X2344Y910D02*
X2351Y910D01*
X0Y909D02*
X7Y909D01*
X667Y909D02*
X676Y909D01*
X733Y909D02*
X742Y909D01*
X2344Y909D02*
X2351Y909D01*
X0Y908D02*
X7Y908D01*
X667Y908D02*
X676Y908D01*
X733Y908D02*
X742Y908D01*
X2344Y908D02*
X2351Y908D01*
X0Y907D02*
X7Y907D01*
X667Y907D02*
X676Y907D01*
X733Y907D02*
X742Y907D01*
X2344Y907D02*
X2351Y907D01*
X0Y906D02*
X7Y906D01*
X667Y906D02*
X676Y906D01*
X733Y906D02*
X742Y906D01*
X2344Y906D02*
X2351Y906D01*
X0Y905D02*
X7Y905D01*
X667Y905D02*
X676Y905D01*
X733Y905D02*
X742Y905D01*
X2344Y905D02*
X2351Y905D01*
X0Y904D02*
X7Y904D01*
X667Y904D02*
X676Y904D01*
X733Y904D02*
X742Y904D01*
X2344Y904D02*
X2351Y904D01*
X0Y903D02*
X7Y903D01*
X667Y903D02*
X676Y903D01*
X733Y903D02*
X742Y903D01*
X2344Y903D02*
X2351Y903D01*
X0Y902D02*
X7Y902D01*
X667Y902D02*
X676Y902D01*
X733Y902D02*
X742Y902D01*
X2344Y902D02*
X2351Y902D01*
X0Y901D02*
X7Y901D01*
X667Y901D02*
X676Y901D01*
X733Y901D02*
X742Y901D01*
X2344Y901D02*
X2351Y901D01*
X0Y900D02*
X7Y900D01*
X667Y900D02*
X676Y900D01*
X733Y900D02*
X742Y900D01*
X2344Y900D02*
X2351Y900D01*
X0Y899D02*
X7Y899D01*
X667Y899D02*
X676Y899D01*
X733Y899D02*
X742Y899D01*
X2344Y899D02*
X2351Y899D01*
X0Y898D02*
X7Y898D01*
X667Y898D02*
X676Y898D01*
X733Y898D02*
X742Y898D01*
X2344Y898D02*
X2351Y898D01*
X0Y897D02*
X7Y897D01*
X667Y897D02*
X676Y897D01*
X733Y897D02*
X742Y897D01*
X2344Y897D02*
X2351Y897D01*
X0Y896D02*
X7Y896D01*
X667Y896D02*
X676Y896D01*
X733Y896D02*
X742Y896D01*
X2344Y896D02*
X2351Y896D01*
X0Y895D02*
X7Y895D01*
X667Y895D02*
X676Y895D01*
X733Y895D02*
X742Y895D01*
X2344Y895D02*
X2351Y895D01*
X0Y894D02*
X7Y894D01*
X667Y894D02*
X676Y894D01*
X733Y894D02*
X742Y894D01*
X2344Y894D02*
X2351Y894D01*
X0Y893D02*
X7Y893D01*
X667Y893D02*
X676Y893D01*
X733Y893D02*
X742Y893D01*
X2344Y893D02*
X2351Y893D01*
X0Y892D02*
X7Y892D01*
X667Y892D02*
X676Y892D01*
X733Y892D02*
X742Y892D01*
X2344Y892D02*
X2351Y892D01*
X0Y891D02*
X7Y891D01*
X667Y891D02*
X676Y891D01*
X733Y891D02*
X742Y891D01*
X2344Y891D02*
X2351Y891D01*
X0Y890D02*
X7Y890D01*
X667Y890D02*
X676Y890D01*
X733Y890D02*
X742Y890D01*
X2344Y890D02*
X2351Y890D01*
X0Y889D02*
X7Y889D01*
X667Y889D02*
X676Y889D01*
X733Y889D02*
X742Y889D01*
X2344Y889D02*
X2351Y889D01*
X0Y888D02*
X7Y888D01*
X667Y888D02*
X676Y888D01*
X733Y888D02*
X742Y888D01*
X2344Y888D02*
X2351Y888D01*
X0Y887D02*
X7Y887D01*
X667Y887D02*
X676Y887D01*
X733Y887D02*
X742Y887D01*
X2344Y887D02*
X2351Y887D01*
X0Y886D02*
X7Y886D01*
X667Y886D02*
X676Y886D01*
X733Y886D02*
X742Y886D01*
X2344Y886D02*
X2351Y886D01*
X0Y885D02*
X7Y885D01*
X667Y885D02*
X676Y885D01*
X733Y885D02*
X742Y885D01*
X2344Y885D02*
X2351Y885D01*
X0Y884D02*
X7Y884D01*
X667Y884D02*
X676Y884D01*
X733Y884D02*
X742Y884D01*
X2344Y884D02*
X2351Y884D01*
X0Y883D02*
X7Y883D01*
X667Y883D02*
X676Y883D01*
X733Y883D02*
X742Y883D01*
X2344Y883D02*
X2351Y883D01*
X0Y882D02*
X7Y882D01*
X667Y882D02*
X676Y882D01*
X733Y882D02*
X742Y882D01*
X2344Y882D02*
X2351Y882D01*
X0Y881D02*
X7Y881D01*
X667Y881D02*
X676Y881D01*
X733Y881D02*
X742Y881D01*
X2344Y881D02*
X2351Y881D01*
X0Y880D02*
X7Y880D01*
X667Y880D02*
X676Y880D01*
X733Y880D02*
X742Y880D01*
X2344Y880D02*
X2351Y880D01*
X0Y879D02*
X7Y879D01*
X667Y879D02*
X676Y879D01*
X733Y879D02*
X742Y879D01*
X2344Y879D02*
X2351Y879D01*
X0Y878D02*
X7Y878D01*
X667Y878D02*
X676Y878D01*
X733Y878D02*
X742Y878D01*
X2344Y878D02*
X2351Y878D01*
X0Y877D02*
X7Y877D01*
X667Y877D02*
X676Y877D01*
X733Y877D02*
X742Y877D01*
X2344Y877D02*
X2351Y877D01*
X0Y876D02*
X7Y876D01*
X667Y876D02*
X676Y876D01*
X733Y876D02*
X742Y876D01*
X2344Y876D02*
X2351Y876D01*
X0Y875D02*
X7Y875D01*
X667Y875D02*
X676Y875D01*
X733Y875D02*
X742Y875D01*
X2344Y875D02*
X2351Y875D01*
X0Y874D02*
X7Y874D01*
X667Y874D02*
X676Y874D01*
X733Y874D02*
X742Y874D01*
X2344Y874D02*
X2351Y874D01*
X0Y873D02*
X7Y873D01*
X667Y873D02*
X676Y873D01*
X733Y873D02*
X742Y873D01*
X2344Y873D02*
X2351Y873D01*
X0Y872D02*
X7Y872D01*
X667Y872D02*
X676Y872D01*
X733Y872D02*
X742Y872D01*
X2344Y872D02*
X2351Y872D01*
X0Y871D02*
X7Y871D01*
X667Y871D02*
X676Y871D01*
X733Y871D02*
X742Y871D01*
X2344Y871D02*
X2351Y871D01*
X0Y870D02*
X7Y870D01*
X667Y870D02*
X676Y870D01*
X733Y870D02*
X742Y870D01*
X2344Y870D02*
X2351Y870D01*
X0Y869D02*
X7Y869D01*
X667Y869D02*
X676Y869D01*
X733Y869D02*
X742Y869D01*
X2344Y869D02*
X2351Y869D01*
X0Y868D02*
X7Y868D01*
X667Y868D02*
X676Y868D01*
X733Y868D02*
X742Y868D01*
X2344Y868D02*
X2351Y868D01*
X0Y867D02*
X7Y867D01*
X667Y867D02*
X676Y867D01*
X733Y867D02*
X742Y867D01*
X2344Y867D02*
X2351Y867D01*
X0Y866D02*
X7Y866D01*
X667Y866D02*
X676Y866D01*
X733Y866D02*
X742Y866D01*
X2344Y866D02*
X2351Y866D01*
X0Y865D02*
X7Y865D01*
X667Y865D02*
X676Y865D01*
X733Y865D02*
X742Y865D01*
X2344Y865D02*
X2351Y865D01*
X0Y864D02*
X7Y864D01*
X667Y864D02*
X676Y864D01*
X733Y864D02*
X742Y864D01*
X2344Y864D02*
X2351Y864D01*
X0Y863D02*
X7Y863D01*
X667Y863D02*
X676Y863D01*
X733Y863D02*
X742Y863D01*
X2344Y863D02*
X2351Y863D01*
X0Y862D02*
X7Y862D01*
X667Y862D02*
X676Y862D01*
X733Y862D02*
X742Y862D01*
X2344Y862D02*
X2351Y862D01*
X0Y861D02*
X7Y861D01*
X667Y861D02*
X684Y861D01*
X728Y861D02*
X742Y861D01*
X2344Y861D02*
X2351Y861D01*
X0Y860D02*
X7Y860D01*
X667Y860D02*
X683Y860D01*
X730Y860D02*
X742Y860D01*
X2344Y860D02*
X2351Y860D01*
X0Y859D02*
X7Y859D01*
X667Y859D02*
X682Y859D01*
X731Y859D02*
X742Y859D01*
X2344Y859D02*
X2351Y859D01*
X0Y858D02*
X7Y858D01*
X667Y858D02*
X680Y858D01*
X732Y858D02*
X742Y858D01*
X2344Y858D02*
X2351Y858D01*
X0Y857D02*
X7Y857D01*
X667Y857D02*
X679Y857D01*
X734Y857D02*
X742Y857D01*
X2344Y857D02*
X2351Y857D01*
X0Y856D02*
X7Y856D01*
X672Y856D02*
X678Y856D01*
X735Y856D02*
X737Y856D01*
X2344Y856D02*
X2351Y856D01*
X0Y855D02*
X7Y855D01*
X672Y855D02*
X677Y855D01*
X736Y855D02*
X737Y855D01*
X2344Y855D02*
X2351Y855D01*
X0Y854D02*
X7Y854D01*
X672Y854D02*
X676Y854D01*
X737Y854D02*
X737Y854D01*
X2344Y854D02*
X2351Y854D01*
X0Y853D02*
X7Y853D01*
X672Y853D02*
X675Y853D01*
X2344Y853D02*
X2351Y853D01*
X0Y852D02*
X7Y852D01*
X672Y852D02*
X674Y852D01*
X2344Y852D02*
X2351Y852D01*
X0Y851D02*
X7Y851D01*
X2344Y851D02*
X2351Y851D01*
X0Y850D02*
X7Y850D01*
X2344Y850D02*
X2351Y850D01*
X0Y849D02*
X7Y849D01*
X2344Y849D02*
X2351Y849D01*
X0Y848D02*
X7Y848D01*
X2344Y848D02*
X2351Y848D01*
X0Y847D02*
X7Y847D01*
X2344Y847D02*
X2351Y847D01*
X0Y846D02*
X7Y846D01*
X2344Y846D02*
X2351Y846D01*
X0Y845D02*
X7Y845D01*
X2344Y845D02*
X2351Y845D01*
X0Y844D02*
X7Y844D01*
X2344Y844D02*
X2351Y844D01*
X0Y843D02*
X7Y843D01*
X2344Y843D02*
X2351Y843D01*
X0Y842D02*
X7Y842D01*
X2344Y842D02*
X2351Y842D01*
X0Y841D02*
X7Y841D01*
X2344Y841D02*
X2351Y841D01*
X0Y840D02*
X7Y840D01*
X2344Y840D02*
X2351Y840D01*
X0Y839D02*
X7Y839D01*
X2344Y839D02*
X2351Y839D01*
X0Y838D02*
X7Y838D01*
X2344Y838D02*
X2351Y838D01*
X0Y837D02*
X7Y837D01*
X2344Y837D02*
X2351Y837D01*
X0Y836D02*
X7Y836D01*
X2344Y836D02*
X2351Y836D01*
X0Y835D02*
X7Y835D01*
X2344Y835D02*
X2351Y835D01*
X0Y834D02*
X7Y834D01*
X2344Y834D02*
X2351Y834D01*
X0Y833D02*
X7Y833D01*
X2344Y833D02*
X2351Y833D01*
X0Y832D02*
X7Y832D01*
X2344Y832D02*
X2351Y832D01*
X0Y831D02*
X7Y831D01*
X2344Y831D02*
X2351Y831D01*
X0Y830D02*
X7Y830D01*
X2344Y830D02*
X2351Y830D01*
X0Y829D02*
X7Y829D01*
X2344Y829D02*
X2351Y829D01*
X0Y828D02*
X7Y828D01*
X2344Y828D02*
X2351Y828D01*
X0Y827D02*
X7Y827D01*
X2344Y827D02*
X2351Y827D01*
X0Y826D02*
X7Y826D01*
X2344Y826D02*
X2351Y826D01*
X0Y825D02*
X7Y825D01*
X2344Y825D02*
X2351Y825D01*
X0Y824D02*
X7Y824D01*
X2344Y824D02*
X2351Y824D01*
X0Y823D02*
X7Y823D01*
X2344Y823D02*
X2351Y823D01*
X0Y822D02*
X7Y822D01*
X2344Y822D02*
X2351Y822D01*
X0Y821D02*
X7Y821D01*
X2344Y821D02*
X2351Y821D01*
X0Y820D02*
X7Y820D01*
X2344Y820D02*
X2351Y820D01*
X0Y819D02*
X7Y819D01*
X2344Y819D02*
X2351Y819D01*
X0Y818D02*
X7Y818D01*
X2344Y818D02*
X2351Y818D01*
X0Y817D02*
X7Y817D01*
X2344Y817D02*
X2351Y817D01*
X0Y816D02*
X7Y816D01*
X2344Y816D02*
X2351Y816D01*
X0Y815D02*
X7Y815D01*
X2344Y815D02*
X2351Y815D01*
X0Y814D02*
X7Y814D01*
X2344Y814D02*
X2351Y814D01*
X0Y813D02*
X7Y813D01*
X2344Y813D02*
X2351Y813D01*
X0Y812D02*
X7Y812D01*
X2344Y812D02*
X2351Y812D01*
X0Y811D02*
X7Y811D01*
X2344Y811D02*
X2351Y811D01*
X0Y810D02*
X7Y810D01*
X2344Y810D02*
X2351Y810D01*
X0Y809D02*
X7Y809D01*
X2344Y809D02*
X2351Y809D01*
X0Y808D02*
X7Y808D01*
X2344Y808D02*
X2351Y808D01*
X0Y807D02*
X7Y807D01*
X2344Y807D02*
X2351Y807D01*
X0Y806D02*
X7Y806D01*
X2344Y806D02*
X2351Y806D01*
X0Y805D02*
X7Y805D01*
X2344Y805D02*
X2351Y805D01*
X0Y804D02*
X7Y804D01*
X2344Y804D02*
X2351Y804D01*
X0Y803D02*
X7Y803D01*
X2344Y803D02*
X2351Y803D01*
X0Y802D02*
X7Y802D01*
X2344Y802D02*
X2351Y802D01*
X0Y801D02*
X7Y801D01*
X2344Y801D02*
X2351Y801D01*
X0Y800D02*
X7Y800D01*
X2344Y800D02*
X2351Y800D01*
X0Y799D02*
X7Y799D01*
X2344Y799D02*
X2351Y799D01*
X0Y798D02*
X7Y798D01*
X2344Y798D02*
X2351Y798D01*
X0Y797D02*
X7Y797D01*
X2344Y797D02*
X2351Y797D01*
X0Y796D02*
X7Y796D01*
X2344Y796D02*
X2351Y796D01*
X0Y795D02*
X7Y795D01*
X2344Y795D02*
X2351Y795D01*
X0Y794D02*
X7Y794D01*
X2344Y794D02*
X2351Y794D01*
X0Y793D02*
X7Y793D01*
X2344Y793D02*
X2351Y793D01*
X0Y792D02*
X7Y792D01*
X2344Y792D02*
X2351Y792D01*
X0Y791D02*
X7Y791D01*
X2344Y791D02*
X2351Y791D01*
X0Y790D02*
X7Y790D01*
X2344Y790D02*
X2351Y790D01*
X0Y789D02*
X7Y789D01*
X2344Y789D02*
X2351Y789D01*
X0Y788D02*
X7Y788D01*
X2344Y788D02*
X2351Y788D01*
X0Y787D02*
X7Y787D01*
X2344Y787D02*
X2351Y787D01*
X0Y786D02*
X7Y786D01*
X2344Y786D02*
X2351Y786D01*
X0Y785D02*
X7Y785D01*
X2344Y785D02*
X2351Y785D01*
X0Y784D02*
X7Y784D01*
X2344Y784D02*
X2351Y784D01*
X0Y783D02*
X7Y783D01*
X2344Y783D02*
X2351Y783D01*
X0Y782D02*
X7Y782D01*
X2344Y782D02*
X2351Y782D01*
X0Y781D02*
X7Y781D01*
X2344Y781D02*
X2351Y781D01*
X0Y780D02*
X7Y780D01*
X2344Y780D02*
X2351Y780D01*
X0Y779D02*
X7Y779D01*
X2344Y779D02*
X2351Y779D01*
X0Y778D02*
X7Y778D01*
X2344Y778D02*
X2351Y778D01*
X0Y777D02*
X7Y777D01*
X2344Y777D02*
X2351Y777D01*
X0Y776D02*
X7Y776D01*
X2344Y776D02*
X2351Y776D01*
X0Y775D02*
X7Y775D01*
X2344Y775D02*
X2351Y775D01*
X0Y774D02*
X7Y774D01*
X2344Y774D02*
X2351Y774D01*
X0Y773D02*
X7Y773D01*
X2344Y773D02*
X2351Y773D01*
X0Y772D02*
X7Y772D01*
X2344Y772D02*
X2351Y772D01*
X0Y771D02*
X7Y771D01*
X2344Y771D02*
X2351Y771D01*
X0Y770D02*
X7Y770D01*
X2344Y770D02*
X2351Y770D01*
X0Y769D02*
X7Y769D01*
X2344Y769D02*
X2351Y769D01*
X0Y768D02*
X7Y768D01*
X2344Y768D02*
X2351Y768D01*
X0Y767D02*
X7Y767D01*
X2344Y767D02*
X2351Y767D01*
X0Y766D02*
X7Y766D01*
X2344Y766D02*
X2351Y766D01*
X0Y765D02*
X7Y765D01*
X2344Y765D02*
X2351Y765D01*
X0Y764D02*
X7Y764D01*
X2344Y764D02*
X2351Y764D01*
X0Y763D02*
X7Y763D01*
X2344Y763D02*
X2351Y763D01*
X0Y762D02*
X7Y762D01*
X2344Y762D02*
X2351Y762D01*
X0Y761D02*
X7Y761D01*
X2344Y761D02*
X2351Y761D01*
X0Y760D02*
X7Y760D01*
X2344Y760D02*
X2351Y760D01*
X0Y759D02*
X7Y759D01*
X2344Y759D02*
X2351Y759D01*
X0Y758D02*
X7Y758D01*
X2344Y758D02*
X2351Y758D01*
X0Y757D02*
X7Y757D01*
X2344Y757D02*
X2351Y757D01*
X0Y756D02*
X7Y756D01*
X2344Y756D02*
X2351Y756D01*
X0Y755D02*
X7Y755D01*
X2344Y755D02*
X2351Y755D01*
X0Y754D02*
X7Y754D01*
X2344Y754D02*
X2351Y754D01*
X0Y753D02*
X7Y753D01*
X2344Y753D02*
X2351Y753D01*
X0Y752D02*
X7Y752D01*
X2344Y752D02*
X2351Y752D01*
X0Y751D02*
X7Y751D01*
X539Y751D02*
X628Y751D01*
X2344Y751D02*
X2351Y751D01*
X0Y750D02*
X7Y750D01*
X539Y750D02*
X628Y750D01*
X2344Y750D02*
X2351Y750D01*
X0Y749D02*
X7Y749D01*
X539Y749D02*
X628Y749D01*
X2344Y749D02*
X2351Y749D01*
X0Y748D02*
X7Y748D01*
X539Y748D02*
X628Y748D01*
X2344Y748D02*
X2351Y748D01*
X0Y747D02*
X7Y747D01*
X539Y747D02*
X628Y747D01*
X2344Y747D02*
X2351Y747D01*
X0Y746D02*
X7Y746D01*
X539Y746D02*
X628Y746D01*
X2344Y746D02*
X2351Y746D01*
X0Y745D02*
X7Y745D01*
X539Y745D02*
X628Y745D01*
X2344Y745D02*
X2351Y745D01*
X0Y744D02*
X7Y744D01*
X539Y744D02*
X628Y744D01*
X2344Y744D02*
X2351Y744D01*
X0Y743D02*
X7Y743D01*
X539Y743D02*
X577Y743D01*
X591Y743D02*
X628Y743D01*
X2344Y743D02*
X2351Y743D01*
X0Y742D02*
X7Y742D01*
X540Y742D02*
X573Y742D01*
X595Y742D02*
X628Y742D01*
X2344Y742D02*
X2351Y742D01*
X0Y741D02*
X7Y741D01*
X2344Y741D02*
X2351Y741D01*
X0Y740D02*
X7Y740D01*
X2344Y740D02*
X2351Y740D01*
X0Y739D02*
X7Y739D01*
X2344Y739D02*
X2351Y739D01*
X0Y738D02*
X7Y738D01*
X2344Y738D02*
X2351Y738D01*
X0Y737D02*
X7Y737D01*
X2344Y737D02*
X2351Y737D01*
X0Y736D02*
X7Y736D01*
X2344Y736D02*
X2351Y736D01*
X0Y735D02*
X7Y735D01*
X2344Y735D02*
X2351Y735D01*
X0Y734D02*
X7Y734D01*
X2344Y734D02*
X2351Y734D01*
X0Y733D02*
X7Y733D01*
X2344Y733D02*
X2351Y733D01*
X0Y732D02*
X7Y732D01*
X2344Y732D02*
X2351Y732D01*
X0Y731D02*
X7Y731D01*
X2344Y731D02*
X2351Y731D01*
X0Y730D02*
X7Y730D01*
X2344Y730D02*
X2351Y730D01*
X0Y729D02*
X7Y729D01*
X2344Y729D02*
X2351Y729D01*
X0Y728D02*
X7Y728D01*
X2344Y728D02*
X2351Y728D01*
X0Y727D02*
X7Y727D01*
X2344Y727D02*
X2351Y727D01*
X0Y726D02*
X7Y726D01*
X2344Y726D02*
X2351Y726D01*
X0Y725D02*
X7Y725D01*
X2344Y725D02*
X2351Y725D01*
X0Y724D02*
X7Y724D01*
X2344Y724D02*
X2351Y724D01*
X0Y723D02*
X7Y723D01*
X2344Y723D02*
X2351Y723D01*
X0Y722D02*
X7Y722D01*
X2344Y722D02*
X2351Y722D01*
X0Y721D02*
X7Y721D01*
X2344Y721D02*
X2351Y721D01*
X0Y720D02*
X7Y720D01*
X2344Y720D02*
X2351Y720D01*
X0Y719D02*
X7Y719D01*
X2344Y719D02*
X2351Y719D01*
X0Y718D02*
X7Y718D01*
X2344Y718D02*
X2351Y718D01*
X0Y717D02*
X7Y717D01*
X2344Y717D02*
X2351Y717D01*
X0Y716D02*
X7Y716D01*
X2344Y716D02*
X2351Y716D01*
X0Y715D02*
X7Y715D01*
X2344Y715D02*
X2351Y715D01*
X0Y714D02*
X7Y714D01*
X2344Y714D02*
X2351Y714D01*
X0Y713D02*
X7Y713D01*
X2344Y713D02*
X2351Y713D01*
X0Y712D02*
X7Y712D01*
X2344Y712D02*
X2351Y712D01*
X0Y711D02*
X7Y711D01*
X2344Y711D02*
X2351Y711D01*
X0Y710D02*
X7Y710D01*
X2344Y710D02*
X2351Y710D01*
X0Y709D02*
X7Y709D01*
X2344Y709D02*
X2351Y709D01*
X0Y708D02*
X7Y708D01*
X2344Y708D02*
X2351Y708D01*
X0Y707D02*
X7Y707D01*
X2344Y707D02*
X2351Y707D01*
X0Y706D02*
X7Y706D01*
X2344Y706D02*
X2351Y706D01*
X0Y705D02*
X7Y705D01*
X2344Y705D02*
X2351Y705D01*
X0Y704D02*
X7Y704D01*
X2344Y704D02*
X2351Y704D01*
X0Y703D02*
X7Y703D01*
X2344Y703D02*
X2351Y703D01*
X0Y702D02*
X7Y702D01*
X2344Y702D02*
X2351Y702D01*
X0Y701D02*
X7Y701D01*
X2344Y701D02*
X2351Y701D01*
X0Y700D02*
X7Y700D01*
X2344Y700D02*
X2351Y700D01*
X0Y699D02*
X7Y699D01*
X2344Y699D02*
X2351Y699D01*
X0Y698D02*
X7Y698D01*
X2344Y698D02*
X2351Y698D01*
X0Y697D02*
X7Y697D01*
X2344Y697D02*
X2351Y697D01*
X0Y696D02*
X7Y696D01*
X2344Y696D02*
X2351Y696D01*
X0Y695D02*
X7Y695D01*
X2344Y695D02*
X2351Y695D01*
X0Y694D02*
X7Y694D01*
X2344Y694D02*
X2351Y694D01*
X0Y693D02*
X7Y693D01*
X2344Y693D02*
X2351Y693D01*
X0Y692D02*
X7Y692D01*
X2344Y692D02*
X2351Y692D01*
X0Y691D02*
X7Y691D01*
X2344Y691D02*
X2351Y691D01*
X0Y690D02*
X7Y690D01*
X2344Y690D02*
X2351Y690D01*
X0Y689D02*
X7Y689D01*
X2344Y689D02*
X2351Y689D01*
X0Y688D02*
X7Y688D01*
X2344Y688D02*
X2351Y688D01*
X0Y687D02*
X7Y687D01*
X2344Y687D02*
X2351Y687D01*
X0Y686D02*
X7Y686D01*
X2344Y686D02*
X2351Y686D01*
X0Y685D02*
X7Y685D01*
X2344Y685D02*
X2351Y685D01*
X0Y684D02*
X7Y684D01*
X2344Y684D02*
X2351Y684D01*
X0Y683D02*
X7Y683D01*
X2344Y683D02*
X2351Y683D01*
X0Y682D02*
X7Y682D01*
X2344Y682D02*
X2351Y682D01*
X0Y681D02*
X7Y681D01*
X2344Y681D02*
X2351Y681D01*
X0Y680D02*
X7Y680D01*
X2344Y680D02*
X2351Y680D01*
X0Y679D02*
X7Y679D01*
X2344Y679D02*
X2351Y679D01*
X0Y678D02*
X7Y678D01*
X2344Y678D02*
X2351Y678D01*
X0Y677D02*
X7Y677D01*
X2344Y677D02*
X2351Y677D01*
X0Y676D02*
X7Y676D01*
X2344Y676D02*
X2351Y676D01*
X0Y675D02*
X7Y675D01*
X2344Y675D02*
X2351Y675D01*
X0Y674D02*
X7Y674D01*
X2344Y674D02*
X2351Y674D01*
X0Y673D02*
X7Y673D01*
X2344Y673D02*
X2351Y673D01*
X0Y672D02*
X7Y672D01*
X2344Y672D02*
X2351Y672D01*
X0Y671D02*
X7Y671D01*
X2344Y671D02*
X2351Y671D01*
X0Y670D02*
X7Y670D01*
X2344Y670D02*
X2351Y670D01*
X0Y669D02*
X7Y669D01*
X2344Y669D02*
X2351Y669D01*
X0Y668D02*
X7Y668D01*
X2344Y668D02*
X2351Y668D01*
X0Y667D02*
X7Y667D01*
X2344Y667D02*
X2351Y667D01*
X0Y666D02*
X7Y666D01*
X2344Y666D02*
X2351Y666D01*
X0Y665D02*
X7Y665D01*
X2344Y665D02*
X2351Y665D01*
X0Y664D02*
X7Y664D01*
X2344Y664D02*
X2351Y664D01*
X0Y663D02*
X7Y663D01*
X2344Y663D02*
X2351Y663D01*
X0Y662D02*
X7Y662D01*
X2344Y662D02*
X2351Y662D01*
X0Y661D02*
X7Y661D01*
X2344Y661D02*
X2351Y661D01*
X0Y660D02*
X7Y660D01*
X2344Y660D02*
X2351Y660D01*
X0Y659D02*
X7Y659D01*
X2344Y659D02*
X2351Y659D01*
X0Y658D02*
X7Y658D01*
X2344Y658D02*
X2351Y658D01*
X0Y657D02*
X7Y657D01*
X2344Y657D02*
X2351Y657D01*
X0Y656D02*
X7Y656D01*
X2344Y656D02*
X2351Y656D01*
X0Y655D02*
X7Y655D01*
X2344Y655D02*
X2351Y655D01*
X0Y654D02*
X7Y654D01*
X2344Y654D02*
X2351Y654D01*
X0Y653D02*
X7Y653D01*
X2344Y653D02*
X2351Y653D01*
X0Y652D02*
X7Y652D01*
X2344Y652D02*
X2351Y652D01*
X0Y651D02*
X7Y651D01*
X2344Y651D02*
X2351Y651D01*
X0Y650D02*
X7Y650D01*
X2344Y650D02*
X2351Y650D01*
X0Y649D02*
X7Y649D01*
X2344Y649D02*
X2351Y649D01*
X0Y648D02*
X7Y648D01*
X2344Y648D02*
X2351Y648D01*
X0Y647D02*
X7Y647D01*
X2344Y647D02*
X2351Y647D01*
X0Y646D02*
X7Y646D01*
X2344Y646D02*
X2351Y646D01*
X0Y645D02*
X7Y645D01*
X2344Y645D02*
X2351Y645D01*
X0Y644D02*
X7Y644D01*
X2344Y644D02*
X2351Y644D01*
X0Y643D02*
X7Y643D01*
X2344Y643D02*
X2351Y643D01*
X0Y642D02*
X7Y642D01*
X2344Y642D02*
X2351Y642D01*
X0Y641D02*
X7Y641D01*
X2344Y641D02*
X2351Y641D01*
X0Y640D02*
X7Y640D01*
X2344Y640D02*
X2351Y640D01*
X0Y639D02*
X7Y639D01*
X2344Y639D02*
X2351Y639D01*
X0Y638D02*
X7Y638D01*
X2344Y638D02*
X2351Y638D01*
X0Y637D02*
X7Y637D01*
X2344Y637D02*
X2351Y637D01*
X0Y636D02*
X7Y636D01*
X2344Y636D02*
X2351Y636D01*
X0Y635D02*
X7Y635D01*
X2344Y635D02*
X2351Y635D01*
X0Y634D02*
X7Y634D01*
X2344Y634D02*
X2351Y634D01*
X0Y633D02*
X7Y633D01*
X2344Y633D02*
X2351Y633D01*
X0Y632D02*
X7Y632D01*
X2344Y632D02*
X2351Y632D01*
X0Y631D02*
X7Y631D01*
X2344Y631D02*
X2351Y631D01*
X0Y630D02*
X7Y630D01*
X2344Y630D02*
X2351Y630D01*
X0Y629D02*
X7Y629D01*
X2344Y629D02*
X2351Y629D01*
X0Y628D02*
X7Y628D01*
X2344Y628D02*
X2351Y628D01*
X0Y627D02*
X7Y627D01*
X2344Y627D02*
X2351Y627D01*
X0Y626D02*
X7Y626D01*
X2344Y626D02*
X2351Y626D01*
X0Y625D02*
X7Y625D01*
X2344Y625D02*
X2351Y625D01*
X0Y624D02*
X7Y624D01*
X2344Y624D02*
X2351Y624D01*
X0Y623D02*
X7Y623D01*
X2344Y623D02*
X2351Y623D01*
X0Y622D02*
X7Y622D01*
X2344Y622D02*
X2351Y622D01*
X0Y621D02*
X7Y621D01*
X2344Y621D02*
X2351Y621D01*
X0Y620D02*
X7Y620D01*
X2344Y620D02*
X2351Y620D01*
X0Y619D02*
X7Y619D01*
X2344Y619D02*
X2351Y619D01*
X0Y618D02*
X7Y618D01*
X2344Y618D02*
X2351Y618D01*
X0Y617D02*
X7Y617D01*
X2344Y617D02*
X2351Y617D01*
X0Y616D02*
X7Y616D01*
X2344Y616D02*
X2351Y616D01*
X0Y615D02*
X7Y615D01*
X2344Y615D02*
X2351Y615D01*
X0Y614D02*
X7Y614D01*
X2344Y614D02*
X2351Y614D01*
X0Y613D02*
X7Y613D01*
X2344Y613D02*
X2351Y613D01*
X0Y612D02*
X7Y612D01*
X2344Y612D02*
X2351Y612D01*
X0Y611D02*
X7Y611D01*
X2344Y611D02*
X2351Y611D01*
X0Y610D02*
X7Y610D01*
X2344Y610D02*
X2351Y610D01*
X0Y609D02*
X7Y609D01*
X2344Y609D02*
X2351Y609D01*
X0Y608D02*
X7Y608D01*
X2344Y608D02*
X2351Y608D01*
X0Y607D02*
X7Y607D01*
X2344Y607D02*
X2351Y607D01*
X0Y606D02*
X7Y606D01*
X2344Y606D02*
X2351Y606D01*
X0Y605D02*
X7Y605D01*
X2344Y605D02*
X2351Y605D01*
X0Y604D02*
X7Y604D01*
X2344Y604D02*
X2351Y604D01*
X0Y603D02*
X7Y603D01*
X2344Y603D02*
X2351Y603D01*
X0Y602D02*
X7Y602D01*
X2344Y602D02*
X2351Y602D01*
X0Y601D02*
X7Y601D01*
X767Y601D02*
X778Y601D01*
X2344Y601D02*
X2351Y601D01*
X0Y600D02*
X7Y600D01*
X763Y600D02*
X782Y600D01*
X2344Y600D02*
X2351Y600D01*
X0Y599D02*
X7Y599D01*
X760Y599D02*
X785Y599D01*
X2344Y599D02*
X2351Y599D01*
X0Y598D02*
X7Y598D01*
X758Y598D02*
X787Y598D01*
X2344Y598D02*
X2351Y598D01*
X0Y597D02*
X7Y597D01*
X756Y597D02*
X789Y597D01*
X2344Y597D02*
X2351Y597D01*
X0Y596D02*
X7Y596D01*
X755Y596D02*
X790Y596D01*
X2344Y596D02*
X2351Y596D01*
X0Y595D02*
X7Y595D01*
X753Y595D02*
X792Y595D01*
X2344Y595D02*
X2351Y595D01*
X0Y594D02*
X7Y594D01*
X752Y594D02*
X793Y594D01*
X2344Y594D02*
X2351Y594D01*
X0Y593D02*
X7Y593D01*
X752Y593D02*
X765Y593D01*
X780Y593D02*
X792Y593D01*
X2344Y593D02*
X2351Y593D01*
X0Y592D02*
X7Y592D01*
X753Y592D02*
X763Y592D01*
X782Y592D02*
X792Y592D01*
X2344Y592D02*
X2351Y592D01*
X0Y591D02*
X7Y591D01*
X754Y591D02*
X760Y591D01*
X785Y591D02*
X791Y591D01*
X2344Y591D02*
X2351Y591D01*
X0Y590D02*
X7Y590D01*
X755Y590D02*
X759Y590D01*
X786Y590D02*
X790Y590D01*
X2344Y590D02*
X2351Y590D01*
X0Y589D02*
X7Y589D01*
X756Y589D02*
X757Y589D01*
X788Y589D02*
X789Y589D01*
X2344Y589D02*
X2351Y589D01*
X0Y588D02*
X7Y588D01*
X2344Y588D02*
X2351Y588D01*
X0Y587D02*
X7Y587D01*
X2344Y587D02*
X2351Y587D01*
X0Y586D02*
X7Y586D01*
X2344Y586D02*
X2351Y586D01*
X0Y585D02*
X7Y585D01*
X2344Y585D02*
X2351Y585D01*
X0Y584D02*
X7Y584D01*
X2344Y584D02*
X2351Y584D01*
X0Y583D02*
X7Y583D01*
X2344Y583D02*
X2351Y583D01*
X0Y582D02*
X7Y582D01*
X2344Y582D02*
X2351Y582D01*
X0Y581D02*
X7Y581D01*
X2344Y581D02*
X2351Y581D01*
X0Y580D02*
X7Y580D01*
X2344Y580D02*
X2351Y580D01*
X0Y579D02*
X7Y579D01*
X2344Y579D02*
X2351Y579D01*
X0Y578D02*
X7Y578D01*
X2344Y578D02*
X2351Y578D01*
X0Y577D02*
X7Y577D01*
X2344Y577D02*
X2351Y577D01*
X0Y576D02*
X7Y576D01*
X2344Y576D02*
X2351Y576D01*
X0Y575D02*
X7Y575D01*
X2344Y575D02*
X2351Y575D01*
X0Y574D02*
X7Y574D01*
X2344Y574D02*
X2351Y574D01*
X0Y573D02*
X7Y573D01*
X2344Y573D02*
X2351Y573D01*
X0Y572D02*
X7Y572D01*
X2344Y572D02*
X2351Y572D01*
X0Y571D02*
X7Y571D01*
X2344Y571D02*
X2351Y571D01*
X0Y570D02*
X7Y570D01*
X2344Y570D02*
X2351Y570D01*
X0Y569D02*
X7Y569D01*
X2344Y569D02*
X2351Y569D01*
X0Y568D02*
X7Y568D01*
X2344Y568D02*
X2351Y568D01*
X0Y567D02*
X7Y567D01*
X2344Y567D02*
X2351Y567D01*
X0Y566D02*
X7Y566D01*
X2344Y566D02*
X2351Y566D01*
X0Y565D02*
X7Y565D01*
X2344Y565D02*
X2351Y565D01*
X0Y564D02*
X7Y564D01*
X2344Y564D02*
X2351Y564D01*
X0Y563D02*
X7Y563D01*
X2344Y563D02*
X2351Y563D01*
X0Y562D02*
X7Y562D01*
X2344Y562D02*
X2351Y562D01*
X0Y561D02*
X7Y561D01*
X2344Y561D02*
X2351Y561D01*
X0Y560D02*
X7Y560D01*
X2344Y560D02*
X2351Y560D01*
X0Y559D02*
X7Y559D01*
X2344Y559D02*
X2351Y559D01*
X0Y558D02*
X7Y558D01*
X2344Y558D02*
X2351Y558D01*
X0Y557D02*
X7Y557D01*
X2344Y557D02*
X2351Y557D01*
X0Y556D02*
X7Y556D01*
X2344Y556D02*
X2351Y556D01*
X0Y555D02*
X7Y555D01*
X2344Y555D02*
X2351Y555D01*
X0Y554D02*
X7Y554D01*
X2344Y554D02*
X2351Y554D01*
X0Y553D02*
X7Y553D01*
X2344Y553D02*
X2351Y553D01*
X0Y552D02*
X7Y552D01*
X2344Y552D02*
X2351Y552D01*
X0Y551D02*
X7Y551D01*
X2344Y551D02*
X2351Y551D01*
X0Y550D02*
X7Y550D01*
X2344Y550D02*
X2351Y550D01*
X0Y549D02*
X7Y549D01*
X2344Y549D02*
X2351Y549D01*
X0Y548D02*
X7Y548D01*
X2344Y548D02*
X2351Y548D01*
X0Y547D02*
X7Y547D01*
X756Y547D02*
X757Y547D01*
X788Y547D02*
X789Y547D01*
X2344Y547D02*
X2351Y547D01*
X0Y546D02*
X7Y546D01*
X755Y546D02*
X758Y546D01*
X787Y546D02*
X790Y546D01*
X2344Y546D02*
X2351Y546D01*
X0Y545D02*
X7Y545D01*
X754Y545D02*
X760Y545D01*
X785Y545D02*
X790Y545D01*
X2344Y545D02*
X2351Y545D01*
X0Y544D02*
X7Y544D01*
X754Y544D02*
X762Y544D01*
X783Y544D02*
X791Y544D01*
X2344Y544D02*
X2351Y544D01*
X0Y543D02*
X7Y543D01*
X753Y543D02*
X764Y543D01*
X781Y543D02*
X792Y543D01*
X2344Y543D02*
X2351Y543D01*
X0Y542D02*
X7Y542D01*
X752Y542D02*
X768Y542D01*
X777Y542D02*
X793Y542D01*
X2344Y542D02*
X2351Y542D01*
X0Y541D02*
X7Y541D01*
X753Y541D02*
X792Y541D01*
X2344Y541D02*
X2351Y541D01*
X0Y540D02*
X7Y540D01*
X754Y540D02*
X791Y540D01*
X2344Y540D02*
X2351Y540D01*
X0Y539D02*
X7Y539D01*
X755Y539D02*
X790Y539D01*
X2344Y539D02*
X2351Y539D01*
X0Y538D02*
X7Y538D01*
X757Y538D02*
X788Y538D01*
X2344Y538D02*
X2351Y538D01*
X0Y537D02*
X7Y537D01*
X759Y537D02*
X786Y537D01*
X2344Y537D02*
X2351Y537D01*
X0Y536D02*
X7Y536D01*
X762Y536D02*
X783Y536D01*
X2344Y536D02*
X2351Y536D01*
X0Y535D02*
X7Y535D01*
X765Y535D02*
X780Y535D01*
X2344Y535D02*
X2351Y535D01*
X0Y534D02*
X7Y534D01*
X2344Y534D02*
X2351Y534D01*
X0Y533D02*
X7Y533D01*
X2344Y533D02*
X2351Y533D01*
X0Y532D02*
X7Y532D01*
X2344Y532D02*
X2351Y532D01*
X0Y531D02*
X7Y531D01*
X2344Y531D02*
X2351Y531D01*
X0Y530D02*
X7Y530D01*
X2344Y530D02*
X2351Y530D01*
X0Y529D02*
X7Y529D01*
X2344Y529D02*
X2351Y529D01*
X0Y528D02*
X7Y528D01*
X2344Y528D02*
X2351Y528D01*
X0Y527D02*
X7Y527D01*
X2344Y527D02*
X2351Y527D01*
X0Y526D02*
X7Y526D01*
X2344Y526D02*
X2351Y526D01*
X0Y525D02*
X7Y525D01*
X2344Y525D02*
X2351Y525D01*
X0Y524D02*
X7Y524D01*
X2344Y524D02*
X2351Y524D01*
X0Y523D02*
X7Y523D01*
X2344Y523D02*
X2351Y523D01*
X0Y522D02*
X7Y522D01*
X2344Y522D02*
X2351Y522D01*
X0Y521D02*
X7Y521D01*
X2344Y521D02*
X2351Y521D01*
X0Y520D02*
X7Y520D01*
X879Y520D02*
X1477Y520D01*
X2344Y520D02*
X2351Y520D01*
X0Y519D02*
X7Y519D01*
X879Y519D02*
X1477Y519D01*
X2344Y519D02*
X2351Y519D01*
X0Y518D02*
X7Y518D01*
X879Y518D02*
X1477Y518D01*
X2344Y518D02*
X2351Y518D01*
X0Y517D02*
X7Y517D01*
X879Y517D02*
X1477Y517D01*
X2344Y517D02*
X2351Y517D01*
X0Y516D02*
X7Y516D01*
X879Y516D02*
X1024Y516D01*
X1035Y516D02*
X1477Y516D01*
X2344Y516D02*
X2351Y516D01*
X0Y515D02*
X7Y515D01*
X879Y515D02*
X1019Y515D01*
X1040Y515D02*
X1477Y515D01*
X2344Y515D02*
X2351Y515D01*
X0Y514D02*
X7Y514D01*
X879Y514D02*
X1016Y514D01*
X1043Y514D02*
X1477Y514D01*
X2344Y514D02*
X2351Y514D01*
X0Y513D02*
X7Y513D01*
X879Y513D02*
X1014Y513D01*
X1045Y513D02*
X1477Y513D01*
X2344Y513D02*
X2351Y513D01*
X0Y512D02*
X7Y512D01*
X879Y512D02*
X1012Y512D01*
X1047Y512D02*
X1477Y512D01*
X2344Y512D02*
X2351Y512D01*
X0Y511D02*
X7Y511D01*
X879Y511D02*
X1010Y511D01*
X1049Y511D02*
X1477Y511D01*
X2344Y511D02*
X2351Y511D01*
X0Y510D02*
X7Y510D01*
X2344Y510D02*
X2351Y510D01*
X0Y509D02*
X7Y509D01*
X2344Y509D02*
X2351Y509D01*
X0Y508D02*
X7Y508D01*
X2344Y508D02*
X2351Y508D01*
X0Y507D02*
X7Y507D01*
X2344Y507D02*
X2351Y507D01*
X0Y506D02*
X7Y506D01*
X2344Y506D02*
X2351Y506D01*
X0Y505D02*
X7Y505D01*
X2344Y505D02*
X2351Y505D01*
X0Y504D02*
X7Y504D01*
X2344Y504D02*
X2351Y504D01*
X0Y503D02*
X7Y503D01*
X2344Y503D02*
X2351Y503D01*
X0Y502D02*
X7Y502D01*
X2344Y502D02*
X2351Y502D01*
X0Y501D02*
X7Y501D01*
X2344Y501D02*
X2351Y501D01*
X0Y500D02*
X7Y500D01*
X2344Y500D02*
X2351Y500D01*
X0Y499D02*
X7Y499D01*
X2344Y499D02*
X2351Y499D01*
X0Y498D02*
X7Y498D01*
X2344Y498D02*
X2351Y498D01*
X0Y497D02*
X7Y497D01*
X2344Y497D02*
X2351Y497D01*
X0Y496D02*
X7Y496D01*
X2344Y496D02*
X2351Y496D01*
X0Y495D02*
X7Y495D01*
X2344Y495D02*
X2351Y495D01*
X0Y494D02*
X7Y494D01*
X2344Y494D02*
X2351Y494D01*
X0Y493D02*
X7Y493D01*
X2344Y493D02*
X2351Y493D01*
X0Y492D02*
X7Y492D01*
X2344Y492D02*
X2351Y492D01*
X0Y491D02*
X7Y491D01*
X2344Y491D02*
X2351Y491D01*
X0Y490D02*
X7Y490D01*
X2344Y490D02*
X2351Y490D01*
X0Y489D02*
X7Y489D01*
X2344Y489D02*
X2351Y489D01*
X0Y488D02*
X7Y488D01*
X2344Y488D02*
X2351Y488D01*
X0Y487D02*
X7Y487D01*
X2344Y487D02*
X2351Y487D01*
X0Y486D02*
X7Y486D01*
X2344Y486D02*
X2351Y486D01*
X0Y485D02*
X7Y485D01*
X2344Y485D02*
X2351Y485D01*
X0Y484D02*
X7Y484D01*
X2344Y484D02*
X2351Y484D01*
X0Y483D02*
X7Y483D01*
X2344Y483D02*
X2351Y483D01*
X0Y482D02*
X7Y482D01*
X2344Y482D02*
X2351Y482D01*
X0Y481D02*
X7Y481D01*
X2344Y481D02*
X2351Y481D01*
X0Y480D02*
X7Y480D01*
X2344Y480D02*
X2351Y480D01*
X0Y479D02*
X7Y479D01*
X2344Y479D02*
X2351Y479D01*
X0Y478D02*
X7Y478D01*
X2344Y478D02*
X2351Y478D01*
X0Y477D02*
X7Y477D01*
X2344Y477D02*
X2351Y477D01*
X0Y476D02*
X7Y476D01*
X2344Y476D02*
X2351Y476D01*
X0Y475D02*
X7Y475D01*
X2344Y475D02*
X2351Y475D01*
X0Y474D02*
X7Y474D01*
X2344Y474D02*
X2351Y474D01*
X0Y473D02*
X7Y473D01*
X2344Y473D02*
X2351Y473D01*
X0Y472D02*
X7Y472D01*
X2344Y472D02*
X2351Y472D01*
X0Y471D02*
X7Y471D01*
X2344Y471D02*
X2351Y471D01*
X0Y470D02*
X7Y470D01*
X2344Y470D02*
X2351Y470D01*
X0Y469D02*
X7Y469D01*
X2344Y469D02*
X2351Y469D01*
X0Y468D02*
X7Y468D01*
X2344Y468D02*
X2351Y468D01*
X0Y467D02*
X7Y467D01*
X2344Y467D02*
X2351Y467D01*
X0Y466D02*
X7Y466D01*
X2344Y466D02*
X2351Y466D01*
X0Y465D02*
X7Y465D01*
X2344Y465D02*
X2351Y465D01*
X0Y464D02*
X7Y464D01*
X2344Y464D02*
X2351Y464D01*
X0Y463D02*
X7Y463D01*
X2344Y463D02*
X2351Y463D01*
X0Y462D02*
X7Y462D01*
X2344Y462D02*
X2351Y462D01*
X0Y461D02*
X7Y461D01*
X2344Y461D02*
X2351Y461D01*
X0Y460D02*
X7Y460D01*
X2344Y460D02*
X2351Y460D01*
X0Y459D02*
X7Y459D01*
X1853Y459D02*
X2102Y459D01*
X2344Y459D02*
X2351Y459D01*
X0Y458D02*
X7Y458D01*
X1844Y458D02*
X2111Y458D01*
X2344Y458D02*
X2351Y458D01*
X0Y457D02*
X7Y457D01*
X1838Y457D02*
X2117Y457D01*
X2344Y457D02*
X2351Y457D01*
X0Y456D02*
X7Y456D01*
X1834Y456D02*
X2121Y456D01*
X2344Y456D02*
X2351Y456D01*
X0Y455D02*
X7Y455D01*
X1831Y455D02*
X2124Y455D01*
X2344Y455D02*
X2351Y455D01*
X0Y454D02*
X7Y454D01*
X1828Y454D02*
X2127Y454D01*
X2344Y454D02*
X2351Y454D01*
X0Y453D02*
X7Y453D01*
X1825Y453D02*
X2130Y453D01*
X2344Y453D02*
X2351Y453D01*
X0Y452D02*
X7Y452D01*
X1823Y452D02*
X2132Y452D01*
X2344Y452D02*
X2351Y452D01*
X0Y451D02*
X7Y451D01*
X1820Y451D02*
X2135Y451D01*
X2344Y451D02*
X2351Y451D01*
X0Y450D02*
X7Y450D01*
X1818Y450D02*
X2137Y450D01*
X2344Y450D02*
X2351Y450D01*
X0Y449D02*
X7Y449D01*
X1816Y449D02*
X1850Y449D01*
X2105Y449D02*
X2139Y449D01*
X2344Y449D02*
X2351Y449D01*
X0Y448D02*
X7Y448D01*
X1814Y448D02*
X1842Y448D01*
X2113Y448D02*
X2141Y448D01*
X2344Y448D02*
X2351Y448D01*
X0Y447D02*
X7Y447D01*
X1812Y447D02*
X1837Y447D01*
X2118Y447D02*
X2143Y447D01*
X2344Y447D02*
X2351Y447D01*
X0Y446D02*
X7Y446D01*
X1811Y446D02*
X1834Y446D01*
X2121Y446D02*
X2144Y446D01*
X2344Y446D02*
X2351Y446D01*
X0Y445D02*
X7Y445D01*
X1809Y445D02*
X1830Y445D01*
X2125Y445D02*
X2146Y445D01*
X2344Y445D02*
X2351Y445D01*
X0Y444D02*
X7Y444D01*
X1808Y444D02*
X1827Y444D01*
X2128Y444D02*
X2147Y444D01*
X2344Y444D02*
X2351Y444D01*
X0Y443D02*
X7Y443D01*
X1806Y443D02*
X1825Y443D01*
X2130Y443D02*
X2149Y443D01*
X2344Y443D02*
X2351Y443D01*
X0Y442D02*
X7Y442D01*
X1804Y442D02*
X1822Y442D01*
X2133Y442D02*
X2151Y442D01*
X2344Y442D02*
X2351Y442D01*
X0Y441D02*
X7Y441D01*
X1803Y441D02*
X1820Y441D01*
X2135Y441D02*
X2152Y441D01*
X2344Y441D02*
X2351Y441D01*
X0Y440D02*
X7Y440D01*
X1802Y440D02*
X1818Y440D01*
X2137Y440D02*
X2153Y440D01*
X2344Y440D02*
X2351Y440D01*
X0Y439D02*
X7Y439D01*
X1801Y439D02*
X1816Y439D01*
X2139Y439D02*
X2154Y439D01*
X2344Y439D02*
X2351Y439D01*
X0Y438D02*
X7Y438D01*
X1799Y438D02*
X1814Y438D01*
X2141Y438D02*
X2156Y438D01*
X2344Y438D02*
X2351Y438D01*
X0Y437D02*
X7Y437D01*
X1798Y437D02*
X1813Y437D01*
X2142Y437D02*
X2157Y437D01*
X2344Y437D02*
X2351Y437D01*
X0Y436D02*
X7Y436D01*
X1797Y436D02*
X1811Y436D01*
X2144Y436D02*
X2158Y436D01*
X2344Y436D02*
X2351Y436D01*
X0Y435D02*
X7Y435D01*
X1796Y435D02*
X1810Y435D01*
X2145Y435D02*
X2159Y435D01*
X2344Y435D02*
X2351Y435D01*
X0Y434D02*
X7Y434D01*
X1795Y434D02*
X1808Y434D01*
X2147Y434D02*
X2160Y434D01*
X2344Y434D02*
X2351Y434D01*
X0Y433D02*
X7Y433D01*
X1794Y433D02*
X1807Y433D01*
X2148Y433D02*
X2161Y433D01*
X2344Y433D02*
X2351Y433D01*
X0Y432D02*
X7Y432D01*
X1792Y432D02*
X1805Y432D01*
X2150Y432D02*
X2163Y432D01*
X2344Y432D02*
X2351Y432D01*
X0Y431D02*
X7Y431D01*
X1791Y431D02*
X1804Y431D01*
X2151Y431D02*
X2164Y431D01*
X2344Y431D02*
X2351Y431D01*
X0Y430D02*
X7Y430D01*
X1790Y430D02*
X1803Y430D01*
X2152Y430D02*
X2165Y430D01*
X2344Y430D02*
X2351Y430D01*
X0Y429D02*
X7Y429D01*
X1790Y429D02*
X1802Y429D01*
X2153Y429D02*
X2165Y429D01*
X2344Y429D02*
X2351Y429D01*
X0Y428D02*
X7Y428D01*
X1789Y428D02*
X1801Y428D01*
X2154Y428D02*
X2166Y428D01*
X2344Y428D02*
X2351Y428D01*
X0Y427D02*
X7Y427D01*
X1788Y427D02*
X1800Y427D01*
X2155Y427D02*
X2167Y427D01*
X2344Y427D02*
X2351Y427D01*
X0Y426D02*
X7Y426D01*
X1787Y426D02*
X1798Y426D01*
X2157Y426D02*
X2168Y426D01*
X2344Y426D02*
X2351Y426D01*
X0Y425D02*
X7Y425D01*
X1786Y425D02*
X1797Y425D01*
X2158Y425D02*
X2169Y425D01*
X2344Y425D02*
X2351Y425D01*
X0Y424D02*
X7Y424D01*
X1785Y424D02*
X1796Y424D01*
X2159Y424D02*
X2170Y424D01*
X2344Y424D02*
X2351Y424D01*
X0Y423D02*
X7Y423D01*
X1784Y423D02*
X1795Y423D01*
X2160Y423D02*
X2171Y423D01*
X2344Y423D02*
X2351Y423D01*
X0Y422D02*
X7Y422D01*
X1783Y422D02*
X1794Y422D01*
X2161Y422D02*
X2172Y422D01*
X2344Y422D02*
X2351Y422D01*
X0Y421D02*
X7Y421D01*
X1783Y421D02*
X1794Y421D01*
X2161Y421D02*
X2172Y421D01*
X2344Y421D02*
X2351Y421D01*
X0Y420D02*
X7Y420D01*
X1782Y420D02*
X1793Y420D01*
X2162Y420D02*
X2173Y420D01*
X2344Y420D02*
X2351Y420D01*
X0Y419D02*
X7Y419D01*
X1781Y419D02*
X1792Y419D01*
X2163Y419D02*
X2174Y419D01*
X2344Y419D02*
X2351Y419D01*
X0Y418D02*
X7Y418D01*
X1781Y418D02*
X1791Y418D01*
X2164Y418D02*
X2174Y418D01*
X2344Y418D02*
X2351Y418D01*
X0Y417D02*
X7Y417D01*
X1780Y417D02*
X1790Y417D01*
X2165Y417D02*
X2175Y417D01*
X2344Y417D02*
X2351Y417D01*
X0Y416D02*
X7Y416D01*
X1779Y416D02*
X1789Y416D01*
X2166Y416D02*
X2176Y416D01*
X2344Y416D02*
X2351Y416D01*
X0Y415D02*
X7Y415D01*
X1778Y415D02*
X1789Y415D01*
X2166Y415D02*
X2177Y415D01*
X2344Y415D02*
X2351Y415D01*
X0Y414D02*
X7Y414D01*
X1778Y414D02*
X1788Y414D01*
X2167Y414D02*
X2177Y414D01*
X2344Y414D02*
X2351Y414D01*
X0Y413D02*
X7Y413D01*
X1777Y413D02*
X1787Y413D01*
X2168Y413D02*
X2178Y413D01*
X2344Y413D02*
X2351Y413D01*
X0Y412D02*
X7Y412D01*
X1777Y412D02*
X1787Y412D01*
X2168Y412D02*
X2178Y412D01*
X2344Y412D02*
X2351Y412D01*
X0Y411D02*
X7Y411D01*
X1776Y411D02*
X1786Y411D01*
X2169Y411D02*
X2179Y411D01*
X2344Y411D02*
X2351Y411D01*
X0Y410D02*
X7Y410D01*
X1775Y410D02*
X1785Y410D01*
X2170Y410D02*
X2180Y410D01*
X2344Y410D02*
X2351Y410D01*
X0Y409D02*
X7Y409D01*
X1775Y409D02*
X1785Y409D01*
X2170Y409D02*
X2180Y409D01*
X2344Y409D02*
X2351Y409D01*
X0Y408D02*
X7Y408D01*
X1774Y408D02*
X1784Y408D01*
X2171Y408D02*
X2181Y408D01*
X2344Y408D02*
X2351Y408D01*
X0Y407D02*
X7Y407D01*
X1774Y407D02*
X1783Y407D01*
X2172Y407D02*
X2181Y407D01*
X2344Y407D02*
X2351Y407D01*
X0Y406D02*
X7Y406D01*
X1773Y406D02*
X1783Y406D01*
X2172Y406D02*
X2182Y406D01*
X2344Y406D02*
X2351Y406D01*
X0Y405D02*
X7Y405D01*
X1773Y405D02*
X1782Y405D01*
X2173Y405D02*
X2182Y405D01*
X2344Y405D02*
X2351Y405D01*
X0Y404D02*
X7Y404D01*
X1772Y404D02*
X1782Y404D01*
X2173Y404D02*
X2183Y404D01*
X2344Y404D02*
X2351Y404D01*
X0Y403D02*
X7Y403D01*
X1772Y403D02*
X1781Y403D01*
X2174Y403D02*
X2183Y403D01*
X2344Y403D02*
X2351Y403D01*
X0Y402D02*
X7Y402D01*
X1771Y402D02*
X1781Y402D01*
X2174Y402D02*
X2184Y402D01*
X2344Y402D02*
X2351Y402D01*
X0Y401D02*
X7Y401D01*
X1771Y401D02*
X1780Y401D01*
X2175Y401D02*
X2184Y401D01*
X2344Y401D02*
X2351Y401D01*
X0Y400D02*
X7Y400D01*
X1770Y400D02*
X1780Y400D01*
X2175Y400D02*
X2185Y400D01*
X2344Y400D02*
X2351Y400D01*
X0Y399D02*
X7Y399D01*
X1770Y399D02*
X1779Y399D01*
X2176Y399D02*
X2185Y399D01*
X2344Y399D02*
X2351Y399D01*
X0Y398D02*
X7Y398D01*
X1770Y398D02*
X1779Y398D01*
X2176Y398D02*
X2185Y398D01*
X2344Y398D02*
X2351Y398D01*
X0Y397D02*
X7Y397D01*
X1769Y397D02*
X1778Y397D01*
X2177Y397D02*
X2186Y397D01*
X2344Y397D02*
X2351Y397D01*
X0Y396D02*
X7Y396D01*
X1769Y396D02*
X1778Y396D01*
X2177Y396D02*
X2186Y396D01*
X2344Y396D02*
X2351Y396D01*
X0Y395D02*
X7Y395D01*
X1769Y395D02*
X1778Y395D01*
X2177Y395D02*
X2186Y395D01*
X2344Y395D02*
X2351Y395D01*
X0Y394D02*
X7Y394D01*
X1768Y394D02*
X1777Y394D01*
X2178Y394D02*
X2187Y394D01*
X2344Y394D02*
X2351Y394D01*
X0Y393D02*
X7Y393D01*
X1768Y393D02*
X1777Y393D01*
X2178Y393D02*
X2187Y393D01*
X2344Y393D02*
X2351Y393D01*
X0Y392D02*
X7Y392D01*
X1767Y392D02*
X1777Y392D01*
X2178Y392D02*
X2188Y392D01*
X2344Y392D02*
X2351Y392D01*
X0Y391D02*
X7Y391D01*
X1767Y391D02*
X1776Y391D01*
X2179Y391D02*
X2188Y391D01*
X2344Y391D02*
X2351Y391D01*
X0Y390D02*
X7Y390D01*
X1767Y390D02*
X1776Y390D01*
X2179Y390D02*
X2188Y390D01*
X2344Y390D02*
X2351Y390D01*
X0Y389D02*
X7Y389D01*
X1766Y389D02*
X1775Y389D01*
X2180Y389D02*
X2189Y389D01*
X2344Y389D02*
X2351Y389D01*
X0Y388D02*
X7Y388D01*
X1766Y388D02*
X1775Y388D01*
X2180Y388D02*
X2189Y388D01*
X2344Y388D02*
X2351Y388D01*
X0Y387D02*
X7Y387D01*
X1766Y387D02*
X1775Y387D01*
X2180Y387D02*
X2189Y387D01*
X2344Y387D02*
X2351Y387D01*
X0Y386D02*
X7Y386D01*
X1766Y386D02*
X1775Y386D01*
X2180Y386D02*
X2189Y386D01*
X2344Y386D02*
X2351Y386D01*
X0Y385D02*
X7Y385D01*
X1765Y385D02*
X1774Y385D01*
X2181Y385D02*
X2190Y385D01*
X2344Y385D02*
X2351Y385D01*
X0Y384D02*
X7Y384D01*
X1765Y384D02*
X1774Y384D01*
X2181Y384D02*
X2190Y384D01*
X2344Y384D02*
X2351Y384D01*
X0Y383D02*
X7Y383D01*
X1765Y383D02*
X1774Y383D01*
X2181Y383D02*
X2190Y383D01*
X2344Y383D02*
X2351Y383D01*
X0Y382D02*
X7Y382D01*
X1765Y382D02*
X1774Y382D01*
X2181Y382D02*
X2190Y382D01*
X2344Y382D02*
X2351Y382D01*
X0Y381D02*
X7Y381D01*
X1764Y381D02*
X1773Y381D01*
X2182Y381D02*
X2191Y381D01*
X2344Y381D02*
X2351Y381D01*
X0Y380D02*
X7Y380D01*
X1764Y380D02*
X1773Y380D01*
X2182Y380D02*
X2191Y380D01*
X2344Y380D02*
X2351Y380D01*
X0Y379D02*
X7Y379D01*
X1764Y379D02*
X1773Y379D01*
X2182Y379D02*
X2191Y379D01*
X2344Y379D02*
X2351Y379D01*
X0Y378D02*
X7Y378D01*
X1764Y378D02*
X1773Y378D01*
X2182Y378D02*
X2191Y378D01*
X2344Y378D02*
X2351Y378D01*
X0Y377D02*
X7Y377D01*
X1764Y377D02*
X1773Y377D01*
X2182Y377D02*
X2191Y377D01*
X2344Y377D02*
X2351Y377D01*
X0Y376D02*
X7Y376D01*
X1764Y376D02*
X1772Y376D01*
X2183Y376D02*
X2191Y376D01*
X2344Y376D02*
X2351Y376D01*
X0Y375D02*
X7Y375D01*
X1763Y375D02*
X1772Y375D01*
X2183Y375D02*
X2192Y375D01*
X2344Y375D02*
X2351Y375D01*
X0Y374D02*
X7Y374D01*
X1763Y374D02*
X1772Y374D01*
X2183Y374D02*
X2192Y374D01*
X2344Y374D02*
X2351Y374D01*
X0Y373D02*
X7Y373D01*
X1763Y373D02*
X1772Y373D01*
X2183Y373D02*
X2192Y373D01*
X2344Y373D02*
X2351Y373D01*
X0Y372D02*
X7Y372D01*
X1763Y372D02*
X1772Y372D01*
X2183Y372D02*
X2192Y372D01*
X2344Y372D02*
X2351Y372D01*
X0Y371D02*
X7Y371D01*
X1763Y371D02*
X1772Y371D01*
X2183Y371D02*
X2192Y371D01*
X2344Y371D02*
X2351Y371D01*
X0Y370D02*
X7Y370D01*
X1763Y370D02*
X1772Y370D01*
X2183Y370D02*
X2192Y370D01*
X2344Y370D02*
X2351Y370D01*
X0Y369D02*
X7Y369D01*
X1763Y369D02*
X1772Y369D01*
X2183Y369D02*
X2192Y369D01*
X2344Y369D02*
X2351Y369D01*
X0Y368D02*
X7Y368D01*
X1763Y368D02*
X1772Y368D01*
X2183Y368D02*
X2192Y368D01*
X2344Y368D02*
X2351Y368D01*
X0Y367D02*
X7Y367D01*
X1763Y367D02*
X1772Y367D01*
X2183Y367D02*
X2192Y367D01*
X2344Y367D02*
X2351Y367D01*
X0Y366D02*
X7Y366D01*
X1763Y366D02*
X1771Y366D01*
X2184Y366D02*
X2192Y366D01*
X2344Y366D02*
X2351Y366D01*
X0Y365D02*
X7Y365D01*
X1763Y365D02*
X1771Y365D01*
X2184Y365D02*
X2192Y365D01*
X2344Y365D02*
X2351Y365D01*
X0Y364D02*
X7Y364D01*
X1763Y364D02*
X1771Y364D01*
X2184Y364D02*
X2192Y364D01*
X2344Y364D02*
X2351Y364D01*
X0Y363D02*
X7Y363D01*
X1763Y363D02*
X1771Y363D01*
X2184Y363D02*
X2192Y363D01*
X2344Y363D02*
X2351Y363D01*
X0Y362D02*
X7Y362D01*
X1763Y362D02*
X1771Y362D01*
X2184Y362D02*
X2192Y362D01*
X2344Y362D02*
X2351Y362D01*
X0Y361D02*
X7Y361D01*
X1763Y361D02*
X1771Y361D01*
X2184Y361D02*
X2192Y361D01*
X2344Y361D02*
X2351Y361D01*
X0Y360D02*
X7Y360D01*
X1763Y360D02*
X1771Y360D01*
X2184Y360D02*
X2192Y360D01*
X2344Y360D02*
X2351Y360D01*
X0Y359D02*
X7Y359D01*
X1763Y359D02*
X1771Y359D01*
X2184Y359D02*
X2192Y359D01*
X2344Y359D02*
X2351Y359D01*
X0Y358D02*
X7Y358D01*
X314Y358D02*
X369Y358D01*
X564Y358D02*
X619Y358D01*
X1763Y358D02*
X1771Y358D01*
X2184Y358D02*
X2192Y358D01*
X2344Y358D02*
X2351Y358D01*
X0Y357D02*
X7Y357D01*
X312Y357D02*
X370Y357D01*
X562Y357D02*
X620Y357D01*
X1763Y357D02*
X1771Y357D01*
X2184Y357D02*
X2192Y357D01*
X2344Y357D02*
X2351Y357D01*
X0Y356D02*
X7Y356D01*
X312Y356D02*
X371Y356D01*
X562Y356D02*
X620Y356D01*
X1763Y356D02*
X1772Y356D01*
X2183Y356D02*
X2192Y356D01*
X2344Y356D02*
X2351Y356D01*
X0Y355D02*
X7Y355D01*
X311Y355D02*
X371Y355D01*
X561Y355D02*
X621Y355D01*
X1763Y355D02*
X1772Y355D01*
X2183Y355D02*
X2192Y355D01*
X2344Y355D02*
X2351Y355D01*
X0Y354D02*
X7Y354D01*
X311Y354D02*
X371Y354D01*
X561Y354D02*
X621Y354D01*
X1763Y354D02*
X1772Y354D01*
X2183Y354D02*
X2192Y354D01*
X2344Y354D02*
X2351Y354D01*
X0Y353D02*
X7Y353D01*
X311Y353D02*
X371Y353D01*
X561Y353D02*
X621Y353D01*
X1763Y353D02*
X1772Y353D01*
X2183Y353D02*
X2192Y353D01*
X2344Y353D02*
X2351Y353D01*
X0Y352D02*
X7Y352D01*
X311Y352D02*
X371Y352D01*
X561Y352D02*
X621Y352D01*
X1763Y352D02*
X1772Y352D01*
X2183Y352D02*
X2192Y352D01*
X2344Y352D02*
X2351Y352D01*
X0Y351D02*
X7Y351D01*
X312Y351D02*
X371Y351D01*
X562Y351D02*
X621Y351D01*
X1763Y351D02*
X1772Y351D01*
X2183Y351D02*
X2192Y351D01*
X2344Y351D02*
X2351Y351D01*
X0Y350D02*
X7Y350D01*
X312Y350D02*
X370Y350D01*
X562Y350D02*
X620Y350D01*
X1763Y350D02*
X1772Y350D01*
X2183Y350D02*
X2192Y350D01*
X2344Y350D02*
X2351Y350D01*
X0Y349D02*
X7Y349D01*
X313Y349D02*
X369Y349D01*
X563Y349D02*
X619Y349D01*
X1763Y349D02*
X1772Y349D01*
X2183Y349D02*
X2192Y349D01*
X2344Y349D02*
X2351Y349D01*
X0Y348D02*
X7Y348D01*
X315Y348D02*
X367Y348D01*
X565Y348D02*
X617Y348D01*
X1764Y348D02*
X1772Y348D01*
X2183Y348D02*
X2191Y348D01*
X2344Y348D02*
X2351Y348D01*
X0Y347D02*
X7Y347D01*
X1764Y347D02*
X1773Y347D01*
X2182Y347D02*
X2191Y347D01*
X2344Y347D02*
X2351Y347D01*
X0Y346D02*
X7Y346D01*
X1764Y346D02*
X1773Y346D01*
X2182Y346D02*
X2191Y346D01*
X2344Y346D02*
X2351Y346D01*
X0Y345D02*
X7Y345D01*
X1764Y345D02*
X1773Y345D01*
X2182Y345D02*
X2191Y345D01*
X2344Y345D02*
X2351Y345D01*
X0Y344D02*
X7Y344D01*
X1764Y344D02*
X1773Y344D01*
X2182Y344D02*
X2191Y344D01*
X2344Y344D02*
X2351Y344D01*
X0Y343D02*
X7Y343D01*
X1764Y343D02*
X1773Y343D01*
X2182Y343D02*
X2191Y343D01*
X2344Y343D02*
X2351Y343D01*
X0Y342D02*
X7Y342D01*
X1765Y342D02*
X1774Y342D01*
X2181Y342D02*
X2190Y342D01*
X2344Y342D02*
X2351Y342D01*
X0Y341D02*
X7Y341D01*
X1765Y341D02*
X1774Y341D01*
X2181Y341D02*
X2190Y341D01*
X2344Y341D02*
X2351Y341D01*
X0Y340D02*
X7Y340D01*
X1765Y340D02*
X1774Y340D01*
X2181Y340D02*
X2190Y340D01*
X2344Y340D02*
X2351Y340D01*
X0Y339D02*
X7Y339D01*
X1765Y339D02*
X1774Y339D01*
X2181Y339D02*
X2190Y339D01*
X2344Y339D02*
X2351Y339D01*
X0Y338D02*
X7Y338D01*
X1765Y338D02*
X1775Y338D01*
X2180Y338D02*
X2190Y338D01*
X2344Y338D02*
X2351Y338D01*
X0Y337D02*
X7Y337D01*
X1766Y337D02*
X1775Y337D01*
X2180Y337D02*
X2189Y337D01*
X2344Y337D02*
X2351Y337D01*
X0Y336D02*
X7Y336D01*
X1766Y336D02*
X1775Y336D01*
X2180Y336D02*
X2189Y336D01*
X2344Y336D02*
X2351Y336D01*
X0Y335D02*
X7Y335D01*
X1766Y335D02*
X1775Y335D01*
X2180Y335D02*
X2189Y335D01*
X2344Y335D02*
X2351Y335D01*
X0Y334D02*
X7Y334D01*
X1767Y334D02*
X1776Y334D01*
X2179Y334D02*
X2188Y334D01*
X2344Y334D02*
X2351Y334D01*
X0Y333D02*
X7Y333D01*
X1767Y333D02*
X1776Y333D01*
X2179Y333D02*
X2188Y333D01*
X2344Y333D02*
X2351Y333D01*
X0Y332D02*
X7Y332D01*
X1767Y332D02*
X1776Y332D01*
X2179Y332D02*
X2188Y332D01*
X2344Y332D02*
X2351Y332D01*
X0Y331D02*
X7Y331D01*
X1768Y331D02*
X1777Y331D01*
X2178Y331D02*
X2187Y331D01*
X2344Y331D02*
X2351Y331D01*
X0Y330D02*
X7Y330D01*
X1768Y330D02*
X1777Y330D01*
X2178Y330D02*
X2187Y330D01*
X2344Y330D02*
X2351Y330D01*
X0Y329D02*
X7Y329D01*
X1768Y329D02*
X1777Y329D01*
X2178Y329D02*
X2187Y329D01*
X2344Y329D02*
X2351Y329D01*
X0Y328D02*
X7Y328D01*
X1769Y328D02*
X1778Y328D01*
X2177Y328D02*
X2186Y328D01*
X2344Y328D02*
X2351Y328D01*
X0Y327D02*
X7Y327D01*
X1769Y327D02*
X1778Y327D01*
X2177Y327D02*
X2186Y327D01*
X2344Y327D02*
X2351Y327D01*
X0Y326D02*
X7Y326D01*
X1769Y326D02*
X1779Y326D01*
X2176Y326D02*
X2186Y326D01*
X2344Y326D02*
X2351Y326D01*
X0Y325D02*
X7Y325D01*
X1770Y325D02*
X1779Y325D01*
X2176Y325D02*
X2185Y325D01*
X2344Y325D02*
X2351Y325D01*
X0Y324D02*
X7Y324D01*
X1770Y324D02*
X1780Y324D01*
X2175Y324D02*
X2185Y324D01*
X2344Y324D02*
X2351Y324D01*
X0Y323D02*
X7Y323D01*
X1771Y323D02*
X1780Y323D01*
X2175Y323D02*
X2184Y323D01*
X2344Y323D02*
X2351Y323D01*
X0Y322D02*
X7Y322D01*
X1771Y322D02*
X1780Y322D01*
X2175Y322D02*
X2184Y322D01*
X2344Y322D02*
X2351Y322D01*
X0Y321D02*
X7Y321D01*
X1772Y321D02*
X1781Y321D01*
X2174Y321D02*
X2183Y321D01*
X2344Y321D02*
X2351Y321D01*
X0Y320D02*
X7Y320D01*
X1772Y320D02*
X1781Y320D01*
X2174Y320D02*
X2183Y320D01*
X2344Y320D02*
X2351Y320D01*
X0Y319D02*
X7Y319D01*
X1773Y319D02*
X1782Y319D01*
X2173Y319D02*
X2182Y319D01*
X2344Y319D02*
X2351Y319D01*
X0Y318D02*
X7Y318D01*
X1773Y318D02*
X1783Y318D01*
X2172Y318D02*
X2182Y318D01*
X2344Y318D02*
X2351Y318D01*
X0Y317D02*
X7Y317D01*
X1774Y317D02*
X1783Y317D01*
X2172Y317D02*
X2181Y317D01*
X2344Y317D02*
X2351Y317D01*
X0Y316D02*
X7Y316D01*
X1774Y316D02*
X1784Y316D01*
X2171Y316D02*
X2181Y316D01*
X2344Y316D02*
X2351Y316D01*
X0Y315D02*
X7Y315D01*
X1775Y315D02*
X1784Y315D01*
X2171Y315D02*
X2180Y315D01*
X2344Y315D02*
X2351Y315D01*
X0Y314D02*
X7Y314D01*
X1775Y314D02*
X1785Y314D01*
X2170Y314D02*
X2180Y314D01*
X2344Y314D02*
X2351Y314D01*
X0Y313D02*
X7Y313D01*
X1776Y313D02*
X1785Y313D01*
X2170Y313D02*
X2179Y313D01*
X2258Y313D02*
X2261Y313D01*
X2289Y313D02*
X2294Y313D01*
X2344Y313D02*
X2351Y313D01*
X0Y312D02*
X7Y312D01*
X1776Y312D02*
X1786Y312D01*
X2169Y312D02*
X2179Y312D01*
X2257Y312D02*
X2262Y312D01*
X2288Y312D02*
X2294Y312D01*
X2344Y312D02*
X2351Y312D01*
X0Y311D02*
X7Y311D01*
X1777Y311D02*
X1787Y311D01*
X2168Y311D02*
X2178Y311D01*
X2256Y311D02*
X2263Y311D01*
X2288Y311D02*
X2295Y311D01*
X2344Y311D02*
X2351Y311D01*
X0Y310D02*
X7Y310D01*
X1778Y310D02*
X1788Y310D01*
X2167Y310D02*
X2177Y310D01*
X2255Y310D02*
X2263Y310D01*
X2288Y310D02*
X2296Y310D01*
X2344Y310D02*
X2351Y310D01*
X0Y309D02*
X7Y309D01*
X1778Y309D02*
X1788Y309D01*
X2167Y309D02*
X2177Y309D01*
X2254Y309D02*
X2263Y309D01*
X2288Y309D02*
X2297Y309D01*
X2344Y309D02*
X2351Y309D01*
X0Y308D02*
X7Y308D01*
X1779Y308D02*
X1789Y308D01*
X2166Y308D02*
X2176Y308D01*
X2254Y308D02*
X2263Y308D01*
X2289Y308D02*
X2298Y308D01*
X2344Y308D02*
X2351Y308D01*
X0Y307D02*
X7Y307D01*
X1779Y307D02*
X1790Y307D01*
X2165Y307D02*
X2176Y307D01*
X2253Y307D02*
X2262Y307D01*
X2289Y307D02*
X2299Y307D01*
X2344Y307D02*
X2351Y307D01*
X0Y306D02*
X7Y306D01*
X1780Y306D02*
X1791Y306D01*
X2164Y306D02*
X2175Y306D01*
X2252Y306D02*
X2261Y306D01*
X2290Y306D02*
X2299Y306D01*
X2344Y306D02*
X2351Y306D01*
X0Y305D02*
X7Y305D01*
X1781Y305D02*
X1791Y305D01*
X2164Y305D02*
X2174Y305D01*
X2251Y305D02*
X2260Y305D01*
X2291Y305D02*
X2300Y305D01*
X2344Y305D02*
X2351Y305D01*
X0Y304D02*
X7Y304D01*
X1782Y304D02*
X1792Y304D01*
X2163Y304D02*
X2173Y304D01*
X2251Y304D02*
X2260Y304D01*
X2292Y304D02*
X2301Y304D01*
X2344Y304D02*
X2351Y304D01*
X0Y303D02*
X7Y303D01*
X1782Y303D02*
X1793Y303D01*
X2162Y303D02*
X2173Y303D01*
X2250Y303D02*
X2259Y303D01*
X2293Y303D02*
X2301Y303D01*
X2344Y303D02*
X2351Y303D01*
X0Y302D02*
X7Y302D01*
X1783Y302D02*
X1794Y302D01*
X2161Y302D02*
X2172Y302D01*
X2249Y302D02*
X2258Y302D01*
X2293Y302D02*
X2302Y302D01*
X2344Y302D02*
X2351Y302D01*
X0Y301D02*
X7Y301D01*
X1784Y301D02*
X1795Y301D01*
X2160Y301D02*
X2171Y301D01*
X2249Y301D02*
X2257Y301D01*
X2294Y301D02*
X2303Y301D01*
X2344Y301D02*
X2351Y301D01*
X0Y300D02*
X7Y300D01*
X1785Y300D02*
X1796Y300D01*
X2159Y300D02*
X2170Y300D01*
X2248Y300D02*
X2257Y300D01*
X2295Y300D02*
X2303Y300D01*
X2344Y300D02*
X2351Y300D01*
X0Y299D02*
X7Y299D01*
X1785Y299D02*
X1797Y299D01*
X2158Y299D02*
X2170Y299D01*
X2248Y299D02*
X2256Y299D01*
X2295Y299D02*
X2304Y299D01*
X2344Y299D02*
X2351Y299D01*
X0Y298D02*
X7Y298D01*
X1786Y298D02*
X1798Y298D01*
X2157Y298D02*
X2169Y298D01*
X2247Y298D02*
X2255Y298D01*
X2296Y298D02*
X2304Y298D01*
X2344Y298D02*
X2351Y298D01*
X0Y297D02*
X7Y297D01*
X1787Y297D02*
X1799Y297D01*
X2156Y297D02*
X2168Y297D01*
X2247Y297D02*
X2255Y297D01*
X2297Y297D02*
X2305Y297D01*
X2344Y297D02*
X2351Y297D01*
X0Y296D02*
X7Y296D01*
X1788Y296D02*
X1800Y296D01*
X2155Y296D02*
X2167Y296D01*
X2246Y296D02*
X2254Y296D01*
X2297Y296D02*
X2305Y296D01*
X2344Y296D02*
X2351Y296D01*
X0Y295D02*
X7Y295D01*
X1789Y295D02*
X1801Y295D01*
X2154Y295D02*
X2166Y295D01*
X2246Y295D02*
X2253Y295D01*
X2298Y295D02*
X2306Y295D01*
X2344Y295D02*
X2351Y295D01*
X0Y294D02*
X7Y294D01*
X1790Y294D02*
X1802Y294D01*
X2153Y294D02*
X2165Y294D01*
X2245Y294D02*
X2253Y294D01*
X2298Y294D02*
X2306Y294D01*
X2344Y294D02*
X2351Y294D01*
X0Y293D02*
X7Y293D01*
X1791Y293D02*
X1804Y293D01*
X2151Y293D02*
X2164Y293D01*
X2245Y293D02*
X2252Y293D01*
X2299Y293D02*
X2307Y293D01*
X2344Y293D02*
X2351Y293D01*
X0Y292D02*
X7Y292D01*
X1792Y292D02*
X1805Y292D01*
X2150Y292D02*
X2163Y292D01*
X2244Y292D02*
X2252Y292D01*
X2300Y292D02*
X2307Y292D01*
X2344Y292D02*
X2351Y292D01*
X0Y291D02*
X7Y291D01*
X1793Y291D02*
X1806Y291D01*
X2149Y291D02*
X2162Y291D01*
X2244Y291D02*
X2251Y291D01*
X2300Y291D02*
X2308Y291D01*
X2344Y291D02*
X2351Y291D01*
X0Y290D02*
X7Y290D01*
X1794Y290D02*
X1807Y290D01*
X2148Y290D02*
X2161Y290D01*
X2243Y290D02*
X2251Y290D01*
X2301Y290D02*
X2308Y290D01*
X2344Y290D02*
X2351Y290D01*
X0Y289D02*
X7Y289D01*
X1795Y289D02*
X1809Y289D01*
X2146Y289D02*
X2160Y289D01*
X2243Y289D02*
X2250Y289D01*
X2301Y289D02*
X2308Y289D01*
X2344Y289D02*
X2351Y289D01*
X0Y288D02*
X7Y288D01*
X1796Y288D02*
X1810Y288D01*
X2145Y288D02*
X2159Y288D01*
X2243Y288D02*
X2250Y288D01*
X2301Y288D02*
X2309Y288D01*
X2344Y288D02*
X2351Y288D01*
X0Y287D02*
X7Y287D01*
X1797Y287D02*
X1812Y287D01*
X2143Y287D02*
X2158Y287D01*
X2242Y287D02*
X2250Y287D01*
X2302Y287D02*
X2309Y287D01*
X2344Y287D02*
X2351Y287D01*
X0Y286D02*
X7Y286D01*
X1799Y286D02*
X1814Y286D01*
X2141Y286D02*
X2156Y286D01*
X2242Y286D02*
X2249Y286D01*
X2302Y286D02*
X2310Y286D01*
X2344Y286D02*
X2351Y286D01*
X0Y285D02*
X7Y285D01*
X1800Y285D02*
X1815Y285D01*
X2140Y285D02*
X2155Y285D01*
X2242Y285D02*
X2249Y285D01*
X2303Y285D02*
X2310Y285D01*
X2344Y285D02*
X2351Y285D01*
X0Y284D02*
X7Y284D01*
X1801Y284D02*
X1817Y284D01*
X2138Y284D02*
X2154Y284D01*
X2241Y284D02*
X2248Y284D01*
X2303Y284D02*
X2310Y284D01*
X2344Y284D02*
X2351Y284D01*
X0Y283D02*
X7Y283D01*
X1803Y283D02*
X1819Y283D01*
X2136Y283D02*
X2152Y283D01*
X2241Y283D02*
X2248Y283D01*
X2303Y283D02*
X2310Y283D01*
X2344Y283D02*
X2351Y283D01*
X0Y282D02*
X7Y282D01*
X1804Y282D02*
X1821Y282D01*
X2134Y282D02*
X2151Y282D01*
X2241Y282D02*
X2248Y282D01*
X2304Y282D02*
X2311Y282D01*
X2344Y282D02*
X2351Y282D01*
X0Y281D02*
X7Y281D01*
X1805Y281D02*
X1823Y281D01*
X2132Y281D02*
X2150Y281D01*
X2240Y281D02*
X2247Y281D01*
X2304Y281D02*
X2311Y281D01*
X2344Y281D02*
X2351Y281D01*
X0Y280D02*
X7Y280D01*
X1807Y280D02*
X1826Y280D01*
X2129Y280D02*
X2148Y280D01*
X2240Y280D02*
X2247Y280D01*
X2304Y280D02*
X2311Y280D01*
X2344Y280D02*
X2351Y280D01*
X0Y279D02*
X7Y279D01*
X1808Y279D02*
X1829Y279D01*
X2126Y279D02*
X2147Y279D01*
X2240Y279D02*
X2247Y279D01*
X2305Y279D02*
X2312Y279D01*
X2344Y279D02*
X2351Y279D01*
X0Y278D02*
X7Y278D01*
X1810Y278D02*
X1832Y278D01*
X2123Y278D02*
X2145Y278D01*
X2240Y278D02*
X2246Y278D01*
X2305Y278D02*
X2312Y278D01*
X2344Y278D02*
X2351Y278D01*
X0Y277D02*
X7Y277D01*
X1812Y277D02*
X1835Y277D01*
X2120Y277D02*
X2143Y277D01*
X2239Y277D02*
X2246Y277D01*
X2305Y277D02*
X2312Y277D01*
X2344Y277D02*
X2351Y277D01*
X0Y276D02*
X7Y276D01*
X1813Y276D02*
X1839Y276D01*
X2116Y276D02*
X2142Y276D01*
X2239Y276D02*
X2246Y276D01*
X2305Y276D02*
X2312Y276D01*
X2344Y276D02*
X2351Y276D01*
X0Y275D02*
X7Y275D01*
X1815Y275D02*
X1845Y275D01*
X2110Y275D02*
X2140Y275D01*
X2239Y275D02*
X2246Y275D01*
X2306Y275D02*
X2312Y275D01*
X2344Y275D02*
X2351Y275D01*
X0Y274D02*
X7Y274D01*
X1817Y274D02*
X2138Y274D01*
X2239Y274D02*
X2245Y274D01*
X2306Y274D02*
X2313Y274D01*
X2344Y274D02*
X2351Y274D01*
X0Y273D02*
X7Y273D01*
X1819Y273D02*
X2136Y273D01*
X2239Y273D02*
X2245Y273D01*
X2306Y273D02*
X2313Y273D01*
X2344Y273D02*
X2351Y273D01*
X0Y272D02*
X7Y272D01*
X1821Y272D02*
X2134Y272D01*
X2238Y272D02*
X2245Y272D01*
X2306Y272D02*
X2313Y272D01*
X2344Y272D02*
X2351Y272D01*
X0Y271D02*
X7Y271D01*
X1824Y271D02*
X2131Y271D01*
X2238Y271D02*
X2245Y271D01*
X2306Y271D02*
X2313Y271D01*
X2344Y271D02*
X2351Y271D01*
X0Y270D02*
X7Y270D01*
X1827Y270D02*
X2128Y270D01*
X2238Y270D02*
X2245Y270D01*
X2307Y270D02*
X2313Y270D01*
X2344Y270D02*
X2351Y270D01*
X0Y269D02*
X7Y269D01*
X1829Y269D02*
X2126Y269D01*
X2238Y269D02*
X2245Y269D01*
X2307Y269D02*
X2313Y269D01*
X2344Y269D02*
X2351Y269D01*
X0Y268D02*
X7Y268D01*
X1833Y268D02*
X2122Y268D01*
X2238Y268D02*
X2244Y268D01*
X2307Y268D02*
X2313Y268D01*
X2344Y268D02*
X2351Y268D01*
X0Y267D02*
X7Y267D01*
X1836Y267D02*
X2119Y267D01*
X2238Y267D02*
X2244Y267D01*
X2307Y267D02*
X2314Y267D01*
X2344Y267D02*
X2351Y267D01*
X0Y266D02*
X7Y266D01*
X1841Y266D02*
X2114Y266D01*
X2238Y266D02*
X2244Y266D01*
X2307Y266D02*
X2314Y266D01*
X2344Y266D02*
X2351Y266D01*
X0Y265D02*
X7Y265D01*
X1847Y265D02*
X2108Y265D01*
X2238Y265D02*
X2244Y265D01*
X2307Y265D02*
X2314Y265D01*
X2344Y265D02*
X2351Y265D01*
X0Y264D02*
X7Y264D01*
X2238Y264D02*
X2244Y264D01*
X2307Y264D02*
X2314Y264D01*
X2344Y264D02*
X2351Y264D01*
X0Y263D02*
X7Y263D01*
X2238Y263D02*
X2244Y263D01*
X2307Y263D02*
X2314Y263D01*
X2344Y263D02*
X2351Y263D01*
X0Y262D02*
X7Y262D01*
X2238Y262D02*
X2244Y262D01*
X2307Y262D02*
X2314Y262D01*
X2344Y262D02*
X2351Y262D01*
X0Y261D02*
X7Y261D01*
X2238Y261D02*
X2244Y261D01*
X2307Y261D02*
X2314Y261D01*
X2344Y261D02*
X2351Y261D01*
X0Y260D02*
X7Y260D01*
X2237Y260D02*
X2244Y260D01*
X2307Y260D02*
X2314Y260D01*
X2344Y260D02*
X2351Y260D01*
X0Y259D02*
X7Y259D01*
X2237Y259D02*
X2244Y259D01*
X2307Y259D02*
X2314Y259D01*
X2344Y259D02*
X2351Y259D01*
X0Y258D02*
X7Y258D01*
X2238Y258D02*
X2244Y258D01*
X2307Y258D02*
X2314Y258D01*
X2344Y258D02*
X2351Y258D01*
X0Y257D02*
X7Y257D01*
X2238Y257D02*
X2244Y257D01*
X2307Y257D02*
X2314Y257D01*
X2344Y257D02*
X2351Y257D01*
X0Y256D02*
X7Y256D01*
X2238Y256D02*
X2244Y256D01*
X2307Y256D02*
X2314Y256D01*
X2344Y256D02*
X2351Y256D01*
X0Y255D02*
X7Y255D01*
X2238Y255D02*
X2244Y255D01*
X2307Y255D02*
X2314Y255D01*
X2344Y255D02*
X2351Y255D01*
X0Y254D02*
X7Y254D01*
X2238Y254D02*
X2244Y254D01*
X2307Y254D02*
X2314Y254D01*
X2344Y254D02*
X2351Y254D01*
X0Y253D02*
X7Y253D01*
X2238Y253D02*
X2244Y253D01*
X2307Y253D02*
X2314Y253D01*
X2344Y253D02*
X2351Y253D01*
X0Y252D02*
X7Y252D01*
X2238Y252D02*
X2244Y252D01*
X2307Y252D02*
X2313Y252D01*
X2344Y252D02*
X2351Y252D01*
X0Y251D02*
X7Y251D01*
X2238Y251D02*
X2245Y251D01*
X2307Y251D02*
X2313Y251D01*
X2344Y251D02*
X2351Y251D01*
X0Y250D02*
X7Y250D01*
X2238Y250D02*
X2245Y250D01*
X2307Y250D02*
X2313Y250D01*
X2344Y250D02*
X2351Y250D01*
X0Y249D02*
X7Y249D01*
X2238Y249D02*
X2245Y249D01*
X2307Y249D02*
X2313Y249D01*
X2344Y249D02*
X2351Y249D01*
X0Y248D02*
X7Y248D01*
X2238Y248D02*
X2245Y248D01*
X2306Y248D02*
X2313Y248D01*
X2344Y248D02*
X2351Y248D01*
X0Y247D02*
X7Y247D01*
X2239Y247D02*
X2245Y247D01*
X2306Y247D02*
X2313Y247D01*
X2344Y247D02*
X2351Y247D01*
X0Y246D02*
X7Y246D01*
X2239Y246D02*
X2245Y246D01*
X2306Y246D02*
X2313Y246D01*
X2344Y246D02*
X2351Y246D01*
X0Y245D02*
X7Y245D01*
X2239Y245D02*
X2246Y245D01*
X2306Y245D02*
X2312Y245D01*
X2344Y245D02*
X2351Y245D01*
X0Y244D02*
X7Y244D01*
X2239Y244D02*
X2246Y244D01*
X2306Y244D02*
X2312Y244D01*
X2344Y244D02*
X2351Y244D01*
X0Y243D02*
X7Y243D01*
X2239Y243D02*
X2246Y243D01*
X2305Y243D02*
X2312Y243D01*
X2344Y243D02*
X2351Y243D01*
X0Y242D02*
X7Y242D01*
X2240Y242D02*
X2246Y242D01*
X2305Y242D02*
X2312Y242D01*
X2344Y242D02*
X2351Y242D01*
X0Y241D02*
X7Y241D01*
X2240Y241D02*
X2247Y241D01*
X2305Y241D02*
X2312Y241D01*
X2344Y241D02*
X2351Y241D01*
X0Y240D02*
X7Y240D01*
X2240Y240D02*
X2247Y240D01*
X2304Y240D02*
X2311Y240D01*
X2344Y240D02*
X2351Y240D01*
X0Y239D02*
X7Y239D01*
X2240Y239D02*
X2247Y239D01*
X2304Y239D02*
X2311Y239D01*
X2344Y239D02*
X2351Y239D01*
X0Y238D02*
X7Y238D01*
X2240Y238D02*
X2248Y238D01*
X2304Y238D02*
X2311Y238D01*
X2344Y238D02*
X2351Y238D01*
X0Y237D02*
X7Y237D01*
X2241Y237D02*
X2248Y237D01*
X2303Y237D02*
X2311Y237D01*
X2344Y237D02*
X2351Y237D01*
X0Y236D02*
X7Y236D01*
X2241Y236D02*
X2248Y236D01*
X2303Y236D02*
X2310Y236D01*
X2344Y236D02*
X2351Y236D01*
X0Y235D02*
X7Y235D01*
X2241Y235D02*
X2249Y235D01*
X2303Y235D02*
X2310Y235D01*
X2344Y235D02*
X2351Y235D01*
X0Y234D02*
X7Y234D01*
X2242Y234D02*
X2249Y234D01*
X2302Y234D02*
X2310Y234D01*
X2344Y234D02*
X2351Y234D01*
X0Y233D02*
X7Y233D01*
X2242Y233D02*
X2249Y233D01*
X2302Y233D02*
X2309Y233D01*
X2344Y233D02*
X2351Y233D01*
X0Y232D02*
X7Y232D01*
X2242Y232D02*
X2250Y232D01*
X2302Y232D02*
X2309Y232D01*
X2344Y232D02*
X2351Y232D01*
X0Y231D02*
X7Y231D01*
X2243Y231D02*
X2250Y231D01*
X2301Y231D02*
X2309Y231D01*
X2344Y231D02*
X2351Y231D01*
X0Y230D02*
X7Y230D01*
X2243Y230D02*
X2251Y230D01*
X2301Y230D02*
X2308Y230D01*
X2344Y230D02*
X2351Y230D01*
X0Y229D02*
X7Y229D01*
X2244Y229D02*
X2251Y229D01*
X2300Y229D02*
X2308Y229D01*
X2344Y229D02*
X2351Y229D01*
X0Y228D02*
X7Y228D01*
X2244Y228D02*
X2252Y228D01*
X2300Y228D02*
X2307Y228D01*
X2344Y228D02*
X2351Y228D01*
X0Y227D02*
X7Y227D01*
X2245Y227D02*
X2252Y227D01*
X2299Y227D02*
X2307Y227D01*
X2344Y227D02*
X2351Y227D01*
X0Y226D02*
X7Y226D01*
X2245Y226D02*
X2253Y226D01*
X2299Y226D02*
X2306Y226D01*
X2344Y226D02*
X2351Y226D01*
X0Y225D02*
X7Y225D01*
X2245Y225D02*
X2253Y225D01*
X2298Y225D02*
X2306Y225D01*
X2344Y225D02*
X2351Y225D01*
X0Y224D02*
X7Y224D01*
X2246Y224D02*
X2254Y224D01*
X2297Y224D02*
X2305Y224D01*
X2344Y224D02*
X2351Y224D01*
X0Y223D02*
X7Y223D01*
X2247Y223D02*
X2254Y223D01*
X2297Y223D02*
X2305Y223D01*
X2344Y223D02*
X2351Y223D01*
X0Y222D02*
X7Y222D01*
X2247Y222D02*
X2255Y222D01*
X2296Y222D02*
X2304Y222D01*
X2344Y222D02*
X2351Y222D01*
X0Y221D02*
X7Y221D01*
X2248Y221D02*
X2256Y221D01*
X2296Y221D02*
X2304Y221D01*
X2344Y221D02*
X2351Y221D01*
X0Y220D02*
X7Y220D01*
X2248Y220D02*
X2257Y220D01*
X2295Y220D02*
X2303Y220D01*
X2344Y220D02*
X2351Y220D01*
X0Y219D02*
X7Y219D01*
X2249Y219D02*
X2257Y219D01*
X2294Y219D02*
X2303Y219D01*
X2344Y219D02*
X2351Y219D01*
X0Y218D02*
X7Y218D01*
X2249Y218D02*
X2258Y218D01*
X2293Y218D02*
X2302Y218D01*
X2344Y218D02*
X2351Y218D01*
X0Y217D02*
X7Y217D01*
X2250Y217D02*
X2259Y217D01*
X2293Y217D02*
X2301Y217D01*
X2344Y217D02*
X2351Y217D01*
X0Y216D02*
X7Y216D01*
X2251Y216D02*
X2259Y216D01*
X2292Y216D02*
X2301Y216D01*
X2344Y216D02*
X2351Y216D01*
X0Y215D02*
X7Y215D01*
X1740Y215D02*
X1742Y215D01*
X2251Y215D02*
X2260Y215D01*
X2291Y215D02*
X2300Y215D01*
X2344Y215D02*
X2351Y215D01*
X0Y214D02*
X7Y214D01*
X1707Y214D02*
X1711Y214D01*
X1739Y214D02*
X1743Y214D01*
X2252Y214D02*
X2261Y214D01*
X2290Y214D02*
X2299Y214D01*
X2344Y214D02*
X2351Y214D01*
X0Y213D02*
X7Y213D01*
X1706Y213D02*
X1712Y213D01*
X1738Y213D02*
X1744Y213D01*
X2253Y213D02*
X2262Y213D01*
X2289Y213D02*
X2299Y213D01*
X2344Y213D02*
X2351Y213D01*
X0Y212D02*
X7Y212D01*
X1705Y212D02*
X1712Y212D01*
X1738Y212D02*
X1745Y212D01*
X2253Y212D02*
X2263Y212D01*
X2289Y212D02*
X2298Y212D01*
X2344Y212D02*
X2351Y212D01*
X0Y211D02*
X7Y211D01*
X1705Y211D02*
X1712Y211D01*
X1737Y211D02*
X1746Y211D01*
X2254Y211D02*
X2263Y211D01*
X2288Y211D02*
X2297Y211D01*
X2344Y211D02*
X2351Y211D01*
X0Y210D02*
X7Y210D01*
X1704Y210D02*
X1712Y210D01*
X1738Y210D02*
X1747Y210D01*
X2255Y210D02*
X2263Y210D01*
X2288Y210D02*
X2296Y210D01*
X2344Y210D02*
X2351Y210D01*
X0Y209D02*
X7Y209D01*
X1703Y209D02*
X1712Y209D01*
X1738Y209D02*
X1747Y209D01*
X2256Y209D02*
X2263Y209D01*
X2289Y209D02*
X2295Y209D01*
X2344Y209D02*
X2351Y209D01*
X0Y208D02*
X7Y208D01*
X1702Y208D02*
X1711Y208D01*
X1739Y208D02*
X1748Y208D01*
X2257Y208D02*
X2263Y208D01*
X2289Y208D02*
X2295Y208D01*
X2344Y208D02*
X2351Y208D01*
X0Y207D02*
X7Y207D01*
X1701Y207D02*
X1711Y207D01*
X1740Y207D02*
X1749Y207D01*
X2258Y207D02*
X2262Y207D01*
X2290Y207D02*
X2294Y207D01*
X2344Y207D02*
X2351Y207D01*
X0Y206D02*
X7Y206D01*
X1701Y206D02*
X1710Y206D01*
X1741Y206D02*
X1750Y206D01*
X2259Y206D02*
X2261Y206D01*
X2344Y206D02*
X2351Y206D01*
X0Y205D02*
X7Y205D01*
X1700Y205D02*
X1709Y205D01*
X1741Y205D02*
X1750Y205D01*
X2344Y205D02*
X2351Y205D01*
X0Y204D02*
X7Y204D01*
X1699Y204D02*
X1708Y204D01*
X1742Y204D02*
X1751Y204D01*
X2344Y204D02*
X2351Y204D01*
X0Y203D02*
X7Y203D01*
X1699Y203D02*
X1707Y203D01*
X1743Y203D02*
X1752Y203D01*
X2344Y203D02*
X2351Y203D01*
X0Y202D02*
X7Y202D01*
X1698Y202D02*
X1707Y202D01*
X1744Y202D02*
X1752Y202D01*
X2344Y202D02*
X2351Y202D01*
X0Y201D02*
X7Y201D01*
X1698Y201D02*
X1706Y201D01*
X1744Y201D02*
X1753Y201D01*
X2344Y201D02*
X2351Y201D01*
X0Y200D02*
X7Y200D01*
X1697Y200D02*
X1705Y200D01*
X1745Y200D02*
X1753Y200D01*
X2344Y200D02*
X2351Y200D01*
X0Y199D02*
X7Y199D01*
X1697Y199D02*
X1705Y199D01*
X1746Y199D02*
X1754Y199D01*
X2344Y199D02*
X2351Y199D01*
X0Y198D02*
X7Y198D01*
X1696Y198D02*
X1704Y198D01*
X1746Y198D02*
X1754Y198D01*
X2344Y198D02*
X2351Y198D01*
X0Y197D02*
X7Y197D01*
X1695Y197D02*
X1703Y197D01*
X1747Y197D02*
X1755Y197D01*
X2344Y197D02*
X2351Y197D01*
X0Y196D02*
X7Y196D01*
X1695Y196D02*
X1703Y196D01*
X1747Y196D02*
X1755Y196D01*
X2344Y196D02*
X2351Y196D01*
X0Y195D02*
X7Y195D01*
X1694Y195D02*
X1702Y195D01*
X1748Y195D02*
X1756Y195D01*
X2344Y195D02*
X2351Y195D01*
X0Y194D02*
X7Y194D01*
X1694Y194D02*
X1702Y194D01*
X1749Y194D02*
X1756Y194D01*
X2344Y194D02*
X2351Y194D01*
X0Y193D02*
X7Y193D01*
X1694Y193D02*
X1701Y193D01*
X1749Y193D02*
X1757Y193D01*
X2344Y193D02*
X2351Y193D01*
X0Y192D02*
X7Y192D01*
X1693Y192D02*
X1701Y192D01*
X1750Y192D02*
X1757Y192D01*
X2344Y192D02*
X2351Y192D01*
X0Y191D02*
X7Y191D01*
X1693Y191D02*
X1700Y191D01*
X1750Y191D02*
X1758Y191D01*
X2344Y191D02*
X2351Y191D01*
X0Y190D02*
X7Y190D01*
X1692Y190D02*
X1700Y190D01*
X1751Y190D02*
X1758Y190D01*
X2344Y190D02*
X2351Y190D01*
X0Y189D02*
X7Y189D01*
X1692Y189D02*
X1699Y189D01*
X1751Y189D02*
X1758Y189D01*
X2344Y189D02*
X2351Y189D01*
X0Y188D02*
X7Y188D01*
X1692Y188D02*
X1699Y188D01*
X1751Y188D02*
X1759Y188D01*
X2344Y188D02*
X2351Y188D01*
X0Y187D02*
X7Y187D01*
X1691Y187D02*
X1698Y187D01*
X1752Y187D02*
X1759Y187D01*
X2344Y187D02*
X2351Y187D01*
X0Y186D02*
X7Y186D01*
X1691Y186D02*
X1698Y186D01*
X1752Y186D02*
X1759Y186D01*
X2344Y186D02*
X2351Y186D01*
X0Y185D02*
X7Y185D01*
X1691Y185D02*
X1698Y185D01*
X1753Y185D02*
X1760Y185D01*
X2344Y185D02*
X2351Y185D01*
X0Y184D02*
X7Y184D01*
X1690Y184D02*
X1697Y184D01*
X1753Y184D02*
X1760Y184D01*
X2344Y184D02*
X2351Y184D01*
X0Y183D02*
X7Y183D01*
X1690Y183D02*
X1697Y183D01*
X1753Y183D02*
X1760Y183D01*
X2344Y183D02*
X2351Y183D01*
X0Y182D02*
X7Y182D01*
X1690Y182D02*
X1697Y182D01*
X1754Y182D02*
X1761Y182D01*
X2344Y182D02*
X2351Y182D01*
X0Y181D02*
X7Y181D01*
X1689Y181D02*
X1696Y181D01*
X1754Y181D02*
X1761Y181D01*
X2344Y181D02*
X2351Y181D01*
X0Y180D02*
X7Y180D01*
X1689Y180D02*
X1696Y180D01*
X1754Y180D02*
X1761Y180D01*
X2344Y180D02*
X2351Y180D01*
X0Y179D02*
X7Y179D01*
X1689Y179D02*
X1696Y179D01*
X1755Y179D02*
X1761Y179D01*
X2344Y179D02*
X2351Y179D01*
X0Y178D02*
X7Y178D01*
X1689Y178D02*
X1696Y178D01*
X1755Y178D02*
X1762Y178D01*
X2344Y178D02*
X2351Y178D01*
X0Y177D02*
X7Y177D01*
X1689Y177D02*
X1695Y177D01*
X1755Y177D02*
X1762Y177D01*
X2344Y177D02*
X2351Y177D01*
X0Y176D02*
X7Y176D01*
X1688Y176D02*
X1695Y176D01*
X1755Y176D02*
X1762Y176D01*
X2344Y176D02*
X2351Y176D01*
X0Y175D02*
X7Y175D01*
X1688Y175D02*
X1695Y175D01*
X1755Y175D02*
X1762Y175D01*
X2344Y175D02*
X2351Y175D01*
X0Y174D02*
X7Y174D01*
X1688Y174D02*
X1695Y174D01*
X1756Y174D02*
X1762Y174D01*
X2344Y174D02*
X2351Y174D01*
X0Y173D02*
X7Y173D01*
X1688Y173D02*
X1694Y173D01*
X1756Y173D02*
X1762Y173D01*
X2344Y173D02*
X2351Y173D01*
X0Y172D02*
X7Y172D01*
X1688Y172D02*
X1694Y172D01*
X1756Y172D02*
X1763Y172D01*
X2344Y172D02*
X2351Y172D01*
X0Y171D02*
X7Y171D01*
X1688Y171D02*
X1694Y171D01*
X1756Y171D02*
X1763Y171D01*
X2344Y171D02*
X2351Y171D01*
X0Y170D02*
X7Y170D01*
X1687Y170D02*
X1694Y170D01*
X1756Y170D02*
X1763Y170D01*
X2344Y170D02*
X2351Y170D01*
X0Y169D02*
X7Y169D01*
X316Y169D02*
X366Y169D01*
X566Y169D02*
X616Y169D01*
X1687Y169D02*
X1694Y169D01*
X1756Y169D02*
X1763Y169D01*
X2344Y169D02*
X2351Y169D01*
X0Y168D02*
X7Y168D01*
X313Y168D02*
X369Y168D01*
X563Y168D02*
X619Y168D01*
X1687Y168D02*
X1694Y168D01*
X1757Y168D02*
X1763Y168D01*
X2344Y168D02*
X2351Y168D01*
X0Y167D02*
X7Y167D01*
X312Y167D02*
X370Y167D01*
X562Y167D02*
X620Y167D01*
X1687Y167D02*
X1694Y167D01*
X1757Y167D02*
X1763Y167D01*
X2344Y167D02*
X2351Y167D01*
X0Y166D02*
X7Y166D01*
X312Y166D02*
X371Y166D01*
X562Y166D02*
X621Y166D01*
X1687Y166D02*
X1694Y166D01*
X1757Y166D02*
X1763Y166D01*
X2344Y166D02*
X2351Y166D01*
X0Y165D02*
X7Y165D01*
X311Y165D02*
X371Y165D01*
X561Y165D02*
X621Y165D01*
X1687Y165D02*
X1694Y165D01*
X1757Y165D02*
X1763Y165D01*
X2344Y165D02*
X2351Y165D01*
X0Y164D02*
X7Y164D01*
X311Y164D02*
X371Y164D01*
X561Y164D02*
X621Y164D01*
X1687Y164D02*
X1694Y164D01*
X1757Y164D02*
X1763Y164D01*
X2344Y164D02*
X2351Y164D01*
X0Y163D02*
X7Y163D01*
X311Y163D02*
X371Y163D01*
X561Y163D02*
X621Y163D01*
X1687Y163D02*
X1694Y163D01*
X1757Y163D02*
X1763Y163D01*
X2344Y163D02*
X2351Y163D01*
X0Y162D02*
X7Y162D01*
X311Y162D02*
X371Y162D01*
X561Y162D02*
X621Y162D01*
X1687Y162D02*
X1693Y162D01*
X1757Y162D02*
X1763Y162D01*
X2344Y162D02*
X2351Y162D01*
X0Y161D02*
X7Y161D01*
X312Y161D02*
X371Y161D01*
X562Y161D02*
X621Y161D01*
X1687Y161D02*
X1693Y161D01*
X1757Y161D02*
X1763Y161D01*
X2344Y161D02*
X2351Y161D01*
X0Y160D02*
X7Y160D01*
X312Y160D02*
X370Y160D01*
X562Y160D02*
X620Y160D01*
X1687Y160D02*
X1693Y160D01*
X1757Y160D02*
X1763Y160D01*
X2344Y160D02*
X2351Y160D01*
X0Y159D02*
X7Y159D01*
X313Y159D02*
X369Y159D01*
X563Y159D02*
X619Y159D01*
X1687Y159D02*
X1694Y159D01*
X1757Y159D02*
X1763Y159D01*
X2344Y159D02*
X2351Y159D01*
X0Y158D02*
X7Y158D01*
X316Y158D02*
X366Y158D01*
X566Y158D02*
X616Y158D01*
X1687Y158D02*
X1694Y158D01*
X1757Y158D02*
X1763Y158D01*
X2344Y158D02*
X2351Y158D01*
X0Y157D02*
X7Y157D01*
X1687Y157D02*
X1694Y157D01*
X1757Y157D02*
X1763Y157D01*
X2344Y157D02*
X2351Y157D01*
X0Y156D02*
X7Y156D01*
X1687Y156D02*
X1694Y156D01*
X1757Y156D02*
X1763Y156D01*
X2344Y156D02*
X2351Y156D01*
X0Y155D02*
X7Y155D01*
X1687Y155D02*
X1694Y155D01*
X1757Y155D02*
X1763Y155D01*
X2344Y155D02*
X2351Y155D01*
X0Y154D02*
X7Y154D01*
X1687Y154D02*
X1694Y154D01*
X1757Y154D02*
X1763Y154D01*
X2344Y154D02*
X2351Y154D01*
X0Y153D02*
X7Y153D01*
X1687Y153D02*
X1694Y153D01*
X1756Y153D02*
X1763Y153D01*
X2344Y153D02*
X2351Y153D01*
X0Y152D02*
X7Y152D01*
X1688Y152D02*
X1694Y152D01*
X1756Y152D02*
X1763Y152D01*
X2344Y152D02*
X2351Y152D01*
X0Y151D02*
X7Y151D01*
X1688Y151D02*
X1694Y151D01*
X1756Y151D02*
X1763Y151D01*
X2344Y151D02*
X2351Y151D01*
X0Y150D02*
X7Y150D01*
X1688Y150D02*
X1694Y150D01*
X1756Y150D02*
X1763Y150D01*
X2344Y150D02*
X2351Y150D01*
X0Y149D02*
X7Y149D01*
X1688Y149D02*
X1695Y149D01*
X1756Y149D02*
X1762Y149D01*
X2344Y149D02*
X2351Y149D01*
X0Y148D02*
X7Y148D01*
X1688Y148D02*
X1695Y148D01*
X1756Y148D02*
X1762Y148D01*
X2344Y148D02*
X2351Y148D01*
X0Y147D02*
X7Y147D01*
X1688Y147D02*
X1695Y147D01*
X1755Y147D02*
X1762Y147D01*
X2344Y147D02*
X2351Y147D01*
X0Y146D02*
X7Y146D01*
X1688Y146D02*
X1695Y146D01*
X1755Y146D02*
X1762Y146D01*
X2344Y146D02*
X2351Y146D01*
X0Y145D02*
X7Y145D01*
X1689Y145D02*
X1695Y145D01*
X1755Y145D02*
X1762Y145D01*
X2344Y145D02*
X2351Y145D01*
X0Y144D02*
X7Y144D01*
X1689Y144D02*
X1696Y144D01*
X1755Y144D02*
X1761Y144D01*
X2344Y144D02*
X2351Y144D01*
X0Y143D02*
X7Y143D01*
X1689Y143D02*
X1696Y143D01*
X1754Y143D02*
X1761Y143D01*
X2344Y143D02*
X2351Y143D01*
X0Y142D02*
X7Y142D01*
X1689Y142D02*
X1696Y142D01*
X1754Y142D02*
X1761Y142D01*
X2344Y142D02*
X2351Y142D01*
X0Y141D02*
X7Y141D01*
X1690Y141D02*
X1696Y141D01*
X1754Y141D02*
X1761Y141D01*
X2344Y141D02*
X2351Y141D01*
X0Y140D02*
X7Y140D01*
X1690Y140D02*
X1697Y140D01*
X1754Y140D02*
X1761Y140D01*
X2344Y140D02*
X2351Y140D01*
X0Y139D02*
X7Y139D01*
X1690Y139D02*
X1697Y139D01*
X1753Y139D02*
X1760Y139D01*
X2344Y139D02*
X2351Y139D01*
X0Y138D02*
X7Y138D01*
X1690Y138D02*
X1697Y138D01*
X1753Y138D02*
X1760Y138D01*
X2344Y138D02*
X2351Y138D01*
X0Y137D02*
X7Y137D01*
X1691Y137D02*
X1698Y137D01*
X1753Y137D02*
X1760Y137D01*
X2344Y137D02*
X2351Y137D01*
X0Y136D02*
X7Y136D01*
X1691Y136D02*
X1698Y136D01*
X1752Y136D02*
X1759Y136D01*
X2344Y136D02*
X2351Y136D01*
X0Y135D02*
X7Y135D01*
X1691Y135D02*
X1699Y135D01*
X1752Y135D02*
X1759Y135D01*
X2344Y135D02*
X2351Y135D01*
X0Y134D02*
X7Y134D01*
X1692Y134D02*
X1699Y134D01*
X1751Y134D02*
X1759Y134D01*
X2344Y134D02*
X2351Y134D01*
X0Y133D02*
X7Y133D01*
X1692Y133D02*
X1699Y133D01*
X1751Y133D02*
X1758Y133D01*
X2344Y133D02*
X2351Y133D01*
X0Y132D02*
X7Y132D01*
X1692Y132D02*
X1700Y132D01*
X1750Y132D02*
X1758Y132D01*
X2344Y132D02*
X2351Y132D01*
X0Y131D02*
X7Y131D01*
X1693Y131D02*
X1700Y131D01*
X1750Y131D02*
X1757Y131D01*
X2344Y131D02*
X2351Y131D01*
X0Y130D02*
X7Y130D01*
X1693Y130D02*
X1701Y130D01*
X1750Y130D02*
X1757Y130D01*
X2344Y130D02*
X2351Y130D01*
X0Y129D02*
X7Y129D01*
X1694Y129D02*
X1701Y129D01*
X1749Y129D02*
X1757Y129D01*
X2344Y129D02*
X2351Y129D01*
X0Y128D02*
X7Y128D01*
X1694Y128D02*
X1702Y128D01*
X1748Y128D02*
X1756Y128D01*
X2344Y128D02*
X2351Y128D01*
X0Y127D02*
X7Y127D01*
X1695Y127D02*
X1702Y127D01*
X1748Y127D02*
X1756Y127D01*
X2344Y127D02*
X2351Y127D01*
X0Y126D02*
X7Y126D01*
X1695Y126D02*
X1703Y126D01*
X1747Y126D02*
X1755Y126D01*
X2344Y126D02*
X2351Y126D01*
X0Y125D02*
X7Y125D01*
X1696Y125D02*
X1704Y125D01*
X1747Y125D02*
X1755Y125D01*
X2344Y125D02*
X2351Y125D01*
X0Y124D02*
X7Y124D01*
X1696Y124D02*
X1704Y124D01*
X1746Y124D02*
X1754Y124D01*
X2344Y124D02*
X2351Y124D01*
X0Y123D02*
X7Y123D01*
X1697Y123D02*
X1705Y123D01*
X1746Y123D02*
X1754Y123D01*
X2344Y123D02*
X2351Y123D01*
X0Y122D02*
X7Y122D01*
X1697Y122D02*
X1705Y122D01*
X1745Y122D02*
X1753Y122D01*
X2344Y122D02*
X2351Y122D01*
X0Y121D02*
X7Y121D01*
X1698Y121D02*
X1706Y121D01*
X1744Y121D02*
X1753Y121D01*
X2344Y121D02*
X2351Y121D01*
X0Y120D02*
X7Y120D01*
X1698Y120D02*
X1707Y120D01*
X1744Y120D02*
X1752Y120D01*
X2344Y120D02*
X2351Y120D01*
X0Y119D02*
X7Y119D01*
X1699Y119D02*
X1708Y119D01*
X1743Y119D02*
X1751Y119D01*
X2344Y119D02*
X2351Y119D01*
X0Y118D02*
X7Y118D01*
X1700Y118D02*
X1708Y118D01*
X1742Y118D02*
X1751Y118D01*
X2344Y118D02*
X2351Y118D01*
X0Y117D02*
X7Y117D01*
X1700Y117D02*
X1709Y117D01*
X1741Y117D02*
X1750Y117D01*
X2344Y117D02*
X2351Y117D01*
X0Y116D02*
X7Y116D01*
X1701Y116D02*
X1710Y116D01*
X1740Y116D02*
X1749Y116D01*
X2344Y116D02*
X2351Y116D01*
X0Y115D02*
X7Y115D01*
X1702Y115D02*
X1711Y115D01*
X1740Y115D02*
X1749Y115D01*
X2344Y115D02*
X2351Y115D01*
X0Y114D02*
X7Y114D01*
X1702Y114D02*
X1712Y114D01*
X1739Y114D02*
X1748Y114D01*
X2344Y114D02*
X2351Y114D01*
X0Y113D02*
X7Y113D01*
X1703Y113D02*
X1712Y113D01*
X1738Y113D02*
X1747Y113D01*
X2344Y113D02*
X2351Y113D01*
X0Y112D02*
X7Y112D01*
X1704Y112D02*
X1713Y112D01*
X1738Y112D02*
X1746Y112D01*
X2344Y112D02*
X2351Y112D01*
X0Y111D02*
X7Y111D01*
X1705Y111D02*
X1713Y111D01*
X1738Y111D02*
X1746Y111D01*
X2344Y111D02*
X2351Y111D01*
X0Y110D02*
X7Y110D01*
X1706Y110D02*
X1713Y110D01*
X1738Y110D02*
X1745Y110D01*
X2344Y110D02*
X2351Y110D01*
X0Y109D02*
X7Y109D01*
X1706Y109D02*
X1712Y109D01*
X1739Y109D02*
X1744Y109D01*
X2344Y109D02*
X2351Y109D01*
X0Y108D02*
X7Y108D01*
X1707Y108D02*
X1712Y108D01*
X1740Y108D02*
X1743Y108D01*
X2344Y108D02*
X2351Y108D01*
X0Y107D02*
X7Y107D01*
X2344Y107D02*
X2351Y107D01*
X0Y106D02*
X7Y106D01*
X2344Y106D02*
X2351Y106D01*
X0Y105D02*
X7Y105D01*
X2344Y105D02*
X2351Y105D01*
X0Y104D02*
X7Y104D01*
X2344Y104D02*
X2351Y104D01*
X0Y103D02*
X7Y103D01*
X2344Y103D02*
X2351Y103D01*
X0Y102D02*
X7Y102D01*
X2344Y102D02*
X2351Y102D01*
X0Y101D02*
X7Y101D01*
X2344Y101D02*
X2351Y101D01*
X0Y100D02*
X7Y100D01*
X2344Y100D02*
X2351Y100D01*
X0Y99D02*
X7Y99D01*
X2344Y99D02*
X2351Y99D01*
X0Y98D02*
X7Y98D01*
X2344Y98D02*
X2351Y98D01*
X0Y97D02*
X7Y97D01*
X2344Y97D02*
X2351Y97D01*
X0Y96D02*
X7Y96D01*
X2344Y96D02*
X2351Y96D01*
X0Y95D02*
X7Y95D01*
X2344Y95D02*
X2351Y95D01*
X0Y94D02*
X7Y94D01*
X2344Y94D02*
X2351Y94D01*
X0Y93D02*
X7Y93D01*
X2344Y93D02*
X2351Y93D01*
X0Y92D02*
X7Y92D01*
X2344Y92D02*
X2351Y92D01*
X0Y91D02*
X7Y91D01*
X2344Y91D02*
X2351Y91D01*
X0Y90D02*
X7Y90D01*
X2344Y90D02*
X2351Y90D01*
X0Y89D02*
X7Y89D01*
X2344Y89D02*
X2351Y89D01*
X0Y88D02*
X7Y88D01*
X2344Y88D02*
X2351Y88D01*
X0Y87D02*
X7Y87D01*
X2344Y87D02*
X2351Y87D01*
X0Y86D02*
X7Y86D01*
X2344Y86D02*
X2351Y86D01*
X0Y85D02*
X7Y85D01*
X2344Y85D02*
X2351Y85D01*
X0Y84D02*
X7Y84D01*
X2344Y84D02*
X2351Y84D01*
X0Y83D02*
X7Y83D01*
X2344Y83D02*
X2351Y83D01*
X0Y82D02*
X7Y82D01*
X2344Y82D02*
X2351Y82D01*
X0Y81D02*
X7Y81D01*
X2344Y81D02*
X2351Y81D01*
X0Y80D02*
X7Y80D01*
X2344Y80D02*
X2351Y80D01*
X0Y79D02*
X7Y79D01*
X2344Y79D02*
X2351Y79D01*
X0Y78D02*
X7Y78D01*
X2344Y78D02*
X2351Y78D01*
X0Y77D02*
X7Y77D01*
X2344Y77D02*
X2351Y77D01*
X0Y76D02*
X7Y76D01*
X2344Y76D02*
X2351Y76D01*
X0Y75D02*
X7Y75D01*
X2344Y75D02*
X2351Y75D01*
X0Y74D02*
X7Y74D01*
X2344Y74D02*
X2351Y74D01*
X0Y73D02*
X7Y73D01*
X2344Y73D02*
X2351Y73D01*
X0Y72D02*
X7Y72D01*
X2344Y72D02*
X2351Y72D01*
X0Y71D02*
X7Y71D01*
X2344Y71D02*
X2351Y71D01*
X0Y70D02*
X7Y70D01*
X2344Y70D02*
X2351Y70D01*
X0Y69D02*
X7Y69D01*
X2344Y69D02*
X2351Y69D01*
X0Y68D02*
X7Y68D01*
X2344Y68D02*
X2351Y68D01*
X0Y67D02*
X7Y67D01*
X2344Y67D02*
X2351Y67D01*
X0Y66D02*
X7Y66D01*
X2344Y66D02*
X2351Y66D01*
X0Y65D02*
X7Y65D01*
X2344Y65D02*
X2351Y65D01*
X0Y64D02*
X7Y64D01*
X2344Y64D02*
X2351Y64D01*
X0Y63D02*
X7Y63D01*
X2344Y63D02*
X2351Y63D01*
X0Y62D02*
X7Y62D01*
X2344Y62D02*
X2351Y62D01*
X0Y61D02*
X7Y61D01*
X2344Y61D02*
X2351Y61D01*
X0Y60D02*
X7Y60D01*
X2344Y60D02*
X2351Y60D01*
X0Y59D02*
X7Y59D01*
X2344Y59D02*
X2351Y59D01*
X0Y58D02*
X7Y58D01*
X2344Y58D02*
X2351Y58D01*
X0Y57D02*
X7Y57D01*
X2344Y57D02*
X2351Y57D01*
X0Y56D02*
X7Y56D01*
X2344Y56D02*
X2351Y56D01*
X0Y55D02*
X7Y55D01*
X2344Y55D02*
X2351Y55D01*
X0Y54D02*
X7Y54D01*
X2344Y54D02*
X2351Y54D01*
X0Y53D02*
X7Y53D01*
X2344Y53D02*
X2351Y53D01*
X0Y52D02*
X7Y52D01*
X2344Y52D02*
X2351Y52D01*
X0Y51D02*
X7Y51D01*
X2344Y51D02*
X2351Y51D01*
X0Y50D02*
X7Y50D01*
X2344Y50D02*
X2351Y50D01*
X0Y49D02*
X7Y49D01*
X2344Y49D02*
X2351Y49D01*
X0Y48D02*
X7Y48D01*
X2344Y48D02*
X2351Y48D01*
X0Y47D02*
X7Y47D01*
X2344Y47D02*
X2351Y47D01*
X0Y46D02*
X7Y46D01*
X2344Y46D02*
X2351Y46D01*
X0Y45D02*
X7Y45D01*
X2344Y45D02*
X2351Y45D01*
X0Y44D02*
X7Y44D01*
X2344Y44D02*
X2351Y44D01*
X0Y43D02*
X7Y43D01*
X2344Y43D02*
X2351Y43D01*
X0Y42D02*
X7Y42D01*
X2344Y42D02*
X2351Y42D01*
X0Y41D02*
X7Y41D01*
X2344Y41D02*
X2351Y41D01*
X0Y40D02*
X7Y40D01*
X2344Y40D02*
X2351Y40D01*
X0Y39D02*
X7Y39D01*
X2344Y39D02*
X2351Y39D01*
X0Y38D02*
X7Y38D01*
X2344Y38D02*
X2351Y38D01*
X0Y37D02*
X7Y37D01*
X2344Y37D02*
X2351Y37D01*
X0Y36D02*
X7Y36D01*
X2344Y36D02*
X2351Y36D01*
X0Y35D02*
X7Y35D01*
X2344Y35D02*
X2351Y35D01*
X0Y34D02*
X7Y34D01*
X2344Y34D02*
X2351Y34D01*
X0Y33D02*
X7Y33D01*
X2344Y33D02*
X2351Y33D01*
X0Y32D02*
X7Y32D01*
X2344Y32D02*
X2351Y32D01*
X0Y31D02*
X7Y31D01*
X2344Y31D02*
X2351Y31D01*
X0Y30D02*
X7Y30D01*
X2344Y30D02*
X2351Y30D01*
X0Y29D02*
X7Y29D01*
X2344Y29D02*
X2351Y29D01*
X0Y28D02*
X7Y28D01*
X2344Y28D02*
X2351Y28D01*
X0Y27D02*
X7Y27D01*
X2344Y27D02*
X2351Y27D01*
X0Y26D02*
X7Y26D01*
X2344Y26D02*
X2351Y26D01*
X0Y25D02*
X7Y25D01*
X2344Y25D02*
X2351Y25D01*
X0Y24D02*
X7Y24D01*
X2344Y24D02*
X2351Y24D01*
X0Y23D02*
X7Y23D01*
X2344Y23D02*
X2351Y23D01*
X0Y22D02*
X7Y22D01*
X2344Y22D02*
X2351Y22D01*
X0Y21D02*
X7Y21D01*
X2344Y21D02*
X2351Y21D01*
X0Y20D02*
X7Y20D01*
X2344Y20D02*
X2351Y20D01*
X0Y19D02*
X7Y19D01*
X2344Y19D02*
X2351Y19D01*
X0Y18D02*
X7Y18D01*
X2344Y18D02*
X2351Y18D01*
X0Y17D02*
X7Y17D01*
X2344Y17D02*
X2351Y17D01*
X0Y16D02*
X7Y16D01*
X2344Y16D02*
X2351Y16D01*
X0Y15D02*
X7Y15D01*
X2344Y15D02*
X2351Y15D01*
X0Y14D02*
X7Y14D01*
X2344Y14D02*
X2351Y14D01*
X0Y13D02*
X7Y13D01*
X2344Y13D02*
X2351Y13D01*
X0Y12D02*
X7Y12D01*
X2344Y12D02*
X2351Y12D01*
X0Y11D02*
X7Y11D01*
X2344Y11D02*
X2351Y11D01*
X0Y10D02*
X7Y10D01*
X2344Y10D02*
X2351Y10D01*
X0Y9D02*
X2351Y9D01*
X0Y8D02*
X2351Y8D01*
X0Y7D02*
X2351Y7D01*
X0Y6D02*
X2351Y6D01*
X0Y5D02*
X2351Y5D01*
X0Y4D02*
X2351Y4D01*
X0Y3D02*
X2351Y3D01*
X0Y2D02*
X2351Y2D01*
D02*
G04 End of Silk1*
M02*