G04 MADE WITH FRITZING*
G04 WWW.FRITZING.ORG*
G04 DOUBLE SIDED*
G04 HOLES PLATED*
G04 CONTOUR ON CENTER OF CONTOUR VECTOR*
%ASAXBY*%
%FSLAX23Y23*%
%MOIN*%
%OFA0B0*%
%SFA1.0B1.0*%
%ADD10C,0.039370*%
%ADD11C,0.075000*%
%ADD12C,0.082000*%
%ADD13C,0.070925*%
%ADD14C,0.070866*%
%ADD15C,0.070000*%
%ADD16C,0.080000*%
%ADD17C,0.075433*%
%ADD18C,0.078000*%
%ADD19R,0.075000X0.075000*%
%ADD20R,0.082000X0.082000*%
%ADD21R,0.080000X0.080000*%
%ADD22C,0.024000*%
%ADD23C,0.032000*%
%ADD24C,0.048000*%
%LNCOPPER1*%
G90*
G70*
G54D10*
X1529Y891D03*
G54D11*
X342Y257D03*
X142Y257D03*
X592Y257D03*
X792Y257D03*
X1005Y237D03*
X1261Y237D03*
X1005Y59D03*
X1261Y59D03*
G54D12*
X585Y995D03*
X585Y697D03*
X585Y995D03*
X585Y697D03*
X342Y607D03*
X342Y707D03*
X342Y807D03*
G54D11*
X705Y1165D03*
X705Y765D03*
G54D13*
X2075Y361D03*
G54D14*
X1882Y360D03*
G54D15*
X2277Y359D03*
X2277Y159D03*
X823Y567D03*
X723Y567D03*
X1726Y60D03*
X1726Y260D03*
G54D16*
X193Y1260D03*
X193Y1060D03*
G54D17*
X357Y1061D03*
X1626Y647D03*
X1030Y473D03*
X1532Y1180D03*
X1118Y960D03*
G54D11*
X929Y773D03*
X929Y1073D03*
X1029Y773D03*
X1029Y1073D03*
X1129Y773D03*
X1129Y1073D03*
X1229Y773D03*
X1229Y1073D03*
X1329Y773D03*
X1329Y1073D03*
X1429Y773D03*
X1429Y1073D03*
X1529Y773D03*
X1529Y1073D03*
X1629Y773D03*
X1629Y1073D03*
X1729Y773D03*
X1729Y1073D03*
X1829Y773D03*
X1829Y1073D03*
X1929Y773D03*
X1929Y1073D03*
X2029Y773D03*
X2029Y1073D03*
X2129Y773D03*
X2129Y1073D03*
X2229Y773D03*
X2229Y1073D03*
G54D18*
X1093Y354D03*
X1193Y354D03*
X1293Y354D03*
X1393Y354D03*
X1493Y354D03*
X1593Y354D03*
X929Y1270D03*
X1029Y1270D03*
X1129Y1270D03*
X1229Y1270D03*
X1329Y1270D03*
X1429Y1270D03*
X1827Y1276D03*
X1927Y1276D03*
X2027Y1276D03*
X2127Y1276D03*
X2227Y1276D03*
X1928Y559D03*
X2028Y559D03*
X2128Y559D03*
X2228Y559D03*
X929Y565D03*
X1029Y565D03*
X1129Y565D03*
X1229Y565D03*
X1329Y565D03*
X1429Y565D03*
G54D17*
X73Y521D03*
X707Y824D03*
G54D19*
X342Y257D03*
X592Y257D03*
G54D20*
X585Y996D03*
X585Y996D03*
X342Y607D03*
G54D21*
X193Y1260D03*
G54D19*
X929Y773D03*
G54D22*
X706Y888D02*
X1510Y891D01*
D02*
X706Y888D02*
X706Y853D01*
G54D23*
D02*
X73Y887D02*
X457Y888D01*
G54D22*
D02*
X457Y888D02*
X706Y888D01*
G54D23*
D02*
X73Y556D02*
X73Y887D01*
G54D24*
D02*
X2314Y1182D02*
X1572Y1180D01*
D02*
X2314Y652D02*
X2314Y1182D01*
D02*
X1666Y648D02*
X2314Y652D01*
G54D22*
D02*
X805Y1062D02*
X805Y959D01*
D02*
X386Y1061D02*
X805Y1062D01*
D02*
X805Y959D02*
X1089Y960D01*
D02*
X1298Y474D02*
X1294Y384D01*
D02*
X1059Y473D02*
X1298Y474D01*
D02*
X706Y795D02*
X706Y794D01*
G04 End of Copper1*
M02*