<?xml version='1.0' encoding='UTF-8' standalone='no'?>
<!-- Created with Fritzing (http://www.fritzing.org/) -->
<svg xmlns="http://www.w3.org/2000/svg" xmlns:svg="http://www.w3.org/2000/svg" version="1.2" x="0in" y="0in" width="3.33333in" height="2.22222in" viewBox="0 0 240 160"  baseProfile="tiny">
 <g partID="57330">
  <g id="board" >
   <rect fill="none" stroke="black" id="boardoutline" x="0.288" width="239.424" height="159.424" y="0.288" stroke-width="0.5"  fill-opacity="0.5"/>
  </g>
 </g>
 <g partID="855179991">
  <g transform="translate(26.9843,5.07087)">
   <g id="copper1">
    <g id="copper0">
     <circle fill="black" stroke="black" id="connector1pad" cx="151.384" cy="144" stroke-width="1.72" r="1.88"/>
     <circle fill="black" stroke="black" id="connector2pad" cx="158.583" cy="144" stroke-width="1.72" r="1.88"/>
     <circle fill="black" stroke="black" id="connector3pad" cx="165.786" cy="144" stroke-width="1.72" r="1.88"/>
     <circle fill="black" stroke="black" id="connector4pad" cx="172.985" cy="144" stroke-width="1.72" r="1.88"/>
     <circle fill="black" stroke="black" id="connector5pad" cx="180.185" cy="144" stroke-width="1.72" r="1.88"/>
     <circle fill="black" stroke="black" id="connector51pad" cx="118.263" cy="7.2" stroke-width="1.72" r="1.88"/>
     <circle fill="black" stroke="black" id="connector52pad" cx="111.065" cy="7.2" stroke-width="1.72" r="1.88"/>
     <circle fill="black" stroke="black" id="connector53pad" cx="103.864" cy="7.2" stroke-width="1.72" r="1.88"/>
     <circle fill="black" stroke="black" id="connector54pad" cx="96.664" cy="7.2" stroke-width="1.72" r="1.88"/>
     <circle fill="black" stroke="black" id="connector55pad" cx="89.464" cy="7.2" stroke-width="1.72" r="1.88"/>
     <circle fill="black" stroke="black" id="connector56pad" cx="82.264" cy="7.2" stroke-width="1.72" r="1.88"/>
     <circle fill="black" stroke="black" id="connector57pad" cx="75.064" cy="7.2" stroke-width="1.72" r="1.88"/>
     <circle fill="black" stroke="black" id="connector58pad" cx="67.865" cy="7.2" stroke-width="1.72" r="1.88"/>
     <circle fill="black" stroke="black" id="connector59pad" cx="60.664" cy="7.2" stroke-width="1.72" r="1.88"/>
     <circle fill="black" stroke="black" id="connector60pad" cx="53.463" cy="7.2" stroke-width="1.72" r="1.88"/>
     <circle fill="black" stroke="black" id="connector61pad" cx="180.185" cy="7.2" stroke-width="1.72" r="1.88"/>
     <circle fill="black" stroke="black" id="connector62pad" cx="172.985" cy="7.2" stroke-width="1.72" r="1.88"/>
     <circle fill="black" stroke="black" id="connector63pad" cx="165.786" cy="7.2" stroke-width="1.72" r="1.88"/>
     <circle fill="black" stroke="black" id="connector64pad" cx="158.583" cy="7.2" stroke-width="1.72" r="1.881"/>
     <circle fill="black" stroke="black" id="connector65pad" cx="151.384" cy="7.2" stroke-width="1.72" r="1.88"/>
     <circle fill="black" stroke="black" id="connector66pad" cx="144.185" cy="7.2" stroke-width="1.72" r="1.88"/>
     <circle fill="black" stroke="black" id="connector67pad" cx="136.985" cy="7.2" stroke-width="1.72" r="1.88"/>
     <circle fill="black" stroke="black" id="connector68pad" cx="129.784" cy="7.2" stroke-width="1.72" r="1.88"/>
     <circle fill="black" stroke="black" id="connector84pad" cx="86.584" cy="144" stroke-width="1.72" r="1.88"/>
     <circle fill="black" stroke="black" id="connector91pin" cx="79.384" cy="144" stroke-width="1.72" r="1.879"/>
     <circle fill="black" stroke="black" id="connector85pad" cx="93.784" cy="144" stroke-width="1.72" r="1.879"/>
     <circle fill="black" stroke="black" id="connector86pad" cx="100.985" cy="144" stroke-width="1.72" r="1.88"/>
     <circle fill="black" stroke="black" id="connector87pad" cx="108.185" cy="144" stroke-width="1.72" r="1.88"/>
     <circle fill="black" stroke="black" id="connector88pad" cx="115.384" cy="144" stroke-width="1.72" r="1.88"/>
     <circle fill="black" stroke="black" id="connector89pad" cx="122.583" cy="144" stroke-width="1.72" r="1.88"/>
     <circle fill="black" stroke="black" id="connector90pad" cx="129.784" cy="144" stroke-width="1.72" r="1.88"/>
     <circle fill="black" stroke="black" id="connector0pad" cx="144.185" cy="144" stroke-width="1.72" r="1.88"/>
     <g transform="matrix(1, 0, 0, 1, 127.323, 47.0441)">
      <g>
       <g>
        <circle fill="black" stroke="black" id="connector40pad" cx="59.969" cy="17.564" stroke-width="1.72" r="1.88"/>
       </g>
      </g>
     </g>
     <g transform="matrix(1, 0, 0, 1, 127.323, 47.0441)">
      <g>
       <g>
        <circle fill="black" stroke="black" id="connector39pad" cx="52.768" cy="17.564" stroke-width="1.72" r="1.881"/>
       </g>
      </g>
     </g>
     <g transform="matrix(1, 0, 0, 1, 127.323, 54.1882)">
      <g>
       <g>
        <circle fill="black" stroke="black" id="connector42pad" cx="59.969" cy="17.564" stroke-width="1.72" r="1.88"/>
       </g>
      </g>
     </g>
     <g transform="matrix(1, 0, 0, 1, 127.323, 54.1882)">
      <g>
       <g>
        <circle fill="black" stroke="black" id="connector41pad" cx="52.768" cy="17.564" stroke-width="1.72" r="1.881"/>
       </g>
      </g>
     </g>
     <g transform="matrix(1, 0, 0, 1, 127.323, 61.3323)">
      <g>
       <g>
        <circle fill="black" stroke="black" id="connector44pad" cx="59.969" cy="17.564" stroke-width="1.72" r="1.881"/>
       </g>
      </g>
     </g>
     <g transform="matrix(1, 0, 0, 1, 127.323, 61.3323)">
      <g>
       <g>
        <circle fill="black" stroke="black" id="connector43pad" cx="52.768" cy="17.564" stroke-width="1.72" r="1.881"/>
       </g>
      </g>
     </g>
     <g transform="matrix(1, 0, 0, 1, -0.0523213, 11.1534)">
      <g>
       <g>
        <circle fill="black" stroke="black" id="connector47pad" cx="52.806" cy="6.353" stroke-width="1.72" r="1.88"/>
       </g>
      </g>
     </g>
     <g transform="matrix(1, 0, 0, 1, -0.0523213, 18.2975)">
      <g>
       <g>
        <circle fill="black" stroke="black" id="connector48pad" cx="52.806" cy="6.352" stroke-width="1.72" r="1.88"/>
       </g>
      </g>
     </g>
     <g transform="matrix(1, 0, 0, 1, 7.432, 11.1534)">
      <g>
       <g>
        <circle fill="black" stroke="black" id="connector45pad" cx="52.806" cy="6.353" stroke-width="1.72" r="1.88"/>
       </g>
      </g>
     </g>
     <g transform="matrix(1, 0, 0, 1, 7.432, 18.2975)">
      <g>
       <g>
        <circle fill="black" stroke="black" id="connector46pad" cx="52.806" cy="6.352" stroke-width="1.72" r="1.88"/>
       </g>
      </g>
     </g>
     <g transform="matrix(1, 0, 0, 1, -7.53664, 11.1534)">
      <g>
       <g>
        <circle fill="black" stroke="black" id="connector49pad" cx="52.806" cy="6.353" stroke-width="1.72" r="1.88"/>
       </g>
      </g>
     </g>
     <g transform="matrix(1, 0, 0, 1, -7.53664, 18.2975)">
      <g>
       <g>
        <circle fill="black" stroke="black" id="connector50pad" cx="52.806" cy="6.352" stroke-width="1.72" r="1.88"/>
       </g>
      </g>
     </g>
    </g>
   </g>
  </g>
 </g>
</svg>
