G04 MADE WITH FRITZING*
G04 WWW.FRITZING.ORG*
G04 DOUBLE SIDED*
G04 HOLES PLATED*
G04 CONTOUR ON CENTER OF CONTOUR VECTOR*
%ASAXBY*%
%FSLAX23Y23*%
%MOIN*%
%OFA0B0*%
%SFA1.0B1.0*%
%ADD10C,0.075433*%
%ADD11C,0.082000*%
%ADD12C,0.062992*%
%ADD13C,0.071181*%
%ADD14C,0.080000*%
%ADD15C,0.074000*%
%ADD16C,0.065000*%
%ADD17C,0.099000*%
%ADD18C,0.075000*%
%ADD19C,0.062500*%
%ADD20C,0.065555*%
%ADD21C,0.066695*%
%ADD22C,0.048611*%
%ADD23C,0.051667*%
%ADD24C,0.052806*%
%ADD25R,0.082000X0.082000*%
%ADD26R,0.062992X0.062992*%
%ADD27R,0.080000X0.080000*%
%ADD28R,0.074000X0.074000*%
%ADD29R,0.099000X0.099000*%
%ADD30R,0.075000X0.075000*%
%ADD31C,0.032000*%
%ADD32C,0.024000*%
%LNCOPPER0*%
G90*
G70*
G54D10*
X989Y3926D03*
G54D11*
X4745Y658D03*
X4745Y558D03*
X4745Y458D03*
X4745Y658D03*
X4745Y558D03*
X4745Y458D03*
X3595Y304D03*
X3495Y304D03*
X3395Y304D03*
X3595Y304D03*
X3495Y304D03*
X3395Y304D03*
X2119Y313D03*
X2019Y313D03*
X1919Y313D03*
X2119Y313D03*
X2019Y313D03*
X1919Y313D03*
X4750Y2163D03*
X4750Y2063D03*
X4750Y1963D03*
X4750Y2163D03*
X4750Y2063D03*
X4750Y1963D03*
X655Y1509D03*
X655Y1609D03*
X655Y1709D03*
X655Y1509D03*
X655Y1609D03*
X655Y1709D03*
X635Y315D03*
X535Y315D03*
X435Y315D03*
X635Y315D03*
X535Y315D03*
X435Y315D03*
X3769Y1978D03*
X3769Y1878D03*
X3769Y1778D03*
X3769Y1978D03*
X3769Y1878D03*
X3769Y1778D03*
G54D12*
X263Y4711D03*
X263Y4810D03*
X263Y4711D03*
X263Y4810D03*
G54D13*
X3080Y3775D03*
X3080Y4375D03*
X3380Y4375D03*
X3380Y3675D03*
X3380Y3975D03*
X3080Y3775D03*
X3080Y4375D03*
X3380Y4375D03*
X3380Y3675D03*
X3380Y3975D03*
X3080Y3775D03*
X3080Y4375D03*
X3380Y4375D03*
X3380Y3675D03*
X3380Y3975D03*
X3547Y3773D03*
X3547Y4373D03*
X3847Y4373D03*
X3847Y3673D03*
X3847Y3973D03*
X3547Y3773D03*
X3547Y4373D03*
X3847Y4373D03*
X3847Y3673D03*
X3847Y3973D03*
X3547Y3773D03*
X3547Y4373D03*
X3847Y4373D03*
X3847Y3673D03*
X3847Y3973D03*
G54D14*
X3107Y4808D03*
X3307Y4808D03*
X3107Y4808D03*
X3307Y4808D03*
X4670Y4808D03*
X4870Y4808D03*
X4670Y4808D03*
X4870Y4808D03*
X4198Y4804D03*
X4398Y4804D03*
X4198Y4804D03*
X4398Y4804D03*
X3654Y4804D03*
X3854Y4804D03*
X3654Y4804D03*
X3854Y4804D03*
G54D11*
X4717Y3682D03*
X4717Y3582D03*
X4717Y3482D03*
X4717Y3682D03*
X4717Y3582D03*
X4717Y3482D03*
G54D15*
X1824Y4318D03*
X1824Y4218D03*
X1824Y4118D03*
X1824Y4018D03*
X1824Y3918D03*
X1924Y4318D03*
X1924Y4218D03*
X1924Y4118D03*
X1924Y4018D03*
X1924Y3918D03*
X1824Y4318D03*
X1824Y4218D03*
X1824Y4118D03*
X1824Y4018D03*
X1824Y3918D03*
X1924Y4318D03*
X1924Y4218D03*
X1924Y4118D03*
X1924Y4018D03*
X1924Y3918D03*
X1825Y3524D03*
X1825Y3424D03*
X1825Y3324D03*
X1825Y3224D03*
X1825Y3124D03*
X1925Y3524D03*
X1925Y3424D03*
X1925Y3324D03*
X1925Y3224D03*
X1925Y3124D03*
X1825Y3524D03*
X1825Y3424D03*
X1825Y3324D03*
X1825Y3224D03*
X1825Y3124D03*
X1925Y3524D03*
X1925Y3424D03*
X1925Y3324D03*
X1925Y3224D03*
X1925Y3124D03*
X1863Y2439D03*
X1863Y2339D03*
X1863Y2239D03*
X1863Y2139D03*
X1863Y2039D03*
X1963Y2439D03*
X1963Y2339D03*
X1963Y2239D03*
X1963Y2139D03*
X1963Y2039D03*
X1863Y2439D03*
X1863Y2339D03*
X1863Y2239D03*
X1863Y2139D03*
X1863Y2039D03*
X1963Y2439D03*
X1963Y2339D03*
X1963Y2239D03*
X1963Y2139D03*
X1963Y2039D03*
G54D11*
X660Y4184D03*
X360Y4184D03*
X660Y4184D03*
X360Y4184D03*
X649Y3513D03*
X349Y3513D03*
X649Y3513D03*
X349Y3513D03*
X647Y2892D03*
X347Y2892D03*
X647Y2892D03*
X347Y2892D03*
G54D16*
X4052Y3241D03*
X4249Y3241D03*
X4052Y3241D03*
X4249Y3241D03*
X4052Y3241D03*
X4249Y3241D03*
G54D17*
X4300Y2770D03*
X4300Y2970D03*
X4100Y2870D03*
X4300Y2770D03*
X4300Y2970D03*
X4100Y2870D03*
G54D18*
X4064Y3352D03*
X4064Y3752D03*
X4064Y3352D03*
X4064Y3752D03*
G54D10*
X4406Y556D03*
X2362Y3837D03*
X2769Y1068D03*
X3017Y552D03*
X2745Y2824D03*
X3170Y1997D03*
X1543Y508D03*
X355Y765D03*
X694Y1163D03*
X1151Y1544D03*
X454Y1206D03*
X2182Y1666D03*
X2170Y3470D03*
X326Y2400D03*
X620Y636D03*
X955Y634D03*
X2355Y2997D03*
X2572Y3391D03*
X3737Y4517D03*
X1489Y4226D03*
X1614Y3061D03*
X1280Y3202D03*
X1618Y3339D03*
X1554Y1150D03*
X1224Y1148D03*
X1595Y1552D03*
X2469Y3206D03*
X2481Y2733D03*
G54D19*
X2889Y1511D03*
X2889Y3111D03*
X2889Y1411D03*
X2889Y1311D03*
X2889Y1211D03*
X2889Y1111D03*
X1489Y811D03*
X2889Y1011D03*
X2889Y911D03*
X989Y3071D03*
X2889Y2511D03*
X2889Y2411D03*
X2889Y2311D03*
X2889Y2211D03*
X2289Y811D03*
X2889Y2111D03*
X2889Y2011D03*
X2889Y1911D03*
X2889Y1811D03*
X989Y2311D03*
X1089Y811D03*
X1889Y811D03*
X2689Y811D03*
X989Y3471D03*
X2889Y2711D03*
X989Y2711D03*
X1289Y811D03*
X1689Y811D03*
G54D20*
X2089Y811D03*
G54D21*
X989Y1111D03*
G54D19*
X2489Y811D03*
G54D21*
X989Y1211D03*
X989Y1311D03*
G54D19*
X989Y1411D03*
X989Y1511D03*
X989Y1611D03*
X989Y1711D03*
X989Y1811D03*
X989Y3671D03*
X989Y3271D03*
X989Y2871D03*
X2889Y3311D03*
X2889Y2911D03*
X989Y2111D03*
X989Y2511D03*
X989Y811D03*
X1189Y811D03*
X1389Y811D03*
X1589Y811D03*
X1789Y811D03*
X1989Y811D03*
X2189Y811D03*
X2389Y811D03*
G54D20*
X2589Y811D03*
G54D19*
X989Y3771D03*
X989Y3571D03*
X989Y3371D03*
X989Y3171D03*
X989Y2971D03*
X2889Y3411D03*
X2889Y3211D03*
X2889Y3011D03*
X2889Y2811D03*
X989Y2011D03*
X989Y2211D03*
X989Y2411D03*
X989Y2611D03*
X989Y711D03*
X1089Y711D03*
X1189Y711D03*
X1289Y711D03*
X1389Y711D03*
X1489Y711D03*
X1589Y711D03*
X1689Y711D03*
X1789Y711D03*
X1889Y711D03*
X1989Y711D03*
G54D20*
X2089Y711D03*
G54D19*
X2189Y711D03*
X2289Y711D03*
X2389Y711D03*
X2489Y711D03*
G54D20*
X2589Y711D03*
G54D19*
X2689Y711D03*
X2889Y1611D03*
G54D22*
X2889Y1511D03*
X2889Y3111D03*
X2889Y1411D03*
X2889Y1311D03*
X2889Y1211D03*
X2889Y1111D03*
X1489Y811D03*
X2889Y1011D03*
X2889Y911D03*
X989Y3071D03*
X2889Y2511D03*
X2889Y2411D03*
X2889Y2311D03*
X2889Y2211D03*
X2289Y811D03*
X2889Y2111D03*
X2889Y2011D03*
X2889Y1911D03*
X2889Y1811D03*
X989Y2311D03*
X1089Y811D03*
X1889Y811D03*
X2689Y811D03*
X989Y3471D03*
X2889Y2711D03*
X989Y2711D03*
X1289Y811D03*
X1689Y811D03*
G54D23*
X2089Y811D03*
G54D24*
X989Y1111D03*
G54D22*
X2489Y811D03*
G54D24*
X989Y1211D03*
X989Y1311D03*
G54D22*
X989Y1411D03*
X989Y1511D03*
X989Y1611D03*
X989Y1711D03*
X989Y1811D03*
X989Y3671D03*
X989Y3271D03*
X989Y2871D03*
X2889Y3311D03*
X2889Y2911D03*
X989Y2111D03*
X989Y2511D03*
X989Y811D03*
X1189Y811D03*
X1389Y811D03*
X1589Y811D03*
X1789Y811D03*
X1989Y811D03*
X2189Y811D03*
X2389Y811D03*
G54D23*
X2589Y811D03*
G54D22*
X989Y3771D03*
X989Y3571D03*
X989Y3371D03*
X989Y3171D03*
X989Y2971D03*
X2889Y3411D03*
X2889Y3211D03*
X2889Y3011D03*
X2889Y2811D03*
X989Y2011D03*
X989Y2211D03*
X989Y2411D03*
X989Y2611D03*
X989Y711D03*
X1089Y711D03*
X1189Y711D03*
X1289Y711D03*
X1389Y711D03*
X1489Y711D03*
X1589Y711D03*
X1689Y711D03*
X1789Y711D03*
X1889Y711D03*
X1989Y711D03*
G54D23*
X2089Y711D03*
G54D22*
X2189Y711D03*
X2289Y711D03*
X2389Y711D03*
X2489Y711D03*
G54D23*
X2589Y711D03*
G54D22*
X2689Y711D03*
X2889Y1611D03*
G54D10*
X3533Y2195D03*
X3528Y2375D03*
X3391Y1619D03*
X2402Y1229D03*
X2402Y978D03*
X3395Y710D03*
X3564Y3040D03*
X3288Y3040D03*
X2280Y1540D03*
G54D15*
X1855Y1552D03*
X1855Y1452D03*
X1855Y1352D03*
X1855Y1252D03*
X1855Y1152D03*
X1955Y1552D03*
X1955Y1452D03*
X1955Y1352D03*
X1955Y1252D03*
X1955Y1152D03*
X1855Y1552D03*
X1855Y1452D03*
X1855Y1352D03*
X1855Y1252D03*
X1855Y1152D03*
X1955Y1552D03*
X1955Y1452D03*
X1955Y1352D03*
X1955Y1252D03*
X1955Y1152D03*
G54D10*
X2847Y4375D03*
X4875Y4946D03*
X4025Y4627D03*
X4855Y2454D03*
X1698Y2139D03*
X2154Y1454D03*
X1702Y3222D03*
X2068Y3525D03*
X1158Y2974D03*
X824Y3470D03*
X2115Y470D03*
X1119Y2450D03*
X1166Y2218D03*
X839Y2509D03*
X725Y2611D03*
X347Y3844D03*
X355Y4513D03*
X2221Y4115D03*
X2237Y4222D03*
X1662Y4222D03*
X3052Y3013D03*
X4745Y1623D03*
X4280Y2060D03*
X3769Y1529D03*
X3564Y1875D03*
X3564Y2001D03*
X2879Y706D03*
X2690Y206D03*
X434Y111D03*
X1292Y954D03*
X1186Y954D03*
X847Y895D03*
X2166Y1312D03*
X4745Y281D03*
X1489Y958D03*
X1678Y312D03*
X3441Y4863D03*
X3875Y300D03*
X3658Y4198D03*
X2962Y4485D03*
X3548Y3930D03*
G54D18*
X4127Y4080D03*
X4327Y4080D03*
G54D10*
X4115Y4328D03*
X3930Y3057D03*
X4190Y4611D03*
X4867Y3485D03*
X3170Y3631D03*
X3548Y3218D03*
X3820Y3222D03*
X2702Y3206D03*
X2698Y3568D03*
G54D25*
X4745Y658D03*
X4745Y658D03*
X3595Y304D03*
X3595Y304D03*
X2119Y313D03*
X2119Y313D03*
X4750Y2163D03*
X4750Y2163D03*
X655Y1509D03*
X655Y1509D03*
X635Y315D03*
X635Y315D03*
X3769Y1978D03*
X3769Y1978D03*
G54D26*
X263Y4711D03*
X263Y4711D03*
G54D27*
X3107Y4808D03*
X3107Y4808D03*
X4670Y4808D03*
X4670Y4808D03*
X4198Y4804D03*
X4198Y4804D03*
X3654Y4804D03*
X3654Y4804D03*
G54D25*
X4717Y3682D03*
X4717Y3682D03*
G54D28*
X1924Y4318D03*
X1924Y4318D03*
X1925Y3524D03*
X1925Y3524D03*
X1963Y2439D03*
X1963Y2439D03*
G54D25*
X660Y4184D03*
X660Y4184D03*
X649Y3513D03*
X649Y3513D03*
X647Y2892D03*
X647Y2892D03*
G54D29*
X4300Y2970D03*
X4300Y2970D03*
G54D28*
X1955Y1552D03*
X1955Y1552D03*
G54D30*
X4127Y4080D03*
G54D31*
X3307Y4845D02*
X3307Y4898D01*
D02*
X264Y4889D02*
X263Y4842D01*
D02*
X3307Y4898D02*
X264Y4889D01*
D02*
X3017Y1750D02*
X3225Y1845D01*
D02*
X2650Y1742D02*
X3017Y1750D01*
D02*
X2648Y1898D02*
X2650Y1742D01*
D02*
X656Y1747D02*
X663Y1876D01*
D02*
X663Y1876D02*
X2648Y1898D01*
D02*
X3225Y1845D02*
X3437Y2273D01*
D02*
X3930Y3092D02*
X3937Y4067D01*
D02*
X3937Y4067D02*
X4096Y4300D01*
D02*
X3930Y3023D02*
X3942Y2278D01*
D02*
X3379Y4333D02*
X3378Y4167D01*
D02*
X1523Y959D02*
X2368Y977D01*
D02*
X3625Y1450D02*
X4188Y1461D01*
D02*
X3098Y1550D02*
X3625Y1450D01*
D02*
X2798Y1556D02*
X3098Y1550D01*
D02*
X4188Y1461D02*
X4181Y2159D01*
D02*
X587Y892D02*
X813Y894D01*
D02*
X175Y1761D02*
X170Y1298D01*
D02*
X170Y4713D02*
X175Y1761D01*
D02*
X230Y4712D02*
X170Y4713D01*
D02*
X1340Y1765D02*
X2520Y1770D01*
D02*
X3437Y2678D02*
X3429Y3273D01*
D02*
X3518Y2408D02*
X3437Y2678D01*
D02*
X1348Y1280D02*
X1340Y1765D01*
D02*
X1298Y988D02*
X1348Y1280D01*
D02*
X3048Y3678D02*
X3052Y3047D01*
D02*
X2153Y3811D02*
X2375Y3673D01*
D02*
X2098Y4017D02*
X2153Y3811D01*
D02*
X1960Y4018D02*
X2098Y4017D01*
G54D32*
D02*
X1824Y4018D02*
X1893Y4018D01*
G54D31*
D02*
X3592Y1624D02*
X3740Y1753D01*
D02*
X3425Y1620D02*
X3592Y1624D01*
D02*
X2913Y706D02*
X3360Y710D01*
D02*
X647Y2930D02*
X649Y3476D01*
D02*
X4441Y556D02*
X4707Y558D01*
D02*
X617Y1509D02*
X414Y1506D01*
D02*
X414Y1506D02*
X403Y2328D01*
D02*
X403Y2328D02*
X700Y2506D01*
D02*
X700Y2506D02*
X805Y2508D01*
D02*
X3242Y3978D02*
X3245Y4442D01*
D02*
X3245Y4442D02*
X4670Y4450D01*
D02*
X1592Y4117D02*
X1581Y4400D01*
D02*
X1581Y4400D02*
X2363Y4410D01*
D02*
X1787Y4118D02*
X1592Y4117D01*
D02*
X2363Y4410D02*
X2362Y3871D01*
D02*
X2982Y552D02*
X2017Y553D01*
D02*
X2017Y553D02*
X2018Y351D01*
D02*
X454Y1171D02*
X462Y539D01*
D02*
X462Y539D02*
X818Y535D01*
D02*
X818Y535D02*
X825Y195D01*
D02*
X825Y195D02*
X537Y191D01*
D02*
X537Y191D02*
X535Y277D01*
D02*
X1858Y3307D02*
X1914Y3276D01*
D02*
X1914Y3276D02*
X1992Y3276D01*
D02*
X1992Y3276D02*
X2174Y3280D01*
D02*
X2174Y3280D02*
X2171Y3435D01*
D02*
X695Y2595D02*
X356Y2416D01*
D02*
X654Y636D02*
X920Y635D01*
D02*
X1718Y3417D02*
X1722Y3684D01*
D02*
X1717Y3920D02*
X1887Y3918D01*
D02*
X1722Y3684D02*
X1717Y3920D01*
D02*
X1789Y3422D02*
X1718Y3417D01*
D02*
X2355Y3506D02*
X2142Y3689D01*
D02*
X2355Y3032D02*
X2355Y3506D01*
D02*
X1723Y3686D02*
X1723Y3420D01*
D02*
X1723Y3420D02*
X1789Y3423D01*
D02*
X2142Y3689D02*
X1723Y3686D01*
D02*
X659Y4146D02*
X650Y3551D01*
D02*
X292Y4796D02*
X412Y4739D01*
D02*
X412Y4739D02*
X644Y4219D01*
D02*
X3772Y4517D02*
X4406Y4514D01*
D02*
X4406Y4514D02*
X4399Y4768D01*
D02*
X1544Y143D02*
X1543Y474D01*
D02*
X1889Y64D02*
X1544Y143D01*
D02*
X3317Y67D02*
X1889Y64D01*
D02*
X4881Y65D02*
X3317Y67D01*
D02*
X4783Y658D02*
X4881Y658D01*
D02*
X4881Y658D02*
X4881Y65D01*
D02*
X356Y731D02*
X359Y443D01*
D02*
X1153Y965D02*
X1092Y986D01*
D02*
X695Y978D02*
X694Y1128D01*
D02*
X1092Y986D02*
X695Y978D01*
D02*
X633Y443D02*
X634Y353D01*
D02*
X359Y443D02*
X633Y443D01*
G54D32*
D02*
X680Y3506D02*
X796Y3477D01*
G54D31*
D02*
X1725Y2789D02*
X1459Y2223D01*
D02*
X1459Y2223D02*
X1201Y2218D01*
D02*
X1737Y3123D02*
X1725Y2789D01*
D02*
X1789Y3124D02*
X1737Y3123D01*
D02*
X1190Y2988D02*
X1388Y3076D01*
D02*
X1388Y3076D02*
X1407Y4669D01*
D02*
X1407Y4669D02*
X2463Y4661D01*
D02*
X2463Y4661D02*
X2463Y3769D01*
D02*
X2463Y3769D02*
X3037Y3775D01*
D02*
X1514Y3110D02*
X1490Y4191D01*
D02*
X1137Y2479D02*
X1514Y3110D01*
D02*
X1282Y3236D02*
X1309Y3925D01*
D02*
X1309Y3925D02*
X1023Y3926D01*
D02*
X4670Y4450D02*
X4670Y4772D01*
D02*
X3378Y4167D02*
X3455Y4076D01*
D02*
X2746Y2790D02*
X2751Y2606D01*
D02*
X2751Y2606D02*
X3170Y2611D01*
D02*
X3170Y2611D02*
X3170Y2032D01*
D02*
X1615Y3096D02*
X1618Y3305D01*
D02*
X588Y1310D02*
X587Y892D01*
D02*
X170Y1298D02*
X588Y1310D01*
D02*
X1588Y1151D02*
X1818Y1152D01*
D02*
X1081Y1047D02*
X1196Y1128D01*
D02*
X814Y1043D02*
X1081Y1047D01*
D02*
X807Y1610D02*
X814Y1043D01*
D02*
X692Y1609D02*
X807Y1610D01*
D02*
X3309Y1764D02*
X3517Y2164D01*
D02*
X3148Y1686D02*
X3309Y1764D01*
D02*
X2520Y1675D02*
X3148Y1686D01*
D02*
X2520Y1770D02*
X2520Y1675D01*
D02*
X1448Y1666D02*
X2148Y1666D01*
D02*
X1448Y1350D02*
X1448Y1666D01*
D02*
X4181Y2159D02*
X4712Y2162D01*
D02*
X3598Y3042D02*
X3895Y3056D01*
D02*
X3285Y3302D02*
X3288Y3075D01*
D02*
X3455Y3510D02*
X3285Y3302D01*
D02*
X3455Y4076D02*
X3455Y3510D01*
D02*
X2375Y3673D02*
X3048Y3678D01*
D02*
X2470Y3171D02*
X2480Y2768D01*
D02*
X4081Y4334D02*
X3888Y4366D01*
D02*
X3437Y2273D02*
X3942Y2278D01*
D02*
X1818Y1552D02*
X1630Y1552D01*
D02*
X1455Y1250D02*
X1452Y1055D01*
D02*
X1452Y1055D02*
X2734Y1068D01*
D02*
X1818Y1352D02*
X1448Y1350D01*
D02*
X1818Y1252D02*
X1455Y1250D01*
D02*
X2429Y1251D02*
X2798Y1556D01*
D02*
X2289Y1148D02*
X2281Y1506D01*
D02*
X1992Y1152D02*
X2289Y1148D01*
D02*
X3533Y4161D02*
X3544Y4331D01*
D02*
X3663Y3935D02*
X3533Y4161D01*
D02*
X3655Y3569D02*
X3663Y3935D01*
D02*
X3429Y3273D02*
X3655Y3569D01*
D02*
X2882Y4375D02*
X3037Y4375D01*
D02*
X4871Y4845D02*
X4874Y4912D01*
D02*
X4025Y4806D02*
X3891Y4805D01*
D02*
X4025Y4661D02*
X4025Y4806D01*
D02*
X3337Y3976D02*
X3242Y3978D01*
D02*
X4855Y2419D02*
X4848Y1106D01*
D02*
X4314Y156D02*
X3487Y161D01*
D02*
X4314Y1106D02*
X4314Y156D01*
D02*
X3487Y161D02*
X3493Y267D01*
D02*
X4848Y1106D02*
X4314Y1106D01*
D02*
X1959Y2442D02*
X2587Y2445D01*
D02*
X1933Y2461D02*
X1959Y2442D01*
G54D32*
D02*
X1963Y2370D02*
X1963Y2408D01*
D02*
X1963Y2270D02*
X1963Y2308D01*
D02*
X1963Y2170D02*
X1963Y2208D01*
D02*
X1963Y2070D02*
X1963Y2108D01*
D02*
X1894Y2039D02*
X1931Y2039D01*
G54D31*
D02*
X1826Y2139D02*
X1732Y2139D01*
D02*
X1944Y1502D02*
X2040Y1495D01*
D02*
X2040Y1495D02*
X2122Y1465D01*
D02*
X1887Y1470D02*
X1944Y1502D01*
D02*
X1789Y3224D02*
X1736Y3222D01*
D02*
X1825Y3610D02*
X2066Y3610D01*
D02*
X1825Y3561D02*
X1825Y3610D01*
D02*
X2066Y3610D02*
X2067Y3559D01*
D02*
X2116Y435D02*
X2118Y351D01*
D02*
X349Y3551D02*
X348Y3809D01*
G54D32*
D02*
X349Y3481D02*
X347Y2924D01*
G54D31*
D02*
X359Y4222D02*
X356Y4479D01*
G54D32*
D02*
X1893Y3918D02*
X1855Y3918D01*
D02*
X1855Y4018D02*
X1893Y4018D01*
G54D31*
D02*
X1960Y4118D02*
X2187Y4116D01*
D02*
X1960Y4218D02*
X2203Y4221D01*
D02*
X4749Y1925D02*
X4745Y1658D01*
D02*
X4315Y2060D02*
X4712Y2062D01*
D02*
X3769Y1563D02*
X3769Y1740D01*
D02*
X3598Y1876D02*
X3731Y1877D01*
D02*
X3598Y1997D02*
X3731Y1982D01*
D02*
X1917Y198D02*
X2655Y205D01*
D02*
X1918Y275D02*
X1917Y198D01*
D02*
X435Y277D02*
X434Y146D01*
D02*
X1991Y1345D02*
X2132Y1319D01*
D02*
X4745Y421D02*
X4745Y315D01*
D02*
X3303Y4623D02*
X3306Y4772D01*
D02*
X3642Y4634D02*
X3303Y4623D01*
D02*
X3652Y4768D02*
X3642Y4634D01*
D02*
X3648Y4667D02*
X3653Y4773D01*
D02*
X3722Y4542D02*
X3648Y4667D01*
D02*
X1787Y4219D02*
X1697Y4221D01*
D02*
X1712Y312D02*
X1881Y313D01*
D02*
X3846Y300D02*
X3592Y300D01*
D02*
X3592Y300D02*
X3575Y279D01*
D02*
X3395Y342D02*
X3395Y675D01*
D02*
X3693Y4198D02*
X3853Y4200D01*
D02*
X3853Y4200D02*
X3848Y4016D01*
D02*
X3071Y4808D02*
X2955Y4806D01*
D02*
X2955Y4806D02*
X2961Y4520D01*
D02*
X3548Y3896D02*
X3547Y3816D01*
D02*
X4475Y3689D02*
X4192Y3750D01*
D02*
X4192Y3750D02*
X4098Y3751D01*
D02*
X4680Y3683D02*
X4475Y3689D01*
D02*
X4275Y3434D02*
X4275Y3578D01*
D02*
X4096Y3364D02*
X4275Y3434D01*
D02*
X4275Y3578D02*
X4680Y3582D01*
D02*
X4117Y4294D02*
X4125Y4114D01*
D02*
X4714Y4089D02*
X4361Y4081D01*
D02*
X4717Y3720D02*
X4714Y4089D01*
D02*
X4720Y3250D02*
X4718Y3445D01*
D02*
X4279Y3242D02*
X4720Y3250D01*
D02*
X2587Y2445D02*
X2572Y3357D01*
D02*
X4742Y3706D02*
X4741Y3704D01*
D02*
X4959Y2623D02*
X4953Y3700D01*
D02*
X4098Y2623D02*
X4959Y2623D01*
D02*
X4100Y2838D02*
X4098Y2623D01*
D02*
X4953Y3700D02*
X4742Y3706D01*
D02*
X4537Y2767D02*
X4531Y3245D01*
D02*
X4531Y3245D02*
X4274Y3242D01*
D02*
X4332Y2769D02*
X4537Y2767D01*
D02*
X4191Y4646D02*
X4196Y4768D01*
D02*
X4750Y3483D02*
X4838Y3485D01*
D02*
X4303Y3067D02*
X4301Y3007D01*
D02*
X3964Y3058D02*
X4303Y3067D01*
D02*
X3964Y3060D02*
X4048Y3067D01*
D02*
X4048Y3067D02*
X4051Y3211D01*
D02*
X3583Y3218D02*
X3785Y3221D01*
D02*
X2701Y3240D02*
X2698Y3534D01*
D02*
X3466Y4886D02*
X3525Y4939D01*
D02*
X3525Y4939D02*
X4187Y4934D01*
D02*
X4187Y4934D02*
X4195Y4841D01*
G04 End of Copper0*
M02*