G04 MADE WITH FRITZING*
G04 WWW.FRITZING.ORG*
G04 DOUBLE SIDED*
G04 HOLES PLATED*
G04 CONTOUR ON CENTER OF CONTOUR VECTOR*
%ASAXBY*%
%FSLAX23Y23*%
%MOIN*%
%OFA0B0*%
%SFA1.0B1.0*%
%ADD10C,0.085433*%
%ADD11C,0.092000*%
%ADD12C,0.072992*%
%ADD13C,0.081181*%
%ADD14C,0.084000*%
%ADD15C,0.109000*%
%ADD16C,0.072500*%
%ADD17C,0.075555*%
%ADD18C,0.076694*%
%ADD19C,0.058611*%
%ADD20C,0.061667*%
%ADD21C,0.062806*%
%ADD22C,0.090000*%
%ADD23C,0.085000*%
%ADD24C,0.075000*%
%ADD25R,0.092000X0.092000*%
%ADD26R,0.072992X0.072992*%
%ADD27R,0.084000X0.084000*%
%ADD28R,0.109000X0.109000*%
%ADD29R,0.090000X0.090000*%
%ADD30R,0.085000X0.085000*%
%LNMASK1*%
G90*
G70*
G54D10*
X989Y3926D03*
G54D11*
X4745Y658D03*
X4745Y558D03*
X4745Y458D03*
X4745Y658D03*
X4745Y558D03*
X4745Y458D03*
X3595Y304D03*
X3495Y304D03*
X3395Y304D03*
X3595Y304D03*
X3495Y304D03*
X3395Y304D03*
X2119Y313D03*
X2019Y313D03*
X1919Y313D03*
X2119Y313D03*
X2019Y313D03*
X1919Y313D03*
X4750Y2163D03*
X4750Y2063D03*
X4750Y1963D03*
X4750Y2163D03*
X4750Y2063D03*
X4750Y1963D03*
X655Y1509D03*
X655Y1609D03*
X655Y1709D03*
X655Y1509D03*
X655Y1609D03*
X655Y1709D03*
X635Y315D03*
X535Y315D03*
X435Y315D03*
X635Y315D03*
X535Y315D03*
X435Y315D03*
X3769Y1978D03*
X3769Y1878D03*
X3769Y1778D03*
X3769Y1978D03*
X3769Y1878D03*
X3769Y1778D03*
G54D12*
X263Y4711D03*
X263Y4810D03*
X263Y4711D03*
X263Y4810D03*
G54D13*
X3080Y3775D03*
X3080Y4375D03*
X3380Y4375D03*
X3380Y3675D03*
X3380Y3975D03*
X3080Y3775D03*
X3080Y4375D03*
X3380Y4375D03*
X3380Y3675D03*
X3380Y3975D03*
X3080Y3775D03*
X3080Y4375D03*
X3380Y4375D03*
X3380Y3675D03*
X3380Y3975D03*
X3547Y3773D03*
X3547Y4373D03*
X3847Y4373D03*
X3847Y3673D03*
X3847Y3973D03*
X3547Y3773D03*
X3547Y4373D03*
X3847Y4373D03*
X3847Y3673D03*
X3847Y3973D03*
X3547Y3773D03*
X3547Y4373D03*
X3847Y4373D03*
X3847Y3673D03*
X3847Y3973D03*
G54D14*
X1824Y4318D03*
X1824Y4218D03*
X1824Y4118D03*
X1824Y4018D03*
X1824Y3918D03*
X1924Y4318D03*
X1924Y4218D03*
X1924Y4118D03*
X1924Y4018D03*
X1924Y3918D03*
X1824Y4318D03*
X1824Y4218D03*
X1824Y4118D03*
X1824Y4018D03*
X1824Y3918D03*
X1924Y4318D03*
X1924Y4218D03*
X1924Y4118D03*
X1924Y4018D03*
X1924Y3918D03*
X1825Y3524D03*
X1825Y3424D03*
X1825Y3324D03*
X1825Y3224D03*
X1825Y3124D03*
X1925Y3524D03*
X1925Y3424D03*
X1925Y3324D03*
X1925Y3224D03*
X1925Y3124D03*
X1825Y3524D03*
X1825Y3424D03*
X1825Y3324D03*
X1825Y3224D03*
X1825Y3124D03*
X1925Y3524D03*
X1925Y3424D03*
X1925Y3324D03*
X1925Y3224D03*
X1925Y3124D03*
X1863Y2439D03*
X1863Y2339D03*
X1863Y2239D03*
X1863Y2139D03*
X1863Y2039D03*
X1963Y2439D03*
X1963Y2339D03*
X1963Y2239D03*
X1963Y2139D03*
X1963Y2039D03*
X1863Y2439D03*
X1863Y2339D03*
X1863Y2239D03*
X1863Y2139D03*
X1863Y2039D03*
X1963Y2439D03*
X1963Y2339D03*
X1963Y2239D03*
X1963Y2139D03*
X1963Y2039D03*
G54D11*
X660Y4184D03*
X360Y4184D03*
X660Y4184D03*
X360Y4184D03*
X649Y3513D03*
X349Y3513D03*
X649Y3513D03*
X349Y3513D03*
X647Y2892D03*
X347Y2892D03*
X647Y2892D03*
X347Y2892D03*
G54D15*
X4300Y2770D03*
X4300Y2970D03*
X4100Y2870D03*
X4300Y2770D03*
X4300Y2970D03*
X4100Y2870D03*
G54D10*
X4406Y556D03*
X2362Y3837D03*
X2769Y1068D03*
X3017Y552D03*
X2745Y2824D03*
X3170Y1997D03*
X1543Y508D03*
X355Y765D03*
X694Y1163D03*
X1151Y1544D03*
X454Y1206D03*
X2182Y1666D03*
X2170Y3470D03*
X326Y2400D03*
X620Y636D03*
X955Y634D03*
X2355Y2997D03*
X2572Y3391D03*
X3737Y4517D03*
X1489Y4226D03*
X1614Y3061D03*
X1280Y3202D03*
X1618Y3339D03*
X1554Y1150D03*
X1224Y1148D03*
X1595Y1552D03*
X2469Y3206D03*
X2481Y2733D03*
G54D16*
X2889Y1511D03*
X2889Y3111D03*
X2889Y1411D03*
X2889Y1311D03*
X2889Y1211D03*
X2889Y1111D03*
X1489Y811D03*
X2889Y1011D03*
X2889Y911D03*
X989Y3071D03*
X2889Y2511D03*
X2889Y2411D03*
X2889Y2311D03*
X2889Y2211D03*
X2289Y811D03*
X2889Y2111D03*
X2889Y2011D03*
X2889Y1911D03*
X2889Y1811D03*
X989Y2311D03*
X1089Y811D03*
X1889Y811D03*
X2689Y811D03*
X989Y3471D03*
X2889Y2711D03*
X989Y2711D03*
X1289Y811D03*
X1689Y811D03*
G54D17*
X2089Y811D03*
G54D18*
X989Y1111D03*
G54D16*
X2489Y811D03*
G54D18*
X989Y1211D03*
X989Y1311D03*
G54D16*
X989Y1411D03*
X989Y1511D03*
X989Y1611D03*
X989Y1711D03*
X989Y1811D03*
X989Y3671D03*
X989Y3271D03*
X989Y2871D03*
X2889Y3311D03*
X2889Y2911D03*
X989Y2111D03*
X989Y2511D03*
X989Y811D03*
X1189Y811D03*
X1389Y811D03*
X1589Y811D03*
X1789Y811D03*
X1989Y811D03*
X2189Y811D03*
X2389Y811D03*
G54D17*
X2589Y811D03*
G54D16*
X989Y3771D03*
X989Y3571D03*
X989Y3371D03*
X989Y3171D03*
X989Y2971D03*
X2889Y3411D03*
X2889Y3211D03*
X2889Y3011D03*
X2889Y2811D03*
X989Y2011D03*
X989Y2211D03*
X989Y2411D03*
X989Y2611D03*
X989Y711D03*
X1089Y711D03*
X1189Y711D03*
X1289Y711D03*
X1389Y711D03*
X1489Y711D03*
X1589Y711D03*
X1689Y711D03*
X1789Y711D03*
X1889Y711D03*
X1989Y711D03*
G54D17*
X2089Y711D03*
G54D16*
X2189Y711D03*
X2289Y711D03*
X2389Y711D03*
X2489Y711D03*
G54D17*
X2589Y711D03*
G54D16*
X2689Y711D03*
X2889Y1611D03*
G54D19*
X2889Y1511D03*
X2889Y3111D03*
X2889Y1411D03*
X2889Y1311D03*
X2889Y1211D03*
X2889Y1111D03*
X1489Y811D03*
X2889Y1011D03*
X2889Y911D03*
X989Y3071D03*
X2889Y2511D03*
X2889Y2411D03*
X2889Y2311D03*
X2889Y2211D03*
X2289Y811D03*
X2889Y2111D03*
X2889Y2011D03*
X2889Y1911D03*
X2889Y1811D03*
X989Y2311D03*
X1089Y811D03*
X1889Y811D03*
X2689Y811D03*
X989Y3471D03*
X2889Y2711D03*
X989Y2711D03*
X1289Y811D03*
X1689Y811D03*
G54D20*
X2089Y811D03*
G54D21*
X989Y1111D03*
G54D19*
X2489Y811D03*
G54D21*
X989Y1211D03*
X989Y1311D03*
G54D19*
X989Y1411D03*
X989Y1511D03*
X989Y1611D03*
X989Y1711D03*
X989Y1811D03*
X989Y3671D03*
X989Y3271D03*
X989Y2871D03*
X2889Y3311D03*
X2889Y2911D03*
X989Y2111D03*
X989Y2511D03*
X989Y811D03*
X1189Y811D03*
X1389Y811D03*
X1589Y811D03*
X1789Y811D03*
X1989Y811D03*
X2189Y811D03*
X2389Y811D03*
G54D20*
X2589Y811D03*
G54D19*
X989Y3771D03*
X989Y3571D03*
X989Y3371D03*
X989Y3171D03*
X989Y2971D03*
X2889Y3411D03*
X2889Y3211D03*
X2889Y3011D03*
X2889Y2811D03*
X989Y2011D03*
X989Y2211D03*
X989Y2411D03*
X989Y2611D03*
X989Y711D03*
X1089Y711D03*
X1189Y711D03*
X1289Y711D03*
X1389Y711D03*
X1489Y711D03*
X1589Y711D03*
X1689Y711D03*
X1789Y711D03*
X1889Y711D03*
X1989Y711D03*
G54D20*
X2089Y711D03*
G54D19*
X2189Y711D03*
X2289Y711D03*
X2389Y711D03*
X2489Y711D03*
G54D20*
X2589Y711D03*
G54D19*
X2689Y711D03*
X2889Y1611D03*
G54D10*
X3533Y2195D03*
X3528Y2375D03*
X3391Y1619D03*
X2402Y1229D03*
X2402Y978D03*
X3395Y710D03*
X3564Y3040D03*
X3288Y3040D03*
X2280Y1540D03*
G54D14*
X1855Y1552D03*
X1855Y1452D03*
X1855Y1352D03*
X1855Y1252D03*
X1855Y1152D03*
X1955Y1552D03*
X1955Y1452D03*
X1955Y1352D03*
X1955Y1252D03*
X1955Y1152D03*
X1855Y1552D03*
X1855Y1452D03*
X1855Y1352D03*
X1855Y1252D03*
X1855Y1152D03*
X1955Y1552D03*
X1955Y1452D03*
X1955Y1352D03*
X1955Y1252D03*
X1955Y1152D03*
G54D22*
X3107Y4808D03*
X3307Y4808D03*
X3107Y4808D03*
X3307Y4808D03*
X4670Y4808D03*
X4870Y4808D03*
X4670Y4808D03*
X4870Y4808D03*
X4198Y4804D03*
X4398Y4804D03*
X4198Y4804D03*
X4398Y4804D03*
X3654Y4804D03*
X3854Y4804D03*
X3654Y4804D03*
X3854Y4804D03*
G54D10*
X2847Y4375D03*
X4875Y4946D03*
X4025Y4627D03*
G54D23*
X4064Y3352D03*
X4064Y3752D03*
X4064Y3352D03*
X4064Y3752D03*
G54D24*
X4052Y3241D03*
X4249Y3241D03*
X4052Y3241D03*
X4249Y3241D03*
X4052Y3241D03*
X4249Y3241D03*
G54D10*
X4855Y2454D03*
X1698Y2139D03*
X2154Y1454D03*
X1702Y3222D03*
X2068Y3525D03*
X1158Y2974D03*
X824Y3470D03*
X2115Y470D03*
X1119Y2450D03*
X1166Y2218D03*
X839Y2509D03*
X725Y2611D03*
X347Y3844D03*
X355Y4513D03*
X2221Y4115D03*
X2237Y4222D03*
X1662Y4222D03*
X3052Y3013D03*
X4745Y1623D03*
X4280Y2060D03*
X3769Y1529D03*
X3564Y1875D03*
X3564Y2001D03*
X2879Y706D03*
X2690Y206D03*
X434Y111D03*
X1292Y954D03*
X1186Y954D03*
X847Y895D03*
X2166Y1312D03*
X4745Y281D03*
X1489Y958D03*
X1678Y312D03*
X3441Y4863D03*
X3875Y300D03*
X3658Y4198D03*
X2962Y4485D03*
X3548Y3930D03*
G54D11*
X4717Y3682D03*
X4717Y3582D03*
X4717Y3482D03*
X4717Y3682D03*
X4717Y3582D03*
X4717Y3482D03*
G54D23*
X4127Y4080D03*
X4327Y4080D03*
G54D10*
X4115Y4328D03*
X3930Y3057D03*
X4190Y4611D03*
X4867Y3485D03*
X3170Y3631D03*
X3548Y3218D03*
X3820Y3222D03*
X2702Y3206D03*
X2698Y3568D03*
G54D25*
X4745Y658D03*
X4745Y658D03*
X3595Y304D03*
X3595Y304D03*
X2119Y313D03*
X2119Y313D03*
X4750Y2163D03*
X4750Y2163D03*
X655Y1509D03*
X655Y1509D03*
X635Y315D03*
X635Y315D03*
X3769Y1978D03*
X3769Y1978D03*
G54D26*
X263Y4711D03*
X263Y4711D03*
G54D27*
X1924Y4318D03*
X1924Y4318D03*
X1925Y3524D03*
X1925Y3524D03*
X1963Y2439D03*
X1963Y2439D03*
G54D25*
X660Y4184D03*
X660Y4184D03*
X649Y3513D03*
X649Y3513D03*
X647Y2892D03*
X647Y2892D03*
G54D28*
X4300Y2970D03*
X4300Y2970D03*
G54D27*
X1955Y1552D03*
X1955Y1552D03*
G54D29*
X3107Y4808D03*
X3107Y4808D03*
X4670Y4808D03*
X4670Y4808D03*
X4198Y4804D03*
X4198Y4804D03*
X3654Y4804D03*
X3654Y4804D03*
G54D25*
X4717Y3682D03*
X4717Y3682D03*
G54D30*
X4127Y4080D03*
G04 End of Mask1*
M02*