G04 MADE WITH FRITZING*
G04 WWW.FRITZING.ORG*
G04 DOUBLE SIDED*
G04 HOLES PLATED*
G04 CONTOUR ON CENTER OF CONTOUR VECTOR*
%ASAXBY*%
%FSLAX23Y23*%
%MOIN*%
%OFA0B0*%
%SFA1.0B1.0*%
%ADD10C,0.410000X0.39*%
%ADD11R,5.000010X5.000010X4.984010X4.984010*%
%ADD12C,0.008000*%
%ADD13R,0.001000X0.001000*%
%LNSILK1*%
G90*
G70*
G54D10*
X4227Y4080D03*
G54D12*
X4Y4996D02*
X4996Y4996D01*
X4996Y4D01*
X4Y4D01*
X4Y4996D01*
D02*
G54D13*
X3751Y4702D02*
X3754Y4702D01*
X3795Y4702D02*
X3798Y4702D01*
X3819Y4702D02*
X3842Y4702D01*
X3750Y4701D02*
X3755Y4701D01*
X3794Y4701D02*
X3798Y4701D01*
X3819Y4701D02*
X3842Y4701D01*
X3750Y4700D02*
X3755Y4700D01*
X3793Y4700D02*
X3799Y4700D01*
X3819Y4700D02*
X3842Y4700D01*
X3750Y4699D02*
X3755Y4699D01*
X3793Y4699D02*
X3798Y4699D01*
X3819Y4699D02*
X3842Y4699D01*
X3750Y4698D02*
X3755Y4698D01*
X3792Y4698D02*
X3798Y4698D01*
X3819Y4698D02*
X3842Y4698D01*
X3750Y4697D02*
X3755Y4697D01*
X3791Y4697D02*
X3798Y4697D01*
X3819Y4697D02*
X3840Y4697D01*
X3750Y4696D02*
X3755Y4696D01*
X3791Y4696D02*
X3797Y4696D01*
X3819Y4696D02*
X3824Y4696D01*
X3750Y4695D02*
X3755Y4695D01*
X3790Y4695D02*
X3796Y4695D01*
X3819Y4695D02*
X3824Y4695D01*
X3750Y4694D02*
X3755Y4694D01*
X3790Y4694D02*
X3796Y4694D01*
X3819Y4694D02*
X3824Y4694D01*
X3750Y4693D02*
X3755Y4693D01*
X3789Y4693D02*
X3795Y4693D01*
X3819Y4693D02*
X3824Y4693D01*
X3750Y4692D02*
X3755Y4692D01*
X3788Y4692D02*
X3795Y4692D01*
X3819Y4692D02*
X3824Y4692D01*
X3750Y4691D02*
X3755Y4691D01*
X3788Y4691D02*
X3794Y4691D01*
X3819Y4691D02*
X3824Y4691D01*
X3648Y4690D02*
X3654Y4690D01*
X3665Y4690D02*
X3665Y4690D01*
X3684Y4690D02*
X3685Y4690D01*
X3696Y4690D02*
X3704Y4690D01*
X3736Y4690D02*
X3742Y4690D01*
X3750Y4690D02*
X3755Y4690D01*
X3787Y4690D02*
X3793Y4690D01*
X3819Y4690D02*
X3824Y4690D01*
X3859Y4690D02*
X3860Y4690D01*
X3884Y4690D02*
X3884Y4690D01*
X3645Y4689D02*
X3657Y4689D01*
X3663Y4689D02*
X3667Y4689D01*
X3683Y4689D02*
X3686Y4689D01*
X3695Y4689D02*
X3706Y4689D01*
X3733Y4689D02*
X3745Y4689D01*
X3750Y4689D02*
X3755Y4689D01*
X3787Y4689D02*
X3793Y4689D01*
X3819Y4689D02*
X3824Y4689D01*
X3858Y4689D02*
X3861Y4689D01*
X3882Y4689D02*
X3886Y4689D01*
X3644Y4688D02*
X3659Y4688D01*
X3662Y4688D02*
X3667Y4688D01*
X3682Y4688D02*
X3687Y4688D01*
X3693Y4688D02*
X3708Y4688D01*
X3731Y4688D02*
X3746Y4688D01*
X3750Y4688D02*
X3755Y4688D01*
X3786Y4688D02*
X3792Y4688D01*
X3819Y4688D02*
X3824Y4688D01*
X3857Y4688D02*
X3862Y4688D01*
X3881Y4688D02*
X3886Y4688D01*
X3642Y4687D02*
X3660Y4687D01*
X3662Y4687D02*
X3667Y4687D01*
X3682Y4687D02*
X3687Y4687D01*
X3692Y4687D02*
X3709Y4687D01*
X3730Y4687D02*
X3748Y4687D01*
X3750Y4687D02*
X3755Y4687D01*
X3786Y4687D02*
X3792Y4687D01*
X3819Y4687D02*
X3824Y4687D01*
X3857Y4687D02*
X3862Y4687D01*
X3881Y4687D02*
X3886Y4687D01*
X3217Y4686D02*
X3227Y4686D01*
X3641Y4686D02*
X3667Y4686D01*
X3682Y4686D02*
X3687Y4686D01*
X3691Y4686D02*
X3710Y4686D01*
X3729Y4686D02*
X3755Y4686D01*
X3785Y4686D02*
X3791Y4686D01*
X3819Y4686D02*
X3824Y4686D01*
X3857Y4686D02*
X3862Y4686D01*
X3881Y4686D02*
X3886Y4686D01*
X4756Y4686D02*
X4757Y4686D01*
X4766Y4686D02*
X4770Y4686D01*
X4884Y4686D02*
X4885Y4686D01*
X4894Y4686D02*
X4899Y4686D01*
X3215Y4685D02*
X3228Y4685D01*
X3640Y4685D02*
X3667Y4685D01*
X3682Y4685D02*
X3687Y4685D01*
X3690Y4685D02*
X3710Y4685D01*
X3728Y4685D02*
X3755Y4685D01*
X3784Y4685D02*
X3790Y4685D01*
X3819Y4685D02*
X3824Y4685D01*
X3857Y4685D02*
X3862Y4685D01*
X3881Y4685D02*
X3886Y4685D01*
X4634Y4685D02*
X4645Y4685D01*
X4682Y4685D02*
X4694Y4685D01*
X4754Y4685D02*
X4758Y4685D01*
X4763Y4685D02*
X4773Y4685D01*
X4799Y4685D02*
X4799Y4685D01*
X4849Y4685D02*
X4849Y4685D01*
X4883Y4685D02*
X4886Y4685D01*
X4892Y4685D02*
X4901Y4685D01*
X3215Y4684D02*
X3229Y4684D01*
X3640Y4684D02*
X3649Y4684D01*
X3654Y4684D02*
X3667Y4684D01*
X3682Y4684D02*
X3687Y4684D01*
X3689Y4684D02*
X3698Y4684D01*
X3703Y4684D02*
X3711Y4684D01*
X3727Y4684D02*
X3736Y4684D01*
X3741Y4684D02*
X3755Y4684D01*
X3784Y4684D02*
X3790Y4684D01*
X3819Y4684D02*
X3824Y4684D01*
X3857Y4684D02*
X3862Y4684D01*
X3881Y4684D02*
X3886Y4684D01*
X4179Y4684D02*
X4192Y4684D01*
X4217Y4684D02*
X4238Y4684D01*
X4315Y4684D02*
X4317Y4684D01*
X4431Y4684D02*
X4432Y4684D01*
X4632Y4684D02*
X4649Y4684D01*
X4678Y4684D02*
X4696Y4684D01*
X4754Y4684D02*
X4759Y4684D01*
X4762Y4684D02*
X4774Y4684D01*
X4797Y4684D02*
X4801Y4684D01*
X4821Y4684D02*
X4824Y4684D01*
X4840Y4684D02*
X4843Y4684D01*
X4846Y4684D02*
X4853Y4684D01*
X4858Y4684D02*
X4863Y4684D01*
X4882Y4684D02*
X4887Y4684D01*
X4890Y4684D02*
X4903Y4684D01*
X3215Y4683D02*
X3229Y4683D01*
X3639Y4683D02*
X3646Y4683D01*
X3656Y4683D02*
X3667Y4683D01*
X3682Y4683D02*
X3696Y4683D01*
X3705Y4683D02*
X3711Y4683D01*
X3727Y4683D02*
X3734Y4683D01*
X3744Y4683D02*
X3755Y4683D01*
X3783Y4683D02*
X3789Y4683D01*
X3819Y4683D02*
X3824Y4683D01*
X3857Y4683D02*
X3862Y4683D01*
X3881Y4683D02*
X3886Y4683D01*
X4178Y4683D02*
X4192Y4683D01*
X4216Y4683D02*
X4240Y4683D01*
X4314Y4683D02*
X4318Y4683D01*
X4430Y4683D02*
X4433Y4683D01*
X4632Y4683D02*
X4650Y4683D01*
X4676Y4683D02*
X4697Y4683D01*
X4754Y4683D02*
X4759Y4683D01*
X4761Y4683D02*
X4775Y4683D01*
X4797Y4683D02*
X4801Y4683D01*
X4820Y4683D02*
X4825Y4683D01*
X4839Y4683D02*
X4854Y4683D01*
X4856Y4683D02*
X4865Y4683D01*
X4882Y4683D02*
X4887Y4683D01*
X4889Y4683D02*
X4904Y4683D01*
X3215Y4682D02*
X3229Y4682D01*
X3639Y4682D02*
X3645Y4682D01*
X3657Y4682D02*
X3667Y4682D01*
X3682Y4682D02*
X3695Y4682D01*
X3706Y4682D02*
X3711Y4682D01*
X3726Y4682D02*
X3733Y4682D01*
X3745Y4682D02*
X3755Y4682D01*
X3783Y4682D02*
X3789Y4682D01*
X3819Y4682D02*
X3839Y4682D01*
X3857Y4682D02*
X3863Y4682D01*
X3881Y4682D02*
X3886Y4682D01*
X4178Y4682D02*
X4192Y4682D01*
X4216Y4682D02*
X4240Y4682D01*
X4314Y4682D02*
X4318Y4682D01*
X4429Y4682D02*
X4434Y4682D01*
X4631Y4682D02*
X4651Y4682D01*
X4675Y4682D02*
X4697Y4682D01*
X4754Y4682D02*
X4777Y4682D01*
X4797Y4682D02*
X4801Y4682D01*
X4820Y4682D02*
X4825Y4682D01*
X4839Y4682D02*
X4866Y4682D01*
X4882Y4682D02*
X4905Y4682D01*
X3216Y4681D02*
X3229Y4681D01*
X3638Y4681D02*
X3644Y4681D01*
X3659Y4681D02*
X3667Y4681D01*
X3682Y4681D02*
X3694Y4681D01*
X3706Y4681D02*
X3711Y4681D01*
X3726Y4681D02*
X3732Y4681D01*
X3746Y4681D02*
X3755Y4681D01*
X3782Y4681D02*
X3788Y4681D01*
X3819Y4681D02*
X3840Y4681D01*
X3857Y4681D02*
X3863Y4681D01*
X3881Y4681D02*
X3886Y4681D01*
X4178Y4681D02*
X4192Y4681D01*
X4216Y4681D02*
X4241Y4681D01*
X4313Y4681D02*
X4318Y4681D01*
X4429Y4681D02*
X4434Y4681D01*
X4632Y4681D02*
X4652Y4681D01*
X4674Y4681D02*
X4697Y4681D01*
X4754Y4681D02*
X4778Y4681D01*
X4797Y4681D02*
X4802Y4681D01*
X4820Y4681D02*
X4825Y4681D01*
X4839Y4681D02*
X4867Y4681D01*
X4882Y4681D02*
X4906Y4681D01*
X3223Y4680D02*
X3229Y4680D01*
X3638Y4680D02*
X3643Y4680D01*
X3660Y4680D02*
X3667Y4680D01*
X3682Y4680D02*
X3693Y4680D01*
X3706Y4680D02*
X3711Y4680D01*
X3726Y4680D02*
X3731Y4680D01*
X3747Y4680D02*
X3755Y4680D01*
X3781Y4680D02*
X3788Y4680D01*
X3819Y4680D02*
X3841Y4680D01*
X3858Y4680D02*
X3863Y4680D01*
X3880Y4680D02*
X3886Y4680D01*
X4178Y4680D02*
X4192Y4680D01*
X4217Y4680D02*
X4241Y4680D01*
X4312Y4680D02*
X4318Y4680D01*
X4429Y4680D02*
X4434Y4680D01*
X4632Y4680D02*
X4652Y4680D01*
X4673Y4680D02*
X4696Y4680D01*
X4754Y4680D02*
X4766Y4680D01*
X4771Y4680D02*
X4779Y4680D01*
X4797Y4680D02*
X4802Y4680D01*
X4820Y4680D02*
X4825Y4680D01*
X4839Y4680D02*
X4867Y4680D01*
X4882Y4680D02*
X4894Y4680D01*
X4899Y4680D02*
X4907Y4680D01*
X3224Y4679D02*
X3229Y4679D01*
X3638Y4679D02*
X3643Y4679D01*
X3661Y4679D02*
X3667Y4679D01*
X3682Y4679D02*
X3691Y4679D01*
X3706Y4679D02*
X3711Y4679D01*
X3726Y4679D02*
X3731Y4679D01*
X3748Y4679D02*
X3755Y4679D01*
X3781Y4679D02*
X3787Y4679D01*
X3819Y4679D02*
X3842Y4679D01*
X3858Y4679D02*
X3864Y4679D01*
X3880Y4679D02*
X3885Y4679D01*
X4188Y4679D02*
X4192Y4679D01*
X4237Y4679D02*
X4241Y4679D01*
X4312Y4679D02*
X4317Y4679D01*
X4429Y4679D02*
X4434Y4679D01*
X4646Y4679D02*
X4653Y4679D01*
X4672Y4679D02*
X4681Y4679D01*
X4754Y4679D02*
X4764Y4679D01*
X4772Y4679D02*
X4780Y4679D01*
X4797Y4679D02*
X4802Y4679D01*
X4820Y4679D02*
X4825Y4679D01*
X4839Y4679D02*
X4848Y4679D01*
X4850Y4679D02*
X4867Y4679D01*
X4882Y4679D02*
X4893Y4679D01*
X4900Y4679D02*
X4908Y4679D01*
X3224Y4678D02*
X3229Y4678D01*
X3638Y4678D02*
X3643Y4678D01*
X3662Y4678D02*
X3667Y4678D01*
X3682Y4678D02*
X3690Y4678D01*
X3706Y4678D02*
X3711Y4678D01*
X3726Y4678D02*
X3731Y4678D01*
X3749Y4678D02*
X3755Y4678D01*
X3780Y4678D02*
X3786Y4678D01*
X3819Y4678D02*
X3842Y4678D01*
X3859Y4678D02*
X3864Y4678D01*
X3879Y4678D02*
X3885Y4678D01*
X4188Y4678D02*
X4192Y4678D01*
X4237Y4678D02*
X4241Y4678D01*
X4311Y4678D02*
X4317Y4678D01*
X4429Y4678D02*
X4434Y4678D01*
X4648Y4678D02*
X4653Y4678D01*
X4671Y4678D02*
X4679Y4678D01*
X4754Y4678D02*
X4763Y4678D01*
X4773Y4678D02*
X4781Y4678D01*
X4797Y4678D02*
X4802Y4678D01*
X4820Y4678D02*
X4825Y4678D01*
X4839Y4678D02*
X4847Y4678D01*
X4851Y4678D02*
X4859Y4678D01*
X4862Y4678D02*
X4867Y4678D01*
X4882Y4678D02*
X4892Y4678D01*
X4901Y4678D02*
X4909Y4678D01*
X3224Y4677D02*
X3229Y4677D01*
X3638Y4677D02*
X3643Y4677D01*
X3662Y4677D02*
X3667Y4677D01*
X3682Y4677D02*
X3689Y4677D01*
X3707Y4677D02*
X3710Y4677D01*
X3726Y4677D02*
X3731Y4677D01*
X3750Y4677D02*
X3755Y4677D01*
X3780Y4677D02*
X3786Y4677D01*
X3819Y4677D02*
X3842Y4677D01*
X3859Y4677D02*
X3865Y4677D01*
X3879Y4677D02*
X3884Y4677D01*
X4188Y4677D02*
X4192Y4677D01*
X4237Y4677D02*
X4241Y4677D01*
X4311Y4677D02*
X4316Y4677D01*
X4429Y4677D02*
X4434Y4677D01*
X4648Y4677D02*
X4653Y4677D01*
X4670Y4677D02*
X4678Y4677D01*
X4754Y4677D02*
X4762Y4677D01*
X4774Y4677D02*
X4781Y4677D01*
X4797Y4677D02*
X4802Y4677D01*
X4820Y4677D02*
X4825Y4677D01*
X4839Y4677D02*
X4846Y4677D01*
X4851Y4677D02*
X4858Y4677D01*
X4862Y4677D02*
X4867Y4677D01*
X4882Y4677D02*
X4891Y4677D01*
X4902Y4677D02*
X4909Y4677D01*
X3224Y4676D02*
X3229Y4676D01*
X3638Y4676D02*
X3643Y4676D01*
X3662Y4676D02*
X3667Y4676D01*
X3682Y4676D02*
X3688Y4676D01*
X3726Y4676D02*
X3731Y4676D01*
X3750Y4676D02*
X3755Y4676D01*
X3779Y4676D02*
X3785Y4676D01*
X3837Y4676D02*
X3843Y4676D01*
X3859Y4676D02*
X3865Y4676D01*
X3878Y4676D02*
X3884Y4676D01*
X4188Y4676D02*
X4192Y4676D01*
X4237Y4676D02*
X4241Y4676D01*
X4310Y4676D02*
X4315Y4676D01*
X4429Y4676D02*
X4434Y4676D01*
X4648Y4676D02*
X4653Y4676D01*
X4669Y4676D02*
X4677Y4676D01*
X4754Y4676D02*
X4762Y4676D01*
X4775Y4676D02*
X4782Y4676D01*
X4797Y4676D02*
X4802Y4676D01*
X4820Y4676D02*
X4825Y4676D01*
X4839Y4676D02*
X4845Y4676D01*
X4851Y4676D02*
X4856Y4676D01*
X4862Y4676D02*
X4867Y4676D01*
X4882Y4676D02*
X4890Y4676D01*
X4904Y4676D02*
X4910Y4676D01*
X3224Y4675D02*
X3229Y4675D01*
X3638Y4675D02*
X3643Y4675D01*
X3662Y4675D02*
X3667Y4675D01*
X3682Y4675D02*
X3687Y4675D01*
X3726Y4675D02*
X3731Y4675D01*
X3750Y4675D02*
X3755Y4675D01*
X3779Y4675D02*
X3785Y4675D01*
X3837Y4675D02*
X3843Y4675D01*
X3860Y4675D02*
X3866Y4675D01*
X3878Y4675D02*
X3884Y4675D01*
X4188Y4675D02*
X4192Y4675D01*
X4237Y4675D02*
X4241Y4675D01*
X4309Y4675D02*
X4315Y4675D01*
X4429Y4675D02*
X4434Y4675D01*
X4648Y4675D02*
X4653Y4675D01*
X4669Y4675D02*
X4675Y4675D01*
X4754Y4675D02*
X4761Y4675D01*
X4776Y4675D02*
X4782Y4675D01*
X4797Y4675D02*
X4802Y4675D01*
X4820Y4675D02*
X4825Y4675D01*
X4839Y4675D02*
X4844Y4675D01*
X4851Y4675D02*
X4856Y4675D01*
X4862Y4675D02*
X4867Y4675D01*
X4882Y4675D02*
X4889Y4675D01*
X4905Y4675D02*
X4910Y4675D01*
X3224Y4674D02*
X3229Y4674D01*
X3638Y4674D02*
X3643Y4674D01*
X3662Y4674D02*
X3667Y4674D01*
X3682Y4674D02*
X3687Y4674D01*
X3726Y4674D02*
X3731Y4674D01*
X3750Y4674D02*
X3755Y4674D01*
X3778Y4674D02*
X3784Y4674D01*
X3837Y4674D02*
X3843Y4674D01*
X3860Y4674D02*
X3866Y4674D01*
X3877Y4674D02*
X3883Y4674D01*
X4188Y4674D02*
X4192Y4674D01*
X4237Y4674D02*
X4241Y4674D01*
X4309Y4674D02*
X4314Y4674D01*
X4429Y4674D02*
X4434Y4674D01*
X4648Y4674D02*
X4653Y4674D01*
X4669Y4674D02*
X4674Y4674D01*
X4754Y4674D02*
X4760Y4674D01*
X4777Y4674D02*
X4782Y4674D01*
X4797Y4674D02*
X4802Y4674D01*
X4820Y4674D02*
X4825Y4674D01*
X4839Y4674D02*
X4844Y4674D01*
X4851Y4674D02*
X4856Y4674D01*
X4863Y4674D02*
X4867Y4674D01*
X4882Y4674D02*
X4888Y4674D01*
X4905Y4674D02*
X4910Y4674D01*
X3130Y4673D02*
X3147Y4673D01*
X3176Y4673D02*
X3189Y4673D01*
X3224Y4673D02*
X3229Y4673D01*
X3638Y4673D02*
X3643Y4673D01*
X3662Y4673D02*
X3667Y4673D01*
X3682Y4673D02*
X3687Y4673D01*
X3726Y4673D02*
X3731Y4673D01*
X3750Y4673D02*
X3755Y4673D01*
X3777Y4673D02*
X3783Y4673D01*
X3837Y4673D02*
X3843Y4673D01*
X3861Y4673D02*
X3866Y4673D01*
X3877Y4673D02*
X3883Y4673D01*
X4188Y4673D02*
X4192Y4673D01*
X4237Y4673D02*
X4241Y4673D01*
X4256Y4673D02*
X4257Y4673D01*
X4277Y4673D02*
X4278Y4673D01*
X4308Y4673D02*
X4314Y4673D01*
X4340Y4673D02*
X4346Y4673D01*
X4354Y4673D02*
X4355Y4673D01*
X4372Y4673D02*
X4372Y4673D01*
X4382Y4673D02*
X4389Y4673D01*
X4417Y4673D02*
X4422Y4673D01*
X4429Y4673D02*
X4434Y4673D01*
X4648Y4673D02*
X4653Y4673D01*
X4668Y4673D02*
X4674Y4673D01*
X4754Y4673D02*
X4759Y4673D01*
X4777Y4673D02*
X4782Y4673D01*
X4797Y4673D02*
X4802Y4673D01*
X4820Y4673D02*
X4825Y4673D01*
X4839Y4673D02*
X4844Y4673D01*
X4851Y4673D02*
X4856Y4673D01*
X4863Y4673D02*
X4868Y4673D01*
X4882Y4673D02*
X4887Y4673D01*
X4906Y4673D02*
X4911Y4673D01*
X3128Y4672D02*
X3149Y4672D01*
X3174Y4672D02*
X3191Y4672D01*
X3224Y4672D02*
X3229Y4672D01*
X3638Y4672D02*
X3643Y4672D01*
X3662Y4672D02*
X3667Y4672D01*
X3682Y4672D02*
X3687Y4672D01*
X3726Y4672D02*
X3731Y4672D01*
X3750Y4672D02*
X3755Y4672D01*
X3777Y4672D02*
X3783Y4672D01*
X3837Y4672D02*
X3843Y4672D01*
X3861Y4672D02*
X3867Y4672D01*
X3877Y4672D02*
X3882Y4672D01*
X4188Y4672D02*
X4192Y4672D01*
X4237Y4672D02*
X4241Y4672D01*
X4255Y4672D02*
X4258Y4672D01*
X4276Y4672D02*
X4279Y4672D01*
X4308Y4672D02*
X4313Y4672D01*
X4337Y4672D02*
X4348Y4672D01*
X4353Y4672D02*
X4356Y4672D01*
X4370Y4672D02*
X4373Y4672D01*
X4381Y4672D02*
X4391Y4672D01*
X4414Y4672D02*
X4425Y4672D01*
X4429Y4672D02*
X4434Y4672D01*
X4631Y4672D02*
X4653Y4672D01*
X4668Y4672D02*
X4673Y4672D01*
X4754Y4672D02*
X4759Y4672D01*
X4777Y4672D02*
X4782Y4672D01*
X4797Y4672D02*
X4802Y4672D01*
X4820Y4672D02*
X4825Y4672D01*
X4839Y4672D02*
X4844Y4672D01*
X4851Y4672D02*
X4856Y4672D01*
X4863Y4672D02*
X4868Y4672D01*
X4882Y4672D02*
X4887Y4672D01*
X4906Y4672D02*
X4911Y4672D01*
X3127Y4671D02*
X3151Y4671D01*
X3173Y4671D02*
X3192Y4671D01*
X3224Y4671D02*
X3229Y4671D01*
X3638Y4671D02*
X3643Y4671D01*
X3662Y4671D02*
X3667Y4671D01*
X3682Y4671D02*
X3687Y4671D01*
X3726Y4671D02*
X3731Y4671D01*
X3750Y4671D02*
X3755Y4671D01*
X3776Y4671D02*
X3782Y4671D01*
X3837Y4671D02*
X3843Y4671D01*
X3862Y4671D02*
X3867Y4671D01*
X3876Y4671D02*
X3882Y4671D01*
X4188Y4671D02*
X4192Y4671D01*
X4237Y4671D02*
X4241Y4671D01*
X4254Y4671D02*
X4259Y4671D01*
X4276Y4671D02*
X4280Y4671D01*
X4307Y4671D02*
X4312Y4671D01*
X4336Y4671D02*
X4350Y4671D01*
X4352Y4671D02*
X4357Y4671D01*
X4370Y4671D02*
X4374Y4671D01*
X4379Y4671D02*
X4393Y4671D01*
X4413Y4671D02*
X4426Y4671D01*
X4429Y4671D02*
X4434Y4671D01*
X4630Y4671D02*
X4653Y4671D01*
X4668Y4671D02*
X4673Y4671D01*
X4754Y4671D02*
X4759Y4671D01*
X4777Y4671D02*
X4782Y4671D01*
X4797Y4671D02*
X4802Y4671D01*
X4820Y4671D02*
X4825Y4671D01*
X4839Y4671D02*
X4844Y4671D01*
X4851Y4671D02*
X4856Y4671D01*
X4863Y4671D02*
X4868Y4671D01*
X4882Y4671D02*
X4887Y4671D01*
X4906Y4671D02*
X4911Y4671D01*
X3126Y4670D02*
X3152Y4670D01*
X3172Y4670D02*
X3193Y4670D01*
X3224Y4670D02*
X3229Y4670D01*
X3638Y4670D02*
X3643Y4670D01*
X3661Y4670D02*
X3667Y4670D01*
X3682Y4670D02*
X3687Y4670D01*
X3726Y4670D02*
X3731Y4670D01*
X3750Y4670D02*
X3755Y4670D01*
X3776Y4670D02*
X3782Y4670D01*
X3837Y4670D02*
X3843Y4670D01*
X3862Y4670D02*
X3868Y4670D01*
X3876Y4670D02*
X3881Y4670D01*
X4188Y4670D02*
X4192Y4670D01*
X4237Y4670D02*
X4241Y4670D01*
X4254Y4670D02*
X4259Y4670D01*
X4275Y4670D02*
X4280Y4670D01*
X4307Y4670D02*
X4312Y4670D01*
X4335Y4670D02*
X4357Y4670D01*
X4370Y4670D02*
X4374Y4670D01*
X4378Y4670D02*
X4393Y4670D01*
X4411Y4670D02*
X4434Y4670D01*
X4628Y4670D02*
X4654Y4670D01*
X4668Y4670D02*
X4673Y4670D01*
X4754Y4670D02*
X4759Y4670D01*
X4777Y4670D02*
X4782Y4670D01*
X4797Y4670D02*
X4802Y4670D01*
X4820Y4670D02*
X4825Y4670D01*
X4839Y4670D02*
X4844Y4670D01*
X4851Y4670D02*
X4856Y4670D01*
X4863Y4670D02*
X4868Y4670D01*
X4882Y4670D02*
X4887Y4670D01*
X4906Y4670D02*
X4911Y4670D01*
X3126Y4669D02*
X3152Y4669D01*
X3171Y4669D02*
X3194Y4669D01*
X3224Y4669D02*
X3229Y4669D01*
X3638Y4669D02*
X3643Y4669D01*
X3660Y4669D02*
X3667Y4669D01*
X3682Y4669D02*
X3687Y4669D01*
X3726Y4669D02*
X3731Y4669D01*
X3750Y4669D02*
X3755Y4669D01*
X3775Y4669D02*
X3781Y4669D01*
X3837Y4669D02*
X3843Y4669D01*
X3863Y4669D02*
X3868Y4669D01*
X3875Y4669D02*
X3881Y4669D01*
X4188Y4669D02*
X4192Y4669D01*
X4237Y4669D02*
X4241Y4669D01*
X4254Y4669D02*
X4259Y4669D01*
X4275Y4669D02*
X4280Y4669D01*
X4306Y4669D02*
X4311Y4669D01*
X4333Y4669D02*
X4357Y4669D01*
X4370Y4669D02*
X4374Y4669D01*
X4377Y4669D02*
X4394Y4669D01*
X4410Y4669D02*
X4434Y4669D01*
X4627Y4669D02*
X4654Y4669D01*
X4668Y4669D02*
X4673Y4669D01*
X4754Y4669D02*
X4759Y4669D01*
X4777Y4669D02*
X4782Y4669D01*
X4797Y4669D02*
X4802Y4669D01*
X4820Y4669D02*
X4825Y4669D01*
X4839Y4669D02*
X4844Y4669D01*
X4851Y4669D02*
X4856Y4669D01*
X4863Y4669D02*
X4868Y4669D01*
X4882Y4669D02*
X4887Y4669D01*
X4906Y4669D02*
X4911Y4669D01*
X3125Y4668D02*
X3153Y4668D01*
X3170Y4668D02*
X3195Y4668D01*
X3224Y4668D02*
X3229Y4668D01*
X3638Y4668D02*
X3644Y4668D01*
X3659Y4668D02*
X3667Y4668D01*
X3682Y4668D02*
X3687Y4668D01*
X3726Y4668D02*
X3731Y4668D01*
X3749Y4668D02*
X3755Y4668D01*
X3774Y4668D02*
X3781Y4668D01*
X3837Y4668D02*
X3843Y4668D01*
X3863Y4668D02*
X3869Y4668D01*
X3875Y4668D02*
X3880Y4668D01*
X4188Y4668D02*
X4192Y4668D01*
X4237Y4668D02*
X4241Y4668D01*
X4254Y4668D02*
X4259Y4668D01*
X4275Y4668D02*
X4280Y4668D01*
X4305Y4668D02*
X4311Y4668D01*
X4333Y4668D02*
X4357Y4668D01*
X4370Y4668D02*
X4374Y4668D01*
X4376Y4668D02*
X4395Y4668D01*
X4410Y4668D02*
X4434Y4668D01*
X4627Y4668D02*
X4654Y4668D01*
X4668Y4668D02*
X4673Y4668D01*
X4754Y4668D02*
X4759Y4668D01*
X4777Y4668D02*
X4782Y4668D01*
X4797Y4668D02*
X4802Y4668D01*
X4820Y4668D02*
X4825Y4668D01*
X4839Y4668D02*
X4844Y4668D01*
X4851Y4668D02*
X4856Y4668D01*
X4863Y4668D02*
X4868Y4668D01*
X4882Y4668D02*
X4887Y4668D01*
X4906Y4668D02*
X4911Y4668D01*
X3125Y4667D02*
X3131Y4667D01*
X3147Y4667D02*
X3152Y4667D01*
X3169Y4667D02*
X3177Y4667D01*
X3188Y4667D02*
X3196Y4667D01*
X3224Y4667D02*
X3229Y4667D01*
X3639Y4667D02*
X3644Y4667D01*
X3658Y4667D02*
X3667Y4667D01*
X3682Y4667D02*
X3687Y4667D01*
X3726Y4667D02*
X3731Y4667D01*
X3749Y4667D02*
X3755Y4667D01*
X3774Y4667D02*
X3780Y4667D01*
X3837Y4667D02*
X3843Y4667D01*
X3863Y4667D02*
X3869Y4667D01*
X3874Y4667D02*
X3880Y4667D01*
X4188Y4667D02*
X4192Y4667D01*
X4237Y4667D02*
X4241Y4667D01*
X4254Y4667D02*
X4259Y4667D01*
X4275Y4667D02*
X4280Y4667D01*
X4305Y4667D02*
X4310Y4667D01*
X4332Y4667D02*
X4338Y4667D01*
X4347Y4667D02*
X4357Y4667D01*
X4370Y4667D02*
X4382Y4667D01*
X4390Y4667D02*
X4395Y4667D01*
X4409Y4667D02*
X4415Y4667D01*
X4424Y4667D02*
X4434Y4667D01*
X4626Y4667D02*
X4654Y4667D01*
X4668Y4667D02*
X4673Y4667D01*
X4754Y4667D02*
X4759Y4667D01*
X4777Y4667D02*
X4782Y4667D01*
X4797Y4667D02*
X4802Y4667D01*
X4820Y4667D02*
X4825Y4667D01*
X4839Y4667D02*
X4844Y4667D01*
X4851Y4667D02*
X4856Y4667D01*
X4863Y4667D02*
X4868Y4667D01*
X4882Y4667D02*
X4887Y4667D01*
X4906Y4667D02*
X4911Y4667D01*
X3125Y4666D02*
X3130Y4666D01*
X3148Y4666D02*
X3152Y4666D01*
X3169Y4666D02*
X3175Y4666D01*
X3190Y4666D02*
X3196Y4666D01*
X3224Y4666D02*
X3229Y4666D01*
X3639Y4666D02*
X3645Y4666D01*
X3657Y4666D02*
X3667Y4666D01*
X3682Y4666D02*
X3687Y4666D01*
X3726Y4666D02*
X3731Y4666D01*
X3747Y4666D02*
X3755Y4666D01*
X3773Y4666D02*
X3779Y4666D01*
X3837Y4666D02*
X3843Y4666D01*
X3864Y4666D02*
X3869Y4666D01*
X3874Y4666D02*
X3880Y4666D01*
X4188Y4666D02*
X4192Y4666D01*
X4220Y4666D02*
X4241Y4666D01*
X4254Y4666D02*
X4259Y4666D01*
X4275Y4666D02*
X4280Y4666D01*
X4304Y4666D02*
X4310Y4666D01*
X4332Y4666D02*
X4337Y4666D01*
X4348Y4666D02*
X4357Y4666D01*
X4370Y4666D02*
X4381Y4666D01*
X4391Y4666D02*
X4395Y4666D01*
X4409Y4666D02*
X4414Y4666D01*
X4425Y4666D02*
X4434Y4666D01*
X4626Y4666D02*
X4632Y4666D01*
X4647Y4666D02*
X4654Y4666D01*
X4668Y4666D02*
X4673Y4666D01*
X4754Y4666D02*
X4759Y4666D01*
X4777Y4666D02*
X4782Y4666D01*
X4797Y4666D02*
X4802Y4666D01*
X4820Y4666D02*
X4825Y4666D01*
X4839Y4666D02*
X4844Y4666D01*
X4851Y4666D02*
X4856Y4666D01*
X4863Y4666D02*
X4868Y4666D01*
X4882Y4666D02*
X4887Y4666D01*
X4906Y4666D02*
X4911Y4666D01*
X3125Y4665D02*
X3130Y4665D01*
X3150Y4665D02*
X3151Y4665D01*
X3168Y4665D02*
X3174Y4665D01*
X3191Y4665D02*
X3197Y4665D01*
X3224Y4665D02*
X3229Y4665D01*
X3639Y4665D02*
X3647Y4665D01*
X3656Y4665D02*
X3667Y4665D01*
X3682Y4665D02*
X3687Y4665D01*
X3726Y4665D02*
X3731Y4665D01*
X3746Y4665D02*
X3755Y4665D01*
X3773Y4665D02*
X3779Y4665D01*
X3837Y4665D02*
X3843Y4665D01*
X3864Y4665D02*
X3870Y4665D01*
X3873Y4665D02*
X3879Y4665D01*
X4188Y4665D02*
X4192Y4665D01*
X4218Y4665D02*
X4241Y4665D01*
X4255Y4665D02*
X4259Y4665D01*
X4275Y4665D02*
X4280Y4665D01*
X4304Y4665D02*
X4309Y4665D01*
X4331Y4665D02*
X4336Y4665D01*
X4349Y4665D02*
X4357Y4665D01*
X4370Y4665D02*
X4380Y4665D01*
X4391Y4665D02*
X4395Y4665D01*
X4408Y4665D02*
X4413Y4665D01*
X4426Y4665D02*
X4434Y4665D01*
X4626Y4665D02*
X4631Y4665D01*
X4648Y4665D02*
X4654Y4665D01*
X4668Y4665D02*
X4673Y4665D01*
X4754Y4665D02*
X4759Y4665D01*
X4777Y4665D02*
X4782Y4665D01*
X4797Y4665D02*
X4802Y4665D01*
X4820Y4665D02*
X4825Y4665D01*
X4839Y4665D02*
X4844Y4665D01*
X4851Y4665D02*
X4856Y4665D01*
X4863Y4665D02*
X4868Y4665D01*
X4882Y4665D02*
X4887Y4665D01*
X4906Y4665D02*
X4911Y4665D01*
X3125Y4664D02*
X3131Y4664D01*
X3168Y4664D02*
X3174Y4664D01*
X3192Y4664D02*
X3197Y4664D01*
X3224Y4664D02*
X3229Y4664D01*
X3640Y4664D02*
X3667Y4664D01*
X3682Y4664D02*
X3687Y4664D01*
X3726Y4664D02*
X3732Y4664D01*
X3745Y4664D02*
X3755Y4664D01*
X3772Y4664D02*
X3778Y4664D01*
X3815Y4664D02*
X3817Y4664D01*
X3837Y4664D02*
X3843Y4664D01*
X3865Y4664D02*
X3870Y4664D01*
X3873Y4664D02*
X3879Y4664D01*
X4188Y4664D02*
X4192Y4664D01*
X4217Y4664D02*
X4241Y4664D01*
X4255Y4664D02*
X4260Y4664D01*
X4274Y4664D02*
X4279Y4664D01*
X4303Y4664D02*
X4308Y4664D01*
X4331Y4664D02*
X4336Y4664D01*
X4350Y4664D02*
X4357Y4664D01*
X4370Y4664D02*
X4379Y4664D01*
X4391Y4664D02*
X4395Y4664D01*
X4408Y4664D02*
X4413Y4664D01*
X4427Y4664D02*
X4434Y4664D01*
X4626Y4664D02*
X4631Y4664D01*
X4649Y4664D02*
X4654Y4664D01*
X4668Y4664D02*
X4673Y4664D01*
X4754Y4664D02*
X4759Y4664D01*
X4777Y4664D02*
X4782Y4664D01*
X4797Y4664D02*
X4802Y4664D01*
X4820Y4664D02*
X4825Y4664D01*
X4839Y4664D02*
X4844Y4664D01*
X4851Y4664D02*
X4856Y4664D01*
X4863Y4664D02*
X4868Y4664D01*
X4882Y4664D02*
X4887Y4664D01*
X4906Y4664D02*
X4911Y4664D01*
X3125Y4663D02*
X3134Y4663D01*
X3168Y4663D02*
X3173Y4663D01*
X3192Y4663D02*
X3197Y4663D01*
X3224Y4663D02*
X3229Y4663D01*
X3641Y4663D02*
X3667Y4663D01*
X3682Y4663D02*
X3687Y4663D01*
X3727Y4663D02*
X3734Y4663D01*
X3744Y4663D02*
X3755Y4663D01*
X3771Y4663D02*
X3778Y4663D01*
X3814Y4663D02*
X3819Y4663D01*
X3837Y4663D02*
X3843Y4663D01*
X3865Y4663D02*
X3871Y4663D01*
X3873Y4663D02*
X3878Y4663D01*
X4188Y4663D02*
X4192Y4663D01*
X4216Y4663D02*
X4240Y4663D01*
X4255Y4663D02*
X4260Y4663D01*
X4274Y4663D02*
X4279Y4663D01*
X4302Y4663D02*
X4308Y4663D01*
X4331Y4663D02*
X4336Y4663D01*
X4352Y4663D02*
X4357Y4663D01*
X4370Y4663D02*
X4377Y4663D01*
X4391Y4663D02*
X4395Y4663D01*
X4408Y4663D02*
X4413Y4663D01*
X4428Y4663D02*
X4434Y4663D01*
X4626Y4663D02*
X4631Y4663D01*
X4649Y4663D02*
X4654Y4663D01*
X4669Y4663D02*
X4674Y4663D01*
X4754Y4663D02*
X4759Y4663D01*
X4777Y4663D02*
X4782Y4663D01*
X4797Y4663D02*
X4802Y4663D01*
X4819Y4663D02*
X4825Y4663D01*
X4839Y4663D02*
X4844Y4663D01*
X4851Y4663D02*
X4856Y4663D01*
X4863Y4663D02*
X4868Y4663D01*
X4882Y4663D02*
X4887Y4663D01*
X4905Y4663D02*
X4910Y4663D01*
X3126Y4662D02*
X3136Y4662D01*
X3168Y4662D02*
X3173Y4662D01*
X3192Y4662D02*
X3197Y4662D01*
X3224Y4662D02*
X3229Y4662D01*
X3642Y4662D02*
X3667Y4662D01*
X3682Y4662D02*
X3687Y4662D01*
X3727Y4662D02*
X3735Y4662D01*
X3742Y4662D02*
X3755Y4662D01*
X3771Y4662D02*
X3777Y4662D01*
X3813Y4662D02*
X3822Y4662D01*
X3837Y4662D02*
X3843Y4662D01*
X3866Y4662D02*
X3878Y4662D01*
X4188Y4662D02*
X4192Y4662D01*
X4216Y4662D02*
X4239Y4662D01*
X4256Y4662D02*
X4261Y4662D01*
X4273Y4662D02*
X4278Y4662D01*
X4302Y4662D02*
X4307Y4662D01*
X4331Y4662D02*
X4336Y4662D01*
X4352Y4662D02*
X4357Y4662D01*
X4370Y4662D02*
X4376Y4662D01*
X4391Y4662D02*
X4394Y4662D01*
X4408Y4662D02*
X4413Y4662D01*
X4429Y4662D02*
X4434Y4662D01*
X4626Y4662D02*
X4631Y4662D01*
X4649Y4662D02*
X4654Y4662D01*
X4669Y4662D02*
X4675Y4662D01*
X4754Y4662D02*
X4760Y4662D01*
X4777Y4662D02*
X4782Y4662D01*
X4797Y4662D02*
X4802Y4662D01*
X4818Y4662D02*
X4825Y4662D01*
X4839Y4662D02*
X4844Y4662D01*
X4851Y4662D02*
X4856Y4662D01*
X4863Y4662D02*
X4868Y4662D01*
X4882Y4662D02*
X4888Y4662D01*
X4905Y4662D02*
X4910Y4662D01*
X3127Y4661D02*
X3138Y4661D01*
X3168Y4661D02*
X3173Y4661D01*
X3192Y4661D02*
X3197Y4661D01*
X3224Y4661D02*
X3229Y4661D01*
X3643Y4661D02*
X3660Y4661D01*
X3662Y4661D02*
X3667Y4661D01*
X3682Y4661D02*
X3687Y4661D01*
X3728Y4661D02*
X3755Y4661D01*
X3770Y4661D02*
X3776Y4661D01*
X3813Y4661D02*
X3842Y4661D01*
X3866Y4661D02*
X3877Y4661D01*
X4188Y4661D02*
X4192Y4661D01*
X4199Y4661D02*
X4202Y4661D01*
X4216Y4661D02*
X4221Y4661D01*
X4256Y4661D02*
X4261Y4661D01*
X4273Y4661D02*
X4278Y4661D01*
X4301Y4661D02*
X4307Y4661D01*
X4331Y4661D02*
X4336Y4661D01*
X4352Y4661D02*
X4357Y4661D01*
X4370Y4661D02*
X4375Y4661D01*
X4408Y4661D02*
X4413Y4661D01*
X4429Y4661D02*
X4434Y4661D01*
X4626Y4661D02*
X4631Y4661D01*
X4648Y4661D02*
X4654Y4661D01*
X4669Y4661D02*
X4676Y4661D01*
X4754Y4661D02*
X4761Y4661D01*
X4776Y4661D02*
X4782Y4661D01*
X4797Y4661D02*
X4802Y4661D01*
X4816Y4661D02*
X4825Y4661D01*
X4839Y4661D02*
X4844Y4661D01*
X4851Y4661D02*
X4856Y4661D01*
X4863Y4661D02*
X4868Y4661D01*
X4882Y4661D02*
X4889Y4661D01*
X4904Y4661D02*
X4910Y4661D01*
X3127Y4660D02*
X3141Y4660D01*
X3168Y4660D02*
X3173Y4660D01*
X3192Y4660D02*
X3197Y4660D01*
X3224Y4660D02*
X3229Y4660D01*
X3644Y4660D02*
X3658Y4660D01*
X3662Y4660D02*
X3667Y4660D01*
X3682Y4660D02*
X3687Y4660D01*
X3729Y4660D02*
X3755Y4660D01*
X3770Y4660D02*
X3776Y4660D01*
X3814Y4660D02*
X3842Y4660D01*
X3866Y4660D02*
X3877Y4660D01*
X4188Y4660D02*
X4192Y4660D01*
X4199Y4660D02*
X4203Y4660D01*
X4216Y4660D02*
X4220Y4660D01*
X4257Y4660D02*
X4262Y4660D01*
X4273Y4660D02*
X4277Y4660D01*
X4301Y4660D02*
X4306Y4660D01*
X4331Y4660D02*
X4336Y4660D01*
X4352Y4660D02*
X4357Y4660D01*
X4370Y4660D02*
X4374Y4660D01*
X4408Y4660D02*
X4413Y4660D01*
X4429Y4660D02*
X4434Y4660D01*
X4626Y4660D02*
X4631Y4660D01*
X4647Y4660D02*
X4654Y4660D01*
X4670Y4660D02*
X4677Y4660D01*
X4754Y4660D02*
X4762Y4660D01*
X4775Y4660D02*
X4782Y4660D01*
X4797Y4660D02*
X4802Y4660D01*
X4814Y4660D02*
X4825Y4660D01*
X4839Y4660D02*
X4844Y4660D01*
X4851Y4660D02*
X4856Y4660D01*
X4863Y4660D02*
X4868Y4660D01*
X4882Y4660D02*
X4890Y4660D01*
X4903Y4660D02*
X4910Y4660D01*
X3129Y4659D02*
X3143Y4659D01*
X3168Y4659D02*
X3173Y4659D01*
X3192Y4659D02*
X3197Y4659D01*
X3224Y4659D02*
X3229Y4659D01*
X3646Y4659D02*
X3656Y4659D01*
X3662Y4659D02*
X3667Y4659D01*
X3682Y4659D02*
X3687Y4659D01*
X3730Y4659D02*
X3748Y4659D01*
X3750Y4659D02*
X3755Y4659D01*
X3770Y4659D02*
X3775Y4659D01*
X3814Y4659D02*
X3842Y4659D01*
X3867Y4659D02*
X3877Y4659D01*
X4188Y4659D02*
X4192Y4659D01*
X4199Y4659D02*
X4203Y4659D01*
X4216Y4659D02*
X4220Y4659D01*
X4257Y4659D02*
X4262Y4659D01*
X4272Y4659D02*
X4277Y4659D01*
X4300Y4659D02*
X4305Y4659D01*
X4331Y4659D02*
X4336Y4659D01*
X4352Y4659D02*
X4357Y4659D01*
X4370Y4659D02*
X4374Y4659D01*
X4408Y4659D02*
X4413Y4659D01*
X4429Y4659D02*
X4434Y4659D01*
X4626Y4659D02*
X4631Y4659D01*
X4645Y4659D02*
X4654Y4659D01*
X4670Y4659D02*
X4678Y4659D01*
X4754Y4659D02*
X4763Y4659D01*
X4774Y4659D02*
X4781Y4659D01*
X4797Y4659D02*
X4803Y4659D01*
X4813Y4659D02*
X4825Y4659D01*
X4839Y4659D02*
X4844Y4659D01*
X4851Y4659D02*
X4856Y4659D01*
X4863Y4659D02*
X4868Y4659D01*
X4882Y4659D02*
X4891Y4659D01*
X4902Y4659D02*
X4909Y4659D01*
X3131Y4658D02*
X3145Y4658D01*
X3168Y4658D02*
X3173Y4658D01*
X3192Y4658D02*
X3197Y4658D01*
X3224Y4658D02*
X3229Y4658D01*
X3662Y4658D02*
X3667Y4658D01*
X3682Y4658D02*
X3687Y4658D01*
X3731Y4658D02*
X3747Y4658D01*
X3750Y4658D02*
X3755Y4658D01*
X3770Y4658D02*
X3775Y4658D01*
X3816Y4658D02*
X3841Y4658D01*
X3867Y4658D02*
X3876Y4658D01*
X4188Y4658D02*
X4192Y4658D01*
X4199Y4658D02*
X4203Y4658D01*
X4216Y4658D02*
X4220Y4658D01*
X4258Y4658D02*
X4262Y4658D01*
X4272Y4658D02*
X4277Y4658D01*
X4300Y4658D02*
X4305Y4658D01*
X4331Y4658D02*
X4336Y4658D01*
X4352Y4658D02*
X4357Y4658D01*
X4370Y4658D02*
X4374Y4658D01*
X4408Y4658D02*
X4413Y4658D01*
X4429Y4658D02*
X4434Y4658D01*
X4626Y4658D02*
X4632Y4658D01*
X4643Y4658D02*
X4654Y4658D01*
X4671Y4658D02*
X4680Y4658D01*
X4754Y4658D02*
X4764Y4658D01*
X4772Y4658D02*
X4780Y4658D01*
X4798Y4658D02*
X4804Y4658D01*
X4811Y4658D02*
X4825Y4658D01*
X4839Y4658D02*
X4844Y4658D01*
X4851Y4658D02*
X4856Y4658D01*
X4863Y4658D02*
X4868Y4658D01*
X4882Y4658D02*
X4892Y4658D01*
X4901Y4658D02*
X4909Y4658D01*
X3133Y4657D02*
X3147Y4657D01*
X3168Y4657D02*
X3173Y4657D01*
X3192Y4657D02*
X3197Y4657D01*
X3224Y4657D02*
X3229Y4657D01*
X3662Y4657D02*
X3667Y4657D01*
X3683Y4657D02*
X3686Y4657D01*
X3732Y4657D02*
X3745Y4657D01*
X3750Y4657D02*
X3754Y4657D01*
X3770Y4657D02*
X3774Y4657D01*
X3818Y4657D02*
X3840Y4657D01*
X3868Y4657D02*
X3875Y4657D01*
X4188Y4657D02*
X4192Y4657D01*
X4199Y4657D02*
X4203Y4657D01*
X4216Y4657D02*
X4220Y4657D01*
X4258Y4657D02*
X4263Y4657D01*
X4271Y4657D02*
X4276Y4657D01*
X4299Y4657D02*
X4304Y4657D01*
X4331Y4657D02*
X4336Y4657D01*
X4352Y4657D02*
X4357Y4657D01*
X4370Y4657D02*
X4374Y4657D01*
X4408Y4657D02*
X4413Y4657D01*
X4429Y4657D02*
X4434Y4657D01*
X4626Y4657D02*
X4654Y4657D01*
X4673Y4657D02*
X4695Y4657D01*
X4754Y4657D02*
X4765Y4657D01*
X4771Y4657D02*
X4779Y4657D01*
X4798Y4657D02*
X4825Y4657D01*
X4839Y4657D02*
X4844Y4657D01*
X4851Y4657D02*
X4856Y4657D01*
X4863Y4657D02*
X4868Y4657D01*
X4882Y4657D02*
X4893Y4657D01*
X4899Y4657D02*
X4908Y4657D01*
X3135Y4656D02*
X3149Y4656D01*
X3168Y4656D02*
X3173Y4656D01*
X3192Y4656D02*
X3197Y4656D01*
X3224Y4656D02*
X3229Y4656D01*
X3662Y4656D02*
X3667Y4656D01*
X3684Y4656D02*
X3685Y4656D01*
X3735Y4656D02*
X3743Y4656D01*
X3752Y4656D02*
X3753Y4656D01*
X3771Y4656D02*
X3773Y4656D01*
X3821Y4656D02*
X3838Y4656D01*
X3869Y4656D02*
X3874Y4656D01*
X4188Y4656D02*
X4192Y4656D01*
X4199Y4656D02*
X4203Y4656D01*
X4216Y4656D02*
X4220Y4656D01*
X4258Y4656D02*
X4263Y4656D01*
X4271Y4656D02*
X4276Y4656D01*
X4298Y4656D02*
X4304Y4656D01*
X4331Y4656D02*
X4336Y4656D01*
X4352Y4656D02*
X4357Y4656D01*
X4370Y4656D02*
X4374Y4656D01*
X4408Y4656D02*
X4413Y4656D01*
X4429Y4656D02*
X4434Y4656D01*
X4627Y4656D02*
X4654Y4656D01*
X4674Y4656D02*
X4696Y4656D01*
X4754Y4656D02*
X4778Y4656D01*
X4798Y4656D02*
X4818Y4656D01*
X4820Y4656D02*
X4825Y4656D01*
X4839Y4656D02*
X4844Y4656D01*
X4851Y4656D02*
X4856Y4656D01*
X4863Y4656D02*
X4868Y4656D01*
X4882Y4656D02*
X4907Y4656D01*
X3138Y4655D02*
X3150Y4655D01*
X3168Y4655D02*
X3173Y4655D01*
X3192Y4655D02*
X3197Y4655D01*
X3224Y4655D02*
X3229Y4655D01*
X3662Y4655D02*
X3667Y4655D01*
X4188Y4655D02*
X4192Y4655D01*
X4199Y4655D02*
X4203Y4655D01*
X4216Y4655D02*
X4220Y4655D01*
X4259Y4655D02*
X4264Y4655D01*
X4270Y4655D02*
X4275Y4655D01*
X4298Y4655D02*
X4303Y4655D01*
X4331Y4655D02*
X4336Y4655D01*
X4351Y4655D02*
X4357Y4655D01*
X4370Y4655D02*
X4374Y4655D01*
X4408Y4655D02*
X4413Y4655D01*
X4429Y4655D02*
X4434Y4655D01*
X4627Y4655D02*
X4654Y4655D01*
X4675Y4655D02*
X4697Y4655D01*
X4754Y4655D02*
X4777Y4655D01*
X4799Y4655D02*
X4817Y4655D01*
X4820Y4655D02*
X4825Y4655D01*
X4839Y4655D02*
X4844Y4655D01*
X4851Y4655D02*
X4856Y4655D01*
X4863Y4655D02*
X4868Y4655D01*
X4882Y4655D02*
X4905Y4655D01*
X3140Y4654D02*
X3151Y4654D01*
X3168Y4654D02*
X3173Y4654D01*
X3192Y4654D02*
X3197Y4654D01*
X3224Y4654D02*
X3229Y4654D01*
X3662Y4654D02*
X3667Y4654D01*
X4199Y4654D02*
X4203Y4654D01*
X4216Y4654D02*
X4220Y4654D01*
X4259Y4654D02*
X4264Y4654D01*
X4270Y4654D02*
X4275Y4654D01*
X4297Y4654D02*
X4302Y4654D01*
X4331Y4654D02*
X4336Y4654D01*
X4350Y4654D02*
X4357Y4654D01*
X4370Y4654D02*
X4374Y4654D01*
X4408Y4654D02*
X4413Y4654D01*
X4429Y4654D02*
X4434Y4654D01*
X4628Y4654D02*
X4647Y4654D01*
X4649Y4654D02*
X4654Y4654D01*
X4676Y4654D02*
X4697Y4654D01*
X4754Y4654D02*
X4776Y4654D01*
X4800Y4654D02*
X4815Y4654D01*
X4820Y4654D02*
X4825Y4654D01*
X4839Y4654D02*
X4844Y4654D01*
X4851Y4654D02*
X4856Y4654D01*
X4863Y4654D02*
X4868Y4654D01*
X4882Y4654D02*
X4887Y4654D01*
X4889Y4654D02*
X4904Y4654D01*
X3142Y4653D02*
X3152Y4653D01*
X3168Y4653D02*
X3173Y4653D01*
X3192Y4653D02*
X3197Y4653D01*
X3224Y4653D02*
X3229Y4653D01*
X3662Y4653D02*
X3667Y4653D01*
X4200Y4653D02*
X4203Y4653D01*
X4216Y4653D02*
X4220Y4653D01*
X4260Y4653D02*
X4265Y4653D01*
X4270Y4653D02*
X4274Y4653D01*
X4297Y4653D02*
X4302Y4653D01*
X4331Y4653D02*
X4336Y4653D01*
X4349Y4653D02*
X4357Y4653D01*
X4370Y4653D02*
X4374Y4653D01*
X4408Y4653D02*
X4413Y4653D01*
X4428Y4653D02*
X4434Y4653D01*
X4630Y4653D02*
X4646Y4653D01*
X4649Y4653D02*
X4654Y4653D01*
X4677Y4653D02*
X4696Y4653D01*
X4754Y4653D02*
X4759Y4653D01*
X4761Y4653D02*
X4775Y4653D01*
X4801Y4653D02*
X4813Y4653D01*
X4821Y4653D02*
X4825Y4653D01*
X4839Y4653D02*
X4843Y4653D01*
X4851Y4653D02*
X4856Y4653D01*
X4864Y4653D02*
X4868Y4653D01*
X4882Y4653D02*
X4887Y4653D01*
X4890Y4653D02*
X4903Y4653D01*
X3145Y4652D02*
X3152Y4652D01*
X3168Y4652D02*
X3173Y4652D01*
X3192Y4652D02*
X3197Y4652D01*
X3224Y4652D02*
X3229Y4652D01*
X3661Y4652D02*
X3667Y4652D01*
X4203Y4652D02*
X4203Y4652D01*
X4216Y4652D02*
X4220Y4652D01*
X4260Y4652D02*
X4265Y4652D01*
X4269Y4652D02*
X4274Y4652D01*
X4296Y4652D02*
X4301Y4652D01*
X4332Y4652D02*
X4337Y4652D01*
X4348Y4652D02*
X4357Y4652D01*
X4370Y4652D02*
X4374Y4652D01*
X4408Y4652D02*
X4413Y4652D01*
X4427Y4652D02*
X4434Y4652D01*
X4631Y4652D02*
X4644Y4652D01*
X4650Y4652D02*
X4653Y4652D01*
X4679Y4652D02*
X4695Y4652D01*
X4754Y4652D02*
X4759Y4652D01*
X4763Y4652D02*
X4774Y4652D01*
X4803Y4652D02*
X4811Y4652D01*
X4821Y4652D02*
X4824Y4652D01*
X4840Y4652D02*
X4842Y4652D01*
X4852Y4652D02*
X4855Y4652D01*
X4865Y4652D02*
X4867Y4652D01*
X4882Y4652D02*
X4887Y4652D01*
X4891Y4652D02*
X4902Y4652D01*
X3147Y4651D02*
X3153Y4651D01*
X3168Y4651D02*
X3173Y4651D01*
X3192Y4651D02*
X3197Y4651D01*
X3224Y4651D02*
X3229Y4651D01*
X3661Y4651D02*
X3667Y4651D01*
X4216Y4651D02*
X4220Y4651D01*
X4261Y4651D02*
X4265Y4651D01*
X4269Y4651D02*
X4274Y4651D01*
X4295Y4651D02*
X4301Y4651D01*
X4332Y4651D02*
X4339Y4651D01*
X4347Y4651D02*
X4357Y4651D01*
X4370Y4651D02*
X4374Y4651D01*
X4408Y4651D02*
X4413Y4651D01*
X4426Y4651D02*
X4434Y4651D01*
X4754Y4651D02*
X4759Y4651D01*
X4765Y4651D02*
X4772Y4651D01*
X4882Y4651D02*
X4887Y4651D01*
X4893Y4651D02*
X4900Y4651D01*
X3148Y4650D02*
X3153Y4650D01*
X3168Y4650D02*
X3173Y4650D01*
X3192Y4650D02*
X3197Y4650D01*
X3224Y4650D02*
X3229Y4650D01*
X3659Y4650D02*
X3666Y4650D01*
X4216Y4650D02*
X4220Y4650D01*
X4261Y4650D02*
X4266Y4650D01*
X4268Y4650D02*
X4273Y4650D01*
X4295Y4650D02*
X4300Y4650D01*
X4333Y4650D02*
X4357Y4650D01*
X4370Y4650D02*
X4374Y4650D01*
X4409Y4650D02*
X4414Y4650D01*
X4425Y4650D02*
X4434Y4650D01*
X4754Y4650D02*
X4759Y4650D01*
X4882Y4650D02*
X4887Y4650D01*
X3148Y4649D02*
X3153Y4649D01*
X3168Y4649D02*
X3173Y4649D01*
X3192Y4649D02*
X3197Y4649D01*
X3224Y4649D02*
X3229Y4649D01*
X3645Y4649D02*
X3666Y4649D01*
X4216Y4649D02*
X4220Y4649D01*
X4262Y4649D02*
X4273Y4649D01*
X4294Y4649D02*
X4300Y4649D01*
X4334Y4649D02*
X4357Y4649D01*
X4370Y4649D02*
X4374Y4649D01*
X4409Y4649D02*
X4415Y4649D01*
X4424Y4649D02*
X4434Y4649D01*
X4754Y4649D02*
X4759Y4649D01*
X4882Y4649D02*
X4887Y4649D01*
X3148Y4648D02*
X3153Y4648D01*
X3168Y4648D02*
X3174Y4648D01*
X3191Y4648D02*
X3197Y4648D01*
X3224Y4648D02*
X3229Y4648D01*
X3642Y4648D02*
X3665Y4648D01*
X4216Y4648D02*
X4240Y4648D01*
X4262Y4648D02*
X4272Y4648D01*
X4294Y4648D02*
X4299Y4648D01*
X4335Y4648D02*
X4350Y4648D01*
X4352Y4648D02*
X4357Y4648D01*
X4370Y4648D02*
X4374Y4648D01*
X4410Y4648D02*
X4434Y4648D01*
X4754Y4648D02*
X4759Y4648D01*
X4882Y4648D02*
X4887Y4648D01*
X3125Y4647D02*
X3128Y4647D01*
X3148Y4647D02*
X3153Y4647D01*
X3168Y4647D02*
X3175Y4647D01*
X3190Y4647D02*
X3197Y4647D01*
X3224Y4647D02*
X3229Y4647D01*
X3641Y4647D02*
X3664Y4647D01*
X4216Y4647D02*
X4241Y4647D01*
X4262Y4647D02*
X4272Y4647D01*
X4293Y4647D02*
X4298Y4647D01*
X4336Y4647D02*
X4349Y4647D01*
X4352Y4647D02*
X4357Y4647D01*
X4370Y4647D02*
X4374Y4647D01*
X4410Y4647D02*
X4434Y4647D01*
X4754Y4647D02*
X4759Y4647D01*
X4882Y4647D02*
X4887Y4647D01*
X3124Y4646D02*
X3130Y4646D01*
X3147Y4646D02*
X3153Y4646D01*
X3169Y4646D02*
X3176Y4646D01*
X3189Y4646D02*
X3196Y4646D01*
X3224Y4646D02*
X3229Y4646D01*
X3641Y4646D02*
X3663Y4646D01*
X4216Y4646D02*
X4241Y4646D01*
X4263Y4646D02*
X4271Y4646D01*
X4293Y4646D02*
X4298Y4646D01*
X4338Y4646D02*
X4347Y4646D01*
X4352Y4646D02*
X4357Y4646D01*
X4370Y4646D02*
X4374Y4646D01*
X4411Y4646D02*
X4434Y4646D01*
X4754Y4646D02*
X4759Y4646D01*
X4882Y4646D02*
X4887Y4646D01*
X3124Y4645D02*
X3153Y4645D01*
X3169Y4645D02*
X3195Y4645D01*
X3217Y4645D02*
X3236Y4645D01*
X3641Y4645D02*
X3662Y4645D01*
X4216Y4645D02*
X4241Y4645D01*
X4263Y4645D02*
X4271Y4645D01*
X4293Y4645D02*
X4297Y4645D01*
X4352Y4645D02*
X4357Y4645D01*
X4370Y4645D02*
X4374Y4645D01*
X4413Y4645D02*
X4427Y4645D01*
X4429Y4645D02*
X4433Y4645D01*
X4754Y4645D02*
X4759Y4645D01*
X4882Y4645D02*
X4887Y4645D01*
X3124Y4644D02*
X3152Y4644D01*
X3170Y4644D02*
X3195Y4644D01*
X3215Y4644D02*
X3237Y4644D01*
X3642Y4644D02*
X3660Y4644D01*
X4216Y4644D02*
X4241Y4644D01*
X4264Y4644D02*
X4270Y4644D01*
X4293Y4644D02*
X4297Y4644D01*
X4352Y4644D02*
X4357Y4644D01*
X4370Y4644D02*
X4373Y4644D01*
X4414Y4644D02*
X4425Y4644D01*
X4430Y4644D02*
X4433Y4644D01*
X4754Y4644D02*
X4759Y4644D01*
X4882Y4644D02*
X4887Y4644D01*
X3125Y4643D02*
X3152Y4643D01*
X3171Y4643D02*
X3194Y4643D01*
X3215Y4643D02*
X3238Y4643D01*
X3644Y4643D02*
X3657Y4643D01*
X4217Y4643D02*
X4239Y4643D01*
X4266Y4643D02*
X4268Y4643D01*
X4352Y4643D02*
X4357Y4643D01*
X4372Y4643D02*
X4372Y4643D01*
X4417Y4643D02*
X4422Y4643D01*
X4754Y4643D02*
X4759Y4643D01*
X4882Y4643D02*
X4887Y4643D01*
X3126Y4642D02*
X3151Y4642D01*
X3172Y4642D02*
X3193Y4642D01*
X3215Y4642D02*
X3238Y4642D01*
X4352Y4642D02*
X4357Y4642D01*
X4754Y4642D02*
X4759Y4642D01*
X4882Y4642D02*
X4887Y4642D01*
X3127Y4641D02*
X3150Y4641D01*
X3174Y4641D02*
X3191Y4641D01*
X3215Y4641D02*
X3238Y4641D01*
X4352Y4641D02*
X4357Y4641D01*
X4754Y4641D02*
X4759Y4641D01*
X4882Y4641D02*
X4887Y4641D01*
X3129Y4640D02*
X3148Y4640D01*
X3175Y4640D02*
X3190Y4640D01*
X3216Y4640D02*
X3237Y4640D01*
X4352Y4640D02*
X4357Y4640D01*
X4755Y4640D02*
X4758Y4640D01*
X4883Y4640D02*
X4886Y4640D01*
X4351Y4639D02*
X4356Y4639D01*
X4756Y4639D02*
X4756Y4639D01*
X4350Y4638D02*
X4356Y4638D01*
X4336Y4637D02*
X4355Y4637D01*
X4335Y4636D02*
X4355Y4636D01*
X4334Y4635D02*
X4354Y4635D01*
X4334Y4634D02*
X4352Y4634D01*
X4334Y4633D02*
X4351Y4633D01*
X4335Y4632D02*
X4349Y4632D01*
X4456Y4365D02*
X4471Y4365D01*
X4492Y4365D02*
X4497Y4365D01*
X4453Y4364D02*
X4472Y4364D01*
X4491Y4364D02*
X4498Y4364D01*
X4451Y4363D02*
X4473Y4363D01*
X4490Y4363D02*
X4499Y4363D01*
X4450Y4362D02*
X4473Y4362D01*
X4490Y4362D02*
X4499Y4362D01*
X4449Y4361D02*
X4473Y4361D01*
X4490Y4361D02*
X4499Y4361D01*
X4449Y4360D02*
X4473Y4360D01*
X4490Y4360D02*
X4499Y4360D01*
X4448Y4359D02*
X4472Y4359D01*
X4490Y4359D02*
X4498Y4359D01*
X4448Y4358D02*
X4456Y4358D01*
X4490Y4358D02*
X4496Y4358D01*
X4447Y4357D02*
X4454Y4357D01*
X4490Y4357D02*
X4496Y4357D01*
X4447Y4356D02*
X4454Y4356D01*
X4490Y4356D02*
X4496Y4356D01*
X4446Y4355D02*
X4453Y4355D01*
X4490Y4355D02*
X4496Y4355D01*
X4446Y4354D02*
X4453Y4354D01*
X4490Y4354D02*
X4496Y4354D01*
X4445Y4353D02*
X4452Y4353D01*
X4490Y4353D02*
X4496Y4353D01*
X4445Y4352D02*
X4452Y4352D01*
X4490Y4352D02*
X4496Y4352D01*
X4444Y4351D02*
X4451Y4351D01*
X4490Y4351D02*
X4496Y4351D01*
X4444Y4350D02*
X4451Y4350D01*
X4490Y4350D02*
X4496Y4350D01*
X4443Y4349D02*
X4450Y4349D01*
X4490Y4349D02*
X4496Y4349D01*
X4443Y4348D02*
X4450Y4348D01*
X4490Y4348D02*
X4496Y4348D01*
X4442Y4347D02*
X4449Y4347D01*
X4490Y4347D02*
X4496Y4347D01*
X4442Y4346D02*
X4449Y4346D01*
X4490Y4346D02*
X4496Y4346D01*
X4441Y4345D02*
X4448Y4345D01*
X4490Y4345D02*
X4496Y4345D01*
X4441Y4344D02*
X4448Y4344D01*
X4490Y4344D02*
X4496Y4344D01*
X4441Y4343D02*
X4447Y4343D01*
X4490Y4343D02*
X4496Y4343D01*
X4440Y4342D02*
X4447Y4342D01*
X4490Y4342D02*
X4496Y4342D01*
X4440Y4341D02*
X4446Y4341D01*
X4490Y4341D02*
X4496Y4341D01*
X4440Y4340D02*
X4446Y4340D01*
X4490Y4340D02*
X4496Y4340D01*
X4440Y4339D02*
X4446Y4339D01*
X4490Y4339D02*
X4496Y4339D01*
X4440Y4338D02*
X4446Y4338D01*
X4490Y4338D02*
X4496Y4338D01*
X4440Y4337D02*
X4446Y4337D01*
X4490Y4337D02*
X4496Y4337D01*
X4440Y4336D02*
X4446Y4336D01*
X4490Y4336D02*
X4496Y4336D01*
X4440Y4335D02*
X4446Y4335D01*
X4490Y4335D02*
X4522Y4335D01*
X4440Y4334D02*
X4447Y4334D01*
X4490Y4334D02*
X4523Y4334D01*
X4441Y4333D02*
X4447Y4333D01*
X4490Y4333D02*
X4523Y4333D01*
X4441Y4332D02*
X4448Y4332D01*
X4490Y4332D02*
X4524Y4332D01*
X4441Y4331D02*
X4448Y4331D01*
X4490Y4331D02*
X4524Y4331D01*
X4442Y4330D02*
X4449Y4330D01*
X4490Y4330D02*
X4524Y4330D01*
X4442Y4329D02*
X4449Y4329D01*
X4490Y4329D02*
X4524Y4329D01*
X4443Y4328D02*
X4450Y4328D01*
X4490Y4328D02*
X4496Y4328D01*
X4517Y4328D02*
X4524Y4328D01*
X4443Y4327D02*
X4450Y4327D01*
X4490Y4327D02*
X4496Y4327D01*
X4517Y4327D02*
X4524Y4327D01*
X4444Y4326D02*
X4451Y4326D01*
X4490Y4326D02*
X4496Y4326D01*
X4517Y4326D02*
X4524Y4326D01*
X4444Y4325D02*
X4451Y4325D01*
X4490Y4325D02*
X4496Y4325D01*
X4517Y4325D02*
X4524Y4325D01*
X4445Y4324D02*
X4452Y4324D01*
X4490Y4324D02*
X4496Y4324D01*
X4517Y4324D02*
X4524Y4324D01*
X4445Y4323D02*
X4452Y4323D01*
X4490Y4323D02*
X4496Y4323D01*
X4517Y4323D02*
X4524Y4323D01*
X4446Y4322D02*
X4453Y4322D01*
X4490Y4322D02*
X4496Y4322D01*
X4517Y4322D02*
X4524Y4322D01*
X4446Y4321D02*
X4453Y4321D01*
X4490Y4321D02*
X4496Y4321D01*
X4517Y4321D02*
X4524Y4321D01*
X4447Y4320D02*
X4454Y4320D01*
X4490Y4320D02*
X4496Y4320D01*
X4517Y4320D02*
X4524Y4320D01*
X4447Y4319D02*
X4455Y4319D01*
X4490Y4319D02*
X4496Y4319D01*
X4517Y4319D02*
X4524Y4319D01*
X4448Y4318D02*
X4470Y4318D01*
X4490Y4318D02*
X4524Y4318D01*
X4448Y4317D02*
X4472Y4317D01*
X4490Y4317D02*
X4524Y4317D01*
X4449Y4316D02*
X4473Y4316D01*
X4490Y4316D02*
X4524Y4316D01*
X4450Y4315D02*
X4473Y4315D01*
X4490Y4315D02*
X4524Y4315D01*
X4451Y4314D02*
X4473Y4314D01*
X4490Y4314D02*
X4523Y4314D01*
X4452Y4313D02*
X4473Y4313D01*
X4490Y4313D02*
X4523Y4313D01*
X4454Y4312D02*
X4472Y4312D01*
X4491Y4312D02*
X4522Y4312D01*
X4099Y4180D02*
X4154Y4180D01*
X4098Y4179D02*
X4155Y4179D01*
X4097Y4178D02*
X4156Y4178D01*
X4097Y4177D02*
X4156Y4177D01*
X4096Y4176D02*
X4156Y4176D01*
X4096Y4175D02*
X4156Y4175D01*
X4096Y4174D02*
X4156Y4174D01*
X4097Y4173D02*
X4156Y4173D01*
X4097Y4172D02*
X4155Y4172D01*
X4098Y4171D02*
X4154Y4171D01*
X4100Y4170D02*
X4152Y4170D01*
X4099Y3990D02*
X4154Y3990D01*
X4098Y3989D02*
X4155Y3989D01*
X4097Y3988D02*
X4156Y3988D01*
X4097Y3987D02*
X4156Y3987D01*
X4096Y3986D02*
X4156Y3986D01*
X4096Y3985D02*
X4156Y3985D01*
X4096Y3984D02*
X4156Y3984D01*
X4097Y3983D02*
X4156Y3983D01*
X4097Y3982D02*
X4155Y3982D01*
X4098Y3981D02*
X4154Y3981D01*
X4100Y3980D02*
X4152Y3980D01*
X3986Y3881D02*
X4005Y3881D01*
X3985Y3880D02*
X4006Y3880D01*
X3984Y3879D02*
X4007Y3879D01*
X3984Y3878D02*
X4007Y3878D01*
X3268Y3877D02*
X3286Y3877D01*
X3349Y3877D02*
X3369Y3877D01*
X3983Y3877D02*
X4007Y3877D01*
X3265Y3876D02*
X3291Y3876D01*
X3344Y3876D02*
X3372Y3876D01*
X3983Y3876D02*
X4007Y3876D01*
X3264Y3875D02*
X3293Y3875D01*
X3342Y3875D02*
X3373Y3875D01*
X3984Y3875D02*
X4007Y3875D01*
X3264Y3874D02*
X3295Y3874D01*
X3340Y3874D02*
X3374Y3874D01*
X3984Y3874D02*
X4007Y3874D01*
X3263Y3873D02*
X3296Y3873D01*
X3339Y3873D02*
X3374Y3873D01*
X3985Y3873D02*
X4007Y3873D01*
X3263Y3872D02*
X3297Y3872D01*
X3337Y3872D02*
X3374Y3872D01*
X3986Y3872D02*
X4007Y3872D01*
X3263Y3871D02*
X3298Y3871D01*
X3336Y3871D02*
X3374Y3871D01*
X3998Y3871D02*
X4007Y3871D01*
X3264Y3870D02*
X3299Y3870D01*
X3335Y3870D02*
X3374Y3870D01*
X3998Y3870D02*
X4007Y3870D01*
X3264Y3869D02*
X3299Y3869D01*
X3334Y3869D02*
X3373Y3869D01*
X3998Y3869D02*
X4007Y3869D01*
X3265Y3868D02*
X3300Y3868D01*
X3333Y3868D02*
X3372Y3868D01*
X3998Y3868D02*
X4007Y3868D01*
X3268Y3867D02*
X3300Y3867D01*
X3332Y3867D02*
X3370Y3867D01*
X3998Y3867D02*
X4007Y3867D01*
X3290Y3866D02*
X3300Y3866D01*
X3331Y3866D02*
X3345Y3866D01*
X3998Y3866D02*
X4007Y3866D01*
X3291Y3865D02*
X3301Y3865D01*
X3330Y3865D02*
X3344Y3865D01*
X3998Y3865D02*
X4007Y3865D01*
X3291Y3864D02*
X3301Y3864D01*
X3329Y3864D02*
X3343Y3864D01*
X3998Y3864D02*
X4007Y3864D01*
X3291Y3863D02*
X3301Y3863D01*
X3328Y3863D02*
X3342Y3863D01*
X3998Y3863D02*
X4007Y3863D01*
X3292Y3862D02*
X3301Y3862D01*
X3328Y3862D02*
X3341Y3862D01*
X3998Y3862D02*
X4007Y3862D01*
X3292Y3861D02*
X3301Y3861D01*
X3327Y3861D02*
X3340Y3861D01*
X3998Y3861D02*
X4007Y3861D01*
X3292Y3860D02*
X3301Y3860D01*
X3327Y3860D02*
X3338Y3860D01*
X3845Y3860D02*
X3872Y3860D01*
X3921Y3860D02*
X3940Y3860D01*
X3998Y3860D02*
X4007Y3860D01*
X3292Y3859D02*
X3301Y3859D01*
X3326Y3859D02*
X3337Y3859D01*
X3842Y3859D02*
X3875Y3859D01*
X3919Y3859D02*
X3942Y3859D01*
X3998Y3859D02*
X4007Y3859D01*
X3292Y3858D02*
X3301Y3858D01*
X3326Y3858D02*
X3336Y3858D01*
X3840Y3858D02*
X3876Y3858D01*
X3917Y3858D02*
X3944Y3858D01*
X3998Y3858D02*
X4007Y3858D01*
X3292Y3857D02*
X3301Y3857D01*
X3326Y3857D02*
X3335Y3857D01*
X3839Y3857D02*
X3878Y3857D01*
X3915Y3857D02*
X3946Y3857D01*
X3998Y3857D02*
X4007Y3857D01*
X3292Y3856D02*
X3301Y3856D01*
X3326Y3856D02*
X3335Y3856D01*
X3838Y3856D02*
X3879Y3856D01*
X3914Y3856D02*
X3947Y3856D01*
X3998Y3856D02*
X4007Y3856D01*
X3263Y3855D02*
X3301Y3855D01*
X3326Y3855D02*
X3335Y3855D01*
X3837Y3855D02*
X3880Y3855D01*
X3913Y3855D02*
X3948Y3855D01*
X3998Y3855D02*
X4007Y3855D01*
X3261Y3854D02*
X3301Y3854D01*
X3326Y3854D02*
X3335Y3854D01*
X3837Y3854D02*
X3881Y3854D01*
X3912Y3854D02*
X3949Y3854D01*
X3998Y3854D02*
X4007Y3854D01*
X3260Y3853D02*
X3301Y3853D01*
X3326Y3853D02*
X3335Y3853D01*
X3836Y3853D02*
X3881Y3853D01*
X3911Y3853D02*
X3950Y3853D01*
X3998Y3853D02*
X4007Y3853D01*
X3258Y3852D02*
X3301Y3852D01*
X3326Y3852D02*
X3335Y3852D01*
X3836Y3852D02*
X3881Y3852D01*
X3910Y3852D02*
X3951Y3852D01*
X3998Y3852D02*
X4007Y3852D01*
X3257Y3851D02*
X3301Y3851D01*
X3326Y3851D02*
X3335Y3851D01*
X3836Y3851D02*
X3882Y3851D01*
X3909Y3851D02*
X3952Y3851D01*
X3998Y3851D02*
X4007Y3851D01*
X3257Y3850D02*
X3301Y3850D01*
X3326Y3850D02*
X3335Y3850D01*
X3835Y3850D02*
X3846Y3850D01*
X3871Y3850D02*
X3881Y3850D01*
X3909Y3850D02*
X3922Y3850D01*
X3939Y3850D02*
X3953Y3850D01*
X3998Y3850D02*
X4007Y3850D01*
X3256Y3849D02*
X3301Y3849D01*
X3326Y3849D02*
X3335Y3849D01*
X3835Y3849D02*
X3845Y3849D01*
X3872Y3849D02*
X3881Y3849D01*
X3908Y3849D02*
X3920Y3849D01*
X3941Y3849D02*
X3953Y3849D01*
X3998Y3849D02*
X4007Y3849D01*
X3255Y3848D02*
X3301Y3848D01*
X3326Y3848D02*
X3335Y3848D01*
X3835Y3848D02*
X3844Y3848D01*
X3874Y3848D02*
X3880Y3848D01*
X3907Y3848D02*
X3919Y3848D01*
X3942Y3848D02*
X3954Y3848D01*
X3998Y3848D02*
X4007Y3848D01*
X3255Y3847D02*
X3301Y3847D01*
X3326Y3847D02*
X3335Y3847D01*
X3835Y3847D02*
X3844Y3847D01*
X3875Y3847D02*
X3879Y3847D01*
X3907Y3847D02*
X3918Y3847D01*
X3943Y3847D02*
X3954Y3847D01*
X3998Y3847D02*
X4007Y3847D01*
X3254Y3846D02*
X3301Y3846D01*
X3326Y3846D02*
X3335Y3846D01*
X3835Y3846D02*
X3844Y3846D01*
X3907Y3846D02*
X3917Y3846D01*
X3944Y3846D02*
X3955Y3846D01*
X3998Y3846D02*
X4007Y3846D01*
X3254Y3845D02*
X3265Y3845D01*
X3290Y3845D02*
X3301Y3845D01*
X3326Y3845D02*
X3335Y3845D01*
X3835Y3845D02*
X3846Y3845D01*
X3906Y3845D02*
X3916Y3845D01*
X3945Y3845D02*
X3955Y3845D01*
X3998Y3845D02*
X4007Y3845D01*
X3254Y3844D02*
X3264Y3844D01*
X3291Y3844D02*
X3302Y3844D01*
X3326Y3844D02*
X3335Y3844D01*
X3836Y3844D02*
X3848Y3844D01*
X3906Y3844D02*
X3916Y3844D01*
X3946Y3844D02*
X3955Y3844D01*
X3998Y3844D02*
X4007Y3844D01*
X3254Y3843D02*
X3263Y3843D01*
X3292Y3843D02*
X3302Y3843D01*
X3326Y3843D02*
X3335Y3843D01*
X3836Y3843D02*
X3850Y3843D01*
X3906Y3843D02*
X3915Y3843D01*
X3946Y3843D02*
X3955Y3843D01*
X3998Y3843D02*
X4007Y3843D01*
X3253Y3842D02*
X3263Y3842D01*
X3292Y3842D02*
X3302Y3842D01*
X3326Y3842D02*
X3335Y3842D01*
X3836Y3842D02*
X3853Y3842D01*
X3906Y3842D02*
X3915Y3842D01*
X3946Y3842D02*
X3955Y3842D01*
X3998Y3842D02*
X4007Y3842D01*
X3253Y3841D02*
X3263Y3841D01*
X3292Y3841D02*
X3302Y3841D01*
X3326Y3841D02*
X3335Y3841D01*
X3837Y3841D02*
X3855Y3841D01*
X3906Y3841D02*
X3915Y3841D01*
X3946Y3841D02*
X3955Y3841D01*
X3998Y3841D02*
X4007Y3841D01*
X3253Y3840D02*
X3262Y3840D01*
X3292Y3840D02*
X3302Y3840D01*
X3326Y3840D02*
X3336Y3840D01*
X3838Y3840D02*
X3857Y3840D01*
X3906Y3840D02*
X3915Y3840D01*
X3946Y3840D02*
X3955Y3840D01*
X3998Y3840D02*
X4007Y3840D01*
X3253Y3839D02*
X3262Y3839D01*
X3292Y3839D02*
X3302Y3839D01*
X3326Y3839D02*
X3336Y3839D01*
X3838Y3839D02*
X3860Y3839D01*
X3906Y3839D02*
X3915Y3839D01*
X3946Y3839D02*
X3955Y3839D01*
X3998Y3839D02*
X4007Y3839D01*
X3253Y3838D02*
X3262Y3838D01*
X3292Y3838D02*
X3302Y3838D01*
X3326Y3838D02*
X3337Y3838D01*
X3839Y3838D02*
X3862Y3838D01*
X3906Y3838D02*
X3915Y3838D01*
X3946Y3838D02*
X3955Y3838D01*
X3998Y3838D02*
X4007Y3838D01*
X3253Y3837D02*
X3262Y3837D01*
X3292Y3837D02*
X3302Y3837D01*
X3327Y3837D02*
X3339Y3837D01*
X3841Y3837D02*
X3864Y3837D01*
X3906Y3837D02*
X3915Y3837D01*
X3946Y3837D02*
X3955Y3837D01*
X3998Y3837D02*
X4007Y3837D01*
X3253Y3836D02*
X3262Y3836D01*
X3291Y3836D02*
X3302Y3836D01*
X3327Y3836D02*
X3340Y3836D01*
X3842Y3836D02*
X3867Y3836D01*
X3906Y3836D02*
X3915Y3836D01*
X3946Y3836D02*
X3955Y3836D01*
X3998Y3836D02*
X4007Y3836D01*
X3253Y3835D02*
X3263Y3835D01*
X3290Y3835D02*
X3302Y3835D01*
X3328Y3835D02*
X3341Y3835D01*
X3844Y3835D02*
X3869Y3835D01*
X3906Y3835D02*
X3915Y3835D01*
X3946Y3835D02*
X3955Y3835D01*
X3998Y3835D02*
X4007Y3835D01*
X3253Y3834D02*
X3263Y3834D01*
X3288Y3834D02*
X3302Y3834D01*
X3328Y3834D02*
X3342Y3834D01*
X3847Y3834D02*
X3871Y3834D01*
X3906Y3834D02*
X3915Y3834D01*
X3946Y3834D02*
X3955Y3834D01*
X3998Y3834D02*
X4007Y3834D01*
X3254Y3833D02*
X3263Y3833D01*
X3286Y3833D02*
X3302Y3833D01*
X3329Y3833D02*
X3343Y3833D01*
X3849Y3833D02*
X3873Y3833D01*
X3906Y3833D02*
X3915Y3833D01*
X3946Y3833D02*
X3955Y3833D01*
X3998Y3833D02*
X4007Y3833D01*
X3254Y3832D02*
X3264Y3832D01*
X3285Y3832D02*
X3302Y3832D01*
X3330Y3832D02*
X3345Y3832D01*
X3851Y3832D02*
X3875Y3832D01*
X3906Y3832D02*
X3915Y3832D01*
X3946Y3832D02*
X3955Y3832D01*
X3998Y3832D02*
X4007Y3832D01*
X3254Y3831D02*
X3265Y3831D01*
X3283Y3831D02*
X3302Y3831D01*
X3331Y3831D02*
X3346Y3831D01*
X3854Y3831D02*
X3877Y3831D01*
X3906Y3831D02*
X3915Y3831D01*
X3946Y3831D02*
X3955Y3831D01*
X3998Y3831D02*
X4007Y3831D01*
X3254Y3830D02*
X3302Y3830D01*
X3332Y3830D02*
X3371Y3830D01*
X3856Y3830D02*
X3878Y3830D01*
X3906Y3830D02*
X3915Y3830D01*
X3946Y3830D02*
X3955Y3830D01*
X3998Y3830D02*
X4007Y3830D01*
X3255Y3829D02*
X3302Y3829D01*
X3333Y3829D02*
X3373Y3829D01*
X3858Y3829D02*
X3879Y3829D01*
X3906Y3829D02*
X3915Y3829D01*
X3946Y3829D02*
X3955Y3829D01*
X3998Y3829D02*
X4007Y3829D01*
X3255Y3828D02*
X3302Y3828D01*
X3335Y3828D02*
X3374Y3828D01*
X3861Y3828D02*
X3879Y3828D01*
X3906Y3828D02*
X3915Y3828D01*
X3946Y3828D02*
X3955Y3828D01*
X3998Y3828D02*
X4007Y3828D01*
X3256Y3827D02*
X3302Y3827D01*
X3336Y3827D02*
X3374Y3827D01*
X3863Y3827D02*
X3880Y3827D01*
X3906Y3827D02*
X3915Y3827D01*
X3946Y3827D02*
X3955Y3827D01*
X3998Y3827D02*
X4007Y3827D01*
X3257Y3826D02*
X3302Y3826D01*
X3337Y3826D02*
X3374Y3826D01*
X3865Y3826D02*
X3881Y3826D01*
X3906Y3826D02*
X3915Y3826D01*
X3946Y3826D02*
X3955Y3826D01*
X3998Y3826D02*
X4007Y3826D01*
X3257Y3825D02*
X3302Y3825D01*
X3338Y3825D02*
X3374Y3825D01*
X3868Y3825D02*
X3881Y3825D01*
X3906Y3825D02*
X3915Y3825D01*
X3946Y3825D02*
X3955Y3825D01*
X3998Y3825D02*
X4007Y3825D01*
X3259Y3824D02*
X3290Y3824D01*
X3293Y3824D02*
X3302Y3824D01*
X3339Y3824D02*
X3374Y3824D01*
X3870Y3824D02*
X3882Y3824D01*
X3906Y3824D02*
X3915Y3824D01*
X3946Y3824D02*
X3955Y3824D01*
X3998Y3824D02*
X4007Y3824D01*
X3260Y3823D02*
X3288Y3823D01*
X3294Y3823D02*
X3302Y3823D01*
X3341Y3823D02*
X3374Y3823D01*
X3872Y3823D02*
X3882Y3823D01*
X3906Y3823D02*
X3915Y3823D01*
X3946Y3823D02*
X3955Y3823D01*
X3998Y3823D02*
X4007Y3823D01*
X3261Y3822D02*
X3287Y3822D01*
X3294Y3822D02*
X3301Y3822D01*
X3342Y3822D02*
X3373Y3822D01*
X3872Y3822D02*
X3882Y3822D01*
X3906Y3822D02*
X3915Y3822D01*
X3946Y3822D02*
X3955Y3822D01*
X3998Y3822D02*
X4007Y3822D01*
X3264Y3821D02*
X3285Y3821D01*
X3296Y3821D02*
X3300Y3821D01*
X3344Y3821D02*
X3372Y3821D01*
X3873Y3821D02*
X3882Y3821D01*
X3906Y3821D02*
X3915Y3821D01*
X3946Y3821D02*
X3955Y3821D01*
X3998Y3821D02*
X4007Y3821D01*
X3873Y3820D02*
X3883Y3820D01*
X3906Y3820D02*
X3916Y3820D01*
X3946Y3820D02*
X3955Y3820D01*
X3998Y3820D02*
X4007Y3820D01*
X3873Y3819D02*
X3883Y3819D01*
X3906Y3819D02*
X3916Y3819D01*
X3945Y3819D02*
X3955Y3819D01*
X3998Y3819D02*
X4007Y3819D01*
X3873Y3818D02*
X3882Y3818D01*
X3907Y3818D02*
X3917Y3818D01*
X3944Y3818D02*
X3955Y3818D01*
X3998Y3818D02*
X4007Y3818D01*
X3836Y3817D02*
X3840Y3817D01*
X3873Y3817D02*
X3882Y3817D01*
X3907Y3817D02*
X3918Y3817D01*
X3943Y3817D02*
X3954Y3817D01*
X3998Y3817D02*
X4007Y3817D01*
X3835Y3816D02*
X3842Y3816D01*
X3872Y3816D02*
X3882Y3816D01*
X3907Y3816D02*
X3919Y3816D01*
X3942Y3816D02*
X3954Y3816D01*
X3998Y3816D02*
X4007Y3816D01*
X3834Y3815D02*
X3844Y3815D01*
X3872Y3815D02*
X3882Y3815D01*
X3908Y3815D02*
X3920Y3815D01*
X3941Y3815D02*
X3953Y3815D01*
X3998Y3815D02*
X4007Y3815D01*
X3834Y3814D02*
X3846Y3814D01*
X3870Y3814D02*
X3882Y3814D01*
X3908Y3814D02*
X3922Y3814D01*
X3939Y3814D02*
X3953Y3814D01*
X3998Y3814D02*
X4007Y3814D01*
X3834Y3813D02*
X3881Y3813D01*
X3909Y3813D02*
X3952Y3813D01*
X3986Y3813D02*
X4020Y3813D01*
X3834Y3812D02*
X3881Y3812D01*
X3910Y3812D02*
X3951Y3812D01*
X3985Y3812D02*
X4021Y3812D01*
X3834Y3811D02*
X3880Y3811D01*
X3911Y3811D02*
X3950Y3811D01*
X3984Y3811D02*
X4022Y3811D01*
X3835Y3810D02*
X3880Y3810D01*
X3912Y3810D02*
X3949Y3810D01*
X3984Y3810D02*
X4022Y3810D01*
X3836Y3809D02*
X3879Y3809D01*
X3913Y3809D02*
X3948Y3809D01*
X3983Y3809D02*
X4022Y3809D01*
X3837Y3808D02*
X3878Y3808D01*
X3914Y3808D02*
X3947Y3808D01*
X3984Y3808D02*
X4022Y3808D01*
X3838Y3807D02*
X3877Y3807D01*
X3915Y3807D02*
X3946Y3807D01*
X3984Y3807D02*
X4022Y3807D01*
X3840Y3806D02*
X3875Y3806D01*
X3917Y3806D02*
X3944Y3806D01*
X3984Y3806D02*
X4021Y3806D01*
X3842Y3805D02*
X3874Y3805D01*
X3919Y3805D02*
X3943Y3805D01*
X3985Y3805D02*
X4021Y3805D01*
X3845Y3804D02*
X3871Y3804D01*
X3921Y3804D02*
X3940Y3804D01*
X3987Y3804D02*
X4019Y3804D01*
D02*
G04 End of Silk1*
M02*