; NON-PLATED HOLES START AT T1
; THROUGH (PLATED) HOLES START AT T100
M48
INCH
T1C0.048611
T2C0.052806
T3C0.051667
T100C0.035433
T101C0.027559
T102C0.035000
T103C0.042000
T104C0.051181
T105C0.038917
T106C0.041000
T107C0.040000
T108C0.031497
T109C0.037778
T110C0.034722
%
T1
X011890Y008113
X028890Y011113
X028890Y030113
X009890Y018113
X019890Y007113
X009890Y030713
X009890Y021113
X011890Y007113
X028890Y010113
X009890Y017113
X014890Y008113
X023890Y008113
X009890Y020113
X028890Y025113
X009890Y016113
X014890Y007113
X017890Y008113
X023890Y007113
X026890Y008113
X028890Y024114
X009890Y015113
X017890Y007113
X028890Y023113
X026890Y007113
X009890Y014114
X028890Y019114
X012890Y008113
X028890Y022113
X021890Y008113
X028890Y018113
X012890Y007113
X028890Y021113
X021890Y007113
X009890Y037714
X015890Y008113
X024890Y008113
X009890Y008113
X009890Y036713
X028890Y020113
X015890Y007113
X009890Y027113
X024890Y007113
X018890Y008113
X028890Y016113
X009890Y007113
X009890Y035713
X010890Y008113
X009890Y026113
X018890Y007113
X028890Y015113
X028890Y034113
X010890Y007113
X009890Y034713
X009890Y025113
X013890Y008113
X022890Y008113
X028890Y014114
X028890Y033113
X009890Y033713
X009890Y024114
X028890Y029113
X013890Y007113
X022890Y007113
X009890Y029713
X016890Y008113
X028890Y013113
X028890Y032113
X009890Y032713
X028890Y009114
X009890Y023113
X028890Y028113
X016890Y007113
X009890Y028713
X028890Y012113
X028890Y031113
X019890Y008113
X009890Y031713
X009890Y022113
X028890Y027113
T2
X009890Y012113
X009890Y013113
X009890Y011113
T3
X020890Y007113
X025890Y008113
X020890Y008113
X025890Y007113
T100
X037686Y015286
X006199Y006356
X042804Y020601
X022213Y041152
X012922Y009538
X026977Y035680
X016780Y003121
X038197Y032215
X028473Y043751
X012240Y011480
X027016Y032058
X008394Y025089
X047449Y002806
X038749Y003003
X006938Y011625
X008237Y034696
X047449Y016231
X003473Y038436
X035638Y030404
X004339Y001113
X009890Y039263
X009546Y006344
X021150Y004696
X037371Y045168
X007253Y026113
X024024Y009775
X016977Y021389
X011190Y024499
X015431Y005083
X039296Y030572
X034407Y048627
X035638Y018751
X008473Y008948
X022371Y042215
X048552Y024538
X024812Y027334
X021820Y016664
X035328Y021947
X032883Y030404
X041898Y046113
X048749Y049460
X033946Y007097
X048670Y034853
X025717Y033908
X020678Y035247
X016623Y042215
X021701Y034696
X031701Y019971
X011859Y009538
X031701Y036310
X003257Y023995
X014890Y042255
X017016Y032215
X011662Y022176
X027449Y028239
X014890Y009578
X016143Y030613
X035481Y032176
X016180Y033391
X015953Y015523
X011583Y029735
X021544Y014538
X030520Y030129
X040245Y046271
X015536Y011502
X003552Y007648
X035481Y039302
X011505Y015444
X024694Y032058
X033906Y016192
X041150Y043278
X026898Y002058
X035284Y023751
X004536Y012058
X035638Y020011
X003552Y045129
X023552Y029971
X044064Y005562
X028788Y007058
X030166Y005523
X012804Y032019
X021662Y013121
X022804Y015404
X036583Y041979
X024024Y012294
X029615Y044853
X027686Y010680
X023618Y038370
T101
X040520Y032412
X042489Y032412
T102
X043268Y040798
X040638Y037515
X041268Y040798
X040638Y033515
T103
X005349Y003149
X047498Y020626
X004349Y003149
X006349Y003149
X037688Y018780
X033953Y003042
X035953Y003042
X006545Y017091
X047174Y034822
X047449Y005581
X034953Y003042
X003473Y028923
X006473Y028923
X006545Y015091
X003490Y035134
X047498Y021626
X006490Y035134
X037688Y019780
X047174Y035822
X047449Y006581
X019186Y003130
X037688Y017780
X006545Y016091
X047449Y004581
X021186Y003130
X020186Y003130
X006598Y041841
X003598Y041841
X047498Y019626
X047174Y036822
T104
X030797Y037750
X033797Y039750
X033797Y043750
X033797Y036750
X030797Y043750
X035467Y037733
X038467Y039733
X038467Y043733
X038467Y036733
X035467Y043733
T105
X009890Y012113
X009890Y013113
X009890Y011113
T106
X041001Y028696
X043001Y029696
X043001Y027696
T107
X033071Y048082
X018254Y033243
X019551Y012521
X043977Y048042
X018236Y043180
X018236Y039180
X018254Y032243
X019551Y011521
X018236Y042180
X038544Y048042
X018254Y031243
X018236Y041180
X019254Y035243
X018625Y024391
X031071Y048082
X018236Y040180
X041977Y048042
X019254Y034243
X018625Y023391
X019254Y033243
X019236Y043180
X018625Y022391
X036544Y048042
X018551Y015521
X019236Y039180
X019254Y032243
X019236Y042180
X018625Y021391
X048701Y048082
X018551Y014521
X019254Y031243
X019236Y041180
X018625Y020391
X018551Y013521
X019625Y024391
X019236Y040180
X018551Y012521
X019625Y023391
X018551Y011521
X046701Y048082
X019625Y022391
X019551Y015521
X018254Y035243
X019625Y021391
X019551Y014521
X018254Y034243
X019625Y020391
X019551Y013521
T108
X002625Y048095
X002625Y047111
T109
X020890Y007113
X025890Y008113
X020890Y008113
X025890Y007113
T110
X011890Y008113
X028890Y011113
X028890Y030113
X009890Y018113
X019890Y007113
X009890Y030713
X009890Y021113
X011890Y007113
X028890Y010113
X009890Y017113
X014890Y008113
X023890Y008113
X009890Y020113
X028890Y025113
X009890Y016113
X014890Y007113
X017890Y008113
X023890Y007113
X026890Y008113
X028890Y024114
X009890Y015113
X017890Y007113
X028890Y023113
X026890Y007113
X009890Y014114
X028890Y019114
X012890Y008113
X028890Y022113
X021890Y008113
X028890Y018113
X012890Y007113
X028890Y021113
X021890Y007113
X009890Y037714
X015890Y008113
X024890Y008113
X009890Y008113
X009890Y036713
X028890Y020113
X015890Y007113
X009890Y027113
X024890Y007113
X018890Y008113
X028890Y016113
X009890Y007113
X009890Y035713
X010890Y008113
X009890Y026113
X018890Y007113
X028890Y015113
X028890Y034113
X010890Y007113
X009890Y034713
X009890Y025113
X013890Y008113
X022890Y008113
X028890Y014114
X028890Y033113
X009890Y033713
X009890Y024114
X028890Y029113
X013890Y007113
X022890Y007113
X009890Y029713
X016890Y008113
X028890Y013113
X028890Y032113
X009890Y032713
X028890Y009114
X009890Y023113
X028890Y028113
X016890Y007113
X009890Y028713
X028890Y012113
X028890Y031113
X019890Y008113
X009890Y031713
X009890Y022113
X028890Y027113
T00
M30
