; NON-PLATED HOLES START AT T1
; THROUGH (PLATED) HOLES START AT T100
M48
INCH
T100C0.040000
T101C0.031555
T102C0.015748
T103C0.035000
T104C0.042000
T105C0.030000
T106C0.031496
T107C0.038000
T108C0.035433
%
T100
X005084Y013429
X005084Y011429
T101
X023902Y004430
T102
X018444Y009736
T103
X024439Y011551
X022439Y011551
X020439Y011551
X025439Y011551
X023439Y008551
X021439Y008551
X013205Y001419
X010199Y008477
X024439Y008551
X022439Y008551
X020439Y008551
X025439Y008551
X004567Y003396
X006567Y003396
X015764Y003191
X010199Y012477
X013439Y011551
X013205Y003191
X015764Y001419
X009067Y003396
X018439Y011551
X016439Y011551
X014439Y011551
X012439Y011551
X019439Y011551
X017439Y011551
X015439Y011551
X013439Y008551
X018439Y008551
X016439Y008551
X014439Y008551
X012439Y008551
X011067Y003396
X019439Y008551
X017439Y008551
X015439Y008551
X023439Y011551
X021439Y011551
T104
X006567Y008896
X027183Y031023
X008996Y007791
X027183Y029023
X027183Y024671
X008996Y010771
X027220Y020319
X027183Y025671
X006567Y006896
X027220Y021319
X027183Y026671
X006567Y007896
X027220Y022319
X027183Y030023
T105
X010380Y006491
X020411Y003422
X025918Y004410
X020411Y001422
X025918Y002410
X011382Y006491
T106
X021971Y004429
T107
X017083Y004366
X015083Y004366
X006720Y018819
X018083Y004366
X016083Y004366
X014083Y004366
X001695Y021819
X013439Y006471
X019083Y004366
X006720Y024819
X016439Y006471
X014439Y006471
X012439Y006471
X001993Y004821
X028067Y003821
X001695Y018819
X017439Y006471
X015439Y006471
X001695Y024819
X008720Y022819
X006720Y022819
X001993Y002821
X028067Y001821
X006720Y019819
X008720Y019819
X023423Y013582
X021423Y013582
X001695Y022819
X006720Y020819
X008720Y020819
X024423Y013582
X022423Y013582
X022433Y006413
X025423Y013582
X028067Y004821
X006720Y017819
X001695Y019819
X025433Y006413
X023433Y006413
X001695Y020819
X024433Y006413
X006720Y023819
X001993Y003821
X028067Y002821
X001695Y017819
X013439Y013526
X016439Y013526
X014439Y013526
X012439Y013526
X001695Y023819
X008720Y021819
X006720Y021819
X001993Y001821
X017439Y013526
X015439Y013526
T108
X010221Y009067
X028109Y000650
X025572Y030005
X001710Y026238
X025480Y019502
X023331Y029020
X017072Y003057
X011072Y014909
X025665Y021301
X003877Y006039
X013453Y005550
X024443Y024724
X025628Y025690
X018470Y012626
X019415Y007298
X005065Y024843
X006720Y011437
X020313Y016653
X014331Y010428
X018998Y017671
X004040Y018815
T00
M30
