<?xml version='1.0' encoding='UTF-8' standalone='no'?>
<!-- Created with Fritzing (http://www.fritzing.org/) -->
<svg xmlns="http://www.w3.org/2000/svg" baseProfile="tiny" xmlns:svg="http://www.w3.org/2000/svg" height="3.2785in" width="2.91254in" viewBox="0 0 209.703 236.052"  x="0in" y="0in" version="1.2">
 <g partID="854645840">
  <g  id="board">
   <rect stroke="black" fill="none" height="235.476" width="209.127" stroke-width="0.5" fill-opacity="0.5"  x="0.288" y="0.288" id="boardoutline"/>
  </g>
 </g>
 <g partID="854645900">
  <g transform="translate(210.122,4.04205)">
   <g transform="matrix(0,1,-1,0,0,0)">
    <g  id="copper0">
     <rect stroke="black" fill="none" height="4.464" width="4.464" stroke-width="1.44"  x="6.408" y="12.168"/>
     <circle stroke="black" fill="none" cx="8.64" cy="14.4" r="2.232" stroke-width="1.44"  id="connector0pad"/>
     <circle stroke="black" fill="none" cx="15.84" cy="14.4" r="2.232" stroke-width="1.44"  id="connector1pad"/>
     <circle stroke="black" fill="none" cx="23.04" cy="14.4" r="2.232" stroke-width="1.44"  id="connector2pad"/>
    </g>
   </g>
  </g>
 </g>
 <g partID="854645910">
  <g transform="translate(210.388,66.7087)">
   <g transform="matrix(0,1,-1,0,0,0)">
    <g  id="copper0">
     <rect stroke="black" fill="none" height="4.464" width="4.464" stroke-width="1.44"  x="6.408" y="12.168"/>
     <circle stroke="black" fill="none" cx="8.64" cy="14.4" r="2.232" stroke-width="1.44"  id="connector0pad"/>
     <circle stroke="black" fill="none" cx="15.84" cy="14.4" r="2.232" stroke-width="1.44"  id="connector1pad"/>
     <circle stroke="black" fill="none" cx="23.04" cy="14.4" r="2.232" stroke-width="1.44"  id="connector2pad"/>
    </g>
   </g>
  </g>
 </g>
 <g partID="854645920">
  <g transform="translate(210.122,35.3753)">
   <g transform="matrix(0,1,-1,0,0,0)">
    <g  id="copper0">
     <rect stroke="black" fill="none" height="4.464" width="4.464" stroke-width="1.44"  x="6.408" y="12.168"/>
     <circle stroke="black" fill="none" cx="8.64" cy="14.4" r="2.232" stroke-width="1.44"  id="connector0pad"/>
     <circle stroke="black" fill="none" cx="15.84" cy="14.4" r="2.232" stroke-width="1.44"  id="connector1pad"/>
     <circle stroke="black" fill="none" cx="23.04" cy="14.4" r="2.232" stroke-width="1.44"  id="connector2pad"/>
    </g>
   </g>
  </g>
 </g>
 <g partID="854645930">
  <g transform="translate(8.00196,42.8198)">
   <g  id="copper0">
    <circle stroke="black" fill="none" cx="4.31559" cy="4.31559" r="1.99559" stroke-width="1.44"  id="connector0pin"/>
   </g>
  </g>
 </g>
 <g partID="854645950">
  <g transform="translate(141.939,111.834)">
   <g  id="copper0">
    <circle stroke="black" fill="none" cx="4.31559" cy="4.31559" r="1.99559" stroke-width="1.44"  id="connector0pin"/>
   </g>
  </g>
 </g>
 <g partID="854645970">
  <g transform="translate(132.472,104.5)">
   <g  id="copper0">
    <circle stroke="black" fill="none" cx="4.31559" cy="4.31559" r="1.99559" stroke-width="1.44"  id="connector0pin"/>
   </g>
  </g>
 </g>
 <g partID="854645980">
  <g transform="translate(180.473,78.3665)">
   <g  id="copper0">
    <circle stroke="black" fill="none" cx="4.31559" cy="4.31559" r="1.99559" stroke-width="1.44"  id="connector0pin"/>
   </g>
  </g>
 </g>
 <g partID="854645990">
  <g transform="translate(180.206,46.7665)">
   <g  id="copper0">
    <circle stroke="black" fill="none" cx="4.31559" cy="4.31559" r="1.99559" stroke-width="1.44"  id="connector0pin"/>
   </g>
  </g>
 </g>
 <g partID="854646000">
  <g transform="translate(179.806,15.6997)">
   <g  id="copper0">
    <circle stroke="black" fill="none" cx="4.31559" cy="4.31559" r="1.99559" stroke-width="1.44"  id="connector0pin"/>
   </g>
  </g>
 </g>
 <g partID="854648570">
  <g transform="translate(32.1539,52.8662)">
   <g  id="copper0">
    <circle stroke="black" fill="none" cx="4.31559" cy="4.31559" r="1.99559" stroke-width="1.44"  id="connector0pin"/>
   </g>
  </g>
 </g>
 <g partID="854648670">
  <g transform="translate(24.7747,96.2681)">
   <g  id="copper0">
    <circle stroke="black" fill="none" cx="4.31559" cy="4.31559" r="1.99559" stroke-width="1.44"  id="connector0pin"/>
   </g>
  </g>
 </g>
 <g partID="854649390">
  <g transform="translate(163.674,22.7862)">
   <g  id="copper0">
    <circle stroke="black" fill="none" cx="4.31559" cy="4.31559" r="1.99559" stroke-width="1.44"  id="connector0pin"/>
   </g>
  </g>
 </g>
 <g partID="854649450">
  <g transform="translate(171.674,53.7195)">
   <g  id="copper0">
    <circle stroke="black" fill="none" cx="4.31559" cy="4.31559" r="1.99559" stroke-width="1.44"  id="connector0pin"/>
   </g>
  </g>
 </g>
 <g partID="854649510">
  <g transform="translate(179.14,91.3193)">
   <g  id="copper0">
    <circle stroke="black" fill="none" cx="4.31559" cy="4.31559" r="1.99559" stroke-width="1.44"  id="connector0pin"/>
   </g>
  </g>
 </g>
 <g partID="854651280">
  <g transform="translate(75.4067,124.386)">
   <g  id="copper0">
    <circle stroke="black" fill="none" cx="4.31559" cy="4.31559" r="1.99559" stroke-width="1.44"  id="connector0pin"/>
   </g>
  </g>
 </g>
 <g partID="854651940">
  <g transform="translate(118.607,209.719)">
   <g  id="copper0">
    <circle stroke="black" fill="none" cx="4.31559" cy="4.31559" r="1.99559" stroke-width="1.44"  id="connector0pin"/>
   </g>
  </g>
 </g>
 <g partID="854652040">
  <g transform="translate(198.074,227.053)">
   <g  id="copper0">
    <circle stroke="black" fill="none" cx="4.31559" cy="4.31559" r="1.99559" stroke-width="1.44"  id="connector0pin"/>
   </g>
  </g>
 </g>
 <g partID="854644580">
  <g transform="translate(129.78,162.93)">
   <g  id="copper0">
    <circle stroke="black" fill="none" cx="3.01733" cy="3.01733" r="0.992124" stroke-width="0.850392"  id="connector0pin"/>
   </g>
  </g>
 </g>
 <g partID="18508320">
  <g transform="translate(54.8475,226.36)">
   <g transform="matrix(-1,0,0,-1,0,0)">
    <g  id="copper0">
     <rect stroke="black" fill="none" height="3.96" width="3.96" stroke-width="1.44"  x="5.58" y="12.78" id="rect11"/>
     <circle stroke="black" fill="none" cx="7.56" cy="14.76" r="1.98" stroke-width="1.44"  id="connector0pin"/>
     <circle stroke="black" fill="none" cx="21.96" cy="14.76" r="1.98" stroke-width="1.44"  id="connector1pin"/>
    </g>
   </g>
  </g>
 </g>
 <g partID="18509800">
  <g transform="translate(57.7275,196.84)">
   <g  id="copper0">
    <rect stroke="black" fill="none" height="3.96" width="3.96" stroke-width="1.44"  x="5.58" y="12.78" id="rect11"/>
    <circle stroke="black" fill="none" cx="7.56" cy="14.76" r="1.98" stroke-width="1.44"  id="connector0pin"/>
    <circle stroke="black" fill="none" cx="21.96" cy="14.76" r="1.98" stroke-width="1.44"  id="connector1pin"/>
   </g>
  </g>
 </g>
 <g partID="18510010">
  <g transform="translate(115.922,228.677)">
   <g transform="matrix(-1,0,0,-1,0,0)">
    <g  id="copper0">
     <circle stroke="black" fill="none" cx="20.8462" cy="15.6024" r="1.98" stroke-width="1.44"  id="connector0pad"/>
     <circle stroke="black" fill="none" cx="2.42064" cy="15.6024" r="1.98" stroke-width="1.44"  id="connector1pad"/>
     <circle stroke="black" fill="none" cx="20.8462" cy="2.84616" r="1.98" stroke-width="1.44"  id="connector2pad"/>
     <circle stroke="black" fill="none" cx="2.42064" cy="2.84616" r="1.98" stroke-width="1.44"  id="connector3pad"/>
    </g>
   </g>
  </g>
 </g>
 <g partID="854645180">
  <g transform="translate(68.3771,155.471)">
   <g transform="matrix(0,1,-1,0,0,0)">
    <g  id="copper0">
     <rect stroke="black" fill="none" height="4.464" width="4.464" stroke-width="1.44"  x="0.72" y="1.368"/>
     <circle stroke="black" fill="none" cx="3.024" cy="3.6" r="2.232" stroke-width="1.44"  id="connector0pin"/>
     <circle stroke="black" fill="none" cx="24.48" cy="3.6" r="2.232" stroke-width="1.44"  id="connector1pin"/>
    </g>
   </g>
  </g>
 </g>
 <g partID="854645160">
  <g transform="translate(68.3771,155.471)">
   <g transform="matrix(0,1,-1,0,0,0)">
    <g  id="copper0">
     <rect stroke="black" fill="none" height="4.464" width="4.464" stroke-width="1.44"  x="0.72" y="1.368"/>
     <circle stroke="black" fill="none" cx="3.024" cy="3.6" r="2.232" stroke-width="1.44"  id="connector0pin"/>
     <circle stroke="black" fill="none" cx="24.48" cy="3.6" r="2.232" stroke-width="1.44"  id="connector1pin"/>
    </g>
   </g>
  </g>
 </g>
 <g partID="18510080">
  <g transform="translate(32.8875,195.04)">
   <g transform="matrix(0,-1,1,0,0,0)">
    <g  id="copper0">
     <rect stroke="black" fill="none" height="4.464" width="4.464" stroke-width="1.44"  x="6.408" y="12.168"/>
     <circle stroke="black" fill="none" cx="8.64" cy="14.4" r="2.232" stroke-width="1.44"  id="connector0pad"/>
     <circle stroke="black" fill="none" cx="15.84" cy="14.4" r="2.232" stroke-width="1.44"  id="connector1pad"/>
     <circle stroke="black" fill="none" cx="23.04" cy="14.4" r="2.232" stroke-width="1.44"  id="connector2pad"/>
    </g>
   </g>
  </g>
 </g>
 <g partID="854645280">
  <g transform="translate(76.5339,143.512)">
   <g transform="matrix(0,1,-1,0,0,0)">
    <g  id="copper0">
     <g  id="copper1">
      <!-- <rect width="55" x="10" y="15.5" fill="none" height="55" stroke="rgb(255, 191, 0)" stroke-width="20" />  -->
      <circle stroke="black" fill="none" cx="2.7" cy="3.096" r="1.98" stroke-width="1.44"  id="connector0pin"/>
      <circle stroke="black" fill="none" cx="31.5" cy="3.096" r="1.98" stroke-width="1.44"  id="connector1pin"/>
     </g>
    </g>
   </g>
  </g>
 </g>
 <g partID="18510240">
  <g transform="translate(149.547,197.07)">
   <g  id="copper0">
    <g  id="copper1">
     <circle stroke="black" fill="none" cx="22.5479" cy="7.08448" r="1.84465" stroke-width="1.41732"  id="connector1pin"/>
     <circle stroke="black" fill="none" cx="8.64567" cy="7.08661" r="1.84252" stroke-width="1.41732"  id="connector0pin"/>
    </g>
   </g>
  </g>
 </g>
 <g partID="18510280">
  <g transform="translate(189.492,201.414)">
   <g transform="matrix(0,1,-1,0,0,0)">
    <g  id="copper0">
     <g  id="copper1">
      <circle stroke="black" fill="none" cx="2.88" cy="2.88" r="1.8" stroke-width="1.44"  id="connector0pin"/>
      <circle stroke="black" fill="none" cx="17.28" cy="2.88" r="1.8" stroke-width="1.44"  id="connector1pin"/>
     </g>
    </g>
   </g>
  </g>
 </g>
 <g partID="18510300">
  <g transform="translate(84.8355,192.19)">
   <g transform="matrix(-1,0,0,-1,0,0)">
    <g  id="copper0">
     <g  id="copper1">
      <circle stroke="black" fill="none" cx="2.88" cy="2.88" r="1.8" stroke-width="1.44"  id="connector0pin"/>
      <circle stroke="black" fill="none" cx="10.0933" cy="2.88" r="1.8" stroke-width="1.44"  id="connector1pin"/>
     </g>
    </g>
   </g>
  </g>
 </g>
 <g partID="854640110">
  <g transform="translate(144.085,228.691)">
   <g transform="matrix(0,-1,1,0,0,0)">
    <g  id="copper0">
     <g  id="copper1">
      <circle stroke="black" fill="none" cx="2.88" cy="2.88" r="1.8" stroke-width="1.44"  id="connector0pin"/>
      <circle stroke="black" fill="none" cx="17.28" cy="2.88" r="1.8" stroke-width="1.44"  id="connector1pin"/>
     </g>
    </g>
   </g>
  </g>
 </g>
 <g partID="854633780">
  <g transform="translate(22.2075,130.36)">
   <g id="copper0">
    <rect stroke="black" fill="none" height="4.32" width="4.32" stroke-width="1.44" x="12.24" y="6.84" id="square"/>
    <circle stroke="black" fill="none" cx="14.4" cy="9" r="2.16" stroke-width="1.44" id="connector0pin"/>
    <circle stroke="black" fill="none" cx="14.4" cy="23.4" r="2.16" stroke-width="1.44" id="connector1pin"/>
   </g>
  </g>
 </g>
 <g partID="854636510">
  <g transform="translate(44.0739,149.386)">
   <g  id="copper0">
    <circle stroke="black" fill="none" cx="4.31559" cy="4.31559" r="1.99559" stroke-width="1.44"  id="connector0pin"/>
   </g>
  </g>
 </g>
 <g partID="854636790">
  <g transform="translate(135.474,179.186)">
   <g  id="copper0">
    <circle stroke="black" fill="none" cx="4.31559" cy="4.31559" r="1.99559" stroke-width="1.44"  id="connector0pin"/>
   </g>
  </g>
 </g>
 <g partID="854637120">
  <g transform="translate(92.5491,191.77)">
   <g  id="copper0">
    <circle stroke="black" fill="none" cx="4.31559" cy="4.31559" r="1.99559" stroke-width="1.44"  id="connector0pin"/>
   </g>
  </g>
 </g>
 <g partID="854637180">
  <g transform="translate(128.674,140.826)">
   <g  id="copper0">
    <circle stroke="black" fill="none" cx="4.31559" cy="4.31559" r="1.99559" stroke-width="1.44"  id="connector0pin"/>
   </g>
  </g>
 </g>
 <g partID="854638080">
  <g transform="translate(98.8739,156.653)">
   <g  id="copper0">
    <circle stroke="black" fill="none" cx="4.31559" cy="4.31559" r="1.99559" stroke-width="1.44"  id="connector0pin"/>
   </g>
  </g>
 </g>
 <g partID="854645890">
  <g transform="translate(7.17049,81.1089)">
   <g  id="copper0">
    <circle stroke="black" fill="none" cx="5.04" cy="5.04" r="2.088" stroke-width="1.44"  id="connector0pin"/>
    <circle stroke="black" fill="none" cx="5.04" cy="12.24" r="2.088" stroke-width="1.44"  id="connector1pin"/>
    <circle stroke="black" fill="none" cx="5.04" cy="19.44" r="2.088" stroke-width="1.44"  id="connector2pin"/>
    <circle stroke="black" fill="none" cx="5.04" cy="26.64" r="2.088" stroke-width="1.44"  id="connector3pin"/>
   </g>
  </g>
 </g>
 <g partID="854645880">
  <g transform="translate(7.17049,52.3087)">
   <g  id="copper0">
    <circle stroke="black" fill="none" cx="5.04" cy="5.04" r="2.088" stroke-width="1.44"  id="connector0pin"/>
    <circle stroke="black" fill="none" cx="5.04" cy="12.24" r="2.088" stroke-width="1.44"  id="connector1pin"/>
    <circle stroke="black" fill="none" cx="5.04" cy="19.44" r="2.088" stroke-width="1.44"  id="connector2pin"/>
    <circle stroke="black" fill="none" cx="5.04" cy="26.64" r="2.088" stroke-width="1.44"  id="connector3pin"/>
   </g>
  </g>
 </g>
 <g partID="854645870">
  <g transform="translate(43.3483,52.3087)">
   <g  id="copper0">
    <circle stroke="black" fill="none" cx="5.04" cy="5.04" r="2.088" stroke-width="1.44"  id="connector0pin"/>
    <circle stroke="black" fill="none" cx="5.04" cy="12.24" r="2.088" stroke-width="1.44"  id="connector1pin"/>
    <circle stroke="black" fill="none" cx="5.04" cy="19.44" r="2.088" stroke-width="1.44"  id="connector2pin"/>
    <circle stroke="black" fill="none" cx="5.04" cy="26.64" r="2.088" stroke-width="1.44"  id="connector3pin"/>
   </g>
  </g>
 </g>
 <g partID="854645860">
  <g transform="translate(57.7483,66.7087)">
   <g  id="copper0">
    <circle stroke="black" fill="none" cx="5.04" cy="5.04" r="2.088" stroke-width="1.44"  id="connector0pin"/>
    <circle stroke="black" fill="none" cx="5.04" cy="12.24" r="2.088" stroke-width="1.44"  id="connector1pin"/>
    <circle stroke="black" fill="none" cx="5.04" cy="19.44" r="2.088" stroke-width="1.44"  id="connector2pin"/>
    <circle stroke="black" fill="none" cx="5.04" cy="26.64" r="2.088" stroke-width="1.44"  id="connector3pin"/>
   </g>
  </g>
 </g>
 <g partID="854645850">
  <g transform="translate(43.3483,81.1089)">
   <g  id="copper0">
    <circle stroke="black" fill="none" cx="5.04" cy="5.04" r="2.088" stroke-width="1.44"  id="connector0pin"/>
    <circle stroke="black" fill="none" cx="5.04" cy="12.24" r="2.088" stroke-width="1.44"  id="connector1pin"/>
    <circle stroke="black" fill="none" cx="5.04" cy="19.44" r="2.088" stroke-width="1.44"  id="connector2pin"/>
    <circle stroke="black" fill="none" cx="5.04" cy="26.64" r="2.088" stroke-width="1.44"  id="connector3pin"/>
   </g>
  </g>
 </g>
 <g partID="17327420">
  <g transform="translate(85.2427,178.801)">
   <g transform="matrix(0,-1,1,0,0,0)">
    <g stroke-width="0"  id="copper0">
     <rect stroke="black" fill="none" height="3.96" width="3.96" stroke-width="1.44"  x="2.34" y="2.34"/>
     <circle stroke="black" fill="none" cx="4.32" cy="4.32" r="1.98" stroke-width="1.44"  id="connector0pin"/>
     <circle stroke="black" fill="none" cx="25.92" cy="4.32" r="1.98" stroke-width="1.44"  id="connector27pin"/>
     <circle stroke="black" fill="none" cx="4.32" cy="11.52" r="1.98" stroke-width="1.44"  id="connector1pin"/>
     <circle stroke="black" fill="none" cx="25.92" cy="11.52" r="1.98" stroke-width="1.44"  id="connector26pin"/>
     <circle stroke="black" fill="none" cx="4.32" cy="18.72" r="1.98" stroke-width="1.44"  id="connector2pin"/>
     <circle stroke="black" fill="none" cx="25.92" cy="18.72" r="1.98" stroke-width="1.44"  id="connector25pin"/>
     <circle stroke="black" fill="none" cx="4.32" cy="25.92" r="1.98" stroke-width="1.44"  id="connector3pin"/>
     <circle stroke="black" fill="none" cx="25.92" cy="25.92" r="1.98" stroke-width="1.44"  id="connector24pin"/>
     <circle stroke="black" fill="none" cx="4.32" cy="33.12" r="1.98" stroke-width="1.44"  id="connector4pin"/>
     <circle stroke="black" fill="none" cx="25.92" cy="33.12" r="1.98" stroke-width="1.44"  id="connector23pin"/>
     <circle stroke="black" fill="none" cx="4.32" cy="40.32" r="1.98" stroke-width="1.44"  id="connector5pin"/>
     <circle stroke="black" fill="none" cx="25.92" cy="40.32" r="1.98" stroke-width="1.44"  id="connector22pin"/>
     <circle stroke="black" fill="none" cx="4.32" cy="47.52" r="1.98" stroke-width="1.44"  id="connector6pin"/>
     <circle stroke="black" fill="none" cx="25.92" cy="47.52" r="1.98" stroke-width="1.44"  id="connector21pin"/>
     <circle stroke="black" fill="none" cx="4.32" cy="54.72" r="1.98" stroke-width="1.44"  id="connector7pin"/>
     <circle stroke="black" fill="none" cx="25.92" cy="54.72" r="1.98" stroke-width="1.44"  id="connector20pin"/>
     <circle stroke="black" fill="none" cx="4.32" cy="61.92" r="1.98" stroke-width="1.44"  id="connector8pin"/>
     <circle stroke="black" fill="none" cx="25.92" cy="61.92" r="1.98" stroke-width="1.44"  id="connector19pin"/>
     <circle stroke="black" fill="none" cx="4.32" cy="69.12" r="1.98" stroke-width="1.44"  id="connector9pin"/>
     <circle stroke="black" fill="none" cx="25.92" cy="69.12" r="1.98" stroke-width="1.44"  id="connector18pin"/>
     <circle stroke="black" fill="none" cx="4.32" cy="76.32" r="1.98" stroke-width="1.44"  id="connector10pin"/>
     <circle stroke="black" fill="none" cx="25.92" cy="76.32" r="1.98" stroke-width="1.44"  id="connector17pin"/>
     <circle stroke="black" fill="none" cx="4.32" cy="83.52" r="1.98" stroke-width="1.44"  id="connector11pin"/>
     <circle stroke="black" fill="none" cx="25.92" cy="83.52" r="1.98" stroke-width="1.44"  id="connector16pin"/>
     <circle stroke="black" fill="none" cx="4.32" cy="90.72" r="1.98" stroke-width="1.44"  id="connector12pin"/>
     <circle stroke="black" fill="none" cx="25.92" cy="90.72" r="1.98" stroke-width="1.44"  id="connector15pin"/>
     <circle stroke="black" fill="none" cx="4.32" cy="97.92" r="1.98" stroke-width="1.44"  id="connector13pin"/>
     <circle stroke="black" fill="none" cx="25.92" cy="97.92" r="1.98" stroke-width="1.44"  id="connector14pin"/>
    </g>
   </g>
  </g>
 </g>
 <g partID="6129240">
  <g transform="translate(96.3619,209.651)">
   <g transform="matrix(0,-1,1,0,0,0)">
    <g  id="copper0">
     <circle stroke="black" fill="none" cx="5.04" cy="5.04" r="2.088" stroke-width="1.44"  id="connector0pin"/>
     <circle stroke="black" fill="none" cx="5.04" cy="12.24" r="2.088" stroke-width="1.44"  id="connector1pin"/>
     <circle stroke="black" fill="none" cx="5.04" cy="19.44" r="2.088" stroke-width="1.44"  id="connector2pin"/>
     <circle stroke="black" fill="none" cx="5.04" cy="26.64" r="2.088" stroke-width="1.44"  id="connector3pin"/>
     <circle stroke="black" fill="none" cx="5.04" cy="33.84" r="2.088" stroke-width="1.44"  id="connector4pin"/>
     <circle stroke="black" fill="none" cx="5.04" cy="41.04" r="2.088" stroke-width="1.44"  id="connector5pin"/>
    </g>
   </g>
  </g>
 </g>
 <g partID="6038800">
  <g transform="translate(84.5227,143.7)">
   <g transform="matrix(0,-1,1,0,0,0)">
    <g  id="copper0">
     <circle stroke="black" fill="none" cx="5.04" cy="5.04" r="2.088" stroke-width="1.44"  id="connector0pin"/>
     <circle stroke="black" fill="none" cx="5.04" cy="12.24" r="2.088" stroke-width="1.44"  id="connector1pin"/>
     <circle stroke="black" fill="none" cx="5.04" cy="19.44" r="2.088" stroke-width="1.44"  id="connector2pin"/>
     <circle stroke="black" fill="none" cx="5.04" cy="26.64" r="2.088" stroke-width="1.44"  id="connector3pin"/>
     <circle stroke="black" fill="none" cx="5.04" cy="33.84" r="2.088" stroke-width="1.44"  id="connector4pin"/>
     <circle stroke="black" fill="none" cx="5.04" cy="41.04" r="2.088" stroke-width="1.44"  id="connector5pin"/>
    </g>
   </g>
  </g>
 </g>
 <g partID="6038790">
  <g transform="translate(149.212,143.3)">
   <g transform="matrix(0,-1,1,0,0,0)">
    <g  id="copper0">
     <circle stroke="black" fill="none" cx="5.04" cy="5.04" r="2.088" stroke-width="1.44"  id="connector0pin"/>
     <circle stroke="black" fill="none" cx="5.04" cy="12.24" r="2.088" stroke-width="1.44"  id="connector1pin"/>
     <circle stroke="black" fill="none" cx="5.04" cy="19.44" r="2.088" stroke-width="1.44"  id="connector2pin"/>
     <circle stroke="black" fill="none" cx="5.04" cy="26.64" r="2.088" stroke-width="1.44"  id="connector3pin"/>
     <circle stroke="black" fill="none" cx="5.04" cy="33.84" r="2.088" stroke-width="1.44"  id="connector4pin"/>
    </g>
   </g>
  </g>
 </g>
 <g partID="854652350">
  <g transform="translate(9.31387,196.294)">
   <g  id="copper0">
    <circle stroke="black" fill="none" cx="5.04" cy="5.04" r="2.088" stroke-width="1.44"  id="connector0pin"/>
    <circle stroke="black" fill="none" cx="5.04" cy="12.24" r="2.088" stroke-width="1.44"  id="connector1pin"/>
    <circle stroke="black" fill="none" cx="5.04" cy="19.44" r="2.088" stroke-width="1.44"  id="connector2pin"/>
    <circle stroke="black" fill="none" cx="5.04" cy="26.64" r="2.088" stroke-width="1.44"  id="connector3pin"/>
   </g>
  </g>
 </g>
 <g partID="854651480">
  <g transform="translate(197.047,196.294)">
   <g  id="copper0">
    <circle stroke="black" fill="none" cx="5.04" cy="5.04" r="2.088" stroke-width="1.44"  id="connector0pin"/>
    <circle stroke="black" fill="none" cx="5.04" cy="12.24" r="2.088" stroke-width="1.44"  id="connector1pin"/>
    <circle stroke="black" fill="none" cx="5.04" cy="19.44" r="2.088" stroke-width="1.44"  id="connector2pin"/>
    <circle stroke="black" fill="none" cx="5.04" cy="26.64" r="2.088" stroke-width="1.44"  id="connector3pin"/>
   </g>
  </g>
 </g>
 <g partID="6038780">
  <g transform="translate(156.481,194.918)">
   <g transform="matrix(0,-1,1,0,0,0)">
    <g  id="copper0">
     <circle stroke="black" fill="none" cx="5.04" cy="5.04" r="2.088" stroke-width="1.44"  id="connector0pin"/>
     <circle stroke="black" fill="none" cx="5.04" cy="12.24" r="2.088" stroke-width="1.44"  id="connector1pin"/>
     <circle stroke="black" fill="none" cx="5.04" cy="19.44" r="2.088" stroke-width="1.44"  id="connector2pin"/>
     <circle stroke="black" fill="none" cx="5.04" cy="26.64" r="2.088" stroke-width="1.44"  id="connector3pin"/>
    </g>
   </g>
  </g>
 </g>
 <g partID="6038770">
  <g transform="translate(84.5227,194.5)">
   <g transform="matrix(0,-1,1,0,0,0)">
    <g  id="copper0">
     <circle stroke="black" fill="none" cx="5.04" cy="5.04" r="2.088" stroke-width="1.44"  id="connector0pin"/>
     <circle stroke="black" fill="none" cx="5.04" cy="12.24" r="2.088" stroke-width="1.44"  id="connector1pin"/>
     <circle stroke="black" fill="none" cx="5.04" cy="19.44" r="2.088" stroke-width="1.44"  id="connector2pin"/>
     <circle stroke="black" fill="none" cx="5.04" cy="26.64" r="2.088" stroke-width="1.44"  id="connector3pin"/>
     <circle stroke="black" fill="none" cx="5.04" cy="33.84" r="2.088" stroke-width="1.44"  id="connector4pin"/>
     <circle stroke="black" fill="none" cx="5.04" cy="41.04" r="2.088" stroke-width="1.44"  id="connector5pin"/>
    </g>
   </g>
  </g>
 </g>
 <g partID="6384960">
  <g transform="translate(23.6027,188.25)">
   <g  id="copper0">
    <circle stroke="black" fill="none" cx="4.31559" cy="4.31559" r="1.99559" stroke-width="1.44"  id="connector0pin"/>
   </g>
  </g>
 </g>
 <g partID="6386390">
  <g transform="translate(69.2755,166.453)">
   <g  id="copper0">
    <circle stroke="black" fill="none" cx="4.31559" cy="4.31559" r="1.99559" stroke-width="1.44"  id="connector0pin"/>
   </g>
  </g>
 </g>
 <g partID="854646010">
  <line stroke="black" y1="108.803" y2="108.4" x1="138.864" x2="205.288" stroke-width="1.728" stroke-linecap="round"/>
 </g>
 <g partID="854648460">
  <line stroke="black" y1="59.2574" y2="137.12" x1="36.4729" x2="36.6037" stroke-width="1.728" stroke-linecap="round"/>
 </g>
 <g partID="854646140">
  <line stroke="black" y1="71.7487" y2="71.7487" x1="60.6203" x2="50.5563" stroke-width="1.728" stroke-linecap="round"/>
 </g>
 <g partID="854646150">
  <line stroke="black" y1="78.9487" y2="78.9487" x1="60.6203" x2="50.5563" stroke-width="1.728" stroke-linecap="round"/>
 </g>
 <g partID="854646160">
  <line stroke="black" y1="86.1487" y2="86.1488" x1="60.6203" x2="50.5563" stroke-width="1.728" stroke-linecap="round"/>
 </g>
 <g partID="854646170">
  <line stroke="black" y1="93.3487" y2="93.3488" x1="60.6203" x2="50.5563" stroke-width="1.728" stroke-linecap="round"/>
 </g>
 <g partID="854646030">
  <line stroke="black" y1="85.8223" y2="86.0669" x1="20.843" x2="14.3769" stroke-width="1.728" stroke-linecap="round"/>
 </g>
 <g partID="854646040">
  <line stroke="black" y1="79.2445" y2="85.8223" x1="20.7541" x2="20.843" stroke-width="1.728" stroke-linecap="round"/>
 </g>
 <g partID="854646020">
  <line stroke="black" y1="79.0237" y2="79.2445" x1="14.3772" x2="20.7541" stroke-width="1.728" stroke-linecap="round"/>
 </g>
 <g partID="854646050">
  <line stroke="black" y1="100.553" y2="100.579" x1="14.3785" x2="27.0147" stroke-width="1.728" stroke-linecap="round"/>
 </g>
 <g partID="854648900">
  <line stroke="black" y1="90.7318" y2="94.7529" x1="193.896" x2="185.335" stroke-width="1.728" stroke-linecap="round"/>
 </g>
 <g partID="854646330">
  <line stroke="black" y1="82.5763" y2="82.6574" x1="193.676" x2="186.864" stroke-width="1.728" stroke-linecap="round"/>
 </g>
 <g partID="854646320">
  <line stroke="black" y1="75.3487" y2="43.3487" x1="205.855" x2="205.988" stroke-width="1.728" stroke-linecap="round"/>
 </g>
 <g partID="854646300">
  <line stroke="black" y1="43.3487" y2="43.8655" x1="205.988" x2="198.029" stroke-width="1.728" stroke-linecap="round"/>
 </g>
 <g partID="854646310">
  <line stroke="black" y1="75.3487" y2="75.3487" x1="198.3" x2="205.855" stroke-width="1.728" stroke-linecap="round"/>
 </g>
 <g partID="854646290">
  <line stroke="black" y1="43.6153" y2="12.5487" x1="205.988" x2="206.522" stroke-width="1.728" stroke-linecap="round"/>
 </g>
 <g partID="854646270">
  <line stroke="black" y1="12.5487" y2="12.6535" x1="206.522" x2="198.034" stroke-width="1.728" stroke-linecap="round"/>
 </g>
 <g partID="854646280">
  <line stroke="black" y1="43.9253" y2="43.6153" x1="198.032" x2="205.989" stroke-width="1.728" stroke-linecap="round"/>
 </g>
 <g partID="854647990">
  <line stroke="black" y1="7.20005" y2="6.80005" x1="64.4875" x2="188.087" stroke-width="1.728" stroke-linecap="round"/>
 </g>
 <g partID="854647730">
  <line stroke="black" y1="6.80005" y2="8.13339" x1="188.087" x2="2.35413" stroke-width="1.728" stroke-linecap="round"/>
 </g>
 <g partID="854648120">
  <line stroke="black" y1="6.80005" y2="11.271" x1="188.087" x2="193.89" stroke-width="1.728" stroke-linecap="round"/>
 </g>
 <g partID="854647860">
  <line stroke="black" y1="58.8001" y2="7.20005" x1="63.6875" x2="64.4875" stroke-width="1.728" stroke-linecap="round"/>
 </g>
 <g partID="854647580">
  <line stroke="black" y1="8.13339" y2="153.2" x1="2.35413" x2="3.08747" stroke-width="1.728" stroke-linecap="round"/>
 </g>
 <g partID="854647320">
  <line stroke="black" y1="63.7861" y2="58.8001" x1="50.4177" x2="63.6875" stroke-width="1.728" stroke-linecap="round"/>
 </g>
 <g partID="854647450">
  <line stroke="black" y1="153.2" y2="153.723" x1="3.08747" x2="34.3678" stroke-width="1.728" stroke-linecap="round"/>
 </g>
 <g partID="854646350">
  <line stroke="black" y1="19.9086" y2="19.9915" x1="193.41" x2="186.197" stroke-width="1.728" stroke-linecap="round"/>
 </g>
 <g partID="854646340">
  <line stroke="black" y1="51.1068" y2="51.1878" x1="186.597" x2="193.41" stroke-width="1.728" stroke-linecap="round"/>
 </g>
 <g partID="854649320">
  <line stroke="black" y1="27.1003" y2="27.0837" x1="170.065" x2="193.41" stroke-width="1.728" stroke-linecap="round"/>
 </g>
 <g partID="854649110">
  <line stroke="black" y1="58.3708" y2="58.0751" x1="193.41" x2="178.065" stroke-width="1.728" stroke-linecap="round"/>
 </g>
 <g partID="854649640">
  <line stroke="black" y1="189.734" y2="189.865" x1="205.554" x2="185.289" stroke-width="1.728" stroke-linecap="round"/>
 </g>
 <g partID="854649570">
  <line stroke="black" y1="108.4" y2="189.734" x1="205.287" x2="205.554" stroke-width="1.728" stroke-linecap="round"/>
 </g>
 <g partID="854649980">
  <line stroke="black" y1="116.4" y2="165.467" x1="199.154" x2="199.687" stroke-width="1.728" stroke-linecap="round"/>
 </g>
 <g partID="854649910">
  <line stroke="black" y1="165.466" y2="166.266" x1="199.687" x2="180.487" stroke-width="1.728" stroke-linecap="round"/>
 </g>
 <g partID="854649840">
  <line stroke="black" y1="166.266" y2="172.676" x1="180.487" x2="176.957" stroke-width="1.728" stroke-linecap="round"/>
 </g>
 <g partID="854649770">
  <line stroke="black" y1="116.159" y2="116.4" x1="148.33" x2="199.154" stroke-width="1.728" stroke-linecap="round"/>
 </g>
 <g partID="854650320">
  <line stroke="black" y1="108.666" y2="64.9331" x1="42.0875" x2="42.0875" stroke-width="1.728" stroke-linecap="round"/>
 </g>
 <g partID="854650590">
  <line stroke="black" y1="64.9331" y2="64.6807" x1="42.0875" x2="46.2243" stroke-width="1.728" stroke-linecap="round"/>
 </g>
 <g partID="854650050">
  <line stroke="black" y1="108.061" y2="108.667" x1="46.2429" x2="42.0876" stroke-width="1.728" stroke-linecap="round"/>
 </g>
 <g partID="854650860">
  <line stroke="black" y1="100.557" y2="100.667" x1="50.5563" x2="79.9543" stroke-width="1.728" stroke-linecap="round"/>
 </g>
 <g partID="854650930">
  <line stroke="black" y1="100.666" y2="126.626" x1="79.9539" x2="79.7394" stroke-width="1.728" stroke-linecap="round"/>
 </g>
 <g partID="854646130">
  <line stroke="black" y1="55.1808" y2="49.2109" x1="12.2332" x2="12.2958" stroke-width="1.728" stroke-linecap="round"/>
 </g>
 <g partID="854651830">
  <line stroke="black" y1="211.96" y2="206.779" x1="122.94" x2="122.984" stroke-width="1.728" stroke-linecap="round"/>
 </g>
 <g partID="854652200">
  <line stroke="black" y1="203.502" y2="220.766" x1="202.087" x2="202.087" stroke-width="1.728" stroke-linecap="round"/>
 </g>
 <g partID="854651500">
  <line stroke="black" y1="225.1" y2="229.294" x1="202.165" x2="202.315" stroke-width="1.728" stroke-linecap="round"/>
 </g>
 <g partID="854652680">
  <line stroke="black" y1="153.734" y2="153.758" x1="14.6211" x2="34.3677" stroke-width="1.728" stroke-linecap="round"/>
 </g>
 <g partID="854652370">
  <line stroke="black" y1="199.166" y2="153.734" x1="14.366" x2="14.6205" stroke-width="1.728" stroke-linecap="round"/>
 </g>
 <g partID="854652990">
  <line stroke="black" y1="220.766" y2="203.502" x1="14.3539" x2="14.3539" stroke-width="1.728" stroke-linecap="round"/>
 </g>
 <g partID="854645650">
  <line stroke="black" y1="200.8" y2="191.187" x1="75.4875" x2="74.8638" stroke-width="1.728" stroke-linecap="round"/>
 </g>
 <g partID="854645600">
  <line stroke="black" y1="211.981" y2="200.8" x1="93.3307" x2="75.4876" stroke-width="1.728" stroke-linecap="round"/>
 </g>
 <g partID="854645730">
  <line stroke="black" y1="181.4" y2="175.34" x1="74.4875" x2="87.6905" stroke-width="1.728" stroke-linecap="round"/>
 </g>
 <g partID="854645700">
  <line stroke="black" y1="187.431" y2="181.4" x1="74.6814" x2="74.4872" stroke-width="1.728" stroke-linecap="round"/>
 </g>
 <g partID="854636100">
  <line stroke="black" y1="139.354" y2="139.28" x1="38.8475" x2="64.6475" stroke-width="1.728" stroke-linecap="round"/>
 </g>
 <g partID="854636440">
  <line stroke="black" y1="139.28" y2="177.639" x1="64.6475" x2="64.7697" stroke-width="1.728" stroke-linecap="round"/>
 </g>
 <g partID="854635970">
  <line stroke="black" y1="153.749" y2="153.712" x1="38.8474" x2="46.3139" stroke-width="1.728" stroke-linecap="round"/>
 </g>
 <g partID="854633990">
  <line stroke="black" y1="156" y2="172.08" x1="36.6319" x2="36.8075" stroke-width="1.728" stroke-linecap="round"/>
 </g>
 <g partID="854637380">
  <line stroke="black" y1="172.08" y2="177.901" x1="36.8075" x2="45.3751" stroke-width="1.728" stroke-linecap="round"/>
 </g>
 <g partID="18510130">
  <line stroke="black" y1="179.466" y2="204.08" x1="37.8211" x2="37.9277" stroke-width="1.728" stroke-linecap="round"/>
 </g>
 <g partID="18510100">
  <line stroke="black" y1="204.08" y2="204.08" x1="37.9275" x2="47.2075" stroke-width="1.728" stroke-linecap="round"/>
 </g>
 <g partID="6077620">
  <line stroke="black" y1="179.265" y2="179.467" x1="44.9764" x2="37.8208" stroke-width="1.728" stroke-linecap="round"/>
 </g>
 <g partID="6077640">
  <line stroke="black" y1="204.08" y2="209.54" x1="47.2075" x2="47.2656" stroke-width="1.728" stroke-linecap="round"/>
 </g>
 <g partID="6385100">
  <line stroke="black" y1="211.6" y2="194.642" x1="27.6875" x2="27.8934" stroke-width="1.728" stroke-linecap="round"/>
 </g>
 <g partID="6385030">
  <line stroke="black" y1="211.6" y2="211.6" x1="30.8275" x2="27.6875" stroke-width="1.728" stroke-linecap="round"/>
 </g>
 <g partID="854637880">
  <line stroke="black" y1="195.76" y2="195.6" x1="64.9675" x2="47.3675" stroke-width="1.728" stroke-linecap="round"/>
 </g>
 <g partID="18509980">
  <line stroke="black" y1="195.6" y2="188.712" x1="47.3675" x2="47.3076" stroke-width="1.728" stroke-linecap="round"/>
 </g>
 <g partID="854637910">
  <line stroke="black" y1="203.92" y2="195.76" x1="64.9675" x2="64.9675" stroke-width="1.728" stroke-linecap="round"/>
 </g>
 <g partID="18509950">
  <line stroke="black" y1="210.647" y2="203.92" x1="77.8611" x2="64.9675" stroke-width="1.728" stroke-linecap="round"/>
 </g>
 <g partID="854640320">
  <line stroke="black" y1="186.16" y2="160.807" x1="64.8075" x2="64.7796" stroke-width="1.728" stroke-linecap="round"/>
 </g>
 <g partID="6077440">
  <line stroke="black" y1="186.368" y2="186.16" x1="49.5992" x2="64.8075" stroke-width="1.728" stroke-linecap="round"/>
 </g>
 <g partID="18509920">
  <line stroke="black" y1="211.6" y2="211.6" x1="49.3475" x2="63.2275" stroke-width="1.728" stroke-linecap="round"/>
 </g>
 <g partID="6077820">
  <line stroke="black" y1="225.843" y2="226" x1="93.0163" x2="65.2876" stroke-width="1.728" stroke-linecap="round"/>
 </g>
 <g partID="6077900">
  <line stroke="black" y1="226" y2="213.66" x1="65.2875" x2="65.2875" stroke-width="1.728" stroke-linecap="round"/>
 </g>
 <g partID="6076140">
  <line stroke="black" y1="225.852" y2="226" x1="115.562" x2="130.248" stroke-width="1.728" stroke-linecap="round"/>
 </g>
 <g partID="6154620">
  <line stroke="black" y1="206.779" y2="226" x1="130.206" x2="130.247" stroke-width="1.728" stroke-linecap="round"/>
 </g>
 <g partID="6154500">
  <line stroke="black" y1="226" y2="225.833" x1="130.247" x2="145.085" stroke-width="1.728" stroke-linecap="round"/>
 </g>
 <g partID="6077920">
  <line stroke="black" y1="225.813" y2="225.84" x1="148.845" x2="186.727" stroke-width="1.728" stroke-linecap="round"/>
 </g>
 <g partID="854637610">
  <line stroke="black" y1="225.84" y2="220.574" x1="186.727" x2="186.643" stroke-width="1.728" stroke-linecap="round"/>
 </g>
 <g partID="6077680">
  <line stroke="black" y1="204.4" y2="176.941" x1="147.154" x2="147.162" stroke-width="2.304" stroke-linecap="round"/>
 </g>
 <g partID="6244260">
  <line stroke="black" y1="209.132" y2="204.4" x1="147.027" x2="147.154" stroke-width="2.304" stroke-linecap="round"/>
 </g>
 <g partID="6076300">
  <line stroke="black" y1="204.4" y2="204.208" x1="147.154" x2="155.859" stroke-width="2.304" stroke-linecap="round"/>
 </g>
 <g partID="854637970">
  <line stroke="black" y1="198.16" y2="202.219" x1="172.007" x2="172.067" stroke-width="1.728" stroke-linecap="round"/>
 </g>
 <g partID="6077780">
  <line stroke="black" y1="198" y2="198.16" x1="154.567" x2="172.007" stroke-width="1.728" stroke-linecap="round"/>
 </g>
 <g partID="6077760">
  <line stroke="black" y1="176.541" y2="198" x1="154.381" x2="154.567" stroke-width="1.728" stroke-linecap="round"/>
 </g>
 <g partID="6076320">
  <line stroke="black" y1="204.272" y2="204.177" x1="184.332" x2="174.43" stroke-width="2.304" stroke-linecap="round"/>
 </g>
 <g partID="6154710">
  <line stroke="black" y1="176.541" y2="195.959" x1="132.763" x2="132.763" stroke-width="1.728" stroke-linecap="round"/>
 </g>
 <g partID="6154750">
  <line stroke="black" y1="195.959" y2="195.959" x1="132.763" x2="123.322" stroke-width="1.728" stroke-linecap="round"/>
 </g>
 <g partID="6385710">
  <line stroke="black" y1="195.959" y2="202.445" x1="123.322" x2="123.082" stroke-width="1.728" stroke-linecap="round"/>
 </g>
 <g partID="6385680">
  <line stroke="black" y1="196.221" y2="196.08" x1="103.963" x2="108.647" stroke-width="1.728" stroke-linecap="round"/>
 </g>
 <g partID="6385650">
  <line stroke="black" y1="196.08" y2="202.443" x1="108.647" x2="108.613" stroke-width="1.728" stroke-linecap="round"/>
 </g>
 <g partID="6155380">
  <line stroke="black" y1="191.628" y2="196.221" x1="103.963" x2="103.963" stroke-width="1.728" stroke-linecap="round"/>
 </g>
 <g partID="6156150">
  <line stroke="black" y1="197" y2="203.816" x1="82.0875" x2="99.3848" stroke-width="1.728" stroke-linecap="round"/>
 </g>
 <g partID="6156130">
  <line stroke="black" y1="191.19" y2="197" x1="81.9877" x2="82.0875" stroke-width="1.728" stroke-linecap="round"/>
 </g>
 <g partID="6385270">
  <line stroke="black" y1="167.315" y2="172.421" x1="132.792" x2="132.771" stroke-width="1.728" stroke-linecap="round"/>
 </g>
 <g partID="6076080">
  <line stroke="black" y1="171.98" y2="171.92" x1="49.5994" x2="56.6475" stroke-width="1.728" stroke-linecap="round"/>
 </g>
 <g partID="854637350">
  <line stroke="black" y1="171.92" y2="174.639" x1="56.6475" x2="71.4119" stroke-width="1.728" stroke-linecap="round"/>
 </g>
 <g partID="6385530">
  <line stroke="black" y1="154.941" y2="165.84" x1="139.995" x2="140.167" stroke-width="1.728" stroke-linecap="round"/>
 </g>
 <g partID="6385520">
  <line stroke="black" y1="165.84" y2="172.917" x1="140.167" x2="134.103" stroke-width="1.728" stroke-linecap="round"/>
 </g>
 <g partID="6077100">
  <line stroke="black" y1="176.541" y2="187.71" x1="183.157" x2="183.127" stroke-width="1.728" stroke-linecap="round"/>
 </g>
 <g partID="6077160">
  <line stroke="black" y1="176.541" y2="187.71" x1="175.957" x2="175.927" stroke-width="1.728" stroke-linecap="round"/>
 </g>
 <g partID="6076980">
  <line stroke="black" y1="176.541" y2="187.71" x1="168.757" x2="168.727" stroke-width="1.728" stroke-linecap="round"/>
 </g>
 <g partID="6077040">
  <line stroke="black" y1="176.541" y2="187.71" x1="161.557" x2="161.527" stroke-width="1.728" stroke-linecap="round"/>
 </g>
 <g partID="6076620">
  <line stroke="black" y1="150.821" y2="140.428" x1="183.147" x2="183.069" stroke-width="1.728" stroke-linecap="round"/>
 </g>
 <g partID="6076560">
  <line stroke="black" y1="150.821" y2="140.428" x1="175.947" x2="175.869" stroke-width="1.728" stroke-linecap="round"/>
 </g>
 <g partID="6076800">
  <line stroke="black" y1="150.821" y2="140.428" x1="168.747" x2="168.669" stroke-width="1.728" stroke-linecap="round"/>
 </g>
 <g partID="6076680">
  <line stroke="black" y1="150.821" y2="140.428" x1="161.547" x2="161.469" stroke-width="1.728" stroke-linecap="round"/>
 </g>
 <g partID="6076740">
  <line stroke="black" y1="150.821" y2="140.428" x1="154.347" x2="154.269" stroke-width="1.728" stroke-linecap="round"/>
 </g>
 <g partID="17327500">
  <line stroke="black" y1="147.216" y2="150.822" x1="132.928" x2="132.823" stroke-width="1.728" stroke-linecap="round"/>
 </g>
 <g partID="17327510">
  <line stroke="black" y1="176.54" y2="181.427" x1="139.923" x2="139.829" stroke-width="1.728" stroke-linecap="round"/>
 </g>
 <g partID="6076940">
  <line stroke="black" y1="176.541" y2="187.292" x1="125.563" x2="125.563" stroke-width="1.728" stroke-linecap="round"/>
 </g>
 <g partID="6076880">
  <line stroke="black" y1="176.541" y2="187.292" x1="118.363" x2="118.363" stroke-width="1.728" stroke-linecap="round"/>
 </g>
 <g partID="6076860">
  <line stroke="black" y1="176.541" y2="187.292" x1="111.163" x2="111.163" stroke-width="1.728" stroke-linecap="round"/>
 </g>
 <g partID="6076920">
  <line stroke="black" y1="176.541" y2="187.292" x1="103.963" x2="103.963" stroke-width="1.728" stroke-linecap="round"/>
 </g>
 <g partID="6076960">
  <line stroke="black" y1="176.541" y2="187.292" x1="96.7627" x2="96.7627" stroke-width="1.728" stroke-linecap="round"/>
 </g>
 <g partID="6076900">
  <line stroke="black" y1="187.292" y2="176.541" x1="89.5627" x2="89.5627" stroke-width="1.728" stroke-linecap="round"/>
 </g>
 <g partID="18510180">
  <line stroke="black" y1="146.134" y2="174.667" x1="81.2875" x2="81.1541" stroke-width="1.728" stroke-linecap="round"/>
 </g>
 <g partID="18510210">
  <line stroke="black" y1="174.666" y2="174.526" x1="81.1539" x2="87.5029" stroke-width="1.728" stroke-linecap="round"/>
 </g>
 <g partID="6076020">
  <line stroke="black" y1="146.191" y2="146.133" x1="75.4978" x2="81.2875" stroke-width="1.728" stroke-linecap="round"/>
 </g>
 <g partID="6076440">
  <line stroke="black" y1="140.828" y2="150.821" x1="89.5627" x2="89.5627" stroke-width="1.728" stroke-linecap="round"/>
 </g>
 <g partID="6076540">
  <line stroke="black" y1="140.828" y2="150.821" x1="96.7627" x2="96.7627" stroke-width="1.728" stroke-linecap="round"/>
 </g>
 <g partID="6076460">
  <line stroke="black" y1="140.828" y2="150.821" x1="103.963" x2="103.963" stroke-width="1.728" stroke-linecap="round"/>
 </g>
 <g partID="6076520">
  <line stroke="black" y1="140.828" y2="150.821" x1="111.163" x2="111.163" stroke-width="1.728" stroke-linecap="round"/>
 </g>
 <g partID="6076500">
  <line stroke="black" y1="140.828" y2="150.821" x1="118.363" x2="118.363" stroke-width="1.728" stroke-linecap="round"/>
 </g>
 <g partID="6076480">
  <line stroke="black" y1="140.828" y2="150.821" x1="125.563" x2="125.563" stroke-width="1.728" stroke-linecap="round"/>
 </g>
 <g partID="6076000">
  <line stroke="black" y1="152.881" y2="152.881" x1="145.103" x2="142.023" stroke-width="1.728" stroke-linecap="round"/>
 </g>
 <g partID="6154820">
  <line stroke="black" y1="204.611" y2="204.611" x1="132.37" x2="135.234" stroke-width="1.728" stroke-linecap="round"/>
 </g>
 <g partID="6155410">
  <line stroke="black" y1="191.628" y2="194.01" x1="96.796" x2="96.8325" stroke-width="1.728" stroke-linecap="round"/>
 </g>
 <g partID="854638000">
  <line stroke="black" y1="160.948" y2="160.667" x1="105.265" x2="132.754" stroke-width="1.728" stroke-linecap="round"/>
 </g>
 <g partID="854636260">
  <line stroke="black" y1="160.666" y2="154.941" x1="132.754" x2="132.76" stroke-width="1.728" stroke-linecap="round"/>
 </g>
</svg>
