<?xml version='1.0' encoding='UTF-8' standalone='no'?>
<!-- Created with Fritzing (http://www.fritzing.org/) -->
<svg xmlns="http://www.w3.org/2000/svg" baseProfile="tiny" xmlns:svg="http://www.w3.org/2000/svg" height="3.2785in" width="2.91254in" viewBox="0 0 209.703 236.052"  x="0in" y="0in" version="1.2">
 <g transform="matrix(-1, 0, 0, 1, 209.703, 0)">
  <g partID="854645842">
   <g id="silkscreen">
    <rect stroke="black" fill="none" height="235.476" width="209.127" stroke-width="0.576" x="0.288" y="0.288"/>
   </g>
  </g>
  <g partID="854645840">
   <g id="board">
    <rect stroke="black" fill="none" height="235.476" width="209.127" stroke-width="0.5" fill-opacity="0.5" x="0.288" y="0.288" id="boardoutline"/>
   </g>
  </g>
  <g partID="854645901">
   <g transform="translate(210.122,4.04205)">
    <g transform="matrix(0,1,-1,0,0,0)">
     <g id="silkscreen">
      <line stroke="black" y1="5.76" y2="5.76" x1="1.44" x2="30.24" stroke-width="0.72"/>
      <line stroke="black" y1="5.76" y2="18.72" x1="30.24" x2="30.24" stroke-width="0.72"/>
      <line stroke="black" y1="18.72" y2="18.72" x1="30.24" x2="1.44" stroke-width="0.72"/>
      <line stroke="black" y1="18.72" y2="5.76" x1="1.44" x2="1.44" stroke-width="0.72"/>
      <line stroke="black" y1="5.76" y2="5.76" x1="1.44" x2="30.24" stroke-width="0.72"/>
      <line stroke="black" y1="5.76" y2="10.08" x1="30.24" x2="30.24" stroke-width="0.72"/>
      <line stroke="black" y1="10.08" y2="10.08" x1="30.24" x2="1.44" stroke-width="0.72"/>
      <line stroke="black" y1="10.08" y2="5.76" x1="1.44" x2="1.44" stroke-width="0.72"/>
      <line stroke="black" y1="5.76" y2="10.08" x1="10.8" x2="10.8" stroke-width="0.36"/>
      <line stroke="black" y1="5.76" y2="10.08" x1="20.88" x2="20.88" stroke-width="0.36"/>
     </g>
    </g>
   </g>
  </g>
  <g partID="854645911">
   <g transform="translate(210.388,66.7087)">
    <g transform="matrix(0,1,-1,0,0,0)">
     <g id="silkscreen">
      <line stroke="black" y1="5.76" y2="5.76" x1="1.44" x2="30.24" stroke-width="0.72"/>
      <line stroke="black" y1="5.76" y2="18.72" x1="30.24" x2="30.24" stroke-width="0.72"/>
      <line stroke="black" y1="18.72" y2="18.72" x1="30.24" x2="1.44" stroke-width="0.72"/>
      <line stroke="black" y1="18.72" y2="5.76" x1="1.44" x2="1.44" stroke-width="0.72"/>
      <line stroke="black" y1="5.76" y2="5.76" x1="1.44" x2="30.24" stroke-width="0.72"/>
      <line stroke="black" y1="5.76" y2="10.08" x1="30.24" x2="30.24" stroke-width="0.72"/>
      <line stroke="black" y1="10.08" y2="10.08" x1="30.24" x2="1.44" stroke-width="0.72"/>
      <line stroke="black" y1="10.08" y2="5.76" x1="1.44" x2="1.44" stroke-width="0.72"/>
      <line stroke="black" y1="5.76" y2="10.08" x1="10.8" x2="10.8" stroke-width="0.36"/>
      <line stroke="black" y1="5.76" y2="10.08" x1="20.88" x2="20.88" stroke-width="0.36"/>
     </g>
    </g>
   </g>
  </g>
  <g partID="854645921">
   <g transform="translate(210.122,35.3753)">
    <g transform="matrix(0,1,-1,0,0,0)">
     <g id="silkscreen">
      <line stroke="black" y1="5.76" y2="5.76" x1="1.44" x2="30.24" stroke-width="0.72"/>
      <line stroke="black" y1="5.76" y2="18.72" x1="30.24" x2="30.24" stroke-width="0.72"/>
      <line stroke="black" y1="18.72" y2="18.72" x1="30.24" x2="1.44" stroke-width="0.72"/>
      <line stroke="black" y1="18.72" y2="5.76" x1="1.44" x2="1.44" stroke-width="0.72"/>
      <line stroke="black" y1="5.76" y2="5.76" x1="1.44" x2="30.24" stroke-width="0.72"/>
      <line stroke="black" y1="5.76" y2="10.08" x1="30.24" x2="30.24" stroke-width="0.72"/>
      <line stroke="black" y1="10.08" y2="10.08" x1="30.24" x2="1.44" stroke-width="0.72"/>
      <line stroke="black" y1="10.08" y2="5.76" x1="1.44" x2="1.44" stroke-width="0.72"/>
      <line stroke="black" y1="5.76" y2="10.08" x1="10.8" x2="10.8" stroke-width="0.36"/>
      <line stroke="black" y1="5.76" y2="10.08" x1="20.88" x2="20.88" stroke-width="0.36"/>
     </g>
    </g>
   </g>
  </g>
  <g partID="18508321">
   <g transform="translate(54.8475,226.36)">
    <g transform="matrix(-1,0,0,-1,0,0)">
     <g id="silkscreen">
      <g id="silk">
       <circle stroke="black" fill="none" cx="14.76" cy="14.76" r="14.4" stroke-width="0.72" id="circle7"/>
      </g>
      <g transform="scale(11.111111,11.111111)">
       <path stroke="black" fill="none" style="stroke-linecap:round" stroke-width="0.072" d="m0.5184,0.7128,0.324,0" id="path3612"/>
      </g>
      <g transform="scale(11.111111,11.111111)">
       <path stroke="black" fill="none" style="stroke-linecap:round" stroke-width="0.072" d="m0.5184,1.944,0.324,0" id="path3614"/>
      </g>
     </g>
    </g>
   </g>
  </g>
  <g partID="18509801">
   <g transform="translate(57.7275,196.84)">
    <g id="silkscreen">
     <g id="silk">
      <circle stroke="black" fill="none" cx="14.76" cy="14.76" r="14.4" stroke-width="0.72" id="circle7"/>
     </g>
     <g transform="scale(11.111111,11.111111)">
      <path stroke="black" fill="none" style="stroke-linecap:round" stroke-width="0.072" d="m0.5184,0.7128,0.324,0" id="path3612"/>
     </g>
     <g transform="scale(11.111111,11.111111)">
      <path stroke="black" fill="none" style="stroke-linecap:round" stroke-width="0.072" d="m0.5184,1.944,0.324,0" id="path3614"/>
     </g>
    </g>
   </g>
  </g>
  <g partID="18510011">
   <g transform="translate(115.922,228.677)">
    <g transform="matrix(-1,0,0,-1,0,0)">
     <g id="silkscreen">
      <line stroke="black" y1="6.38928" y2="12.0586" x1="20.137" x2="20.137" stroke-width="0.72"/>
      <line stroke="black" y1="0.72" y2="0.72" x1="5.96376" x2="18.0115" stroke-width="0.72"/>
      <line stroke="black" y1="17.7278" y2="17.7278" x1="5.96376" x2="18.0115" stroke-width="0.72"/>
      <line stroke="black" y1="6.38928" y2="12.0586" x1="3.12912" x2="3.12912" stroke-width="0.72"/>
      <line stroke="black" y1="7.80696" y2="10.6416" x1="11.633" x2="11.633" stroke-width="0.72"/>
      <line stroke="black" y1="9.22392" y2="9.22392" x1="13.0507" x2="10.2161" stroke-width="0.72"/>
     </g>
    </g>
   </g>
  </g>
  <g partID="854645181">
   <g transform="translate(68.3771,155.471)">
    <g transform="matrix(0,1,-1,0,0,0)">
     <g id="silkscreen">
      <line stroke="black" y1="3.6" y2="3.6" x1="5.976" x2="6.912" stroke-width="0.72" stroke-linecap="flat"/>
      <line stroke="black" y1="3.6" y2="3.6" x1="20.952" x2="21.456" stroke-width="0.72" stroke-linecap="flat"/>
      <line stroke="black" y1="0.36" y2="0.36" x1="6.912" x2="20.952" stroke-width="0.72" stroke-linecap="flat"/>
      <line stroke="black" y1="0.36" y2="6.84" x1="20.952" x2="20.952" stroke-width="0.72" stroke-linecap="flat"/>
      <line stroke="black" y1="6.84" y2="6.84" x1="20.952" x2="6.912" stroke-width="0.72" stroke-linecap="flat"/>
      <line stroke="black" y1="6.84" y2="0.36" x1="6.912" x2="6.912" stroke-width="0.72" stroke-linecap="flat"/>
      <line stroke="black" y1="6.84" y2="0.36" x1="8.352" x2="8.352" stroke-width="1.44" stroke-linecap="flat"/>
     </g>
    </g>
   </g>
  </g>
  <g partID="854645161">
   <g transform="translate(68.3771,155.471)">
    <g transform="matrix(0,1,-1,0,0,0)">
     <g id="silkscreen">
      <line stroke="black" y1="3.6" y2="3.6" x1="5.976" x2="6.912" stroke-width="0.72" stroke-linecap="flat"/>
      <line stroke="black" y1="3.6" y2="3.6" x1="20.952" x2="21.456" stroke-width="0.72" stroke-linecap="flat"/>
      <line stroke="black" y1="0.36" y2="0.36" x1="6.912" x2="20.952" stroke-width="0.72" stroke-linecap="flat"/>
      <line stroke="black" y1="0.36" y2="6.84" x1="20.952" x2="20.952" stroke-width="0.72" stroke-linecap="flat"/>
      <line stroke="black" y1="6.84" y2="6.84" x1="20.952" x2="6.912" stroke-width="0.72" stroke-linecap="flat"/>
      <line stroke="black" y1="6.84" y2="0.36" x1="6.912" x2="6.912" stroke-width="0.72" stroke-linecap="flat"/>
      <line stroke="black" y1="6.84" y2="0.36" x1="8.352" x2="8.352" stroke-width="1.44" stroke-linecap="flat"/>
     </g>
    </g>
   </g>
  </g>
  <g partID="18510081">
   <g transform="translate(32.8875,195.04)">
    <g transform="matrix(0,-1,1,0,0,0)">
     <g id="silkscreen">
      <line stroke="black" y1="5.76" y2="5.76" x1="1.44" x2="30.24" stroke-width="0.72"/>
      <line stroke="black" y1="5.76" y2="18.72" x1="30.24" x2="30.24" stroke-width="0.72"/>
      <line stroke="black" y1="18.72" y2="18.72" x1="30.24" x2="1.44" stroke-width="0.72"/>
      <line stroke="black" y1="18.72" y2="5.76" x1="1.44" x2="1.44" stroke-width="0.72"/>
      <line stroke="black" y1="5.76" y2="5.76" x1="1.44" x2="30.24" stroke-width="0.72"/>
      <line stroke="black" y1="5.76" y2="10.08" x1="30.24" x2="30.24" stroke-width="0.72"/>
      <line stroke="black" y1="10.08" y2="10.08" x1="30.24" x2="1.44" stroke-width="0.72"/>
      <line stroke="black" y1="10.08" y2="5.76" x1="1.44" x2="1.44" stroke-width="0.72"/>
      <line stroke="black" y1="5.76" y2="10.08" x1="10.8" x2="10.8" stroke-width="0.36"/>
      <line stroke="black" y1="5.76" y2="10.08" x1="20.88" x2="20.88" stroke-width="0.36"/>
     </g>
    </g>
   </g>
  </g>
  <g partID="854645281">
   <g transform="translate(76.5339,143.512)">
    <g transform="matrix(0,1,-1,0,0,0)">
     <g id="silkscreen">
      <line stroke="black" y1="3.096" y2="3.096" x1="5.4" x2="10.584" stroke-width="0.72"/>
      <line stroke="black" y1="3.096" y2="3.096" x1="24.984" x2="28.8" stroke-width="0.72"/>
      <line stroke="black" y1="0.72" y2="0.72" x1="10.584" x2="24.984" stroke-width="0.72"/>
      <line stroke="black" y1="0.72" y2="5.472" x1="24.984" x2="24.984" stroke-width="0.72"/>
      <line stroke="black" y1="5.472" y2="5.472" x1="24.984" x2="10.584" stroke-width="0.72"/>
      <line stroke="black" y1="5.472" y2="0.72" x1="10.584" x2="10.584" stroke-width="0.72"/>
     </g>
    </g>
   </g>
  </g>
  <g partID="18510241">
   <g transform="translate(149.547,197.07)">
    <g id="silkscreen">
     <rect stroke="black" stroke-opacity="1" fill="none" style="stroke-linecap:round;stroke-linejoin:round;stroke-miterlimit:4;stroke-dasharray:none" height="13.3228" width="30.3307" stroke-width="0.708661" ry="6.66142" x="0.425197" y="0.425197" id="rect4181"/>
     <rect stroke="black" stroke-opacity="1" fill="none" style="stroke-linecap:round;stroke-linejoin:round;stroke-miterlimit:4;stroke-dasharray:none" height="6.23622" width="2.07874" stroke-width="0.708661" x="14.5512" y="3.9685" id="rect4193"/>
     <path stroke="black" stroke-opacity="1" fill="none" style="stroke-linecap:round;stroke-linejoin:miter;stroke-miterlimit:4;stroke-dasharray:none" stroke-width="0.708661" d="m17.8583,4.25197,0,5.66929" id="path4195"/>
     <path stroke="black" stroke-opacity="1" fill="none" style="stroke-linecap:round;stroke-linejoin:miter;stroke-miterlimit:4;stroke-dasharray:none" stroke-width="0.708661" d="m13.3228,4.25197,0,5.66929" id="path4199"/>
    </g>
   </g>
  </g>
  <g partID="18510281">
   <g transform="translate(189.492,201.414)">
    <g transform="matrix(0,1,-1,0,0,0)">
     <g id="silkscreen">
      <g transform="matrix(1, 0, 0, 1, 4.68, 1.8)">
       <path stroke="black" stroke-opacity="1" fill="none" style="stroke-linecap:round;stroke-linejoin:round;stroke-miterlimit:4;stroke-dasharray:none" stroke-width="0.576" d="M1.78537,-0.0517878A5.4,5.4,0,0,1,8.98094,-0.0818934" id="path4213"/>
      </g>
      <g transform="matrix(-1, 0, 0, -1, 15.48, 3.96)">
       <path stroke="black" stroke-opacity="1" fill="none" style="stroke-linecap:round;stroke-linejoin:round;stroke-miterlimit:4;stroke-dasharray:none" stroke-width="0.576" d="M1.78537,-0.0517878A5.4,5.4,0,0,1,8.98094,-0.0818934" id="path4213-0"/>
      </g>
     </g>
    </g>
   </g>
  </g>
  <g partID="18510301">
   <g transform="translate(84.8355,192.19)">
    <g transform="matrix(-1,0,0,-1,0,0)">
     <g id="silkscreen">
      <g transform="matrix(1, 0, 0, 1, -1.43333, -1.16)">
       <path stroke="black" stroke-opacity="1" fill="none" style="stroke-linecap:round;stroke-linejoin:round;stroke-miterlimit:4;stroke-dasharray:none" stroke-width="0.576" d="m6.65907,2.30036a1.84667,1.58,0,0,1,2.51037,0.001464" id="path2830"/>
      </g>
      <g transform="matrix(-1, 0, 0, -1, 14.3952, 6.92)">
       <path stroke="black" stroke-opacity="1" fill="none" style="stroke-linecap:round;stroke-linejoin:round;stroke-miterlimit:4;stroke-dasharray:none" stroke-width="0.576" d="m6.65907,2.30036a1.84667,1.58,0,0,1,2.51037,0.001464" id="path2830-1"/>
      </g>
     </g>
    </g>
   </g>
  </g>
  <g partID="854640111">
   <g transform="translate(144.085,228.691)">
    <g transform="matrix(0,-1,1,0,0,0)">
     <g id="silkscreen">
      <g transform="matrix(1, 0, 0, 1, 4.68, 1.8)">
       <path stroke="black" stroke-opacity="1" fill="none" style="stroke-linecap:round;stroke-linejoin:round;stroke-miterlimit:4;stroke-dasharray:none" stroke-width="0.576" d="M1.78537,-0.0517878A5.4,5.4,0,0,1,8.98094,-0.0818934" id="path4213"/>
      </g>
      <g transform="matrix(-1, 0, 0, -1, 15.48, 3.96)">
       <path stroke="black" stroke-opacity="1" fill="none" style="stroke-linecap:round;stroke-linejoin:round;stroke-miterlimit:4;stroke-dasharray:none" stroke-width="0.576" d="M1.78537,-0.0517878A5.4,5.4,0,0,1,8.98094,-0.0818934" id="path4213-0"/>
      </g>
     </g>
    </g>
   </g>
  </g>
  <g partID="854633781">
   <g transform="translate(22.2075,130.36)">
    <g id="silkscreen">
     <line stroke="black" y1="1.44" y2="30.96" x1="1.44" x2="1.44" stroke-width="0.72" id="vertical-left"/>
     <line stroke="black" y1="30.96" y2="30.96" x1="1.44" x2="33.12" stroke-width="0.72" id="bottom"/>
     <line stroke="black" y1="30.96" y2="1.44" x1="33.12" x2="33.12" stroke-width="0.72" id="vertical-right"/>
     <line stroke="black" y1="1.44" y2="1.44" x1="33.12" x2="1.44" stroke-width="0.72" id="top"/>
     <line stroke="black" y1="30.96" y2="1.44" x1="27.36" x2="27.36" stroke-width="0.36" id="mid-vertical"/>
    </g>
   </g>
  </g>
  <g partID="854645891">
   <g transform="translate(7.17049,81.1089)">
    <g id="silkscreen">
     <line stroke="black" y1="1.44" y2="30.24" x1="1.44" x2="1.44" stroke-width="0.72"/>
     <line stroke="black" y1="30.24" y2="30.24" x1="1.44" x2="8.64" stroke-width="0.72"/>
     <line stroke="black" y1="30.24" y2="1.44" x1="8.64" x2="8.64" stroke-width="0.72"/>
     <line stroke="black" y1="1.44" y2="1.44" x1="8.64" x2="1.44" stroke-width="0.72"/>
     <line stroke="black" y1="3.96" y2="1.44" x1="1.44" x2="3.96" stroke-width="0.36"/>
     <!-- 120 -->
    </g>
   </g>
  </g>
  <g partID="854645871">
   <g transform="translate(43.3483,52.3087)">
    <g id="silkscreen">
     <line stroke="black" y1="1.44" y2="30.24" x1="1.44" x2="1.44" stroke-width="0.72"/>
     <line stroke="black" y1="30.24" y2="30.24" x1="1.44" x2="8.64" stroke-width="0.72"/>
     <line stroke="black" y1="30.24" y2="1.44" x1="8.64" x2="8.64" stroke-width="0.72"/>
     <line stroke="black" y1="1.44" y2="1.44" x1="8.64" x2="1.44" stroke-width="0.72"/>
     <line stroke="black" y1="3.96" y2="1.44" x1="1.44" x2="3.96" stroke-width="0.36"/>
     <!-- 120 -->
    </g>
   </g>
  </g>
  <g partID="854645861">
   <g transform="translate(57.7483,66.7087)">
    <g id="silkscreen">
     <line stroke="black" y1="1.44" y2="30.24" x1="1.44" x2="1.44" stroke-width="0.72"/>
     <line stroke="black" y1="30.24" y2="30.24" x1="1.44" x2="8.64" stroke-width="0.72"/>
     <line stroke="black" y1="30.24" y2="1.44" x1="8.64" x2="8.64" stroke-width="0.72"/>
     <line stroke="black" y1="1.44" y2="1.44" x1="8.64" x2="1.44" stroke-width="0.72"/>
     <line stroke="black" y1="3.96" y2="1.44" x1="1.44" x2="3.96" stroke-width="0.36"/>
     <!-- 120 -->
    </g>
   </g>
  </g>
  <g partID="854645851">
   <g transform="translate(43.3483,81.1089)">
    <g id="silkscreen">
     <line stroke="black" y1="1.44" y2="30.24" x1="1.44" x2="1.44" stroke-width="0.72"/>
     <line stroke="black" y1="30.24" y2="30.24" x1="1.44" x2="8.64" stroke-width="0.72"/>
     <line stroke="black" y1="30.24" y2="1.44" x1="8.64" x2="8.64" stroke-width="0.72"/>
     <line stroke="black" y1="1.44" y2="1.44" x1="8.64" x2="1.44" stroke-width="0.72"/>
     <line stroke="black" y1="3.96" y2="1.44" x1="1.44" x2="3.96" stroke-width="0.36"/>
     <!-- 120 -->
    </g>
   </g>
  </g>
  <g partID="854645842">
   <g id="silkscreen">
    <rect stroke="black" fill="none" height="235.476" width="209.127" stroke-width="0.576" x="0.288" y="0.288"/>
   </g>
  </g>
  <g partID="17327421">
   <g transform="translate(85.2427,178.801)">
    <g transform="matrix(0,-1,1,0,0,0)">
     <g stroke-width="0" id="silkscreen">
      <line stroke="black" y1="0.72" y2="101.52" x1="0.72" x2="0.72" stroke-width="0.72"/>
      <line stroke="black" y1="101.52" y2="101.52" x1="0.72" x2="29.52" stroke-width="0.72"/>
      <line stroke="black" y1="101.52" y2="0.72" x1="29.52" x2="29.52" stroke-width="0.72"/>
      <line stroke="black" y1="0.72" y2="0.72" x1="0.72" x2="11.52" stroke-width="0.72"/>
      <line stroke="black" y1="0.72" y2="0.72" x1="18.72" x2="29.52" stroke-width="0.72"/>
     </g>
    </g>
   </g>
  </g>
  <g partID="6129241">
   <g transform="translate(96.3619,209.651)">
    <g transform="matrix(0,-1,1,0,0,0)">
     <g id="silkscreen">
      <line stroke="black" y1="1.44" y2="44.64" x1="1.44" x2="1.44" stroke-width="0.72"/>
      <line stroke="black" y1="44.64" y2="44.64" x1="1.44" x2="8.64" stroke-width="0.72"/>
      <line stroke="black" y1="44.64" y2="1.44" x1="8.64" x2="8.64" stroke-width="0.72"/>
      <line stroke="black" y1="1.44" y2="1.44" x1="8.64" x2="1.44" stroke-width="0.72"/>
      <line stroke="black" y1="3.96" y2="1.44" x1="1.44" x2="3.96" stroke-width="0.36"/>
      <!-- 120 -->
     </g>
    </g>
   </g>
  </g>
  <g partID="6038801">
   <g transform="translate(84.5227,143.7)">
    <g transform="matrix(0,-1,1,0,0,0)">
     <g id="silkscreen">
      <line stroke="black" y1="1.44" y2="44.64" x1="1.44" x2="1.44" stroke-width="0.72"/>
      <line stroke="black" y1="44.64" y2="44.64" x1="1.44" x2="8.64" stroke-width="0.72"/>
      <line stroke="black" y1="44.64" y2="1.44" x1="8.64" x2="8.64" stroke-width="0.72"/>
      <line stroke="black" y1="1.44" y2="1.44" x1="8.64" x2="1.44" stroke-width="0.72"/>
      <line stroke="black" y1="3.96" y2="1.44" x1="1.44" x2="3.96" stroke-width="0.36"/>
      <!-- 120 -->
     </g>
    </g>
   </g>
  </g>
  <g partID="6038791">
   <g transform="translate(149.212,143.3)">
    <g transform="matrix(0,-1,1,0,0,0)">
     <g id="silkscreen">
      <line stroke="black" y1="1.44" y2="37.44" x1="1.44" x2="1.44" stroke-width="0.72"/>
      <line stroke="black" y1="37.44" y2="37.44" x1="1.44" x2="8.64" stroke-width="0.72"/>
      <line stroke="black" y1="37.44" y2="1.44" x1="8.64" x2="8.64" stroke-width="0.72"/>
      <line stroke="black" y1="1.44" y2="1.44" x1="8.64" x2="1.44" stroke-width="0.72"/>
      <line stroke="black" y1="3.96" y2="1.44" x1="1.44" x2="3.96" stroke-width="0.36"/>
      <!-- 120 -->
     </g>
    </g>
   </g>
  </g>
  <g partID="854652351">
   <g transform="translate(9.31387,196.294)">
    <g id="silkscreen">
     <line stroke="black" y1="1.44" y2="30.24" x1="1.44" x2="1.44" stroke-width="0.72"/>
     <line stroke="black" y1="30.24" y2="30.24" x1="1.44" x2="8.64" stroke-width="0.72"/>
     <line stroke="black" y1="30.24" y2="1.44" x1="8.64" x2="8.64" stroke-width="0.72"/>
     <line stroke="black" y1="1.44" y2="1.44" x1="8.64" x2="1.44" stroke-width="0.72"/>
     <line stroke="black" y1="3.96" y2="1.44" x1="1.44" x2="3.96" stroke-width="0.36"/>
     <!-- 120 -->
    </g>
   </g>
  </g>
  <g partID="854651481">
   <g transform="translate(197.047,196.294)">
    <g id="silkscreen">
     <line stroke="black" y1="1.44" y2="30.24" x1="1.44" x2="1.44" stroke-width="0.72"/>
     <line stroke="black" y1="30.24" y2="30.24" x1="1.44" x2="8.64" stroke-width="0.72"/>
     <line stroke="black" y1="30.24" y2="1.44" x1="8.64" x2="8.64" stroke-width="0.72"/>
     <line stroke="black" y1="1.44" y2="1.44" x1="8.64" x2="1.44" stroke-width="0.72"/>
     <line stroke="black" y1="3.96" y2="1.44" x1="1.44" x2="3.96" stroke-width="0.36"/>
     <!-- 120 -->
    </g>
   </g>
  </g>
  <g partID="6038781">
   <g transform="translate(156.481,194.918)">
    <g transform="matrix(0,-1,1,0,0,0)">
     <g id="silkscreen">
      <line stroke="black" y1="1.44" y2="30.24" x1="1.44" x2="1.44" stroke-width="0.72"/>
      <line stroke="black" y1="30.24" y2="30.24" x1="1.44" x2="8.64" stroke-width="0.72"/>
      <line stroke="black" y1="30.24" y2="1.44" x1="8.64" x2="8.64" stroke-width="0.72"/>
      <line stroke="black" y1="1.44" y2="1.44" x1="8.64" x2="1.44" stroke-width="0.72"/>
      <line stroke="black" y1="3.96" y2="1.44" x1="1.44" x2="3.96" stroke-width="0.36"/>
      <!-- 120 -->
     </g>
    </g>
   </g>
  </g>
  <g partID="6038771">
   <g transform="translate(84.5227,194.5)">
    <g transform="matrix(0,-1,1,0,0,0)">
     <g id="silkscreen">
      <line stroke="black" y1="1.44" y2="44.64" x1="1.44" x2="1.44" stroke-width="0.72"/>
      <line stroke="black" y1="44.64" y2="44.64" x1="1.44" x2="8.64" stroke-width="0.72"/>
      <line stroke="black" y1="44.64" y2="1.44" x1="8.64" x2="8.64" stroke-width="0.72"/>
      <line stroke="black" y1="1.44" y2="1.44" x1="8.64" x2="1.44" stroke-width="0.72"/>
      <line stroke="black" y1="3.96" y2="1.44" x1="1.44" x2="3.96" stroke-width="0.36"/>
      <!-- 120 -->
     </g>
    </g>
   </g>
  </g>
  <g partID="854645881">
   <g transform="translate(7.17049,52.3087)">
    <g id="silkscreen">
     <line stroke="black" y1="1.44" y2="30.24" x1="1.44" x2="1.44" stroke-width="0.72"/>
     <line stroke="black" y1="30.24" y2="30.24" x1="1.44" x2="8.64" stroke-width="0.72"/>
     <line stroke="black" y1="30.24" y2="1.44" x1="8.64" x2="8.64" stroke-width="0.72"/>
     <line stroke="black" y1="1.44" y2="1.44" x1="8.64" x2="1.44" stroke-width="0.72"/>
     <line stroke="black" y1="3.96" y2="1.44" x1="1.44" x2="3.96" stroke-width="0.36"/>
     <!-- 120 -->
    </g>
   </g>
  </g>
  <g partID="854645900" id="partLabel">
   <g transform="translate(215.722,35.7221)">
    <g transform="matrix(0,1,-1,0,0,0)">
     <g stroke="none" font-weight="normal" fill="#000000" font-size="5" font-style="normal" font-family="'OCRA'" fill-opacity="1" id="silkscreenLabel">
      <text x="0" y="3.75">Q4</text>
     </g>
    </g>
   </g>
  </g>
  <g partID="854645910" id="partLabel">
   <g transform="translate(215.988,98.3889)">
    <g transform="matrix(0,1,-1,0,0,0)">
     <g stroke="none" font-weight="normal" fill="#000000" font-size="5" font-style="normal" font-family="'OCRA'" fill-opacity="1" id="silkscreenLabel">
      <text x="0" y="3.75">Q5</text>
     </g>
    </g>
   </g>
  </g>
  <g partID="854633780" id="partLabel">
   <g transform="translate(56.7675,124.76)">
    <g stroke="none" font-weight="normal" fill="#000000" font-size="5" font-style="normal" font-family="'OCRA'" fill-opacity="1" id="silkscreenLabel">
     <text x="0" y="3.75">J14</text>
    </g>
   </g>
  </g>
  <g partID="854645920" id="partLabel">
   <g transform="translate(216.454,67.3485)">
    <g transform="matrix(0,1,-1,0,0,0)">
     <g stroke="none" font-weight="normal" fill="#000000" font-size="5" font-style="normal" font-family="'OCRA'" fill-opacity="1" id="silkscreenLabel">
      <text x="0" y="3.75">Q6</text>
     </g>
    </g>
   </g>
  </g>
  <g partID="854645902">
   <g transform="translate(210.122,4.04205)">
    <g transform="matrix(0,1,-1,0,0,0)">
     <g id="copper1">
      <g id="copper0">
       <rect stroke="white" fill="white" height="4.464" width="4.464" stroke-width="2.16" x="6.408" y="12.168"/>
       <circle stroke="white" fill="white" cx="8.64" cy="14.4" r="2.232" stroke-width="2.16" id="connector0pad"/>
       <circle stroke="white" fill="white" cx="15.84" cy="14.4" r="2.232" stroke-width="2.16" id="connector1pad"/>
       <circle stroke="white" fill="white" cx="23.04" cy="14.4" r="2.232" stroke-width="2.16" id="connector2pad"/>
      </g>
     </g>
    </g>
   </g>
  </g>
  <g partID="854645912">
   <g transform="translate(210.388,66.7087)">
    <g transform="matrix(0,1,-1,0,0,0)">
     <g id="copper1">
      <g id="copper0">
       <rect stroke="white" fill="white" height="4.464" width="4.464" stroke-width="2.16" x="6.408" y="12.168"/>
       <circle stroke="white" fill="white" cx="8.64" cy="14.4" r="2.232" stroke-width="2.16" id="connector0pad"/>
       <circle stroke="white" fill="white" cx="15.84" cy="14.4" r="2.232" stroke-width="2.16" id="connector1pad"/>
       <circle stroke="white" fill="white" cx="23.04" cy="14.4" r="2.232" stroke-width="2.16" id="connector2pad"/>
      </g>
     </g>
    </g>
   </g>
  </g>
  <g partID="854645922">
   <g transform="translate(210.122,35.3753)">
    <g transform="matrix(0,1,-1,0,0,0)">
     <g id="copper1">
      <g id="copper0">
       <rect stroke="white" fill="white" height="4.464" width="4.464" stroke-width="2.16" x="6.408" y="12.168"/>
       <circle stroke="white" fill="white" cx="8.64" cy="14.4" r="2.232" stroke-width="2.16" id="connector0pad"/>
       <circle stroke="white" fill="white" cx="15.84" cy="14.4" r="2.232" stroke-width="2.16" id="connector1pad"/>
       <circle stroke="white" fill="white" cx="23.04" cy="14.4" r="2.232" stroke-width="2.16" id="connector2pad"/>
      </g>
     </g>
    </g>
   </g>
  </g>
  <g partID="854645931">
   <g transform="translate(8.00196,42.8198)">
    <g id="copper1">
     <circle stroke="white" fill="white" cx="4.31559" cy="4.31559" r="1.99559" stroke-width="2.16" id="connector0pin"/>
    </g>
   </g>
  </g>
  <g partID="854645951">
   <g transform="translate(141.939,111.834)">
    <g id="copper1">
     <circle stroke="white" fill="white" cx="4.31559" cy="4.31559" r="1.99559" stroke-width="2.16" id="connector0pin"/>
    </g>
   </g>
  </g>
  <g partID="854645971">
   <g transform="translate(132.472,104.5)">
    <g id="copper1">
     <circle stroke="white" fill="white" cx="4.31559" cy="4.31559" r="1.99559" stroke-width="2.16" id="connector0pin"/>
    </g>
   </g>
  </g>
  <g partID="854645981">
   <g transform="translate(180.473,78.3665)">
    <g id="copper1">
     <circle stroke="white" fill="white" cx="4.31559" cy="4.31559" r="1.99559" stroke-width="2.16" id="connector0pin"/>
    </g>
   </g>
  </g>
  <g partID="854645991">
   <g transform="translate(180.206,46.7665)">
    <g id="copper1">
     <circle stroke="white" fill="white" cx="4.31559" cy="4.31559" r="1.99559" stroke-width="2.16" id="connector0pin"/>
    </g>
   </g>
  </g>
  <g partID="854646001">
   <g transform="translate(179.806,15.6997)">
    <g id="copper1">
     <circle stroke="white" fill="white" cx="4.31559" cy="4.31559" r="1.99559" stroke-width="2.16" id="connector0pin"/>
    </g>
   </g>
  </g>
  <g partID="854648571">
   <g transform="translate(32.1539,52.8662)">
    <g id="copper1">
     <circle stroke="white" fill="white" cx="4.31559" cy="4.31559" r="1.99559" stroke-width="2.16" id="connector0pin"/>
    </g>
   </g>
  </g>
  <g partID="854648671">
   <g transform="translate(24.7747,96.2681)">
    <g id="copper1">
     <circle stroke="white" fill="white" cx="4.31559" cy="4.31559" r="1.99559" stroke-width="2.16" id="connector0pin"/>
    </g>
   </g>
  </g>
  <g partID="854649391">
   <g transform="translate(163.674,22.7862)">
    <g id="copper1">
     <circle stroke="white" fill="white" cx="4.31559" cy="4.31559" r="1.99559" stroke-width="2.16" id="connector0pin"/>
    </g>
   </g>
  </g>
  <g partID="854649451">
   <g transform="translate(171.674,53.7195)">
    <g id="copper1">
     <circle stroke="white" fill="white" cx="4.31559" cy="4.31559" r="1.99559" stroke-width="2.16" id="connector0pin"/>
    </g>
   </g>
  </g>
  <g partID="854649511">
   <g transform="translate(179.14,91.3193)">
    <g id="copper1">
     <circle stroke="white" fill="white" cx="4.31559" cy="4.31559" r="1.99559" stroke-width="2.16" id="connector0pin"/>
    </g>
   </g>
  </g>
  <g partID="854651281">
   <g transform="translate(75.4067,124.386)">
    <g id="copper1">
     <circle stroke="white" fill="white" cx="4.31559" cy="4.31559" r="1.99559" stroke-width="2.16" id="connector0pin"/>
    </g>
   </g>
  </g>
  <g partID="854651941">
   <g transform="translate(118.607,209.719)">
    <g id="copper1">
     <circle stroke="white" fill="white" cx="4.31559" cy="4.31559" r="1.99559" stroke-width="2.16" id="connector0pin"/>
    </g>
   </g>
  </g>
  <g partID="854652041">
   <g transform="translate(198.074,227.053)">
    <g id="copper1">
     <circle stroke="white" fill="white" cx="4.31559" cy="4.31559" r="1.99559" stroke-width="2.16" id="connector0pin"/>
    </g>
   </g>
  </g>
  <g partID="854644581">
   <g transform="translate(129.78,162.93)">
    <g id="copper1">
     <circle stroke="white" fill="white" cx="3.01733" cy="3.01733" r="0.992124" stroke-width="1.57039" id="connector0pin"/>
    </g>
   </g>
  </g>
  <g partID="18508322">
   <g transform="translate(54.8475,226.36)">
    <g transform="matrix(-1,0,0,-1,0,0)">
     <g id="copper1">
      <g id="copper0">
       <rect stroke="white" fill="white" height="3.96" width="3.96" stroke-width="2.16" x="5.58" y="12.78" id="rect11"/>
       <circle stroke="white" fill="white" cx="7.56" cy="14.76" r="1.98" stroke-width="2.16" id="connector0pin"/>
       <circle stroke="white" fill="white" cx="21.96" cy="14.76" r="1.98" stroke-width="2.16" id="connector1pin"/>
      </g>
     </g>
    </g>
   </g>
  </g>
  <g partID="18509802">
   <g transform="translate(57.7275,196.84)">
    <g id="copper1">
     <g id="copper0">
      <rect stroke="white" fill="white" height="3.96" width="3.96" stroke-width="2.16" x="5.58" y="12.78" id="rect11"/>
      <circle stroke="white" fill="white" cx="7.56" cy="14.76" r="1.98" stroke-width="2.16" id="connector0pin"/>
      <circle stroke="white" fill="white" cx="21.96" cy="14.76" r="1.98" stroke-width="2.16" id="connector1pin"/>
     </g>
    </g>
   </g>
  </g>
  <g partID="18510012">
   <g transform="translate(115.922,228.677)">
    <g transform="matrix(-1,0,0,-1,0,0)">
     <g id="copper1">
      <g id="copper0">
       <circle stroke="white" fill="white" cx="20.8462" cy="15.6024" r="1.98" stroke-width="2.16" id="connector0pad"/>
       <circle stroke="white" fill="white" cx="2.42064" cy="15.6024" r="1.98" stroke-width="2.16" id="connector1pad"/>
       <circle stroke="white" fill="white" cx="20.8462" cy="2.84616" r="1.98" stroke-width="2.16" id="connector2pad"/>
       <circle stroke="white" fill="white" cx="2.42064" cy="2.84616" r="1.98" stroke-width="2.16" id="connector3pad"/>
      </g>
     </g>
    </g>
   </g>
  </g>
  <g partID="854645182">
   <g transform="translate(68.3771,155.471)">
    <g transform="matrix(0,1,-1,0,0,0)">
     <g id="copper1">
      <g id="copper0">
       <rect stroke="white" fill="white" height="4.464" width="4.464" stroke-width="2.16" x="0.72" y="1.368"/>
       <circle stroke="white" fill="white" cx="3.024" cy="3.6" r="2.232" stroke-width="2.16" id="connector0pin"/>
       <circle stroke="white" fill="white" cx="24.48" cy="3.6" r="2.232" stroke-width="2.16" id="connector1pin"/>
      </g>
     </g>
    </g>
   </g>
  </g>
  <g partID="854645162">
   <g transform="translate(68.3771,155.471)">
    <g transform="matrix(0,1,-1,0,0,0)">
     <g id="copper1">
      <g id="copper0">
       <rect stroke="white" fill="white" height="4.464" width="4.464" stroke-width="2.16" x="0.72" y="1.368"/>
       <circle stroke="white" fill="white" cx="3.024" cy="3.6" r="2.232" stroke-width="2.16" id="connector0pin"/>
       <circle stroke="white" fill="white" cx="24.48" cy="3.6" r="2.232" stroke-width="2.16" id="connector1pin"/>
      </g>
     </g>
    </g>
   </g>
  </g>
  <g partID="18510082">
   <g transform="translate(32.8875,195.04)">
    <g transform="matrix(0,-1,1,0,0,0)">
     <g id="copper1">
      <g id="copper0">
       <rect stroke="white" fill="white" height="4.464" width="4.464" stroke-width="2.16" x="6.408" y="12.168"/>
       <circle stroke="white" fill="white" cx="8.64" cy="14.4" r="2.232" stroke-width="2.16" id="connector0pad"/>
       <circle stroke="white" fill="white" cx="15.84" cy="14.4" r="2.232" stroke-width="2.16" id="connector1pad"/>
       <circle stroke="white" fill="white" cx="23.04" cy="14.4" r="2.232" stroke-width="2.16" id="connector2pad"/>
      </g>
     </g>
    </g>
   </g>
  </g>
  <g partID="854645282">
   <g transform="translate(76.5339,143.512)">
    <g transform="matrix(0,1,-1,0,0,0)">
     <g id="copper1">
      <!-- <rect width="55" x="10" y="15.5" fill="none" height="55" stroke="rgb(255, 191, 0)" stroke-width="20" />  -->
      <circle stroke="white" fill="white" cx="2.7" cy="3.096" r="1.98" stroke-width="2.16" id="connector0pin"/>
      <circle stroke="white" fill="white" cx="31.5" cy="3.096" r="1.98" stroke-width="2.16" id="connector1pin"/>
     </g>
    </g>
   </g>
  </g>
  <g partID="18510242">
   <g transform="translate(149.547,197.07)">
    <g id="copper1">
     <circle stroke="white" fill="white" cx="22.5479" cy="7.08448" r="1.84465" stroke-width="2.13732" id="connector1pin"/>
     <circle stroke="white" fill="white" cx="8.64567" cy="7.08661" r="1.84252" stroke-width="2.13732" id="connector0pin"/>
    </g>
   </g>
  </g>
  <g partID="18510282">
   <g transform="translate(189.492,201.414)">
    <g transform="matrix(0,1,-1,0,0,0)">
     <g id="copper1">
      <circle stroke="white" fill="white" cx="2.88" cy="2.88" r="1.8" stroke-width="2.16" id="connector0pin"/>
      <circle stroke="white" fill="white" cx="17.28" cy="2.88" r="1.8" stroke-width="2.16" id="connector1pin"/>
     </g>
    </g>
   </g>
  </g>
  <g partID="18510302">
   <g transform="translate(84.8355,192.19)">
    <g transform="matrix(-1,0,0,-1,0,0)">
     <g id="copper1">
      <circle stroke="white" fill="white" cx="2.88" cy="2.88" r="1.8" stroke-width="2.16" id="connector0pin"/>
      <circle stroke="white" fill="white" cx="10.0933" cy="2.88" r="1.8" stroke-width="2.16" id="connector1pin"/>
     </g>
    </g>
   </g>
  </g>
  <g partID="854640112">
   <g transform="translate(144.085,228.691)">
    <g transform="matrix(0,-1,1,0,0,0)">
     <g id="copper1">
      <circle stroke="white" fill="white" cx="2.88" cy="2.88" r="1.8" stroke-width="2.16" id="connector0pin"/>
      <circle stroke="white" fill="white" cx="17.28" cy="2.88" r="1.8" stroke-width="2.16" id="connector1pin"/>
     </g>
    </g>
   </g>
  </g>
  <g partID="854633782">
   <g transform="translate(22.2075,130.36)">
    <g id="copper1">
     <g id="copper0">
      <rect stroke="white" fill="white" height="4.32" width="4.32" stroke-width="2.16" x="12.24" y="6.84" id="square"/>
      <circle stroke="white" fill="white" cx="14.4" cy="9" r="2.16" stroke-width="2.16" id="connector0pin"/>
      <circle stroke="white" fill="white" cx="14.4" cy="23.4" r="2.16" stroke-width="2.16" id="connector1pin"/>
     </g>
    </g>
   </g>
  </g>
  <g partID="854636511">
   <g transform="translate(44.0739,149.386)">
    <g id="copper1">
     <circle stroke="white" fill="white" cx="4.31559" cy="4.31559" r="1.99559" stroke-width="2.16" id="connector0pin"/>
    </g>
   </g>
  </g>
  <g partID="854636791">
   <g transform="translate(135.474,179.186)">
    <g id="copper1">
     <circle stroke="white" fill="white" cx="4.31559" cy="4.31559" r="1.99559" stroke-width="2.16" id="connector0pin"/>
    </g>
   </g>
  </g>
  <g partID="854637121">
   <g transform="translate(92.5491,191.77)">
    <g id="copper1">
     <circle stroke="white" fill="white" cx="4.31559" cy="4.31559" r="1.99559" stroke-width="2.16" id="connector0pin"/>
    </g>
   </g>
  </g>
  <g partID="854637181">
   <g transform="translate(128.674,140.826)">
    <g id="copper1">
     <circle stroke="white" fill="white" cx="4.31559" cy="4.31559" r="1.99559" stroke-width="2.16" id="connector0pin"/>
    </g>
   </g>
  </g>
  <g partID="854638081">
   <g transform="translate(98.8739,156.653)">
    <g id="copper1">
     <circle stroke="white" fill="white" cx="4.31559" cy="4.31559" r="1.99559" stroke-width="2.16" id="connector0pin"/>
    </g>
   </g>
  </g>
  <g partID="854645892">
   <g transform="translate(7.17049,81.1089)">
    <g id="copper1">
     <g id="copper0">
      <circle stroke="white" fill="white" cx="5.04" cy="5.04" r="2.088" stroke-width="2.16" id="connector0pin"/>
      <circle stroke="white" fill="white" cx="5.04" cy="12.24" r="2.088" stroke-width="2.16" id="connector1pin"/>
      <circle stroke="white" fill="white" cx="5.04" cy="19.44" r="2.088" stroke-width="2.16" id="connector2pin"/>
      <circle stroke="white" fill="white" cx="5.04" cy="26.64" r="2.088" stroke-width="2.16" id="connector3pin"/>
     </g>
    </g>
   </g>
  </g>
  <g partID="854645872">
   <g transform="translate(43.3483,52.3087)">
    <g id="copper1">
     <g id="copper0">
      <circle stroke="white" fill="white" cx="5.04" cy="5.04" r="2.088" stroke-width="2.16" id="connector0pin"/>
      <circle stroke="white" fill="white" cx="5.04" cy="12.24" r="2.088" stroke-width="2.16" id="connector1pin"/>
      <circle stroke="white" fill="white" cx="5.04" cy="19.44" r="2.088" stroke-width="2.16" id="connector2pin"/>
      <circle stroke="white" fill="white" cx="5.04" cy="26.64" r="2.088" stroke-width="2.16" id="connector3pin"/>
     </g>
    </g>
   </g>
  </g>
  <g partID="854645862">
   <g transform="translate(57.7483,66.7087)">
    <g id="copper1">
     <g id="copper0">
      <circle stroke="white" fill="white" cx="5.04" cy="5.04" r="2.088" stroke-width="2.16" id="connector0pin"/>
      <circle stroke="white" fill="white" cx="5.04" cy="12.24" r="2.088" stroke-width="2.16" id="connector1pin"/>
      <circle stroke="white" fill="white" cx="5.04" cy="19.44" r="2.088" stroke-width="2.16" id="connector2pin"/>
      <circle stroke="white" fill="white" cx="5.04" cy="26.64" r="2.088" stroke-width="2.16" id="connector3pin"/>
     </g>
    </g>
   </g>
  </g>
  <g partID="854645852">
   <g transform="translate(43.3483,81.1089)">
    <g id="copper1">
     <g id="copper0">
      <circle stroke="white" fill="white" cx="5.04" cy="5.04" r="2.088" stroke-width="2.16" id="connector0pin"/>
      <circle stroke="white" fill="white" cx="5.04" cy="12.24" r="2.088" stroke-width="2.16" id="connector1pin"/>
      <circle stroke="white" fill="white" cx="5.04" cy="19.44" r="2.088" stroke-width="2.16" id="connector2pin"/>
      <circle stroke="white" fill="white" cx="5.04" cy="26.64" r="2.088" stroke-width="2.16" id="connector3pin"/>
     </g>
    </g>
   </g>
  </g>
  <g partID="17327422">
   <g transform="translate(85.2427,178.801)">
    <g transform="matrix(0,-1,1,0,0,0)">
     <g stroke-width="0" id="copper1">
      <g stroke-width="0" id="copper0">
       <rect stroke="white" fill="white" height="3.96" width="3.96" stroke-width="2.16" x="2.34" y="2.34"/>
       <circle stroke="white" fill="white" cx="4.32" cy="4.32" r="1.98" stroke-width="2.16" id="connector0pin"/>
       <circle stroke="white" fill="white" cx="25.92" cy="4.32" r="1.98" stroke-width="2.16" id="connector27pin"/>
       <circle stroke="white" fill="white" cx="4.32" cy="11.52" r="1.98" stroke-width="2.16" id="connector1pin"/>
       <circle stroke="white" fill="white" cx="25.92" cy="11.52" r="1.98" stroke-width="2.16" id="connector26pin"/>
       <circle stroke="white" fill="white" cx="4.32" cy="18.72" r="1.98" stroke-width="2.16" id="connector2pin"/>
       <circle stroke="white" fill="white" cx="25.92" cy="18.72" r="1.98" stroke-width="2.16" id="connector25pin"/>
       <circle stroke="white" fill="white" cx="4.32" cy="25.92" r="1.98" stroke-width="2.16" id="connector3pin"/>
       <circle stroke="white" fill="white" cx="25.92" cy="25.92" r="1.98" stroke-width="2.16" id="connector24pin"/>
       <circle stroke="white" fill="white" cx="4.32" cy="33.12" r="1.98" stroke-width="2.16" id="connector4pin"/>
       <circle stroke="white" fill="white" cx="25.92" cy="33.12" r="1.98" stroke-width="2.16" id="connector23pin"/>
       <circle stroke="white" fill="white" cx="4.32" cy="40.32" r="1.98" stroke-width="2.16" id="connector5pin"/>
       <circle stroke="white" fill="white" cx="25.92" cy="40.32" r="1.98" stroke-width="2.16" id="connector22pin"/>
       <circle stroke="white" fill="white" cx="4.32" cy="47.52" r="1.98" stroke-width="2.16" id="connector6pin"/>
       <circle stroke="white" fill="white" cx="25.92" cy="47.52" r="1.98" stroke-width="2.16" id="connector21pin"/>
       <circle stroke="white" fill="white" cx="4.32" cy="54.72" r="1.98" stroke-width="2.16" id="connector7pin"/>
       <circle stroke="white" fill="white" cx="25.92" cy="54.72" r="1.98" stroke-width="2.16" id="connector20pin"/>
       <circle stroke="white" fill="white" cx="4.32" cy="61.92" r="1.98" stroke-width="2.16" id="connector8pin"/>
       <circle stroke="white" fill="white" cx="25.92" cy="61.92" r="1.98" stroke-width="2.16" id="connector19pin"/>
       <circle stroke="white" fill="white" cx="4.32" cy="69.12" r="1.98" stroke-width="2.16" id="connector9pin"/>
       <circle stroke="white" fill="white" cx="25.92" cy="69.12" r="1.98" stroke-width="2.16" id="connector18pin"/>
       <circle stroke="white" fill="white" cx="4.32" cy="76.32" r="1.98" stroke-width="2.16" id="connector10pin"/>
       <circle stroke="white" fill="white" cx="25.92" cy="76.32" r="1.98" stroke-width="2.16" id="connector17pin"/>
       <circle stroke="white" fill="white" cx="4.32" cy="83.52" r="1.98" stroke-width="2.16" id="connector11pin"/>
       <circle stroke="white" fill="white" cx="25.92" cy="83.52" r="1.98" stroke-width="2.16" id="connector16pin"/>
       <circle stroke="white" fill="white" cx="4.32" cy="90.72" r="1.98" stroke-width="2.16" id="connector12pin"/>
       <circle stroke="white" fill="white" cx="25.92" cy="90.72" r="1.98" stroke-width="2.16" id="connector15pin"/>
       <circle stroke="white" fill="white" cx="4.32" cy="97.92" r="1.98" stroke-width="2.16" id="connector13pin"/>
       <circle stroke="white" fill="white" cx="25.92" cy="97.92" r="1.98" stroke-width="2.16" id="connector14pin"/>
      </g>
     </g>
    </g>
   </g>
  </g>
  <g partID="6129242">
   <g transform="translate(96.3619,209.651)">
    <g transform="matrix(0,-1,1,0,0,0)">
     <g id="copper1">
      <g id="copper0">
       <circle stroke="white" fill="white" cx="5.04" cy="5.04" r="2.088" stroke-width="2.16" id="connector0pin"/>
       <circle stroke="white" fill="white" cx="5.04" cy="12.24" r="2.088" stroke-width="2.16" id="connector1pin"/>
       <circle stroke="white" fill="white" cx="5.04" cy="19.44" r="2.088" stroke-width="2.16" id="connector2pin"/>
       <circle stroke="white" fill="white" cx="5.04" cy="26.64" r="2.088" stroke-width="2.16" id="connector3pin"/>
       <circle stroke="white" fill="white" cx="5.04" cy="33.84" r="2.088" stroke-width="2.16" id="connector4pin"/>
       <circle stroke="white" fill="white" cx="5.04" cy="41.04" r="2.088" stroke-width="2.16" id="connector5pin"/>
      </g>
     </g>
    </g>
   </g>
  </g>
  <g partID="6038802">
   <g transform="translate(84.5227,143.7)">
    <g transform="matrix(0,-1,1,0,0,0)">
     <g id="copper1">
      <g id="copper0">
       <circle stroke="white" fill="white" cx="5.04" cy="5.04" r="2.088" stroke-width="2.16" id="connector0pin"/>
       <circle stroke="white" fill="white" cx="5.04" cy="12.24" r="2.088" stroke-width="2.16" id="connector1pin"/>
       <circle stroke="white" fill="white" cx="5.04" cy="19.44" r="2.088" stroke-width="2.16" id="connector2pin"/>
       <circle stroke="white" fill="white" cx="5.04" cy="26.64" r="2.088" stroke-width="2.16" id="connector3pin"/>
       <circle stroke="white" fill="white" cx="5.04" cy="33.84" r="2.088" stroke-width="2.16" id="connector4pin"/>
       <circle stroke="white" fill="white" cx="5.04" cy="41.04" r="2.088" stroke-width="2.16" id="connector5pin"/>
      </g>
     </g>
    </g>
   </g>
  </g>
  <g partID="6038792">
   <g transform="translate(149.212,143.3)">
    <g transform="matrix(0,-1,1,0,0,0)">
     <g id="copper1">
      <g id="copper0">
       <circle stroke="white" fill="white" cx="5.04" cy="5.04" r="2.088" stroke-width="2.16" id="connector0pin"/>
       <circle stroke="white" fill="white" cx="5.04" cy="12.24" r="2.088" stroke-width="2.16" id="connector1pin"/>
       <circle stroke="white" fill="white" cx="5.04" cy="19.44" r="2.088" stroke-width="2.16" id="connector2pin"/>
       <circle stroke="white" fill="white" cx="5.04" cy="26.64" r="2.088" stroke-width="2.16" id="connector3pin"/>
       <circle stroke="white" fill="white" cx="5.04" cy="33.84" r="2.088" stroke-width="2.16" id="connector4pin"/>
      </g>
     </g>
    </g>
   </g>
  </g>
  <g partID="854652352">
   <g transform="translate(9.31387,196.294)">
    <g id="copper1">
     <g id="copper0">
      <circle stroke="white" fill="white" cx="5.04" cy="5.04" r="2.088" stroke-width="2.16" id="connector0pin"/>
      <circle stroke="white" fill="white" cx="5.04" cy="12.24" r="2.088" stroke-width="2.16" id="connector1pin"/>
      <circle stroke="white" fill="white" cx="5.04" cy="19.44" r="2.088" stroke-width="2.16" id="connector2pin"/>
      <circle stroke="white" fill="white" cx="5.04" cy="26.64" r="2.088" stroke-width="2.16" id="connector3pin"/>
     </g>
    </g>
   </g>
  </g>
  <g partID="854651482">
   <g transform="translate(197.047,196.294)">
    <g id="copper1">
     <g id="copper0">
      <circle stroke="white" fill="white" cx="5.04" cy="5.04" r="2.088" stroke-width="2.16" id="connector0pin"/>
      <circle stroke="white" fill="white" cx="5.04" cy="12.24" r="2.088" stroke-width="2.16" id="connector1pin"/>
      <circle stroke="white" fill="white" cx="5.04" cy="19.44" r="2.088" stroke-width="2.16" id="connector2pin"/>
      <circle stroke="white" fill="white" cx="5.04" cy="26.64" r="2.088" stroke-width="2.16" id="connector3pin"/>
     </g>
    </g>
   </g>
  </g>
  <g partID="6038782">
   <g transform="translate(156.481,194.918)">
    <g transform="matrix(0,-1,1,0,0,0)">
     <g id="copper1">
      <g id="copper0">
       <circle stroke="white" fill="white" cx="5.04" cy="5.04" r="2.088" stroke-width="2.16" id="connector0pin"/>
       <circle stroke="white" fill="white" cx="5.04" cy="12.24" r="2.088" stroke-width="2.16" id="connector1pin"/>
       <circle stroke="white" fill="white" cx="5.04" cy="19.44" r="2.088" stroke-width="2.16" id="connector2pin"/>
       <circle stroke="white" fill="white" cx="5.04" cy="26.64" r="2.088" stroke-width="2.16" id="connector3pin"/>
      </g>
     </g>
    </g>
   </g>
  </g>
  <g partID="6038772">
   <g transform="translate(84.5227,194.5)">
    <g transform="matrix(0,-1,1,0,0,0)">
     <g id="copper1">
      <g id="copper0">
       <circle stroke="white" fill="white" cx="5.04" cy="5.04" r="2.088" stroke-width="2.16" id="connector0pin"/>
       <circle stroke="white" fill="white" cx="5.04" cy="12.24" r="2.088" stroke-width="2.16" id="connector1pin"/>
       <circle stroke="white" fill="white" cx="5.04" cy="19.44" r="2.088" stroke-width="2.16" id="connector2pin"/>
       <circle stroke="white" fill="white" cx="5.04" cy="26.64" r="2.088" stroke-width="2.16" id="connector3pin"/>
       <circle stroke="white" fill="white" cx="5.04" cy="33.84" r="2.088" stroke-width="2.16" id="connector4pin"/>
       <circle stroke="white" fill="white" cx="5.04" cy="41.04" r="2.088" stroke-width="2.16" id="connector5pin"/>
      </g>
     </g>
    </g>
   </g>
  </g>
  <g partID="6384961">
   <g transform="translate(23.6027,188.25)">
    <g id="copper1">
     <circle stroke="white" fill="white" cx="4.31559" cy="4.31559" r="1.99559" stroke-width="2.16" id="connector0pin"/>
    </g>
   </g>
  </g>
  <g partID="6386391">
   <g transform="translate(69.2755,166.453)">
    <g id="copper1">
     <circle stroke="white" fill="white" cx="4.31559" cy="4.31559" r="1.99559" stroke-width="2.16" id="connector0pin"/>
    </g>
   </g>
  </g>
  <g partID="854645882">
   <g transform="translate(7.17049,52.3087)">
    <g id="copper1">
     <g id="copper0">
      <circle stroke="white" fill="white" cx="5.04" cy="5.04" r="2.088" stroke-width="2.16" id="connector0pin"/>
      <circle stroke="white" fill="white" cx="5.04" cy="12.24" r="2.088" stroke-width="2.16" id="connector1pin"/>
      <circle stroke="white" fill="white" cx="5.04" cy="19.44" r="2.088" stroke-width="2.16" id="connector2pin"/>
      <circle stroke="white" fill="white" cx="5.04" cy="26.64" r="2.088" stroke-width="2.16" id="connector3pin"/>
     </g>
    </g>
   </g>
  </g>
 </g>
</svg>
