<?xml version='1.0' encoding='UTF-8' standalone='no'?>
<!-- Created with Fritzing (http://www.fritzing.org/) -->
<svg xmlns="http://www.w3.org/2000/svg" baseProfile="tiny" xmlns:svg="http://www.w3.org/2000/svg" height="3.2785in" width="2.91254in" viewBox="0 0 209.703 236.052"  x="0in" y="0in" version="1.2">
 <g transform="matrix(-1, 0, 0, 1, 209.703, 0)">
  <g partID="854645840">
   <g  id="board">
    <rect stroke="black" fill="none" height="235.476" width="209.127" stroke-width="0.5" fill-opacity="0.5"  x="0.288" y="0.288" id="boardoutline"/>
   </g>
  </g>
  <g partID="854645902">
   <g transform="translate(210.122,4.04205)">
    <g transform="matrix(0,1,-1,0,0,0)">
     <g  id="copper1">
      <g  id="copper0">
       <rect stroke="black" fill="none" height="4.464" width="4.464" stroke-width="1.44"  x="6.408" y="12.168"/>
       <circle stroke="black" fill="none" cx="8.64" cy="14.4" r="2.232" stroke-width="1.44"  id="connector0pad"/>
       <circle stroke="black" fill="none" cx="15.84" cy="14.4" r="2.232" stroke-width="1.44"  id="connector1pad"/>
       <circle stroke="black" fill="none" cx="23.04" cy="14.4" r="2.232" stroke-width="1.44"  id="connector2pad"/>
      </g>
     </g>
    </g>
   </g>
  </g>
  <g partID="854645912">
   <g transform="translate(210.388,66.7087)">
    <g transform="matrix(0,1,-1,0,0,0)">
     <g  id="copper1">
      <g  id="copper0">
       <rect stroke="black" fill="none" height="4.464" width="4.464" stroke-width="1.44"  x="6.408" y="12.168"/>
       <circle stroke="black" fill="none" cx="8.64" cy="14.4" r="2.232" stroke-width="1.44"  id="connector0pad"/>
       <circle stroke="black" fill="none" cx="15.84" cy="14.4" r="2.232" stroke-width="1.44"  id="connector1pad"/>
       <circle stroke="black" fill="none" cx="23.04" cy="14.4" r="2.232" stroke-width="1.44"  id="connector2pad"/>
      </g>
     </g>
    </g>
   </g>
  </g>
  <g partID="854645922">
   <g transform="translate(210.122,35.3753)">
    <g transform="matrix(0,1,-1,0,0,0)">
     <g  id="copper1">
      <g  id="copper0">
       <rect stroke="black" fill="none" height="4.464" width="4.464" stroke-width="1.44"  x="6.408" y="12.168"/>
       <circle stroke="black" fill="none" cx="8.64" cy="14.4" r="2.232" stroke-width="1.44"  id="connector0pad"/>
       <circle stroke="black" fill="none" cx="15.84" cy="14.4" r="2.232" stroke-width="1.44"  id="connector1pad"/>
       <circle stroke="black" fill="none" cx="23.04" cy="14.4" r="2.232" stroke-width="1.44"  id="connector2pad"/>
      </g>
     </g>
    </g>
   </g>
  </g>
  <g partID="854645931">
   <g transform="translate(8.00196,42.8198)">
    <g  id="copper1">
     <circle stroke="black" fill="none" cx="4.31559" cy="4.31559" r="1.99559" stroke-width="1.44"  id="connector0pin"/>
    </g>
   </g>
  </g>
  <g partID="854645951">
   <g transform="translate(141.939,111.834)">
    <g  id="copper1">
     <circle stroke="black" fill="none" cx="4.31559" cy="4.31559" r="1.99559" stroke-width="1.44"  id="connector0pin"/>
    </g>
   </g>
  </g>
  <g partID="854645971">
   <g transform="translate(132.472,104.5)">
    <g  id="copper1">
     <circle stroke="black" fill="none" cx="4.31559" cy="4.31559" r="1.99559" stroke-width="1.44"  id="connector0pin"/>
    </g>
   </g>
  </g>
  <g partID="854645981">
   <g transform="translate(180.473,78.3665)">
    <g  id="copper1">
     <circle stroke="black" fill="none" cx="4.31559" cy="4.31559" r="1.99559" stroke-width="1.44"  id="connector0pin"/>
    </g>
   </g>
  </g>
  <g partID="854645991">
   <g transform="translate(180.206,46.7665)">
    <g  id="copper1">
     <circle stroke="black" fill="none" cx="4.31559" cy="4.31559" r="1.99559" stroke-width="1.44"  id="connector0pin"/>
    </g>
   </g>
  </g>
  <g partID="854646001">
   <g transform="translate(179.806,15.6997)">
    <g  id="copper1">
     <circle stroke="black" fill="none" cx="4.31559" cy="4.31559" r="1.99559" stroke-width="1.44"  id="connector0pin"/>
    </g>
   </g>
  </g>
  <g partID="854648571">
   <g transform="translate(32.1539,52.8662)">
    <g  id="copper1">
     <circle stroke="black" fill="none" cx="4.31559" cy="4.31559" r="1.99559" stroke-width="1.44"  id="connector0pin"/>
    </g>
   </g>
  </g>
  <g partID="854648671">
   <g transform="translate(24.7747,96.2681)">
    <g  id="copper1">
     <circle stroke="black" fill="none" cx="4.31559" cy="4.31559" r="1.99559" stroke-width="1.44"  id="connector0pin"/>
    </g>
   </g>
  </g>
  <g partID="854649391">
   <g transform="translate(163.674,22.7862)">
    <g  id="copper1">
     <circle stroke="black" fill="none" cx="4.31559" cy="4.31559" r="1.99559" stroke-width="1.44"  id="connector0pin"/>
    </g>
   </g>
  </g>
  <g partID="854649451">
   <g transform="translate(171.674,53.7195)">
    <g  id="copper1">
     <circle stroke="black" fill="none" cx="4.31559" cy="4.31559" r="1.99559" stroke-width="1.44"  id="connector0pin"/>
    </g>
   </g>
  </g>
  <g partID="854649511">
   <g transform="translate(179.14,91.3193)">
    <g  id="copper1">
     <circle stroke="black" fill="none" cx="4.31559" cy="4.31559" r="1.99559" stroke-width="1.44"  id="connector0pin"/>
    </g>
   </g>
  </g>
  <g partID="854651281">
   <g transform="translate(75.4067,124.386)">
    <g  id="copper1">
     <circle stroke="black" fill="none" cx="4.31559" cy="4.31559" r="1.99559" stroke-width="1.44"  id="connector0pin"/>
    </g>
   </g>
  </g>
  <g partID="854651941">
   <g transform="translate(118.607,209.719)">
    <g  id="copper1">
     <circle stroke="black" fill="none" cx="4.31559" cy="4.31559" r="1.99559" stroke-width="1.44"  id="connector0pin"/>
    </g>
   </g>
  </g>
  <g partID="854652041">
   <g transform="translate(198.074,227.053)">
    <g  id="copper1">
     <circle stroke="black" fill="none" cx="4.31559" cy="4.31559" r="1.99559" stroke-width="1.44"  id="connector0pin"/>
    </g>
   </g>
  </g>
  <g partID="854644581">
   <g transform="translate(129.78,162.93)">
    <g  id="copper1">
     <circle stroke="black" fill="none" cx="3.01733" cy="3.01733" r="0.992124" stroke-width="0.850392"  id="connector0pin"/>
    </g>
   </g>
  </g>
  <g partID="18508322">
   <g transform="translate(54.8475,226.36)">
    <g transform="matrix(-1,0,0,-1,0,0)">
     <g  id="copper1">
      <g  id="copper0">
       <rect stroke="black" fill="none" height="3.96" width="3.96" stroke-width="1.44"  x="5.58" y="12.78" id="rect11"/>
       <circle stroke="black" fill="none" cx="7.56" cy="14.76" r="1.98" stroke-width="1.44"  id="connector0pin"/>
       <circle stroke="black" fill="none" cx="21.96" cy="14.76" r="1.98" stroke-width="1.44"  id="connector1pin"/>
      </g>
     </g>
    </g>
   </g>
  </g>
  <g partID="18509802">
   <g transform="translate(57.7275,196.84)">
    <g  id="copper1">
     <g  id="copper0">
      <rect stroke="black" fill="none" height="3.96" width="3.96" stroke-width="1.44"  x="5.58" y="12.78" id="rect11"/>
      <circle stroke="black" fill="none" cx="7.56" cy="14.76" r="1.98" stroke-width="1.44"  id="connector0pin"/>
      <circle stroke="black" fill="none" cx="21.96" cy="14.76" r="1.98" stroke-width="1.44"  id="connector1pin"/>
     </g>
    </g>
   </g>
  </g>
  <g partID="18510012">
   <g transform="translate(115.922,228.677)">
    <g transform="matrix(-1,0,0,-1,0,0)">
     <g  id="copper1">
      <g  id="copper0">
       <circle stroke="black" fill="none" cx="20.8462" cy="15.6024" r="1.98" stroke-width="1.44"  id="connector0pad"/>
       <circle stroke="black" fill="none" cx="2.42064" cy="15.6024" r="1.98" stroke-width="1.44"  id="connector1pad"/>
       <circle stroke="black" fill="none" cx="20.8462" cy="2.84616" r="1.98" stroke-width="1.44"  id="connector2pad"/>
       <circle stroke="black" fill="none" cx="2.42064" cy="2.84616" r="1.98" stroke-width="1.44"  id="connector3pad"/>
      </g>
     </g>
    </g>
   </g>
  </g>
  <g partID="854645182">
   <g transform="translate(68.3771,155.471)">
    <g transform="matrix(0,1,-1,0,0,0)">
     <g  id="copper1">
      <g  id="copper0">
       <rect stroke="black" fill="none" height="4.464" width="4.464" stroke-width="1.44"  x="0.72" y="1.368"/>
       <circle stroke="black" fill="none" cx="3.024" cy="3.6" r="2.232" stroke-width="1.44"  id="connector0pin"/>
       <circle stroke="black" fill="none" cx="24.48" cy="3.6" r="2.232" stroke-width="1.44"  id="connector1pin"/>
      </g>
     </g>
    </g>
   </g>
  </g>
  <g partID="854645162">
   <g transform="translate(68.3771,155.471)">
    <g transform="matrix(0,1,-1,0,0,0)">
     <g  id="copper1">
      <g  id="copper0">
       <rect stroke="black" fill="none" height="4.464" width="4.464" stroke-width="1.44"  x="0.72" y="1.368"/>
       <circle stroke="black" fill="none" cx="3.024" cy="3.6" r="2.232" stroke-width="1.44"  id="connector0pin"/>
       <circle stroke="black" fill="none" cx="24.48" cy="3.6" r="2.232" stroke-width="1.44"  id="connector1pin"/>
      </g>
     </g>
    </g>
   </g>
  </g>
  <g partID="18510082">
   <g transform="translate(32.8875,195.04)">
    <g transform="matrix(0,-1,1,0,0,0)">
     <g  id="copper1">
      <g  id="copper0">
       <rect stroke="black" fill="none" height="4.464" width="4.464" stroke-width="1.44"  x="6.408" y="12.168"/>
       <circle stroke="black" fill="none" cx="8.64" cy="14.4" r="2.232" stroke-width="1.44"  id="connector0pad"/>
       <circle stroke="black" fill="none" cx="15.84" cy="14.4" r="2.232" stroke-width="1.44"  id="connector1pad"/>
       <circle stroke="black" fill="none" cx="23.04" cy="14.4" r="2.232" stroke-width="1.44"  id="connector2pad"/>
      </g>
     </g>
    </g>
   </g>
  </g>
  <g partID="854645282">
   <g transform="translate(76.5339,143.512)">
    <g transform="matrix(0,1,-1,0,0,0)">
     <g  id="copper1">
      <!-- <rect width="55" x="10" y="15.5" fill="none" height="55" stroke="rgb(255, 191, 0)" stroke-width="20" />  -->
      <circle stroke="black" fill="none" cx="2.7" cy="3.096" r="1.98" stroke-width="1.44"  id="connector0pin"/>
      <circle stroke="black" fill="none" cx="31.5" cy="3.096" r="1.98" stroke-width="1.44"  id="connector1pin"/>
     </g>
    </g>
   </g>
  </g>
  <g partID="18510242">
   <g transform="translate(149.547,197.07)">
    <g  id="copper1">
     <circle stroke="black" fill="none" cx="22.5479" cy="7.08448" r="1.84465" stroke-width="1.41732"  id="connector1pin"/>
     <circle stroke="black" fill="none" cx="8.64567" cy="7.08661" r="1.84252" stroke-width="1.41732"  id="connector0pin"/>
    </g>
   </g>
  </g>
  <g partID="18510282">
   <g transform="translate(189.492,201.414)">
    <g transform="matrix(0,1,-1,0,0,0)">
     <g  id="copper1">
      <circle stroke="black" fill="none" cx="2.88" cy="2.88" r="1.8" stroke-width="1.44"  id="connector0pin"/>
      <circle stroke="black" fill="none" cx="17.28" cy="2.88" r="1.8" stroke-width="1.44"  id="connector1pin"/>
     </g>
    </g>
   </g>
  </g>
  <g partID="18510302">
   <g transform="translate(84.8355,192.19)">
    <g transform="matrix(-1,0,0,-1,0,0)">
     <g  id="copper1">
      <circle stroke="black" fill="none" cx="2.88" cy="2.88" r="1.8" stroke-width="1.44"  id="connector0pin"/>
      <circle stroke="black" fill="none" cx="10.0933" cy="2.88" r="1.8" stroke-width="1.44"  id="connector1pin"/>
     </g>
    </g>
   </g>
  </g>
  <g partID="854640112">
   <g transform="translate(144.085,228.691)">
    <g transform="matrix(0,-1,1,0,0,0)">
     <g  id="copper1">
      <circle stroke="black" fill="none" cx="2.88" cy="2.88" r="1.8" stroke-width="1.44"  id="connector0pin"/>
      <circle stroke="black" fill="none" cx="17.28" cy="2.88" r="1.8" stroke-width="1.44"  id="connector1pin"/>
     </g>
    </g>
   </g>
  </g>
  <g partID="854633782">
   <g transform="translate(22.2075,130.36)">
    <g id="copper1">
     <g id="copper0">
      <rect stroke="black" fill="none" height="4.32" width="4.32" stroke-width="1.44" x="12.24" y="6.84" id="square"/>
      <circle stroke="black" fill="none" cx="14.4" cy="9" r="2.16" stroke-width="1.44" id="connector0pin"/>
      <circle stroke="black" fill="none" cx="14.4" cy="23.4" r="2.16" stroke-width="1.44" id="connector1pin"/>
     </g>
    </g>
   </g>
  </g>
  <g partID="854636511">
   <g transform="translate(44.0739,149.386)">
    <g  id="copper1">
     <circle stroke="black" fill="none" cx="4.31559" cy="4.31559" r="1.99559" stroke-width="1.44"  id="connector0pin"/>
    </g>
   </g>
  </g>
  <g partID="854636791">
   <g transform="translate(135.474,179.186)">
    <g  id="copper1">
     <circle stroke="black" fill="none" cx="4.31559" cy="4.31559" r="1.99559" stroke-width="1.44"  id="connector0pin"/>
    </g>
   </g>
  </g>
  <g partID="854637121">
   <g transform="translate(92.5491,191.77)">
    <g  id="copper1">
     <circle stroke="black" fill="none" cx="4.31559" cy="4.31559" r="1.99559" stroke-width="1.44"  id="connector0pin"/>
    </g>
   </g>
  </g>
  <g partID="854637181">
   <g transform="translate(128.674,140.826)">
    <g  id="copper1">
     <circle stroke="black" fill="none" cx="4.31559" cy="4.31559" r="1.99559" stroke-width="1.44"  id="connector0pin"/>
    </g>
   </g>
  </g>
  <g partID="854638081">
   <g transform="translate(98.8739,156.653)">
    <g  id="copper1">
     <circle stroke="black" fill="none" cx="4.31559" cy="4.31559" r="1.99559" stroke-width="1.44"  id="connector0pin"/>
    </g>
   </g>
  </g>
  <g partID="854645892">
   <g transform="translate(7.17049,81.1089)">
    <g  id="copper1">
     <g  id="copper0">
      <circle stroke="black" fill="none" cx="5.04" cy="5.04" r="2.088" stroke-width="1.44"  id="connector0pin"/>
      <circle stroke="black" fill="none" cx="5.04" cy="12.24" r="2.088" stroke-width="1.44"  id="connector1pin"/>
      <circle stroke="black" fill="none" cx="5.04" cy="19.44" r="2.088" stroke-width="1.44"  id="connector2pin"/>
      <circle stroke="black" fill="none" cx="5.04" cy="26.64" r="2.088" stroke-width="1.44"  id="connector3pin"/>
     </g>
    </g>
   </g>
  </g>
  <g partID="854645872">
   <g transform="translate(43.3483,52.3087)">
    <g  id="copper1">
     <g  id="copper0">
      <circle stroke="black" fill="none" cx="5.04" cy="5.04" r="2.088" stroke-width="1.44"  id="connector0pin"/>
      <circle stroke="black" fill="none" cx="5.04" cy="12.24" r="2.088" stroke-width="1.44"  id="connector1pin"/>
      <circle stroke="black" fill="none" cx="5.04" cy="19.44" r="2.088" stroke-width="1.44"  id="connector2pin"/>
      <circle stroke="black" fill="none" cx="5.04" cy="26.64" r="2.088" stroke-width="1.44"  id="connector3pin"/>
     </g>
    </g>
   </g>
  </g>
  <g partID="854645862">
   <g transform="translate(57.7483,66.7087)">
    <g  id="copper1">
     <g  id="copper0">
      <circle stroke="black" fill="none" cx="5.04" cy="5.04" r="2.088" stroke-width="1.44"  id="connector0pin"/>
      <circle stroke="black" fill="none" cx="5.04" cy="12.24" r="2.088" stroke-width="1.44"  id="connector1pin"/>
      <circle stroke="black" fill="none" cx="5.04" cy="19.44" r="2.088" stroke-width="1.44"  id="connector2pin"/>
      <circle stroke="black" fill="none" cx="5.04" cy="26.64" r="2.088" stroke-width="1.44"  id="connector3pin"/>
     </g>
    </g>
   </g>
  </g>
  <g partID="854645852">
   <g transform="translate(43.3483,81.1089)">
    <g  id="copper1">
     <g  id="copper0">
      <circle stroke="black" fill="none" cx="5.04" cy="5.04" r="2.088" stroke-width="1.44"  id="connector0pin"/>
      <circle stroke="black" fill="none" cx="5.04" cy="12.24" r="2.088" stroke-width="1.44"  id="connector1pin"/>
      <circle stroke="black" fill="none" cx="5.04" cy="19.44" r="2.088" stroke-width="1.44"  id="connector2pin"/>
      <circle stroke="black" fill="none" cx="5.04" cy="26.64" r="2.088" stroke-width="1.44"  id="connector3pin"/>
     </g>
    </g>
   </g>
  </g>
  <g partID="17327422">
   <g transform="translate(85.2427,178.801)">
    <g transform="matrix(0,-1,1,0,0,0)">
     <g stroke-width="0"  id="copper1">
      <g stroke-width="0"  id="copper0">
       <rect stroke="black" fill="none" height="3.96" width="3.96" stroke-width="1.44"  x="2.34" y="2.34"/>
       <circle stroke="black" fill="none" cx="4.32" cy="4.32" r="1.98" stroke-width="1.44"  id="connector0pin"/>
       <circle stroke="black" fill="none" cx="25.92" cy="4.32" r="1.98" stroke-width="1.44"  id="connector27pin"/>
       <circle stroke="black" fill="none" cx="4.32" cy="11.52" r="1.98" stroke-width="1.44"  id="connector1pin"/>
       <circle stroke="black" fill="none" cx="25.92" cy="11.52" r="1.98" stroke-width="1.44"  id="connector26pin"/>
       <circle stroke="black" fill="none" cx="4.32" cy="18.72" r="1.98" stroke-width="1.44"  id="connector2pin"/>
       <circle stroke="black" fill="none" cx="25.92" cy="18.72" r="1.98" stroke-width="1.44"  id="connector25pin"/>
       <circle stroke="black" fill="none" cx="4.32" cy="25.92" r="1.98" stroke-width="1.44"  id="connector3pin"/>
       <circle stroke="black" fill="none" cx="25.92" cy="25.92" r="1.98" stroke-width="1.44"  id="connector24pin"/>
       <circle stroke="black" fill="none" cx="4.32" cy="33.12" r="1.98" stroke-width="1.44"  id="connector4pin"/>
       <circle stroke="black" fill="none" cx="25.92" cy="33.12" r="1.98" stroke-width="1.44"  id="connector23pin"/>
       <circle stroke="black" fill="none" cx="4.32" cy="40.32" r="1.98" stroke-width="1.44"  id="connector5pin"/>
       <circle stroke="black" fill="none" cx="25.92" cy="40.32" r="1.98" stroke-width="1.44"  id="connector22pin"/>
       <circle stroke="black" fill="none" cx="4.32" cy="47.52" r="1.98" stroke-width="1.44"  id="connector6pin"/>
       <circle stroke="black" fill="none" cx="25.92" cy="47.52" r="1.98" stroke-width="1.44"  id="connector21pin"/>
       <circle stroke="black" fill="none" cx="4.32" cy="54.72" r="1.98" stroke-width="1.44"  id="connector7pin"/>
       <circle stroke="black" fill="none" cx="25.92" cy="54.72" r="1.98" stroke-width="1.44"  id="connector20pin"/>
       <circle stroke="black" fill="none" cx="4.32" cy="61.92" r="1.98" stroke-width="1.44"  id="connector8pin"/>
       <circle stroke="black" fill="none" cx="25.92" cy="61.92" r="1.98" stroke-width="1.44"  id="connector19pin"/>
       <circle stroke="black" fill="none" cx="4.32" cy="69.12" r="1.98" stroke-width="1.44"  id="connector9pin"/>
       <circle stroke="black" fill="none" cx="25.92" cy="69.12" r="1.98" stroke-width="1.44"  id="connector18pin"/>
       <circle stroke="black" fill="none" cx="4.32" cy="76.32" r="1.98" stroke-width="1.44"  id="connector10pin"/>
       <circle stroke="black" fill="none" cx="25.92" cy="76.32" r="1.98" stroke-width="1.44"  id="connector17pin"/>
       <circle stroke="black" fill="none" cx="4.32" cy="83.52" r="1.98" stroke-width="1.44"  id="connector11pin"/>
       <circle stroke="black" fill="none" cx="25.92" cy="83.52" r="1.98" stroke-width="1.44"  id="connector16pin"/>
       <circle stroke="black" fill="none" cx="4.32" cy="90.72" r="1.98" stroke-width="1.44"  id="connector12pin"/>
       <circle stroke="black" fill="none" cx="25.92" cy="90.72" r="1.98" stroke-width="1.44"  id="connector15pin"/>
       <circle stroke="black" fill="none" cx="4.32" cy="97.92" r="1.98" stroke-width="1.44"  id="connector13pin"/>
       <circle stroke="black" fill="none" cx="25.92" cy="97.92" r="1.98" stroke-width="1.44"  id="connector14pin"/>
      </g>
     </g>
    </g>
   </g>
  </g>
  <g partID="6129242">
   <g transform="translate(96.3619,209.651)">
    <g transform="matrix(0,-1,1,0,0,0)">
     <g  id="copper1">
      <g  id="copper0">
       <circle stroke="black" fill="none" cx="5.04" cy="5.04" r="2.088" stroke-width="1.44"  id="connector0pin"/>
       <circle stroke="black" fill="none" cx="5.04" cy="12.24" r="2.088" stroke-width="1.44"  id="connector1pin"/>
       <circle stroke="black" fill="none" cx="5.04" cy="19.44" r="2.088" stroke-width="1.44"  id="connector2pin"/>
       <circle stroke="black" fill="none" cx="5.04" cy="26.64" r="2.088" stroke-width="1.44"  id="connector3pin"/>
       <circle stroke="black" fill="none" cx="5.04" cy="33.84" r="2.088" stroke-width="1.44"  id="connector4pin"/>
       <circle stroke="black" fill="none" cx="5.04" cy="41.04" r="2.088" stroke-width="1.44"  id="connector5pin"/>
      </g>
     </g>
    </g>
   </g>
  </g>
  <g partID="6038802">
   <g transform="translate(84.5227,143.7)">
    <g transform="matrix(0,-1,1,0,0,0)">
     <g  id="copper1">
      <g  id="copper0">
       <circle stroke="black" fill="none" cx="5.04" cy="5.04" r="2.088" stroke-width="1.44"  id="connector0pin"/>
       <circle stroke="black" fill="none" cx="5.04" cy="12.24" r="2.088" stroke-width="1.44"  id="connector1pin"/>
       <circle stroke="black" fill="none" cx="5.04" cy="19.44" r="2.088" stroke-width="1.44"  id="connector2pin"/>
       <circle stroke="black" fill="none" cx="5.04" cy="26.64" r="2.088" stroke-width="1.44"  id="connector3pin"/>
       <circle stroke="black" fill="none" cx="5.04" cy="33.84" r="2.088" stroke-width="1.44"  id="connector4pin"/>
       <circle stroke="black" fill="none" cx="5.04" cy="41.04" r="2.088" stroke-width="1.44"  id="connector5pin"/>
      </g>
     </g>
    </g>
   </g>
  </g>
  <g partID="6038792">
   <g transform="translate(149.212,143.3)">
    <g transform="matrix(0,-1,1,0,0,0)">
     <g  id="copper1">
      <g  id="copper0">
       <circle stroke="black" fill="none" cx="5.04" cy="5.04" r="2.088" stroke-width="1.44"  id="connector0pin"/>
       <circle stroke="black" fill="none" cx="5.04" cy="12.24" r="2.088" stroke-width="1.44"  id="connector1pin"/>
       <circle stroke="black" fill="none" cx="5.04" cy="19.44" r="2.088" stroke-width="1.44"  id="connector2pin"/>
       <circle stroke="black" fill="none" cx="5.04" cy="26.64" r="2.088" stroke-width="1.44"  id="connector3pin"/>
       <circle stroke="black" fill="none" cx="5.04" cy="33.84" r="2.088" stroke-width="1.44"  id="connector4pin"/>
      </g>
     </g>
    </g>
   </g>
  </g>
  <g partID="854652352">
   <g transform="translate(9.31387,196.294)">
    <g  id="copper1">
     <g  id="copper0">
      <circle stroke="black" fill="none" cx="5.04" cy="5.04" r="2.088" stroke-width="1.44"  id="connector0pin"/>
      <circle stroke="black" fill="none" cx="5.04" cy="12.24" r="2.088" stroke-width="1.44"  id="connector1pin"/>
      <circle stroke="black" fill="none" cx="5.04" cy="19.44" r="2.088" stroke-width="1.44"  id="connector2pin"/>
      <circle stroke="black" fill="none" cx="5.04" cy="26.64" r="2.088" stroke-width="1.44"  id="connector3pin"/>
     </g>
    </g>
   </g>
  </g>
  <g partID="854651482">
   <g transform="translate(197.047,196.294)">
    <g  id="copper1">
     <g  id="copper0">
      <circle stroke="black" fill="none" cx="5.04" cy="5.04" r="2.088" stroke-width="1.44"  id="connector0pin"/>
      <circle stroke="black" fill="none" cx="5.04" cy="12.24" r="2.088" stroke-width="1.44"  id="connector1pin"/>
      <circle stroke="black" fill="none" cx="5.04" cy="19.44" r="2.088" stroke-width="1.44"  id="connector2pin"/>
      <circle stroke="black" fill="none" cx="5.04" cy="26.64" r="2.088" stroke-width="1.44"  id="connector3pin"/>
     </g>
    </g>
   </g>
  </g>
  <g partID="6038782">
   <g transform="translate(156.481,194.918)">
    <g transform="matrix(0,-1,1,0,0,0)">
     <g  id="copper1">
      <g  id="copper0">
       <circle stroke="black" fill="none" cx="5.04" cy="5.04" r="2.088" stroke-width="1.44"  id="connector0pin"/>
       <circle stroke="black" fill="none" cx="5.04" cy="12.24" r="2.088" stroke-width="1.44"  id="connector1pin"/>
       <circle stroke="black" fill="none" cx="5.04" cy="19.44" r="2.088" stroke-width="1.44"  id="connector2pin"/>
       <circle stroke="black" fill="none" cx="5.04" cy="26.64" r="2.088" stroke-width="1.44"  id="connector3pin"/>
      </g>
     </g>
    </g>
   </g>
  </g>
  <g partID="6038772">
   <g transform="translate(84.5227,194.5)">
    <g transform="matrix(0,-1,1,0,0,0)">
     <g  id="copper1">
      <g  id="copper0">
       <circle stroke="black" fill="none" cx="5.04" cy="5.04" r="2.088" stroke-width="1.44"  id="connector0pin"/>
       <circle stroke="black" fill="none" cx="5.04" cy="12.24" r="2.088" stroke-width="1.44"  id="connector1pin"/>
       <circle stroke="black" fill="none" cx="5.04" cy="19.44" r="2.088" stroke-width="1.44"  id="connector2pin"/>
       <circle stroke="black" fill="none" cx="5.04" cy="26.64" r="2.088" stroke-width="1.44"  id="connector3pin"/>
       <circle stroke="black" fill="none" cx="5.04" cy="33.84" r="2.088" stroke-width="1.44"  id="connector4pin"/>
       <circle stroke="black" fill="none" cx="5.04" cy="41.04" r="2.088" stroke-width="1.44"  id="connector5pin"/>
      </g>
     </g>
    </g>
   </g>
  </g>
  <g partID="6384961">
   <g transform="translate(23.6027,188.25)">
    <g  id="copper1">
     <circle stroke="black" fill="none" cx="4.31559" cy="4.31559" r="1.99559" stroke-width="1.44"  id="connector0pin"/>
    </g>
   </g>
  </g>
  <g partID="6386391">
   <g transform="translate(69.2755,166.453)">
    <g  id="copper1">
     <circle stroke="black" fill="none" cx="4.31559" cy="4.31559" r="1.99559" stroke-width="1.44"  id="connector0pin"/>
    </g>
   </g>
  </g>
  <g partID="854645882">
   <g transform="translate(7.17049,52.3087)">
    <g  id="copper1">
     <g  id="copper0">
      <circle stroke="black" fill="none" cx="5.04" cy="5.04" r="2.088" stroke-width="1.44"  id="connector0pin"/>
      <circle stroke="black" fill="none" cx="5.04" cy="12.24" r="2.088" stroke-width="1.44"  id="connector1pin"/>
      <circle stroke="black" fill="none" cx="5.04" cy="19.44" r="2.088" stroke-width="1.44"  id="connector2pin"/>
      <circle stroke="black" fill="none" cx="5.04" cy="26.64" r="2.088" stroke-width="1.44"  id="connector3pin"/>
     </g>
    </g>
   </g>
  </g>
  <g partID="854646090">
   <line stroke="black" y1="113.349" y2="109.467" x1="59.7219" x2="66.6209" stroke-width="1.728" stroke-linecap="round"/>
  </g>
  <g partID="854646080">
   <line stroke="black" y1="102.659" y2="113.467" x1="29.1217" x2="29.2875" stroke-width="1.728" stroke-linecap="round"/>
  </g>
  <g partID="854646070">
   <line stroke="black" y1="113.466" y2="113.349" x1="29.2875" x2="59.7217" stroke-width="1.728" stroke-linecap="round"/>
  </g>
  <g partID="854646060">
   <line stroke="black" y1="109.466" y2="108.834" x1="66.6211" x2="134.713" stroke-width="1.728" stroke-linecap="round"/>
  </g>
  <g partID="854646120">
   <line stroke="black" y1="109.578" y2="119.349" x1="13.374" x2="19.5883" stroke-width="1.728" stroke-linecap="round"/>
  </g>
  <g partID="854646110">
   <line stroke="black" y1="119.349" y2="118.815" x1="19.5883" x2="140.255" stroke-width="1.728" stroke-linecap="round"/>
  </g>
  <g partID="854646100">
   <line stroke="black" y1="118.815" y2="116.992" x1="140.255" x2="144.358" stroke-width="1.728" stroke-linecap="round"/>
  </g>
  <g partID="854648350">
   <line stroke="black" y1="57.3183" y2="57.2109" x1="46.2205" x2="38.5448" stroke-width="1.728" stroke-linecap="round"/>
  </g>
  <g partID="854649250">
   <line stroke="black" y1="136.092" y2="29.1772" x1="168.639" x2="168.002" stroke-width="1.728" stroke-linecap="round"/>
  </g>
  <g partID="854649180">
   <line stroke="black" y1="60.1107" y2="136.092" x1="175.986" x2="175.856" stroke-width="1.728" stroke-linecap="round"/>
  </g>
  <g partID="854648970">
   <line stroke="black" y1="97.7108" y2="136.092" x1="183.437" x2="183.073" stroke-width="1.728" stroke-linecap="round"/>
  </g>
  <g partID="854651720">
   <line stroke="black" y1="231.374" y2="231.6" x1="200.314" x2="122.887" stroke-width="1.728" stroke-linecap="round"/>
  </g>
  <g partID="854651610">
   <line stroke="black" y1="231.6" y2="216.111" x1="122.887" x2="122.918" stroke-width="1.728" stroke-linecap="round"/>
  </g>
  <g partID="854651410">
   <line stroke="black" y1="46.5334" y2="136.092" x1="154.354" x2="154.254" stroke-width="1.728" stroke-linecap="round"/>
  </g>
  <g partID="854651340">
   <line stroke="black" y1="47.1266" y2="46.5334" x1="14.3931" x2="154.354" stroke-width="1.728" stroke-linecap="round"/>
  </g>
  <g partID="854651210">
   <line stroke="black" y1="166" y2="190.491" x1="27.1539" x2="27.8583" stroke-width="1.728" stroke-linecap="round"/>
  </g>
  <g partID="854651140">
   <line stroke="black" y1="166.266" y2="166" x1="19.1539" x2="27.1539" stroke-width="1.728" stroke-linecap="round"/>
  </g>
  <g partID="854651070">
   <line stroke="black" y1="128.934" y2="166.267" x1="18.8875" x2="19.1541" stroke-width="1.728" stroke-linecap="round"/>
  </g>
  <g partID="854651000">
   <line stroke="black" y1="128.71" y2="128.933" x1="77.6471" x2="18.8876" stroke-width="1.728" stroke-linecap="round"/>
  </g>
  <g partID="6386420">
   <line stroke="black" y1="166.179" y2="165.953" x1="73.4907" x2="131.43" stroke-width="1.728" stroke-linecap="round"/>
  </g>
  <g partID="6386500">
   <line stroke="black" y1="166.179" y2="168.694" x1="73.4907" x2="73.5457" stroke-width="1.728" stroke-linecap="round"/>
  </g>
  <g partID="6385370">
   <line stroke="black" y1="166.266" y2="166.161" x1="27.9539" x2="55.5872" stroke-width="2.304" stroke-linecap="round"/>
  </g>
  <g partID="6385320">
   <line stroke="black" y1="166.161" y2="166.179" x1="55.5875" x2="73.4907" stroke-width="1.728" stroke-linecap="round"/>
  </g>
  <g partID="6385170">
   <line stroke="black" y1="190.09" y2="166.266" x1="27.9212" x2="27.9535" stroke-width="2.304" stroke-linecap="round"/>
  </g>
  <g partID="854636700">
   <line stroke="black" y1="145" y2="145.135" x1="189.287" x2="135.865" stroke-width="3.456" stroke-linecap="round"/>
  </g>
  <g partID="854636610">
   <line stroke="black" y1="183.2" y2="145" x1="189.287" x2="189.287" stroke-width="3.456" stroke-linecap="round"/>
  </g>
  <g partID="17327560">
   <line stroke="black" y1="183.484" y2="183.2" x1="142.665" x2="189.287" stroke-width="3.456" stroke-linecap="round"/>
  </g>
  <g partID="854637700">
   <line stroke="black" y1="153.68" y2="161.04" x1="80.6475" x2="80.6475" stroke-width="1.728" stroke-linecap="round"/>
  </g>
  <g partID="854636350">
   <line stroke="black" y1="153.7" y2="153.68" x1="50.4647" x2="80.6473" stroke-width="1.728" stroke-linecap="round"/>
  </g>
  <g partID="854636170">
   <line stroke="black" y1="161.04" y2="160.975" x1="80.6475" x2="101.114" stroke-width="1.728" stroke-linecap="round"/>
  </g>
  <g partID="6155470">
   <line stroke="black" y1="195.984" y2="202.445" x1="116.122" x2="115.882" stroke-width="1.728" stroke-linecap="round"/>
  </g>
  <g partID="6155430">
   <line stroke="black" y1="196.075" y2="195.984" x1="98.9398" x2="116.122" stroke-width="1.728" stroke-linecap="round"/>
  </g>
  <g partID="6386570">
   <line stroke="black" y1="172.842" y2="172.953" x1="73.5158" x2="73.5118" stroke-width="1.728" stroke-linecap="round"/>
  </g>
 </g>
</svg>
