<?xml version="1.0" encoding="utf-8"?>
<!-- Generator: Adobe Illustrator 19.2.1, SVG Export Plug-In . SVG Version: 6.00 Build 0)  -->
<svg version="1.1" id="Layer_1" xmlns:svg="http://www.w3.org/2000/svg"
	 xmlns="http://www.w3.org/2000/svg" xmlns:xlink="http://www.w3.org/1999/xlink" x="0px" y="0px" width="209.7px" height="236.1px"
	 viewBox="0 0 209.7 236.1" style="enable-background:new 0 0 209.7 236.1;" xml:space="preserve">
<style type="text/css">
	.st0{fill:none;stroke:#000000;stroke-width:0.5;}
	.st1{fill:none;stroke:#000000;stroke-width:1.44;}
	.st2{fill:none;stroke:#000000;stroke-width:0.8504;}
	.st3{fill:none;stroke:#000000;stroke-width:1.4173;}
	.st4{fill:none;stroke:#000000;stroke-width:1.728;stroke-linecap:round;}
	.st5{fill:none;stroke:#000000;stroke-width:2.304;stroke-linecap:round;}
</style>
<g>
	<g id="board">
		<rect id="boardoutline" x="0.3" y="0.3" class="st0" width="209.1" height="235.5"/>
	</g>
</g>
<g>
	<g transform="translate(210.122,4.04205)">
		<g transform="matrix(0,1,-1,0,0,0)">
			<g id="copper0">
				
					<rect x="217.1" y="193.9" transform="matrix(2.535182e-06 1 -1 2.535182e-06 415.4684 -23.1875)" class="st1" width="4.5" height="4.5"/>
				<circle id="connector0pad" class="st1" cx="219.3" cy="196.1" r="2.2"/>
				<circle id="connector1pad" class="st1" cx="212.1" cy="196.1" r="2.2"/>
				<circle id="connector2pad" class="st1" cx="204.9" cy="196.1" r="2.2"/>
			</g>
		</g>
	</g>
</g>
<g>
	<g transform="translate(210.388,66.7087)">
		<g transform="matrix(0,1,-1,0,0,0)">
			<g id="copper0_1_">
				
					<rect x="91.8" y="194.4" transform="matrix(2.535182e-06 1 -1 2.535182e-06 290.6674 102.6778)" class="st1" width="4.5" height="4.5"/>
				<circle id="connector0pad_1_" class="st1" cx="94" cy="196.7" r="2.2"/>
				<circle id="connector1pad_1_" class="st1" cx="86.8" cy="196.7" r="2.2"/>
				<circle id="connector2pad_1_" class="st1" cx="79.6" cy="196.7" r="2.2"/>
			</g>
		</g>
	</g>
</g>
<g>
	<g transform="translate(210.122,35.3753)">
		<g transform="matrix(0,1,-1,0,0,0)">
			<g id="copper0_2_">
				
					<rect x="154.4" y="193.9" transform="matrix(2.535182e-06 1 -1 2.535182e-06 352.8021 39.479)" class="st1" width="4.5" height="4.5"/>
				<circle id="connector0pad_2_" class="st1" cx="156.7" cy="196.1" r="2.2"/>
				<circle id="connector1pad_2_" class="st1" cx="149.5" cy="196.1" r="2.2"/>
				<circle id="connector2pad_2_" class="st1" cx="142.3" cy="196.1" r="2.2"/>
			</g>
		</g>
	</g>
</g>
<g>
	<g transform="translate(8.00196,42.8198)">
		<g id="copper0_3_">
			<circle id="connector0pin" class="st1" cx="189.4" cy="146.1" r="2"/>
		</g>
	</g>
</g>
<g>
	<g transform="translate(141.939,111.834)">
		<g id="copper0_4_">
			<circle id="connector0pin_1_" class="st1" cx="-78.5" cy="8.1" r="2"/>
		</g>
	</g>
</g>
<g>
	<g transform="translate(132.472,104.5)">
		<g id="copper0_5_">
			<circle id="connector0pin_2_" class="st1" cx="-59.6" cy="22.7" r="2"/>
		</g>
	</g>
</g>
<g>
	<g transform="translate(180.473,78.3665)">
		<g id="copper0_6_">
			<circle id="connector0pin_3_" class="st1" cx="-155.6" cy="75" r="2"/>
		</g>
	</g>
</g>
<g>
	<g transform="translate(180.206,46.7665)">
		<g id="copper0_7_">
			<circle id="connector0pin_4_" class="st1" cx="-155" cy="138.2" r="2"/>
		</g>
	</g>
</g>
<g>
	<g transform="translate(179.806,15.6997)">
		<g id="copper0_8_">
			<circle id="connector0pin_5_" class="st1" cx="-154.2" cy="200.3" r="2"/>
		</g>
	</g>
</g>
<g>
	<g transform="translate(32.1539,52.8662)">
		<g id="copper0_9_">
			<circle id="connector0pin_6_" class="st1" cx="141.1" cy="126" r="2"/>
		</g>
	</g>
</g>
<g>
	<g transform="translate(24.7747,96.2681)">
		<g id="copper0_10_">
			<circle id="connector0pin_7_" class="st1" cx="155.8" cy="39.2" r="2"/>
		</g>
	</g>
</g>
<g>
	<g transform="translate(163.674,22.7862)">
		<g id="copper0_11_">
			<circle id="connector0pin_8_" class="st1" cx="-122" cy="186.2" r="2"/>
		</g>
	</g>
</g>
<g>
	<g transform="translate(171.674,53.7195)">
		<g id="copper0_12_">
			<circle id="connector0pin_9_" class="st1" cx="-138" cy="124.3" r="2"/>
		</g>
	</g>
</g>
<g>
	<g transform="translate(179.14,91.3193)">
		<g id="copper0_13_">
			<circle id="connector0pin_10_" class="st1" cx="-152.9" cy="49.1" r="2"/>
		</g>
	</g>
</g>
<g>
	<g transform="translate(75.4067,124.386)">
		<g id="copper0_14_">
			<circle id="connector0pin_11_" class="st1" cx="54.6" cy="-17" r="2"/>
		</g>
	</g>
</g>
<g>
	<g transform="translate(118.607,209.719)">
		<g id="copper0_15_">
			<circle id="connector0pin_12_" class="st1" cx="-31.8" cy="-187.7" r="2"/>
		</g>
	</g>
</g>
<g>
	<g transform="translate(198.074,227.053)">
		<g id="copper0_16_">
			<circle id="connector0pin_13_" class="st1" cx="-190.8" cy="-222.4" r="2"/>
		</g>
	</g>
</g>
<g>
	<g transform="translate(129.78,162.93)">
		<g id="copper0_17_">
			<circle id="connector0pin_14_" class="st2" cx="-52.9" cy="-92.8" r="1"/>
		</g>
	</g>
</g>
<g>
	<g transform="translate(54.8475,226.36)">
		<g transform="matrix(-1,0,0,-1,0,0)">
			<g id="copper0_18_">
				<rect id="rect11" x="-109.5" y="199.9" class="st1" width="4" height="4"/>
				<circle id="connector0pin_15_" class="st1" cx="-107.6" cy="201.9" r="2"/>
				<circle id="connector1pin" class="st1" cx="-122" cy="201.9" r="2"/>
			</g>
		</g>
	</g>
</g>
<g>
	<g transform="translate(57.7275,196.84)">
		<g id="copper0_19_">
			<rect id="rect11_1_" x="84.7" y="-174.4" class="st1" width="4" height="4"/>
			<circle id="connector0pin_16_" class="st1" cx="86.7" cy="-172.4" r="2"/>
			<circle id="connector1pin_1_" class="st1" cx="72.3" cy="-172.4" r="2"/>
		</g>
	</g>
</g>
<g>
	<g transform="translate(115.922,228.677)">
		<g transform="matrix(-1,0,0,-1,0,0)">
			<g id="copper0_20_">
				<circle id="connector0pad_3_" class="st1" cx="1.3" cy="205.7" r="2"/>
				<circle id="connector1pad_3_" class="st1" cx="19.7" cy="205.7" r="2"/>
				<circle id="connector2pad_3_" class="st1" cx="1.3" cy="218.5" r="2"/>
				<circle id="connector3pad" class="st1" cx="19.7" cy="218.5" r="2"/>
			</g>
		</g>
	</g>
</g>
<g>
	<g transform="translate(68.3771,155.471)">
		<g transform="matrix(0,1,-1,0,0,0)">
			<g id="copper0_21_">
				
					<rect x="-80.1" y="-78.8" transform="matrix(2.535182e-06 1 -1 2.535182e-06 -154.3905 1.2933)" class="st1" width="4.5" height="4.5"/>
				<circle id="connector0pin_17_" class="st1" cx="-77.9" cy="-76.5" r="2.2"/>
				<circle id="connector1pin_2_" class="st1" cx="-99.4" cy="-76.5" r="2.2"/>
			</g>
		</g>
	</g>
</g>
<g>
	<g transform="translate(68.3771,155.471)">
		<g transform="matrix(0,1,-1,0,0,0)">
			<g id="copper0_22_">
				
					<rect x="-80.1" y="-78.8" transform="matrix(2.535182e-06 1 -1 2.535182e-06 -154.3905 1.2933)" class="st1" width="4.5" height="4.5"/>
				<circle id="connector0pin_18_" class="st1" cx="-77.9" cy="-76.5" r="2.2"/>
				<circle id="connector1pin_3_" class="st1" cx="-99.4" cy="-76.5" r="2.2"/>
			</g>
		</g>
	</g>
</g>
<g>
	<g transform="translate(32.8875,195.04)">
		<g transform="matrix(0,-1,1,0,0,0)">
			<g id="copper0_23_">
				
					<rect x="143.2" y="127.3" transform="matrix(-2.535182e-06 -1 1 -2.535182e-06 15.8603 274.9162)" class="st1" width="4.5" height="4.5"/>
				<circle id="connector0pad_4_" class="st1" cx="145.4" cy="129.5" r="2.2"/>
				<circle id="connector1pad_4_" class="st1" cx="138.2" cy="129.5" r="2.2"/>
				<circle id="connector2pad_4_" class="st1" cx="131" cy="129.5" r="2.2"/>
			</g>
		</g>
	</g>
</g>
<g>
	<g transform="translate(76.5339,143.512)">
		<g transform="matrix(0,1,-1,0,0,0)">
			<g id="copper0_24_">
				<g id="copper1">
					<circle id="connector0pin_19_" class="st1" cx="-53.7" cy="-59.7" r="2"/>
					<circle id="connector1pin_4_" class="st1" cx="-82.5" cy="-59.7" r="2"/>
				</g>
			</g>
		</g>
	</g>
</g>
<g>
	<g transform="translate(149.547,197.07)">
		<g id="copper0_25_">
			<g id="copper1_1_">
				<circle id="connector1pin_5_" class="st3" cx="-111.9" cy="-165.2" r="1.8"/>
				<circle id="connector0pin_20_" class="st3" cx="-98" cy="-165.2" r="1.8"/>
			</g>
		</g>
	</g>
</g>
<g>
	<g transform="translate(189.492,201.414)">
		<g transform="matrix(0,1,-1,0,0,0)">
			<g id="copper0_26_">
				<g id="copper1_2_">
					<circle id="connector0pin_21_" class="st1" cx="-169.7" cy="166.4" r="1.8"/>
					<circle id="connector1pin_6_" class="st1" cx="-184.1" cy="166.4" r="1.8"/>
				</g>
			</g>
		</g>
	</g>
</g>
<g>
	<g transform="translate(84.8355,192.19)">
		<g transform="matrix(-1,0,0,-1,0,0)">
			<g id="copper0_27_">
				<g id="copper1_3_">
					<circle id="connector0pin_22_" class="st1" cx="-42.9" cy="145.4" r="1.8"/>
					<circle id="connector1pin_7_" class="st1" cx="-50.1" cy="145.4" r="1.8"/>
				</g>
			</g>
		</g>
	</g>
</g>
<g>
	<g transform="translate(144.085,228.691)">
		<g transform="matrix(0,-1,1,0,0,0)">
			<g id="copper0_28_">
				<g id="copper1_4_">
					<circle id="connector0pin_23_" class="st1" cx="218.4" cy="-81.3" r="1.8"/>
					<circle id="connector1pin_8_" class="st1" cx="204" cy="-81.3" r="1.8"/>
				</g>
			</g>
		</g>
	</g>
</g>
<g>
	<g transform="translate(22.2075,130.36)">
		<g id="copper0_29_">
			<rect id="square" x="148.7" y="-35.8" class="st1" width="4.3" height="4.3"/>
			<circle id="connector0pin_24_" class="st1" cx="150.9" cy="-33.7" r="2.2"/>
			<circle id="connector1pin_9_" class="st1" cx="150.9" cy="-48.1" r="2.2"/>
		</g>
	</g>
</g>
<g>
	<g transform="translate(44.0739,149.386)">
		<g id="copper0_30_">
			<circle id="connector0pin_25_" class="st1" cx="117.2" cy="-67" r="2"/>
		</g>
	</g>
</g>
<g>
	<g transform="translate(135.474,179.186)">
		<g id="copper0_31_">
			<circle id="connector0pin_26_" class="st1" cx="-65.6" cy="-126.6" r="2"/>
		</g>
	</g>
</g>
<g>
	<g transform="translate(92.5491,191.77)">
		<g id="copper0_32_">
			<circle id="connector0pin_27_" class="st1" cx="20.3" cy="-151.8" r="2"/>
		</g>
	</g>
</g>
<g>
	<g transform="translate(128.674,140.826)">
		<g id="copper0_33_">
			<circle id="connector0pin_28_" class="st1" cx="-52" cy="-49.9" r="2"/>
		</g>
	</g>
</g>
<g>
	<g transform="translate(98.8739,156.653)">
		<g id="copper0_34_">
			<circle id="connector0pin_29_" class="st1" cx="7.6" cy="-81.6" r="2"/>
		</g>
	</g>
</g>
<g>
	<g transform="translate(7.17049,81.1089)">
		<g id="copper0_35_">
			<circle id="connector0pin_30_" class="st1" cx="190.3" cy="68.8" r="2.1"/>
			<circle id="connector1pin_10_" class="st1" cx="190.3" cy="61.6" r="2.1"/>
			<circle id="connector2pin" class="st1" cx="190.3" cy="54.4" r="2.1"/>
			<circle id="connector3pin" class="st1" cx="190.3" cy="47.2" r="2.1"/>
		</g>
	</g>
</g>
<g>
	<g transform="translate(7.17049,52.3087)">
		<g id="copper0_36_">
			<circle id="connector0pin_31_" class="st1" cx="190.3" cy="126.4" r="2.1"/>
			<circle id="connector1pin_11_" class="st1" cx="190.3" cy="119.2" r="2.1"/>
			<circle id="connector2pin_1_" class="st1" cx="190.3" cy="112" r="2.1"/>
			<circle id="connector3pin_1_" class="st1" cx="190.3" cy="104.8" r="2.1"/>
		</g>
	</g>
</g>
<g>
	<g transform="translate(43.3483,52.3087)">
		<g id="copper0_37_">
			<circle id="connector0pin_32_" class="st1" cx="118" cy="126.4" r="2.1"/>
			<circle id="connector1pin_12_" class="st1" cx="118" cy="119.2" r="2.1"/>
			<circle id="connector2pin_2_" class="st1" cx="118" cy="112" r="2.1"/>
			<circle id="connector3pin_2_" class="st1" cx="118" cy="104.8" r="2.1"/>
		</g>
	</g>
</g>
<g>
	<g transform="translate(57.7483,66.7087)">
		<g id="copper0_38_">
			<circle id="connector0pin_33_" class="st1" cx="89.2" cy="97.6" r="2.1"/>
			<circle id="connector1pin_13_" class="st1" cx="89.2" cy="90.4" r="2.1"/>
			<circle id="connector2pin_3_" class="st1" cx="89.2" cy="83.2" r="2.1"/>
			<circle id="connector3pin_3_" class="st1" cx="89.2" cy="76" r="2.1"/>
		</g>
	</g>
</g>
<g>
	<g transform="translate(43.3483,81.1089)">
		<g id="copper0_39_">
			<circle id="connector0pin_34_" class="st1" cx="118" cy="68.8" r="2.1"/>
			<circle id="connector1pin_14_" class="st1" cx="118" cy="61.6" r="2.1"/>
			<circle id="connector2pin_4_" class="st1" cx="118" cy="54.4" r="2.1"/>
			<circle id="connector3pin_4_" class="st1" cx="118" cy="47.2" r="2.1"/>
		</g>
	</g>
</g>
<g>
	<g transform="translate(85.2427,178.801)">
		<g transform="matrix(0,-1,1,0,0,0)">
			<g id="copper0_40_">
				
					<rect x="115.2" y="32.9" transform="matrix(-2.535182e-06 -1 1 -2.535182e-06 82.3326 152.1276)" class="st1" width="4" height="4"/>
				<circle id="connector0pin_35_" class="st1" cx="117.2" cy="34.9" r="2"/>
				<circle id="connector27pin" class="st1" cx="95.6" cy="34.9" r="2"/>
				<circle id="connector1pin_15_" class="st1" cx="117.2" cy="27.7" r="2"/>
				<circle id="connector26pin" class="st1" cx="95.6" cy="27.7" r="2"/>
				<circle id="connector2pin_5_" class="st1" cx="117.2" cy="20.5" r="2"/>
				<circle id="connector25pin" class="st1" cx="95.6" cy="20.5" r="2"/>
				<circle id="connector3pin_5_" class="st1" cx="117.2" cy="13.3" r="2"/>
				<circle id="connector24pin" class="st1" cx="95.6" cy="13.3" r="2"/>
				<circle id="connector4pin" class="st1" cx="117.2" cy="6.1" r="2"/>
				<circle id="connector23pin" class="st1" cx="95.6" cy="6.1" r="2"/>
				<circle id="connector5pin" class="st1" cx="117.2" cy="-1.1" r="2"/>
				<circle id="connector22pin" class="st1" cx="95.6" cy="-1.1" r="2"/>
				<circle id="connector6pin" class="st1" cx="117.2" cy="-8.3" r="2"/>
				<circle id="connector21pin" class="st1" cx="95.6" cy="-8.3" r="2"/>
				<circle id="connector7pin" class="st1" cx="117.2" cy="-15.5" r="2"/>
				<circle id="connector20pin" class="st1" cx="95.6" cy="-15.5" r="2"/>
				<circle id="connector8pin" class="st1" cx="117.2" cy="-22.7" r="2"/>
				<circle id="connector19pin" class="st1" cx="95.6" cy="-22.7" r="2"/>
				<circle id="connector9pin" class="st1" cx="117.2" cy="-29.9" r="2"/>
				<circle id="connector18pin" class="st1" cx="95.6" cy="-29.9" r="2"/>
				<circle id="connector10pin" class="st1" cx="117.2" cy="-37.1" r="2"/>
				<circle id="connector17pin" class="st1" cx="95.6" cy="-37.1" r="2"/>
				<circle id="connector11pin" class="st1" cx="117.2" cy="-44.3" r="2"/>
				<circle id="connector16pin" class="st1" cx="95.6" cy="-44.3" r="2"/>
				<circle id="connector12pin" class="st1" cx="117.2" cy="-51.5" r="2"/>
				<circle id="connector15pin" class="st1" cx="95.6" cy="-51.5" r="2"/>
				<circle id="connector13pin" class="st1" cx="117.2" cy="-58.7" r="2"/>
				<circle id="connector14pin" class="st1" cx="95.6" cy="-58.7" r="2"/>
			</g>
		</g>
	</g>
</g>
<g>
	<g transform="translate(96.3619,209.651)">
		<g transform="matrix(0,-1,1,0,0,0)">
			<g id="copper0_41_">
				<circle id="connector0pin_36_" class="st1" cx="178.2" cy="11.9" r="2.1"/>
				<circle id="connector1pin_16_" class="st1" cx="178.2" cy="4.7" r="2.1"/>
				<circle id="connector2pin_6_" class="st1" cx="178.2" cy="-2.5" r="2.1"/>
				<circle id="connector3pin_6_" class="st1" cx="178.2" cy="-9.7" r="2.1"/>
				<circle id="connector4pin_1_" class="st1" cx="178.2" cy="-16.9" r="2.1"/>
				<circle id="connector5pin_1_" class="st1" cx="178.2" cy="-24.1" r="2.1"/>
			</g>
		</g>
	</g>
</g>
<g>
	<g transform="translate(84.5227,143.7)">
		<g transform="matrix(0,-1,1,0,0,0)">
			<g id="copper0_42_">
				<circle id="connector0pin_37_" class="st1" cx="46.3" cy="35.6" r="2.1"/>
				<circle id="connector1pin_17_" class="st1" cx="46.3" cy="28.4" r="2.1"/>
				<circle id="connector2pin_7_" class="st1" cx="46.3" cy="21.2" r="2.1"/>
				<circle id="connector3pin_7_" class="st1" cx="46.3" cy="14" r="2.1"/>
				<circle id="connector4pin_2_" class="st1" cx="46.3" cy="6.8" r="2.1"/>
				<circle id="connector5pin_2_" class="st1" cx="46.3" cy="-0.4" r="2.1"/>
			</g>
		</g>
	</g>
</g>
<g>
	<g transform="translate(149.212,143.3)">
		<g transform="matrix(0,-1,1,0,0,0)">
			<g id="copper0_43_">
				<circle id="connector0pin_38_" class="st1" cx="45.5" cy="-93.8" r="2.1"/>
				<circle id="connector1pin_18_" class="st1" cx="45.5" cy="-101" r="2.1"/>
				<circle id="connector2pin_8_" class="st1" cx="45.5" cy="-108.2" r="2.1"/>
				<circle id="connector3pin_8_" class="st1" cx="45.5" cy="-115.4" r="2.1"/>
				<circle id="connector4pin_3_" class="st1" cx="45.5" cy="-122.6" r="2.1"/>
			</g>
		</g>
	</g>
</g>
<g>
	<g transform="translate(9.31387,196.294)">
		<g id="copper0_44_">
			<circle id="connector0pin_39_" class="st1" cx="186" cy="-161.6" r="2.1"/>
			<circle id="connector1pin_19_" class="st1" cx="186" cy="-168.8" r="2.1"/>
			<circle id="connector2pin_9_" class="st1" cx="186" cy="-176" r="2.1"/>
			<circle id="connector3pin_9_" class="st1" cx="186" cy="-183.2" r="2.1"/>
		</g>
	</g>
</g>
<g>
	<g transform="translate(197.047,196.294)">
		<g id="copper0_45_">
			<circle id="connector0pin_40_" class="st1" cx="-189.4" cy="-161.6" r="2.1"/>
			<circle id="connector1pin_20_" class="st1" cx="-189.4" cy="-168.8" r="2.1"/>
			<circle id="connector2pin_10_" class="st1" cx="-189.4" cy="-176" r="2.1"/>
			<circle id="connector3pin_10_" class="st1" cx="-189.4" cy="-183.2" r="2.1"/>
		</g>
	</g>
</g>
<g>
	<g transform="translate(156.481,194.918)">
		<g transform="matrix(0,-1,1,0,0,0)">
			<g id="copper0_46_">
				<circle id="connector0pin_41_" class="st1" cx="148.7" cy="-108.3" r="2.1"/>
				<circle id="connector1pin_21_" class="st1" cx="148.7" cy="-115.5" r="2.1"/>
				<circle id="connector2pin_11_" class="st1" cx="148.7" cy="-122.7" r="2.1"/>
				<circle id="connector3pin_11_" class="st1" cx="148.7" cy="-129.9" r="2.1"/>
			</g>
		</g>
	</g>
</g>
<g>
	<g transform="translate(84.5227,194.5)">
		<g transform="matrix(0,-1,1,0,0,0)">
			<g id="copper0_47_">
				<circle id="connector0pin_42_" class="st1" cx="147.9" cy="35.6" r="2.1"/>
				<circle id="connector1pin_22_" class="st1" cx="147.9" cy="28.4" r="2.1"/>
				<circle id="connector2pin_12_" class="st1" cx="147.9" cy="21.2" r="2.1"/>
				<circle id="connector3pin_12_" class="st1" cx="147.9" cy="14" r="2.1"/>
				<circle id="connector4pin_4_" class="st1" cx="147.9" cy="6.8" r="2.1"/>
				<circle id="connector5pin_3_" class="st1" cx="147.9" cy="-0.4" r="2.1"/>
			</g>
		</g>
	</g>
</g>
<g>
	<g transform="translate(23.6027,188.25)">
		<g id="copper0_48_">
			<circle id="connector0pin_43_" class="st1" cx="158.2" cy="-144.8" r="2"/>
		</g>
	</g>
</g>
<g>
	<g transform="translate(69.2755,166.453)">
		<g id="copper0_49_">
			<circle id="connector0pin_44_" class="st1" cx="66.8" cy="-101.2" r="2"/>
		</g>
	</g>
</g>
<g>
	<line class="st4" x1="70.8" y1="127.2" x2="4.4" y2="127.7"/>
</g>
<g>
	<line class="st4" x1="173.2" y1="176.8" x2="173.1" y2="98.9"/>
</g>
<g>
	<line class="st4" x1="149.1" y1="164.3" x2="159.1" y2="164.3"/>
</g>
<g>
	<line class="st4" x1="149.1" y1="157.1" x2="159.1" y2="157.1"/>
</g>
<g>
	<line class="st4" x1="149.1" y1="149.9" x2="159.1" y2="149.9"/>
</g>
<g>
	<line class="st4" x1="149.1" y1="142.7" x2="159.1" y2="142.7"/>
</g>
<g>
	<line class="st4" x1="188.9" y1="150.2" x2="195.3" y2="150"/>
</g>
<g>
	<line class="st4" x1="188.9" y1="156.8" x2="188.9" y2="150.2"/>
</g>
<g>
	<line class="st4" x1="195.3" y1="157" x2="188.9" y2="156.8"/>
</g>
<g>
	<line class="st4" x1="195.3" y1="135.5" x2="182.7" y2="135.5"/>
</g>
<g>
	<line class="st4" x1="15.8" y1="145.3" x2="24.4" y2="141.3"/>
</g>
<g>
	<line class="st4" x1="16" y1="153.5" x2="22.8" y2="153.4"/>
</g>
<g>
	<line class="st4" x1="3.8" y1="160.7" x2="3.7" y2="192.7"/>
</g>
<g>
	<line class="st4" x1="3.7" y1="192.7" x2="11.7" y2="192.2"/>
</g>
<g>
	<line class="st4" x1="11.4" y1="160.7" x2="3.8" y2="160.7"/>
</g>
<g>
	<line class="st4" x1="3.7" y1="192.4" x2="3.2" y2="223.5"/>
</g>
<g>
	<line class="st4" x1="3.2" y1="223.5" x2="11.7" y2="223.4"/>
</g>
<g>
	<line class="st4" x1="11.7" y1="192.1" x2="3.7" y2="192.4"/>
</g>
<g>
	<line class="st4" x1="145.2" y1="228.9" x2="21.6" y2="229.3"/>
</g>
<g>
	<line class="st4" x1="21.6" y1="229.3" x2="207.3" y2="227.9"/>
</g>
<g>
	<line class="st4" x1="21.6" y1="229.3" x2="15.8" y2="224.8"/>
</g>
<g>
	<line class="st4" x1="146" y1="177.3" x2="145.2" y2="228.9"/>
</g>
<g>
	<line class="st4" x1="207.3" y1="227.9" x2="206.6" y2="82.9"/>
</g>
<g>
	<line class="st4" x1="159.3" y1="172.3" x2="146" y2="177.3"/>
</g>
<g>
	<line class="st4" x1="206.6" y1="82.9" x2="175.3" y2="82.3"/>
</g>
<g>
	<line class="st4" x1="16.3" y1="216.1" x2="23.5" y2="216.1"/>
</g>
<g>
	<line class="st4" x1="23.1" y1="184.9" x2="16.3" y2="184.9"/>
</g>
<g>
	<line class="st4" x1="39.6" y1="209" x2="16.3" y2="209"/>
</g>
<g>
	<line class="st4" x1="16.3" y1="177.7" x2="31.6" y2="178"/>
</g>
<g>
	<line class="st4" x1="4.1" y1="46.3" x2="24.4" y2="46.2"/>
</g>
<g>
	<line class="st4" x1="4.4" y1="127.7" x2="4.1" y2="46.3"/>
</g>
<g>
	<line class="st4" x1="10.5" y1="119.7" x2="10" y2="70.6"/>
</g>
<g>
	<line class="st4" x1="10" y1="70.6" x2="29.2" y2="69.8"/>
</g>
<g>
	<line class="st4" x1="29.2" y1="69.8" x2="32.7" y2="63.4"/>
</g>
<g>
	<line class="st4" x1="61.4" y1="119.9" x2="10.5" y2="119.7"/>
</g>
<g>
	<line class="st4" x1="167.6" y1="127.4" x2="167.6" y2="171.1"/>
</g>
<g>
	<line class="st4" x1="167.6" y1="171.1" x2="163.5" y2="171.4"/>
</g>
<g>
	<line class="st4" x1="163.5" y1="128" x2="167.6" y2="127.4"/>
</g>
<g>
	<line class="st4" x1="159.1" y1="135.5" x2="129.7" y2="135.4"/>
</g>
<g>
	<line class="st4" x1="129.7" y1="135.4" x2="130" y2="109.4"/>
</g>
<g>
	<line class="st4" x1="197.5" y1="180.9" x2="197.4" y2="186.8"/>
</g>
<g>
	<line class="st4" x1="86.8" y1="24.1" x2="86.7" y2="29.3"/>
</g>
<g>
	<line class="st4" x1="7.6" y1="32.6" x2="7.6" y2="15.3"/>
</g>
<g>
	<line class="st4" x1="7.5" y1="11" x2="7.4" y2="6.8"/>
</g>
<g>
	<line class="st4" x1="195.1" y1="82.3" x2="175.3" y2="82.3"/>
</g>
<g>
	<line class="st4" x1="195.3" y1="36.9" x2="195.1" y2="82.3"/>
</g>
<g>
	<line class="st4" x1="195.3" y1="15.3" x2="195.3" y2="32.6"/>
</g>
<g>
	<line class="st4" x1="134.2" y1="35.3" x2="134.8" y2="44.9"/>
</g>
<g>
	<line class="st4" x1="116.4" y1="24.1" x2="134.2" y2="35.3"/>
</g>
<g>
	<line class="st4" x1="135.2" y1="54.7" x2="122" y2="60.7"/>
</g>
<g>
	<line class="st4" x1="135" y1="48.6" x2="135.2" y2="54.7"/>
</g>
<g>
	<line class="st4" x1="170.9" y1="96.7" x2="145.1" y2="96.8"/>
</g>
<g>
	<line class="st4" x1="145.1" y1="96.8" x2="144.9" y2="58.4"/>
</g>
<g>
	<line class="st4" x1="170.9" y1="82.3" x2="163.4" y2="82.3"/>
</g>
<g>
	<line class="st4" x1="173.1" y1="80.1" x2="172.9" y2="64"/>
</g>
<g>
	<line class="st4" x1="172.9" y1="64" x2="164.3" y2="58.2"/>
</g>
<g>
	<line class="st4" x1="171.9" y1="56.6" x2="171.8" y2="32"/>
</g>
<g>
	<line class="st4" x1="171.8" y1="32" x2="162.5" y2="32"/>
</g>
<g>
	<line class="st4" x1="164.7" y1="56.8" x2="171.9" y2="56.6"/>
</g>
<g>
	<line class="st4" x1="162.5" y1="32" x2="162.4" y2="26.5"/>
</g>
<g>
	<line class="st4" x1="182" y1="24.5" x2="181.8" y2="41.4"/>
</g>
<g>
	<line class="st4" x1="178.9" y1="24.5" x2="182" y2="24.5"/>
</g>
<g>
	<line class="st4" x1="144.7" y1="40.3" x2="162.3" y2="40.5"/>
</g>
<g>
	<line class="st4" x1="162.3" y1="40.5" x2="162.4" y2="47.3"/>
</g>
<g>
	<line class="st4" x1="144.7" y1="32.1" x2="144.7" y2="40.3"/>
</g>
<g>
	<line class="st4" x1="131.8" y1="25.4" x2="144.7" y2="32.1"/>
</g>
<g>
	<line class="st4" x1="144.9" y1="49.9" x2="144.9" y2="75.2"/>
</g>
<g>
	<line class="st4" x1="160.1" y1="49.7" x2="144.9" y2="49.9"/>
</g>
<g>
	<line class="st4" x1="160.4" y1="24.5" x2="146.5" y2="24.5"/>
</g>
<g>
	<line class="st4" x1="116.7" y1="10.2" x2="144.4" y2="10.1"/>
</g>
<g>
	<line class="st4" x1="144.4" y1="10.1" x2="144.4" y2="22.4"/>
</g>
<g>
	<line class="st4" x1="94.1" y1="10.2" x2="79.5" y2="10.1"/>
</g>
<g>
	<line class="st4" x1="79.5" y1="29.3" x2="79.5" y2="10.1"/>
</g>
<g>
	<line class="st4" x1="79.5" y1="10.1" x2="64.6" y2="10.2"/>
</g>
<g>
	<line class="st4" x1="60.9" y1="10.2" x2="23" y2="10.2"/>
</g>
<g>
	<line class="st4" x1="23" y1="10.2" x2="23.1" y2="15.5"/>
</g>
<g>
	<line class="st5" x1="62.5" y1="31.7" x2="62.5" y2="59.1"/>
</g>
<g>
	<line class="st5" x1="62.7" y1="26.9" x2="62.5" y2="31.7"/>
</g>
<g>
	<line class="st5" x1="62.5" y1="31.7" x2="53.8" y2="31.8"/>
</g>
<g>
	<line class="st4" x1="37.7" y1="37.9" x2="37.6" y2="33.8"/>
</g>
<g>
	<line class="st4" x1="55.1" y1="38.1" x2="37.7" y2="37.9"/>
</g>
<g>
	<line class="st4" x1="55.3" y1="59.5" x2="55.1" y2="38.1"/>
</g>
<g>
	<line class="st5" x1="25.4" y1="31.8" x2="35.3" y2="31.9"/>
</g>
<g>
	<line class="st4" x1="76.9" y1="59.5" x2="76.9" y2="40.1"/>
</g>
<g>
	<line class="st4" x1="76.9" y1="40.1" x2="86.4" y2="40.1"/>
</g>
<g>
	<line class="st4" x1="86.4" y1="40.1" x2="86.6" y2="33.6"/>
</g>
<g>
	<line class="st4" x1="105.7" y1="39.8" x2="101.1" y2="40"/>
</g>
<g>
	<line class="st4" x1="101.1" y1="40" x2="101.1" y2="33.6"/>
</g>
<g>
	<line class="st4" x1="105.7" y1="44.4" x2="105.7" y2="39.8"/>
</g>
<g>
	<line class="st4" x1="127.6" y1="39.1" x2="110.3" y2="32.2"/>
</g>
<g>
	<line class="st4" x1="127.7" y1="44.9" x2="127.6" y2="39.1"/>
</g>
<g>
	<line class="st4" x1="76.9" y1="68.7" x2="76.9" y2="63.6"/>
</g>
<g>
	<line class="st4" x1="160.1" y1="64.1" x2="153.1" y2="64.1"/>
</g>
<g>
	<line class="st4" x1="153.1" y1="64.1" x2="138.3" y2="61.4"/>
</g>
<g>
	<line class="st4" x1="69.7" y1="81.1" x2="69.5" y2="70.2"/>
</g>
<g>
	<line class="st4" x1="69.5" y1="70.2" x2="75.6" y2="63.1"/>
</g>
<g>
	<line class="st4" x1="26.5" y1="59.5" x2="26.6" y2="48.3"/>
</g>
<g>
	<line class="st4" x1="33.7" y1="59.5" x2="33.8" y2="48.3"/>
</g>
<g>
	<line class="st4" x1="40.9" y1="59.5" x2="41" y2="48.3"/>
</g>
<g>
	<line class="st4" x1="48.1" y1="59.5" x2="48.2" y2="48.3"/>
</g>
<g>
	<line class="st4" x1="26.6" y1="85.2" x2="26.6" y2="95.6"/>
</g>
<g>
	<line class="st4" x1="33.8" y1="85.2" x2="33.8" y2="95.6"/>
</g>
<g>
	<line class="st4" x1="41" y1="85.2" x2="41" y2="95.6"/>
</g>
<g>
	<line class="st4" x1="48.2" y1="85.2" x2="48.2" y2="95.6"/>
</g>
<g>
	<line class="st4" x1="55.4" y1="85.2" x2="55.4" y2="95.6"/>
</g>
<g>
	<line class="st4" x1="76.8" y1="88.8" x2="76.9" y2="85.2"/>
</g>
<g>
	<line class="st4" x1="69.8" y1="59.5" x2="69.9" y2="54.6"/>
</g>
<g>
	<line class="st4" x1="84.1" y1="59.5" x2="84.1" y2="48.8"/>
</g>
<g>
	<line class="st4" x1="91.3" y1="59.5" x2="91.3" y2="48.8"/>
</g>
<g>
	<line class="st4" x1="98.5" y1="59.5" x2="98.5" y2="48.8"/>
</g>
<g>
	<line class="st4" x1="105.7" y1="59.5" x2="105.7" y2="48.8"/>
</g>
<g>
	<line class="st4" x1="112.9" y1="59.5" x2="112.9" y2="48.8"/>
</g>
<g>
	<line class="st4" x1="120.1" y1="48.8" x2="120.1" y2="59.5"/>
</g>
<g>
	<line class="st4" x1="128.4" y1="89.9" x2="128.5" y2="61.4"/>
</g>
<g>
	<line class="st4" x1="128.5" y1="61.4" x2="122.2" y2="61.5"/>
</g>
<g>
	<line class="st4" x1="134.2" y1="89.9" x2="128.4" y2="89.9"/>
</g>
<g>
	<line class="st4" x1="120.1" y1="95.2" x2="120.1" y2="85.2"/>
</g>
<g>
	<line class="st4" x1="112.9" y1="95.2" x2="112.9" y2="85.2"/>
</g>
<g>
	<line class="st4" x1="105.7" y1="95.2" x2="105.7" y2="85.2"/>
</g>
<g>
	<line class="st4" x1="98.5" y1="95.2" x2="98.5" y2="85.2"/>
</g>
<g>
	<line class="st4" x1="91.3" y1="95.2" x2="91.3" y2="85.2"/>
</g>
<g>
	<line class="st4" x1="84.1" y1="95.2" x2="84.1" y2="85.2"/>
</g>
<g>
	<line class="st4" x1="64.6" y1="83.2" x2="67.7" y2="83.2"/>
</g>
<g>
	<line class="st4" x1="77.3" y1="31.4" x2="74.5" y2="31.4"/>
</g>
<g>
	<line class="st4" x1="112.9" y1="44.4" x2="112.9" y2="42"/>
</g>
<g>
	<line class="st4" x1="104.4" y1="75.1" x2="76.9" y2="75.4"/>
</g>
<g>
	<line class="st4" x1="76.9" y1="75.4" x2="76.9" y2="81.1"/>
</g>
</svg>
