<?xml version="1.0" encoding="utf-8"?>
<!-- Generator: Adobe Illustrator 19.2.1, SVG Export Plug-In . SVG Version: 6.00 Build 0)  -->
<svg version="1.1" id="Layer_1" xmlns:svg="http://www.w3.org/2000/svg"
	 xmlns="http://www.w3.org/2000/svg" xmlns:xlink="http://www.w3.org/1999/xlink" x="0px" y="0px" width="209.7px" height="236.1px"
	 viewBox="0 0 209.7 236.1" style="enable-background:new 0 0 209.7 236.1;" xml:space="preserve">
<style type="text/css">
	.st0{fill:none;stroke:#000000;stroke-width:0.5;}
	.st1{fill:none;stroke:#000000;stroke-width:1.44;}
	.st2{fill:none;stroke:#000000;stroke-width:0.8504;}
	.st3{fill:none;stroke:#000000;stroke-width:1.4173;}
	.st4{fill:none;stroke:#000000;stroke-width:1.728;stroke-linecap:round;}
	.st5{fill:none;stroke:#000000;stroke-width:2.304;stroke-linecap:round;}
</style>
<g>
	<g id="board">
		<rect id="boardoutline" x="0.3" y="0.3" class="st0" width="209.1" height="235.5"/>
	</g>
</g>
<g>
	<g transform="translate(210.122,4.04205)">
		<g transform="matrix(0,1,-1,0,0,0)">
			<g id="copper0">
				
					<rect x="6.4" y="193.9" transform="matrix(2.535182e-06 1 -1 2.535182e-06 204.7811 187.5004)" class="st1" width="4.5" height="4.5"/>
				<circle id="connector0pad" class="st1" cx="8.6" cy="196.1" r="2.2"/>
				<circle id="connector1pad" class="st1" cx="15.8" cy="196.1" r="2.2"/>
				<circle id="connector2pad" class="st1" cx="23" cy="196.1" r="2.2"/>
			</g>
		</g>
	</g>
</g>
<g>
	<g transform="translate(210.388,66.7087)">
		<g transform="matrix(0,1,-1,0,0,0)">
			<g id="copper0_1_">
				
					<rect x="6.4" y="194.4" transform="matrix(2.535182e-06 1 -1 2.535182e-06 205.3131 188.0324)" class="st1" width="4.5" height="4.5"/>
				<circle id="connector0pad_1_" class="st1" cx="8.6" cy="196.7" r="2.2"/>
				<circle id="connector1pad_1_" class="st1" cx="15.8" cy="196.7" r="2.2"/>
				<circle id="connector2pad_1_" class="st1" cx="23" cy="196.7" r="2.2"/>
			</g>
		</g>
	</g>
</g>
<g>
	<g transform="translate(210.122,35.3753)">
		<g transform="matrix(0,1,-1,0,0,0)">
			<g id="copper0_2_">
				
					<rect x="6.4" y="193.9" transform="matrix(2.535182e-06 1 -1 2.535182e-06 204.7811 187.5004)" class="st1" width="4.5" height="4.5"/>
				<circle id="connector0pad_2_" class="st1" cx="8.6" cy="196.1" r="2.2"/>
				<circle id="connector1pad_2_" class="st1" cx="15.8" cy="196.1" r="2.2"/>
				<circle id="connector2pad_2_" class="st1" cx="23" cy="196.1" r="2.2"/>
			</g>
		</g>
	</g>
</g>
<g>
	<g transform="translate(8.00196,42.8198)">
		<g id="copper0_3_">
			<circle id="connector0pin" class="st1" cx="189.4" cy="4.3" r="2"/>
		</g>
	</g>
</g>
<g>
	<g transform="translate(141.939,111.834)">
		<g id="copper0_4_">
			<circle id="connector0pin_1_" class="st1" cx="-78.5" cy="4.3" r="2"/>
		</g>
	</g>
</g>
<g>
	<g transform="translate(132.472,104.5)">
		<g id="copper0_5_">
			<circle id="connector0pin_2_" class="st1" cx="-59.6" cy="4.3" r="2"/>
		</g>
	</g>
</g>
<g>
	<g transform="translate(180.473,78.3665)">
		<g id="copper0_6_">
			<circle id="connector0pin_3_" class="st1" cx="-155.6" cy="4.3" r="2"/>
		</g>
	</g>
</g>
<g>
	<g transform="translate(180.206,46.7665)">
		<g id="copper0_7_">
			<circle id="connector0pin_4_" class="st1" cx="-155" cy="4.3" r="2"/>
		</g>
	</g>
</g>
<g>
	<g transform="translate(179.806,15.6997)">
		<g id="copper0_8_">
			<circle id="connector0pin_5_" class="st1" cx="-154.2" cy="4.3" r="2"/>
		</g>
	</g>
</g>
<g>
	<g transform="translate(32.1539,52.8662)">
		<g id="copper0_9_">
			<circle id="connector0pin_6_" class="st1" cx="141.1" cy="4.3" r="2"/>
		</g>
	</g>
</g>
<g>
	<g transform="translate(24.7747,96.2681)">
		<g id="copper0_10_">
			<circle id="connector0pin_7_" class="st1" cx="155.8" cy="4.3" r="2"/>
		</g>
	</g>
</g>
<g>
	<g transform="translate(163.674,22.7862)">
		<g id="copper0_11_">
			<circle id="connector0pin_8_" class="st1" cx="-122" cy="4.3" r="2"/>
		</g>
	</g>
</g>
<g>
	<g transform="translate(171.674,53.7195)">
		<g id="copper0_12_">
			<circle id="connector0pin_9_" class="st1" cx="-138" cy="4.3" r="2"/>
		</g>
	</g>
</g>
<g>
	<g transform="translate(179.14,91.3193)">
		<g id="copper0_13_">
			<circle id="connector0pin_10_" class="st1" cx="-152.9" cy="4.3" r="2"/>
		</g>
	</g>
</g>
<g>
	<g transform="translate(75.4067,124.386)">
		<g id="copper0_14_">
			<circle id="connector0pin_11_" class="st1" cx="54.6" cy="4.3" r="2"/>
		</g>
	</g>
</g>
<g>
	<g transform="translate(118.607,209.719)">
		<g id="copper0_15_">
			<circle id="connector0pin_12_" class="st1" cx="-31.8" cy="4.3" r="2"/>
		</g>
	</g>
</g>
<g>
	<g transform="translate(198.074,227.053)">
		<g id="copper0_16_">
			<circle id="connector0pin_13_" class="st1" cx="-190.8" cy="4.3" r="2"/>
		</g>
	</g>
</g>
<g>
	<g transform="translate(129.78,162.93)">
		<g id="copper0_17_">
			<circle id="connector0pin_14_" class="st2" cx="-52.9" cy="3" r="1"/>
		</g>
	</g>
</g>
<g>
	<g transform="translate(54.8475,226.36)">
		<g transform="matrix(-1,0,0,-1,0,0)">
			<g id="copper0_18_">
				<rect id="rect11" x="-109.5" y="12.8" class="st1" width="4" height="4"/>
				<circle id="connector0pin_15_" class="st1" cx="-107.6" cy="14.8" r="2"/>
				<circle id="connector1pin" class="st1" cx="-122" cy="14.8" r="2"/>
			</g>
		</g>
	</g>
</g>
<g>
	<g transform="translate(57.7275,196.84)">
		<g id="copper0_19_">
			<rect id="rect11_1_" x="84.7" y="12.8" class="st1" width="4" height="4"/>
			<circle id="connector0pin_16_" class="st1" cx="86.7" cy="14.8" r="2"/>
			<circle id="connector1pin_1_" class="st1" cx="72.3" cy="14.8" r="2"/>
		</g>
	</g>
</g>
<g>
	<g transform="translate(115.922,228.677)">
		<g transform="matrix(-1,0,0,-1,0,0)">
			<g id="copper0_20_">
				<circle id="connector0pad_3_" class="st1" cx="1.3" cy="15.6" r="2"/>
				<circle id="connector1pad_3_" class="st1" cx="19.7" cy="15.6" r="2"/>
				<circle id="connector2pad_3_" class="st1" cx="1.3" cy="2.8" r="2"/>
				<circle id="connector3pad" class="st1" cx="19.7" cy="2.8" r="2"/>
			</g>
		</g>
	</g>
</g>
<g>
	<g transform="translate(68.3771,155.471)">
		<g transform="matrix(0,1,-1,0,0,0)">
			<g id="copper0_21_">
				
					<rect x="0.7" y="-78.8" transform="matrix(2.535182e-06 1 -1 2.535182e-06 -73.5967 -79.5007)" class="st1" width="4.5" height="4.5"/>
				<circle id="connector0pin_17_" class="st1" cx="3" cy="-76.5" r="2.2"/>
				<circle id="connector1pin_2_" class="st1" cx="24.5" cy="-76.5" r="2.2"/>
			</g>
		</g>
	</g>
</g>
<g>
	<g transform="translate(68.3771,155.471)">
		<g transform="matrix(0,1,-1,0,0,0)">
			<g id="copper0_22_">
				
					<rect x="0.7" y="-78.8" transform="matrix(2.535182e-06 1 -1 2.535182e-06 -73.5967 -79.5007)" class="st1" width="4.5" height="4.5"/>
				<circle id="connector0pin_18_" class="st1" cx="3" cy="-76.5" r="2.2"/>
				<circle id="connector1pin_3_" class="st1" cx="24.5" cy="-76.5" r="2.2"/>
			</g>
		</g>
	</g>
</g>
<g>
	<g transform="translate(32.8875,195.04)">
		<g transform="matrix(0,-1,1,0,0,0)">
			<g id="copper0_23_">
				
					<rect x="6.4" y="127.3" transform="matrix(-2.535182e-06 -1 1 -2.535182e-06 -120.8881 138.1682)" class="st1" width="4.5" height="4.5"/>
				<circle id="connector0pad_4_" class="st1" cx="8.6" cy="129.5" r="2.2"/>
				<circle id="connector1pad_4_" class="st1" cx="15.8" cy="129.5" r="2.2"/>
				<circle id="connector2pad_4_" class="st1" cx="23" cy="129.5" r="2.2"/>
			</g>
		</g>
	</g>
</g>
<g>
	<g transform="translate(76.5339,143.512)">
		<g transform="matrix(0,1,-1,0,0,0)">
			<g id="copper0_24_">
				<g id="copper1">
					<circle id="connector0pin_19_" class="st1" cx="2.7" cy="-59.7" r="2"/>
					<circle id="connector1pin_4_" class="st1" cx="31.5" cy="-59.7" r="2"/>
				</g>
			</g>
		</g>
	</g>
</g>
<g>
	<g transform="translate(149.547,197.07)">
		<g id="copper0_25_">
			<g id="copper1_1_">
				<circle id="connector1pin_5_" class="st3" cx="-111.9" cy="7.1" r="1.8"/>
				<circle id="connector0pin_20_" class="st3" cx="-98" cy="7.1" r="1.8"/>
			</g>
		</g>
	</g>
</g>
<g>
	<g transform="translate(189.492,201.414)">
		<g transform="matrix(0,1,-1,0,0,0)">
			<g id="copper0_26_">
				<g id="copper1_2_">
					<circle id="connector0pin_21_" class="st1" cx="2.9" cy="166.4" r="1.8"/>
					<circle id="connector1pin_6_" class="st1" cx="17.3" cy="166.4" r="1.8"/>
				</g>
			</g>
		</g>
	</g>
</g>
<g>
	<g transform="translate(84.8355,192.19)">
		<g transform="matrix(-1,0,0,-1,0,0)">
			<g id="copper0_27_">
				<g id="copper1_3_">
					<circle id="connector0pin_22_" class="st1" cx="-42.9" cy="2.9" r="1.8"/>
					<circle id="connector1pin_7_" class="st1" cx="-50.1" cy="2.9" r="1.8"/>
				</g>
			</g>
		</g>
	</g>
</g>
<g>
	<g transform="translate(144.085,228.691)">
		<g transform="matrix(0,-1,1,0,0,0)">
			<g id="copper0_28_">
				<g id="copper1_4_">
					<circle id="connector0pin_23_" class="st1" cx="2.9" cy="-81.3" r="1.8"/>
					<circle id="connector1pin_8_" class="st1" cx="17.3" cy="-81.3" r="1.8"/>
				</g>
			</g>
		</g>
	</g>
</g>
<g>
	<g transform="translate(22.2075,130.36)">
		<g id="copper0_29_">
			<rect id="square" x="148.7" y="6.8" class="st1" width="4.3" height="4.3"/>
			<circle id="connector0pin_24_" class="st1" cx="150.9" cy="9" r="2.2"/>
			<circle id="connector1pin_9_" class="st1" cx="150.9" cy="23.4" r="2.2"/>
		</g>
	</g>
</g>
<g>
	<g transform="translate(44.0739,149.386)">
		<g id="copper0_30_">
			<circle id="connector0pin_25_" class="st1" cx="117.2" cy="4.3" r="2"/>
		</g>
	</g>
</g>
<g>
	<g transform="translate(135.474,179.186)">
		<g id="copper0_31_">
			<circle id="connector0pin_26_" class="st1" cx="-65.6" cy="4.3" r="2"/>
		</g>
	</g>
</g>
<g>
	<g transform="translate(92.5491,191.77)">
		<g id="copper0_32_">
			<circle id="connector0pin_27_" class="st1" cx="20.3" cy="4.3" r="2"/>
		</g>
	</g>
</g>
<g>
	<g transform="translate(128.674,140.826)">
		<g id="copper0_33_">
			<circle id="connector0pin_28_" class="st1" cx="-52" cy="4.3" r="2"/>
		</g>
	</g>
</g>
<g>
	<g transform="translate(98.8739,156.653)">
		<g id="copper0_34_">
			<circle id="connector0pin_29_" class="st1" cx="7.6" cy="4.3" r="2"/>
		</g>
	</g>
</g>
<g>
	<g transform="translate(7.17049,81.1089)">
		<g id="copper0_35_">
			<circle id="connector0pin_30_" class="st1" cx="190.3" cy="5" r="2.1"/>
			<circle id="connector1pin_10_" class="st1" cx="190.3" cy="12.2" r="2.1"/>
			<circle id="connector2pin" class="st1" cx="190.3" cy="19.4" r="2.1"/>
			<circle id="connector3pin" class="st1" cx="190.3" cy="26.6" r="2.1"/>
		</g>
	</g>
</g>
<g>
	<g transform="translate(7.17049,52.3087)">
		<g id="copper0_36_">
			<circle id="connector0pin_31_" class="st1" cx="190.3" cy="5" r="2.1"/>
			<circle id="connector1pin_11_" class="st1" cx="190.3" cy="12.2" r="2.1"/>
			<circle id="connector2pin_1_" class="st1" cx="190.3" cy="19.4" r="2.1"/>
			<circle id="connector3pin_1_" class="st1" cx="190.3" cy="26.6" r="2.1"/>
		</g>
	</g>
</g>
<g>
	<g transform="translate(43.3483,52.3087)">
		<g id="copper0_37_">
			<circle id="connector0pin_32_" class="st1" cx="118" cy="5" r="2.1"/>
			<circle id="connector1pin_12_" class="st1" cx="118" cy="12.2" r="2.1"/>
			<circle id="connector2pin_2_" class="st1" cx="118" cy="19.4" r="2.1"/>
			<circle id="connector3pin_2_" class="st1" cx="118" cy="26.6" r="2.1"/>
		</g>
	</g>
</g>
<g>
	<g transform="translate(57.7483,66.7087)">
		<g id="copper0_38_">
			<circle id="connector0pin_33_" class="st1" cx="89.2" cy="5" r="2.1"/>
			<circle id="connector1pin_13_" class="st1" cx="89.2" cy="12.2" r="2.1"/>
			<circle id="connector2pin_3_" class="st1" cx="89.2" cy="19.4" r="2.1"/>
			<circle id="connector3pin_3_" class="st1" cx="89.2" cy="26.6" r="2.1"/>
		</g>
	</g>
</g>
<g>
	<g transform="translate(43.3483,81.1089)">
		<g id="copper0_39_">
			<circle id="connector0pin_34_" class="st1" cx="118" cy="5" r="2.1"/>
			<circle id="connector1pin_14_" class="st1" cx="118" cy="12.2" r="2.1"/>
			<circle id="connector2pin_4_" class="st1" cx="118" cy="19.4" r="2.1"/>
			<circle id="connector3pin_4_" class="st1" cx="118" cy="26.6" r="2.1"/>
		</g>
	</g>
</g>
<g>
	<g transform="translate(85.2427,178.801)">
		<g transform="matrix(0,-1,1,0,0,0)">
			<g id="copper0_40_">
				
					<rect x="2.3" y="32.9" transform="matrix(-2.535182e-06 -1 1 -2.535182e-06 -30.5777 39.2176)" class="st1" width="4" height="4"/>
				<circle id="connector0pin_35_" class="st1" cx="4.3" cy="34.9" r="2"/>
				<circle id="connector27pin" class="st1" cx="25.9" cy="34.9" r="2"/>
				<circle id="connector1pin_15_" class="st1" cx="4.3" cy="27.7" r="2"/>
				<circle id="connector26pin" class="st1" cx="25.9" cy="27.7" r="2"/>
				<circle id="connector2pin_5_" class="st1" cx="4.3" cy="20.5" r="2"/>
				<circle id="connector25pin" class="st1" cx="25.9" cy="20.5" r="2"/>
				<circle id="connector3pin_5_" class="st1" cx="4.3" cy="13.3" r="2"/>
				<circle id="connector24pin" class="st1" cx="25.9" cy="13.3" r="2"/>
				<circle id="connector4pin" class="st1" cx="4.3" cy="6.1" r="2"/>
				<circle id="connector23pin" class="st1" cx="25.9" cy="6.1" r="2"/>
				<circle id="connector5pin" class="st1" cx="4.3" cy="-1.1" r="2"/>
				<circle id="connector22pin" class="st1" cx="25.9" cy="-1.1" r="2"/>
				<circle id="connector6pin" class="st1" cx="4.3" cy="-8.3" r="2"/>
				<circle id="connector21pin" class="st1" cx="25.9" cy="-8.3" r="2"/>
				<circle id="connector7pin" class="st1" cx="4.3" cy="-15.5" r="2"/>
				<circle id="connector20pin" class="st1" cx="25.9" cy="-15.5" r="2"/>
				<circle id="connector8pin" class="st1" cx="4.3" cy="-22.7" r="2"/>
				<circle id="connector19pin" class="st1" cx="25.9" cy="-22.7" r="2"/>
				<circle id="connector9pin" class="st1" cx="4.3" cy="-29.9" r="2"/>
				<circle id="connector18pin" class="st1" cx="25.9" cy="-29.9" r="2"/>
				<circle id="connector10pin" class="st1" cx="4.3" cy="-37.1" r="2"/>
				<circle id="connector17pin" class="st1" cx="25.9" cy="-37.1" r="2"/>
				<circle id="connector11pin" class="st1" cx="4.3" cy="-44.3" r="2"/>
				<circle id="connector16pin" class="st1" cx="25.9" cy="-44.3" r="2"/>
				<circle id="connector12pin" class="st1" cx="4.3" cy="-51.5" r="2"/>
				<circle id="connector15pin" class="st1" cx="25.9" cy="-51.5" r="2"/>
				<circle id="connector13pin" class="st1" cx="4.3" cy="-58.7" r="2"/>
				<circle id="connector14pin" class="st1" cx="25.9" cy="-58.7" r="2"/>
			</g>
		</g>
	</g>
</g>
<g>
	<g transform="translate(96.3619,209.651)">
		<g transform="matrix(0,-1,1,0,0,0)">
			<g id="copper0_41_">
				<circle id="connector0pin_36_" class="st1" cx="5" cy="11.9" r="2.1"/>
				<circle id="connector1pin_16_" class="st1" cx="5" cy="4.7" r="2.1"/>
				<circle id="connector2pin_6_" class="st1" cx="5" cy="-2.5" r="2.1"/>
				<circle id="connector3pin_6_" class="st1" cx="5" cy="-9.7" r="2.1"/>
				<circle id="connector4pin_1_" class="st1" cx="5" cy="-16.9" r="2.1"/>
				<circle id="connector5pin_1_" class="st1" cx="5" cy="-24.1" r="2.1"/>
			</g>
		</g>
	</g>
</g>
<g>
	<g transform="translate(84.5227,143.7)">
		<g transform="matrix(0,-1,1,0,0,0)">
			<g id="copper0_42_">
				<circle id="connector0pin_37_" class="st1" cx="5" cy="35.6" r="2.1"/>
				<circle id="connector1pin_17_" class="st1" cx="5" cy="28.4" r="2.1"/>
				<circle id="connector2pin_7_" class="st1" cx="5" cy="21.2" r="2.1"/>
				<circle id="connector3pin_7_" class="st1" cx="5" cy="14" r="2.1"/>
				<circle id="connector4pin_2_" class="st1" cx="5" cy="6.8" r="2.1"/>
				<circle id="connector5pin_2_" class="st1" cx="5" cy="-0.4" r="2.1"/>
			</g>
		</g>
	</g>
</g>
<g>
	<g transform="translate(149.212,143.3)">
		<g transform="matrix(0,-1,1,0,0,0)">
			<g id="copper0_43_">
				<circle id="connector0pin_38_" class="st1" cx="5" cy="-93.8" r="2.1"/>
				<circle id="connector1pin_18_" class="st1" cx="5" cy="-101" r="2.1"/>
				<circle id="connector2pin_8_" class="st1" cx="5" cy="-108.2" r="2.1"/>
				<circle id="connector3pin_8_" class="st1" cx="5" cy="-115.4" r="2.1"/>
				<circle id="connector4pin_3_" class="st1" cx="5" cy="-122.6" r="2.1"/>
			</g>
		</g>
	</g>
</g>
<g>
	<g transform="translate(9.31387,196.294)">
		<g id="copper0_44_">
			<circle id="connector0pin_39_" class="st1" cx="186" cy="5" r="2.1"/>
			<circle id="connector1pin_19_" class="st1" cx="186" cy="12.2" r="2.1"/>
			<circle id="connector2pin_9_" class="st1" cx="186" cy="19.4" r="2.1"/>
			<circle id="connector3pin_9_" class="st1" cx="186" cy="26.6" r="2.1"/>
		</g>
	</g>
</g>
<g>
	<g transform="translate(197.047,196.294)">
		<g id="copper0_45_">
			<circle id="connector0pin_40_" class="st1" cx="-189.4" cy="5" r="2.1"/>
			<circle id="connector1pin_20_" class="st1" cx="-189.4" cy="12.2" r="2.1"/>
			<circle id="connector2pin_10_" class="st1" cx="-189.4" cy="19.4" r="2.1"/>
			<circle id="connector3pin_10_" class="st1" cx="-189.4" cy="26.6" r="2.1"/>
		</g>
	</g>
</g>
<g>
	<g transform="translate(156.481,194.918)">
		<g transform="matrix(0,-1,1,0,0,0)">
			<g id="copper0_46_">
				<circle id="connector0pin_41_" class="st1" cx="5" cy="-108.3" r="2.1"/>
				<circle id="connector1pin_21_" class="st1" cx="5" cy="-115.5" r="2.1"/>
				<circle id="connector2pin_11_" class="st1" cx="5" cy="-122.7" r="2.1"/>
				<circle id="connector3pin_11_" class="st1" cx="5" cy="-129.9" r="2.1"/>
			</g>
		</g>
	</g>
</g>
<g>
	<g transform="translate(84.5227,194.5)">
		<g transform="matrix(0,-1,1,0,0,0)">
			<g id="copper0_47_">
				<circle id="connector0pin_42_" class="st1" cx="5" cy="35.6" r="2.1"/>
				<circle id="connector1pin_22_" class="st1" cx="5" cy="28.4" r="2.1"/>
				<circle id="connector2pin_12_" class="st1" cx="5" cy="21.2" r="2.1"/>
				<circle id="connector3pin_12_" class="st1" cx="5" cy="14" r="2.1"/>
				<circle id="connector4pin_4_" class="st1" cx="5" cy="6.8" r="2.1"/>
				<circle id="connector5pin_3_" class="st1" cx="5" cy="-0.4" r="2.1"/>
			</g>
		</g>
	</g>
</g>
<g>
	<g transform="translate(23.6027,188.25)">
		<g id="copper0_48_">
			<circle id="connector0pin_43_" class="st1" cx="158.2" cy="4.3" r="2"/>
		</g>
	</g>
</g>
<g>
	<g transform="translate(69.2755,166.453)">
		<g id="copper0_49_">
			<circle id="connector0pin_44_" class="st1" cx="66.8" cy="4.3" r="2"/>
		</g>
	</g>
</g>
<g>
	<line class="st4" x1="4.4" y1="108.4" x2="70.8" y2="108.8"/>
</g>
<g>
	<line class="st4" x1="173.1" y1="137.1" x2="173.2" y2="59.3"/>
</g>
<g>
	<line class="st4" x1="159.1" y1="71.7" x2="149.1" y2="71.7"/>
</g>
<g>
	<line class="st4" x1="159.1" y1="78.9" x2="149.1" y2="78.9"/>
</g>
<g>
	<line class="st4" x1="159.1" y1="86.1" x2="149.1" y2="86.1"/>
</g>
<g>
	<line class="st4" x1="159.1" y1="93.3" x2="149.1" y2="93.3"/>
</g>
<g>
	<line class="st4" x1="195.3" y1="86.1" x2="188.9" y2="85.8"/>
</g>
<g>
	<line class="st4" x1="188.9" y1="85.8" x2="188.9" y2="79.2"/>
</g>
<g>
	<line class="st4" x1="188.9" y1="79.2" x2="195.3" y2="79"/>
</g>
<g>
	<line class="st4" x1="182.7" y1="100.6" x2="195.3" y2="100.6"/>
</g>
<g>
	<line class="st4" x1="24.4" y1="94.8" x2="15.8" y2="90.7"/>
</g>
<g>
	<line class="st4" x1="22.8" y1="82.7" x2="16" y2="82.6"/>
</g>
<g>
	<line class="st4" x1="3.7" y1="43.3" x2="3.8" y2="75.3"/>
</g>
<g>
	<line class="st4" x1="11.7" y1="43.9" x2="3.7" y2="43.3"/>
</g>
<g>
	<line class="st4" x1="3.8" y1="75.3" x2="11.4" y2="75.3"/>
</g>
<g>
	<line class="st4" x1="3.2" y1="12.5" x2="3.7" y2="43.6"/>
</g>
<g>
	<line class="st4" x1="11.7" y1="12.7" x2="3.2" y2="12.5"/>
</g>
<g>
	<line class="st4" x1="3.7" y1="43.6" x2="11.7" y2="43.9"/>
</g>
<g>
	<line class="st4" x1="21.6" y1="6.8" x2="145.2" y2="7.2"/>
</g>
<g>
	<line class="st4" x1="207.3" y1="8.1" x2="21.6" y2="6.8"/>
</g>
<g>
	<line class="st4" x1="15.8" y1="11.3" x2="21.6" y2="6.8"/>
</g>
<g>
	<line class="st4" x1="145.2" y1="7.2" x2="146" y2="58.8"/>
</g>
<g>
	<line class="st4" x1="206.6" y1="153.2" x2="207.3" y2="8.1"/>
</g>
<g>
	<line class="st4" x1="146" y1="58.8" x2="159.3" y2="63.8"/>
</g>
<g>
	<line class="st4" x1="175.3" y1="153.7" x2="206.6" y2="153.2"/>
</g>
<g>
	<line class="st4" x1="23.5" y1="20" x2="16.3" y2="19.9"/>
</g>
<g>
	<line class="st4" x1="16.3" y1="51.2" x2="23.1" y2="51.1"/>
</g>
<g>
	<line class="st4" x1="16.3" y1="27.1" x2="39.6" y2="27.1"/>
</g>
<g>
	<line class="st4" x1="31.6" y1="58.1" x2="16.3" y2="58.4"/>
</g>
<g>
	<line class="st4" x1="24.4" y1="189.9" x2="4.1" y2="189.7"/>
</g>
<g>
	<line class="st4" x1="4.1" y1="189.7" x2="4.4" y2="108.4"/>
</g>
<g>
	<line class="st4" x1="10" y1="165.5" x2="10.5" y2="116.4"/>
</g>
<g>
	<line class="st4" x1="29.2" y1="166.3" x2="10" y2="165.5"/>
</g>
<g>
	<line class="st4" x1="32.7" y1="172.7" x2="29.2" y2="166.3"/>
</g>
<g>
	<line class="st4" x1="10.5" y1="116.4" x2="61.4" y2="116.2"/>
</g>
<g>
	<line class="st4" x1="167.6" y1="64.9" x2="167.6" y2="108.7"/>
</g>
<g>
	<line class="st4" x1="163.5" y1="64.7" x2="167.6" y2="64.9"/>
</g>
<g>
	<line class="st4" x1="167.6" y1="108.7" x2="163.5" y2="108.1"/>
</g>
<g>
	<line class="st4" x1="129.7" y1="100.7" x2="159.1" y2="100.6"/>
</g>
<g>
	<line class="st4" x1="130" y1="126.6" x2="129.7" y2="100.7"/>
</g>
<g>
	<line class="st4" x1="197.4" y1="49.2" x2="197.5" y2="55.2"/>
</g>
<g>
	<line class="st4" x1="86.7" y1="206.8" x2="86.8" y2="212"/>
</g>
<g>
	<line class="st4" x1="7.6" y1="220.8" x2="7.6" y2="203.5"/>
</g>
<g>
	<line class="st4" x1="7.4" y1="229.3" x2="7.5" y2="225.1"/>
</g>
<g>
	<line class="st4" x1="175.3" y1="153.8" x2="195.1" y2="153.7"/>
</g>
<g>
	<line class="st4" x1="195.1" y1="153.7" x2="195.3" y2="199.2"/>
</g>
<g>
	<line class="st4" x1="195.3" y1="203.5" x2="195.3" y2="220.8"/>
</g>
<g>
	<line class="st4" x1="134.8" y1="191.2" x2="134.2" y2="200.8"/>
</g>
<g>
	<line class="st4" x1="134.2" y1="200.8" x2="116.4" y2="212"/>
</g>
<g>
	<line class="st4" x1="122" y1="175.3" x2="135.2" y2="181.4"/>
</g>
<g>
	<line class="st4" x1="135.2" y1="181.4" x2="135" y2="187.4"/>
</g>
<g>
	<line class="st4" x1="145.1" y1="139.3" x2="170.9" y2="139.4"/>
</g>
<g>
	<line class="st4" x1="144.9" y1="177.6" x2="145.1" y2="139.3"/>
</g>
<g>
	<line class="st4" x1="163.4" y1="153.7" x2="170.9" y2="153.7"/>
</g>
<g>
	<line class="st4" x1="172.9" y1="172.1" x2="173.1" y2="156"/>
</g>
<g>
	<line class="st4" x1="164.3" y1="177.9" x2="172.9" y2="172.1"/>
</g>
<g>
	<line class="st4" x1="171.8" y1="204.1" x2="171.9" y2="179.5"/>
</g>
<g>
	<line class="st4" x1="162.5" y1="204.1" x2="171.8" y2="204.1"/>
</g>
<g>
	<line class="st4" x1="171.9" y1="179.5" x2="164.7" y2="179.3"/>
</g>
<g>
	<line class="st4" x1="162.4" y1="209.5" x2="162.5" y2="204.1"/>
</g>
<g>
	<line class="st4" x1="181.8" y1="194.6" x2="182" y2="211.6"/>
</g>
<g>
	<line class="st4" x1="182" y1="211.6" x2="178.9" y2="211.6"/>
</g>
<g>
	<line class="st4" x1="162.3" y1="195.6" x2="144.7" y2="195.8"/>
</g>
<g>
	<line class="st4" x1="162.4" y1="188.7" x2="162.3" y2="195.6"/>
</g>
<g>
	<line class="st4" x1="144.7" y1="195.8" x2="144.7" y2="203.9"/>
</g>
<g>
	<line class="st4" x1="144.7" y1="203.9" x2="131.8" y2="210.6"/>
</g>
<g>
	<line class="st4" x1="144.9" y1="160.8" x2="144.9" y2="186.2"/>
</g>
<g>
	<line class="st4" x1="144.9" y1="186.2" x2="160.1" y2="186.4"/>
</g>
<g>
	<line class="st4" x1="146.5" y1="211.6" x2="160.4" y2="211.6"/>
</g>
<g>
	<line class="st4" x1="144.4" y1="226" x2="116.7" y2="225.8"/>
</g>
<g>
	<line class="st4" x1="144.4" y1="213.7" x2="144.4" y2="226"/>
</g>
<g>
	<line class="st4" x1="79.5" y1="226" x2="94.1" y2="225.9"/>
</g>
<g>
	<line class="st4" x1="79.5" y1="226" x2="79.5" y2="206.8"/>
</g>
<g>
	<line class="st4" x1="64.6" y1="225.8" x2="79.5" y2="226"/>
</g>
<g>
	<line class="st4" x1="23" y1="225.8" x2="60.9" y2="225.8"/>
</g>
<g>
	<line class="st4" x1="23.1" y1="220.6" x2="23" y2="225.8"/>
</g>
<g>
	<line class="st5" x1="62.5" y1="176.9" x2="62.5" y2="204.4"/>
</g>
<g>
	<line class="st5" x1="62.5" y1="204.4" x2="62.7" y2="209.1"/>
</g>
<g>
	<line class="st5" x1="53.8" y1="204.2" x2="62.5" y2="204.4"/>
</g>
<g>
	<line class="st4" x1="37.6" y1="202.2" x2="37.7" y2="198.2"/>
</g>
<g>
	<line class="st4" x1="37.7" y1="198.2" x2="55.1" y2="198"/>
</g>
<g>
	<line class="st4" x1="55.1" y1="198" x2="55.3" y2="176.5"/>
</g>
<g>
	<line class="st5" x1="35.3" y1="204.2" x2="25.4" y2="204.3"/>
</g>
<g>
	<line class="st4" x1="76.9" y1="196" x2="76.9" y2="176.5"/>
</g>
<g>
	<line class="st4" x1="86.4" y1="196" x2="76.9" y2="196"/>
</g>
<g>
	<line class="st4" x1="86.6" y1="202.4" x2="86.4" y2="196"/>
</g>
<g>
	<line class="st4" x1="101.1" y1="196.1" x2="105.7" y2="196.2"/>
</g>
<g>
	<line class="st4" x1="101.1" y1="202.4" x2="101.1" y2="196.1"/>
</g>
<g>
	<line class="st4" x1="105.7" y1="196.2" x2="105.7" y2="191.6"/>
</g>
<g>
	<line class="st4" x1="110.3" y1="203.8" x2="127.6" y2="197"/>
</g>
<g>
	<line class="st4" x1="127.6" y1="197" x2="127.7" y2="191.2"/>
</g>
<g>
	<line class="st4" x1="76.9" y1="172.4" x2="76.9" y2="167.3"/>
</g>
<g>
	<line class="st4" x1="153.1" y1="171.9" x2="160.1" y2="172"/>
</g>
<g>
	<line class="st4" x1="138.3" y1="174.6" x2="153.1" y2="171.9"/>
</g>
<g>
	<line class="st4" x1="69.5" y1="165.8" x2="69.7" y2="154.9"/>
</g>
<g>
	<line class="st4" x1="75.6" y1="172.9" x2="69.5" y2="165.8"/>
</g>
<g>
	<line class="st4" x1="26.6" y1="187.7" x2="26.5" y2="176.5"/>
</g>
<g>
	<line class="st4" x1="33.8" y1="187.7" x2="33.7" y2="176.5"/>
</g>
<g>
	<line class="st4" x1="41" y1="187.7" x2="40.9" y2="176.5"/>
</g>
<g>
	<line class="st4" x1="48.2" y1="187.7" x2="48.1" y2="176.5"/>
</g>
<g>
	<line class="st4" x1="26.6" y1="140.4" x2="26.6" y2="150.8"/>
</g>
<g>
	<line class="st4" x1="33.8" y1="140.4" x2="33.8" y2="150.8"/>
</g>
<g>
	<line class="st4" x1="41" y1="140.4" x2="41" y2="150.8"/>
</g>
<g>
	<line class="st4" x1="48.2" y1="140.4" x2="48.2" y2="150.8"/>
</g>
<g>
	<line class="st4" x1="55.4" y1="140.4" x2="55.4" y2="150.8"/>
</g>
<g>
	<line class="st4" x1="76.9" y1="150.8" x2="76.8" y2="147.2"/>
</g>
<g>
	<line class="st4" x1="69.9" y1="181.4" x2="69.8" y2="176.5"/>
</g>
<g>
	<line class="st4" x1="84.1" y1="187.3" x2="84.1" y2="176.5"/>
</g>
<g>
	<line class="st4" x1="91.3" y1="187.3" x2="91.3" y2="176.5"/>
</g>
<g>
	<line class="st4" x1="98.5" y1="187.3" x2="98.5" y2="176.5"/>
</g>
<g>
	<line class="st4" x1="105.7" y1="187.3" x2="105.7" y2="176.5"/>
</g>
<g>
	<line class="st4" x1="112.9" y1="187.3" x2="112.9" y2="176.5"/>
</g>
<g>
	<line class="st4" x1="120.1" y1="176.5" x2="120.1" y2="187.3"/>
</g>
<g>
	<line class="st4" x1="128.5" y1="174.7" x2="128.4" y2="146.1"/>
</g>
<g>
	<line class="st4" x1="122.2" y1="174.5" x2="128.5" y2="174.7"/>
</g>
<g>
	<line class="st4" x1="128.4" y1="146.1" x2="134.2" y2="146.2"/>
</g>
<g>
	<line class="st4" x1="120.1" y1="150.8" x2="120.1" y2="140.8"/>
</g>
<g>
	<line class="st4" x1="112.9" y1="150.8" x2="112.9" y2="140.8"/>
</g>
<g>
	<line class="st4" x1="105.7" y1="150.8" x2="105.7" y2="140.8"/>
</g>
<g>
	<line class="st4" x1="98.5" y1="150.8" x2="98.5" y2="140.8"/>
</g>
<g>
	<line class="st4" x1="91.3" y1="150.8" x2="91.3" y2="140.8"/>
</g>
<g>
	<line class="st4" x1="84.1" y1="150.8" x2="84.1" y2="140.8"/>
</g>
<g>
	<line class="st4" x1="67.7" y1="152.9" x2="64.6" y2="152.9"/>
</g>
<g>
	<line class="st4" x1="74.5" y1="204.6" x2="77.3" y2="204.6"/>
</g>
<g>
	<line class="st4" x1="112.9" y1="194" x2="112.9" y2="191.6"/>
</g>
<g>
	<line class="st4" x1="76.9" y1="160.7" x2="104.4" y2="160.9"/>
</g>
<g>
	<line class="st4" x1="76.9" y1="154.9" x2="76.9" y2="160.7"/>
</g>
</svg>
